G04 #@! TF.GenerationSoftware,KiCad,Pcbnew,(5.1.2)-2*
G04 #@! TF.CreationDate,2019-07-19T01:26:21+02:00*
G04 #@! TF.ProjectId,STM32F407VET6,53544d33-3246-4343-9037-564554362e6b,rev?*
G04 #@! TF.SameCoordinates,Original*
G04 #@! TF.FileFunction,Copper,L2,Bot*
G04 #@! TF.FilePolarity,Positive*
%FSLAX46Y46*%
G04 Gerber Fmt 4.6, Leading zero omitted, Abs format (unit mm)*
G04 Created by KiCad (PCBNEW (5.1.2)-2) date 2019-07-19 01:26:21*
%MOMM*%
%LPD*%
G04 APERTURE LIST*
%ADD10C,1.700000*%
%ADD11R,1.700000X1.700000*%
%ADD12O,1.700000X1.700000*%
%ADD13C,1.524000*%
%ADD14C,1.200000*%
%ADD15R,1.200000X1.200000*%
%ADD16C,3.000000*%
%ADD17R,3.000000X3.000000*%
%ADD18C,0.100000*%
%ADD19C,0.875000*%
%ADD20O,1.700000X1.950000*%
%ADD21O,1.727200X1.727200*%
%ADD22R,1.727200X1.727200*%
%ADD23C,3.500000*%
%ADD24O,1.950000X1.700000*%
%ADD25C,2.000000*%
%ADD26R,6.400000X5.800000*%
%ADD27R,2.200000X1.200000*%
%ADD28O,2.000000X1.700000*%
%ADD29C,0.800000*%
%ADD30C,1.500000*%
%ADD31C,0.250000*%
%ADD32C,2.000000*%
%ADD33C,1.000000*%
%ADD34C,0.500000*%
%ADD35C,0.200000*%
%ADD36C,4.000000*%
%ADD37C,1.300000*%
%ADD38C,0.700000*%
%ADD39C,0.400000*%
G04 APERTURE END LIST*
D10*
X174853600Y-85725000D03*
X174853600Y-88265000D03*
X174853600Y-90805000D03*
X174853600Y-93345000D03*
X174853600Y-95885000D03*
X174853600Y-98425000D03*
X174853600Y-100965000D03*
X174853600Y-103505000D03*
X162153600Y-103505000D03*
X162153600Y-100965000D03*
X162153600Y-98425000D03*
X162153600Y-95885000D03*
X162153600Y-93345000D03*
X162153600Y-90805000D03*
X162153600Y-88265000D03*
X162153600Y-85725000D03*
X174853600Y-60725000D03*
X174853600Y-63265000D03*
X174853600Y-65805000D03*
X174853600Y-68345000D03*
X174853600Y-70885000D03*
X174853600Y-73425000D03*
X174853600Y-75965000D03*
X174853600Y-78505000D03*
X162153600Y-78505000D03*
X162153600Y-75965000D03*
X162153600Y-73425000D03*
X162153600Y-70885000D03*
X162153600Y-68345000D03*
X162153600Y-65805000D03*
X162153600Y-63265000D03*
X162153600Y-60725000D03*
D11*
X124460000Y-73075800D03*
D12*
X114122200Y-66624200D03*
X114122200Y-64084200D03*
D11*
X114122200Y-61544200D03*
D12*
X150317200Y-135077200D03*
X147777200Y-135077200D03*
D11*
X145237200Y-135077200D03*
D12*
X159410400Y-135051800D03*
X156870400Y-135051800D03*
D11*
X154330400Y-135051800D03*
D13*
X133477000Y-68600800D03*
X133477000Y-59486800D03*
X118237000Y-68600800D03*
X118237000Y-59486800D03*
D12*
X129540000Y-120319800D03*
X132080000Y-120319800D03*
X134620000Y-120319800D03*
D11*
X137160000Y-120319800D03*
D10*
X150353600Y-85725000D03*
X150353600Y-88265000D03*
X150353600Y-90805000D03*
X150353600Y-93345000D03*
X150353600Y-95885000D03*
X150353600Y-98425000D03*
X150353600Y-100965000D03*
X150353600Y-103505000D03*
X137653600Y-103505000D03*
X137653600Y-100965000D03*
X137653600Y-98425000D03*
X137653600Y-95885000D03*
X137653600Y-93345000D03*
X137653600Y-90805000D03*
X137653600Y-88265000D03*
X137653600Y-85725000D03*
X150353600Y-60725000D03*
X150353600Y-63265000D03*
X150353600Y-65805000D03*
X150353600Y-68345000D03*
X150353600Y-70885000D03*
X150353600Y-73425000D03*
X150353600Y-75965000D03*
X150353600Y-78505000D03*
X137653600Y-78505000D03*
X137653600Y-75965000D03*
X137653600Y-73425000D03*
X137653600Y-70885000D03*
X137653600Y-68345000D03*
X137653600Y-65805000D03*
X137653600Y-63265000D03*
X137653600Y-60725000D03*
D12*
X124460000Y-88900000D03*
X121920000Y-88900000D03*
X124460000Y-86360000D03*
D11*
X121920000Y-86360000D03*
D12*
X124460000Y-121920000D03*
X121920000Y-121920000D03*
X124460000Y-119380000D03*
X121920000Y-119380000D03*
X124460000Y-116840000D03*
X121920000Y-116840000D03*
X124460000Y-114300000D03*
X121920000Y-114300000D03*
X124460000Y-111760000D03*
X121920000Y-111760000D03*
X124460000Y-109220000D03*
X121920000Y-109220000D03*
X124460000Y-106680000D03*
X121920000Y-106680000D03*
X124460000Y-104140000D03*
X121920000Y-104140000D03*
X124460000Y-101600000D03*
X121920000Y-101600000D03*
X124460000Y-99060000D03*
X121920000Y-99060000D03*
X124460000Y-96520000D03*
D11*
X121920000Y-96520000D03*
D12*
X124460000Y-142240000D03*
X121920000Y-142240000D03*
X124460000Y-139700000D03*
X121920000Y-139700000D03*
X124460000Y-137160000D03*
D11*
X121920000Y-137160000D03*
D14*
X124339600Y-77673200D03*
D15*
X126339600Y-77673200D03*
D14*
X129664200Y-93040200D03*
D15*
X131664200Y-93040200D03*
D14*
X129664200Y-106540200D03*
D15*
X131664200Y-106540200D03*
D14*
X137164200Y-112540200D03*
D15*
X137164200Y-114540200D03*
D16*
X115824000Y-73202800D03*
D17*
X115824000Y-78282800D03*
D16*
X115773200Y-84378800D03*
D17*
X115773200Y-89458800D03*
D16*
X115722400Y-95707200D03*
D17*
X115722400Y-100787200D03*
D16*
X117080800Y-109169200D03*
X117080800Y-116789200D03*
X117030000Y-126695200D03*
X117030000Y-134315200D03*
D18*
G36*
X195058391Y-121446053D02*
G01*
X195079626Y-121449203D01*
X195100450Y-121454419D01*
X195120662Y-121461651D01*
X195140068Y-121470830D01*
X195158481Y-121481866D01*
X195175724Y-121494654D01*
X195191630Y-121509070D01*
X195206046Y-121524976D01*
X195218834Y-121542219D01*
X195229870Y-121560632D01*
X195239049Y-121580038D01*
X195246281Y-121600250D01*
X195251497Y-121621074D01*
X195254647Y-121642309D01*
X195255700Y-121663750D01*
X195255700Y-122176250D01*
X195254647Y-122197691D01*
X195251497Y-122218926D01*
X195246281Y-122239750D01*
X195239049Y-122259962D01*
X195229870Y-122279368D01*
X195218834Y-122297781D01*
X195206046Y-122315024D01*
X195191630Y-122330930D01*
X195175724Y-122345346D01*
X195158481Y-122358134D01*
X195140068Y-122369170D01*
X195120662Y-122378349D01*
X195100450Y-122385581D01*
X195079626Y-122390797D01*
X195058391Y-122393947D01*
X195036950Y-122395000D01*
X194599450Y-122395000D01*
X194578009Y-122393947D01*
X194556774Y-122390797D01*
X194535950Y-122385581D01*
X194515738Y-122378349D01*
X194496332Y-122369170D01*
X194477919Y-122358134D01*
X194460676Y-122345346D01*
X194444770Y-122330930D01*
X194430354Y-122315024D01*
X194417566Y-122297781D01*
X194406530Y-122279368D01*
X194397351Y-122259962D01*
X194390119Y-122239750D01*
X194384903Y-122218926D01*
X194381753Y-122197691D01*
X194380700Y-122176250D01*
X194380700Y-121663750D01*
X194381753Y-121642309D01*
X194384903Y-121621074D01*
X194390119Y-121600250D01*
X194397351Y-121580038D01*
X194406530Y-121560632D01*
X194417566Y-121542219D01*
X194430354Y-121524976D01*
X194444770Y-121509070D01*
X194460676Y-121494654D01*
X194477919Y-121481866D01*
X194496332Y-121470830D01*
X194515738Y-121461651D01*
X194535950Y-121454419D01*
X194556774Y-121449203D01*
X194578009Y-121446053D01*
X194599450Y-121445000D01*
X195036950Y-121445000D01*
X195058391Y-121446053D01*
X195058391Y-121446053D01*
G37*
D19*
X194818200Y-121920000D03*
D18*
G36*
X193483391Y-121446053D02*
G01*
X193504626Y-121449203D01*
X193525450Y-121454419D01*
X193545662Y-121461651D01*
X193565068Y-121470830D01*
X193583481Y-121481866D01*
X193600724Y-121494654D01*
X193616630Y-121509070D01*
X193631046Y-121524976D01*
X193643834Y-121542219D01*
X193654870Y-121560632D01*
X193664049Y-121580038D01*
X193671281Y-121600250D01*
X193676497Y-121621074D01*
X193679647Y-121642309D01*
X193680700Y-121663750D01*
X193680700Y-122176250D01*
X193679647Y-122197691D01*
X193676497Y-122218926D01*
X193671281Y-122239750D01*
X193664049Y-122259962D01*
X193654870Y-122279368D01*
X193643834Y-122297781D01*
X193631046Y-122315024D01*
X193616630Y-122330930D01*
X193600724Y-122345346D01*
X193583481Y-122358134D01*
X193565068Y-122369170D01*
X193545662Y-122378349D01*
X193525450Y-122385581D01*
X193504626Y-122390797D01*
X193483391Y-122393947D01*
X193461950Y-122395000D01*
X193024450Y-122395000D01*
X193003009Y-122393947D01*
X192981774Y-122390797D01*
X192960950Y-122385581D01*
X192940738Y-122378349D01*
X192921332Y-122369170D01*
X192902919Y-122358134D01*
X192885676Y-122345346D01*
X192869770Y-122330930D01*
X192855354Y-122315024D01*
X192842566Y-122297781D01*
X192831530Y-122279368D01*
X192822351Y-122259962D01*
X192815119Y-122239750D01*
X192809903Y-122218926D01*
X192806753Y-122197691D01*
X192805700Y-122176250D01*
X192805700Y-121663750D01*
X192806753Y-121642309D01*
X192809903Y-121621074D01*
X192815119Y-121600250D01*
X192822351Y-121580038D01*
X192831530Y-121560632D01*
X192842566Y-121542219D01*
X192855354Y-121524976D01*
X192869770Y-121509070D01*
X192885676Y-121494654D01*
X192902919Y-121481866D01*
X192921332Y-121470830D01*
X192940738Y-121461651D01*
X192960950Y-121454419D01*
X192981774Y-121449203D01*
X193003009Y-121446053D01*
X193024450Y-121445000D01*
X193461950Y-121445000D01*
X193483391Y-121446053D01*
X193483391Y-121446053D01*
G37*
D19*
X193243200Y-121920000D03*
D18*
G36*
X195058391Y-113699053D02*
G01*
X195079626Y-113702203D01*
X195100450Y-113707419D01*
X195120662Y-113714651D01*
X195140068Y-113723830D01*
X195158481Y-113734866D01*
X195175724Y-113747654D01*
X195191630Y-113762070D01*
X195206046Y-113777976D01*
X195218834Y-113795219D01*
X195229870Y-113813632D01*
X195239049Y-113833038D01*
X195246281Y-113853250D01*
X195251497Y-113874074D01*
X195254647Y-113895309D01*
X195255700Y-113916750D01*
X195255700Y-114429250D01*
X195254647Y-114450691D01*
X195251497Y-114471926D01*
X195246281Y-114492750D01*
X195239049Y-114512962D01*
X195229870Y-114532368D01*
X195218834Y-114550781D01*
X195206046Y-114568024D01*
X195191630Y-114583930D01*
X195175724Y-114598346D01*
X195158481Y-114611134D01*
X195140068Y-114622170D01*
X195120662Y-114631349D01*
X195100450Y-114638581D01*
X195079626Y-114643797D01*
X195058391Y-114646947D01*
X195036950Y-114648000D01*
X194599450Y-114648000D01*
X194578009Y-114646947D01*
X194556774Y-114643797D01*
X194535950Y-114638581D01*
X194515738Y-114631349D01*
X194496332Y-114622170D01*
X194477919Y-114611134D01*
X194460676Y-114598346D01*
X194444770Y-114583930D01*
X194430354Y-114568024D01*
X194417566Y-114550781D01*
X194406530Y-114532368D01*
X194397351Y-114512962D01*
X194390119Y-114492750D01*
X194384903Y-114471926D01*
X194381753Y-114450691D01*
X194380700Y-114429250D01*
X194380700Y-113916750D01*
X194381753Y-113895309D01*
X194384903Y-113874074D01*
X194390119Y-113853250D01*
X194397351Y-113833038D01*
X194406530Y-113813632D01*
X194417566Y-113795219D01*
X194430354Y-113777976D01*
X194444770Y-113762070D01*
X194460676Y-113747654D01*
X194477919Y-113734866D01*
X194496332Y-113723830D01*
X194515738Y-113714651D01*
X194535950Y-113707419D01*
X194556774Y-113702203D01*
X194578009Y-113699053D01*
X194599450Y-113698000D01*
X195036950Y-113698000D01*
X195058391Y-113699053D01*
X195058391Y-113699053D01*
G37*
D19*
X194818200Y-114173000D03*
D18*
G36*
X193483391Y-113699053D02*
G01*
X193504626Y-113702203D01*
X193525450Y-113707419D01*
X193545662Y-113714651D01*
X193565068Y-113723830D01*
X193583481Y-113734866D01*
X193600724Y-113747654D01*
X193616630Y-113762070D01*
X193631046Y-113777976D01*
X193643834Y-113795219D01*
X193654870Y-113813632D01*
X193664049Y-113833038D01*
X193671281Y-113853250D01*
X193676497Y-113874074D01*
X193679647Y-113895309D01*
X193680700Y-113916750D01*
X193680700Y-114429250D01*
X193679647Y-114450691D01*
X193676497Y-114471926D01*
X193671281Y-114492750D01*
X193664049Y-114512962D01*
X193654870Y-114532368D01*
X193643834Y-114550781D01*
X193631046Y-114568024D01*
X193616630Y-114583930D01*
X193600724Y-114598346D01*
X193583481Y-114611134D01*
X193565068Y-114622170D01*
X193545662Y-114631349D01*
X193525450Y-114638581D01*
X193504626Y-114643797D01*
X193483391Y-114646947D01*
X193461950Y-114648000D01*
X193024450Y-114648000D01*
X193003009Y-114646947D01*
X192981774Y-114643797D01*
X192960950Y-114638581D01*
X192940738Y-114631349D01*
X192921332Y-114622170D01*
X192902919Y-114611134D01*
X192885676Y-114598346D01*
X192869770Y-114583930D01*
X192855354Y-114568024D01*
X192842566Y-114550781D01*
X192831530Y-114532368D01*
X192822351Y-114512962D01*
X192815119Y-114492750D01*
X192809903Y-114471926D01*
X192806753Y-114450691D01*
X192805700Y-114429250D01*
X192805700Y-113916750D01*
X192806753Y-113895309D01*
X192809903Y-113874074D01*
X192815119Y-113853250D01*
X192822351Y-113833038D01*
X192831530Y-113813632D01*
X192842566Y-113795219D01*
X192855354Y-113777976D01*
X192869770Y-113762070D01*
X192885676Y-113747654D01*
X192902919Y-113734866D01*
X192921332Y-113723830D01*
X192940738Y-113714651D01*
X192960950Y-113707419D01*
X192981774Y-113702203D01*
X193003009Y-113699053D01*
X193024450Y-113698000D01*
X193461950Y-113698000D01*
X193483391Y-113699053D01*
X193483391Y-113699053D01*
G37*
D19*
X193243200Y-114173000D03*
D12*
X185369200Y-148386800D03*
X182829200Y-148386800D03*
D11*
X180289200Y-148386800D03*
D20*
X189454800Y-154127200D03*
X186954800Y-154127200D03*
D18*
G36*
X185079304Y-153153404D02*
G01*
X185103573Y-153157004D01*
X185127371Y-153162965D01*
X185150471Y-153171230D01*
X185172649Y-153181720D01*
X185193693Y-153194333D01*
X185213398Y-153208947D01*
X185231577Y-153225423D01*
X185248053Y-153243602D01*
X185262667Y-153263307D01*
X185275280Y-153284351D01*
X185285770Y-153306529D01*
X185294035Y-153329629D01*
X185299996Y-153353427D01*
X185303596Y-153377696D01*
X185304800Y-153402200D01*
X185304800Y-154852200D01*
X185303596Y-154876704D01*
X185299996Y-154900973D01*
X185294035Y-154924771D01*
X185285770Y-154947871D01*
X185275280Y-154970049D01*
X185262667Y-154991093D01*
X185248053Y-155010798D01*
X185231577Y-155028977D01*
X185213398Y-155045453D01*
X185193693Y-155060067D01*
X185172649Y-155072680D01*
X185150471Y-155083170D01*
X185127371Y-155091435D01*
X185103573Y-155097396D01*
X185079304Y-155100996D01*
X185054800Y-155102200D01*
X183854800Y-155102200D01*
X183830296Y-155100996D01*
X183806027Y-155097396D01*
X183782229Y-155091435D01*
X183759129Y-155083170D01*
X183736951Y-155072680D01*
X183715907Y-155060067D01*
X183696202Y-155045453D01*
X183678023Y-155028977D01*
X183661547Y-155010798D01*
X183646933Y-154991093D01*
X183634320Y-154970049D01*
X183623830Y-154947871D01*
X183615565Y-154924771D01*
X183609604Y-154900973D01*
X183606004Y-154876704D01*
X183604800Y-154852200D01*
X183604800Y-153402200D01*
X183606004Y-153377696D01*
X183609604Y-153353427D01*
X183615565Y-153329629D01*
X183623830Y-153306529D01*
X183634320Y-153284351D01*
X183646933Y-153263307D01*
X183661547Y-153243602D01*
X183678023Y-153225423D01*
X183696202Y-153208947D01*
X183715907Y-153194333D01*
X183736951Y-153181720D01*
X183759129Y-153171230D01*
X183782229Y-153162965D01*
X183806027Y-153157004D01*
X183830296Y-153153404D01*
X183854800Y-153152200D01*
X185054800Y-153152200D01*
X185079304Y-153153404D01*
X185079304Y-153153404D01*
G37*
D10*
X184454800Y-154127200D03*
D21*
X164875000Y-140716000D03*
X164875000Y-143256000D03*
X162335000Y-140716000D03*
X162335000Y-143256000D03*
X159795000Y-140716000D03*
X159795000Y-143256000D03*
X157255000Y-140716000D03*
X157255000Y-143256000D03*
X154715000Y-140716000D03*
D22*
X154715000Y-143256000D03*
D21*
X142875000Y-140716000D03*
X142875000Y-143256000D03*
X140335000Y-140716000D03*
X140335000Y-143256000D03*
X137795000Y-140716000D03*
X137795000Y-143256000D03*
X135255000Y-140716000D03*
X135255000Y-143256000D03*
X132715000Y-140716000D03*
D22*
X132715000Y-143256000D03*
D23*
X202449000Y-123094000D03*
X202449000Y-111054000D03*
D10*
X199739000Y-115824000D03*
X199739000Y-118324000D03*
X197739000Y-118324000D03*
D11*
X197739000Y-115824000D03*
D18*
G36*
X180962504Y-134660204D02*
G01*
X180986773Y-134663804D01*
X181010571Y-134669765D01*
X181033671Y-134678030D01*
X181055849Y-134688520D01*
X181076893Y-134701133D01*
X181096598Y-134715747D01*
X181114777Y-134732223D01*
X181131253Y-134750402D01*
X181145867Y-134770107D01*
X181158480Y-134791151D01*
X181168970Y-134813329D01*
X181177235Y-134836429D01*
X181183196Y-134860227D01*
X181186796Y-134884496D01*
X181188000Y-134909000D01*
X181188000Y-136109000D01*
X181186796Y-136133504D01*
X181183196Y-136157773D01*
X181177235Y-136181571D01*
X181168970Y-136204671D01*
X181158480Y-136226849D01*
X181145867Y-136247893D01*
X181131253Y-136267598D01*
X181114777Y-136285777D01*
X181096598Y-136302253D01*
X181076893Y-136316867D01*
X181055849Y-136329480D01*
X181033671Y-136339970D01*
X181010571Y-136348235D01*
X180986773Y-136354196D01*
X180962504Y-136357796D01*
X180938000Y-136359000D01*
X179488000Y-136359000D01*
X179463496Y-136357796D01*
X179439227Y-136354196D01*
X179415429Y-136348235D01*
X179392329Y-136339970D01*
X179370151Y-136329480D01*
X179349107Y-136316867D01*
X179329402Y-136302253D01*
X179311223Y-136285777D01*
X179294747Y-136267598D01*
X179280133Y-136247893D01*
X179267520Y-136226849D01*
X179257030Y-136204671D01*
X179248765Y-136181571D01*
X179242804Y-136157773D01*
X179239204Y-136133504D01*
X179238000Y-136109000D01*
X179238000Y-134909000D01*
X179239204Y-134884496D01*
X179242804Y-134860227D01*
X179248765Y-134836429D01*
X179257030Y-134813329D01*
X179267520Y-134791151D01*
X179280133Y-134770107D01*
X179294747Y-134750402D01*
X179311223Y-134732223D01*
X179329402Y-134715747D01*
X179349107Y-134701133D01*
X179370151Y-134688520D01*
X179392329Y-134678030D01*
X179415429Y-134669765D01*
X179439227Y-134663804D01*
X179463496Y-134660204D01*
X179488000Y-134659000D01*
X180938000Y-134659000D01*
X180962504Y-134660204D01*
X180962504Y-134660204D01*
G37*
D10*
X180213000Y-135509000D03*
D24*
X180213000Y-133009000D03*
X180213000Y-130509000D03*
X180213000Y-128009000D03*
X180213000Y-125509000D03*
X180213000Y-123009000D03*
X180213000Y-120509000D03*
X180213000Y-118009000D03*
X180213000Y-115509000D03*
D25*
X199114800Y-106527600D03*
X194614800Y-106527600D03*
X199114800Y-100027600D03*
X194614800Y-100027600D03*
D18*
G36*
X194333691Y-109240553D02*
G01*
X194354926Y-109243703D01*
X194375750Y-109248919D01*
X194395962Y-109256151D01*
X194415368Y-109265330D01*
X194433781Y-109276366D01*
X194451024Y-109289154D01*
X194466930Y-109303570D01*
X194481346Y-109319476D01*
X194494134Y-109336719D01*
X194505170Y-109355132D01*
X194514349Y-109374538D01*
X194521581Y-109394750D01*
X194526797Y-109415574D01*
X194529947Y-109436809D01*
X194531000Y-109458250D01*
X194531000Y-109895750D01*
X194529947Y-109917191D01*
X194526797Y-109938426D01*
X194521581Y-109959250D01*
X194514349Y-109979462D01*
X194505170Y-109998868D01*
X194494134Y-110017281D01*
X194481346Y-110034524D01*
X194466930Y-110050430D01*
X194451024Y-110064846D01*
X194433781Y-110077634D01*
X194415368Y-110088670D01*
X194395962Y-110097849D01*
X194375750Y-110105081D01*
X194354926Y-110110297D01*
X194333691Y-110113447D01*
X194312250Y-110114500D01*
X193799750Y-110114500D01*
X193778309Y-110113447D01*
X193757074Y-110110297D01*
X193736250Y-110105081D01*
X193716038Y-110097849D01*
X193696632Y-110088670D01*
X193678219Y-110077634D01*
X193660976Y-110064846D01*
X193645070Y-110050430D01*
X193630654Y-110034524D01*
X193617866Y-110017281D01*
X193606830Y-109998868D01*
X193597651Y-109979462D01*
X193590419Y-109959250D01*
X193585203Y-109938426D01*
X193582053Y-109917191D01*
X193581000Y-109895750D01*
X193581000Y-109458250D01*
X193582053Y-109436809D01*
X193585203Y-109415574D01*
X193590419Y-109394750D01*
X193597651Y-109374538D01*
X193606830Y-109355132D01*
X193617866Y-109336719D01*
X193630654Y-109319476D01*
X193645070Y-109303570D01*
X193660976Y-109289154D01*
X193678219Y-109276366D01*
X193696632Y-109265330D01*
X193716038Y-109256151D01*
X193736250Y-109248919D01*
X193757074Y-109243703D01*
X193778309Y-109240553D01*
X193799750Y-109239500D01*
X194312250Y-109239500D01*
X194333691Y-109240553D01*
X194333691Y-109240553D01*
G37*
D19*
X194056000Y-109677000D03*
D18*
G36*
X194333691Y-110815553D02*
G01*
X194354926Y-110818703D01*
X194375750Y-110823919D01*
X194395962Y-110831151D01*
X194415368Y-110840330D01*
X194433781Y-110851366D01*
X194451024Y-110864154D01*
X194466930Y-110878570D01*
X194481346Y-110894476D01*
X194494134Y-110911719D01*
X194505170Y-110930132D01*
X194514349Y-110949538D01*
X194521581Y-110969750D01*
X194526797Y-110990574D01*
X194529947Y-111011809D01*
X194531000Y-111033250D01*
X194531000Y-111470750D01*
X194529947Y-111492191D01*
X194526797Y-111513426D01*
X194521581Y-111534250D01*
X194514349Y-111554462D01*
X194505170Y-111573868D01*
X194494134Y-111592281D01*
X194481346Y-111609524D01*
X194466930Y-111625430D01*
X194451024Y-111639846D01*
X194433781Y-111652634D01*
X194415368Y-111663670D01*
X194395962Y-111672849D01*
X194375750Y-111680081D01*
X194354926Y-111685297D01*
X194333691Y-111688447D01*
X194312250Y-111689500D01*
X193799750Y-111689500D01*
X193778309Y-111688447D01*
X193757074Y-111685297D01*
X193736250Y-111680081D01*
X193716038Y-111672849D01*
X193696632Y-111663670D01*
X193678219Y-111652634D01*
X193660976Y-111639846D01*
X193645070Y-111625430D01*
X193630654Y-111609524D01*
X193617866Y-111592281D01*
X193606830Y-111573868D01*
X193597651Y-111554462D01*
X193590419Y-111534250D01*
X193585203Y-111513426D01*
X193582053Y-111492191D01*
X193581000Y-111470750D01*
X193581000Y-111033250D01*
X193582053Y-111011809D01*
X193585203Y-110990574D01*
X193590419Y-110969750D01*
X193597651Y-110949538D01*
X193606830Y-110930132D01*
X193617866Y-110911719D01*
X193630654Y-110894476D01*
X193645070Y-110878570D01*
X193660976Y-110864154D01*
X193678219Y-110851366D01*
X193696632Y-110840330D01*
X193716038Y-110831151D01*
X193736250Y-110823919D01*
X193757074Y-110818703D01*
X193778309Y-110815553D01*
X193799750Y-110814500D01*
X194312250Y-110814500D01*
X194333691Y-110815553D01*
X194333691Y-110815553D01*
G37*
D19*
X194056000Y-111252000D03*
D24*
X181745000Y-90365200D03*
X181745000Y-87865200D03*
X181745000Y-85365200D03*
D18*
G36*
X182494504Y-82016404D02*
G01*
X182518773Y-82020004D01*
X182542571Y-82025965D01*
X182565671Y-82034230D01*
X182587849Y-82044720D01*
X182608893Y-82057333D01*
X182628598Y-82071947D01*
X182646777Y-82088423D01*
X182663253Y-82106602D01*
X182677867Y-82126307D01*
X182690480Y-82147351D01*
X182700970Y-82169529D01*
X182709235Y-82192629D01*
X182715196Y-82216427D01*
X182718796Y-82240696D01*
X182720000Y-82265200D01*
X182720000Y-83465200D01*
X182718796Y-83489704D01*
X182715196Y-83513973D01*
X182709235Y-83537771D01*
X182700970Y-83560871D01*
X182690480Y-83583049D01*
X182677867Y-83604093D01*
X182663253Y-83623798D01*
X182646777Y-83641977D01*
X182628598Y-83658453D01*
X182608893Y-83673067D01*
X182587849Y-83685680D01*
X182565671Y-83696170D01*
X182542571Y-83704435D01*
X182518773Y-83710396D01*
X182494504Y-83713996D01*
X182470000Y-83715200D01*
X181020000Y-83715200D01*
X180995496Y-83713996D01*
X180971227Y-83710396D01*
X180947429Y-83704435D01*
X180924329Y-83696170D01*
X180902151Y-83685680D01*
X180881107Y-83673067D01*
X180861402Y-83658453D01*
X180843223Y-83641977D01*
X180826747Y-83623798D01*
X180812133Y-83604093D01*
X180799520Y-83583049D01*
X180789030Y-83560871D01*
X180780765Y-83537771D01*
X180774804Y-83513973D01*
X180771204Y-83489704D01*
X180770000Y-83465200D01*
X180770000Y-82265200D01*
X180771204Y-82240696D01*
X180774804Y-82216427D01*
X180780765Y-82192629D01*
X180789030Y-82169529D01*
X180799520Y-82147351D01*
X180812133Y-82126307D01*
X180826747Y-82106602D01*
X180843223Y-82088423D01*
X180861402Y-82071947D01*
X180881107Y-82057333D01*
X180902151Y-82044720D01*
X180924329Y-82034230D01*
X180947429Y-82025965D01*
X180971227Y-82020004D01*
X180995496Y-82016404D01*
X181020000Y-82015200D01*
X182470000Y-82015200D01*
X182494504Y-82016404D01*
X182494504Y-82016404D01*
G37*
D10*
X181745000Y-82865200D03*
D26*
X154728600Y-120929400D03*
D27*
X148428600Y-118649400D03*
X148428600Y-123209400D03*
D24*
X156745000Y-73365200D03*
X156745000Y-70865200D03*
X156745000Y-68365200D03*
D18*
G36*
X157494504Y-65016404D02*
G01*
X157518773Y-65020004D01*
X157542571Y-65025965D01*
X157565671Y-65034230D01*
X157587849Y-65044720D01*
X157608893Y-65057333D01*
X157628598Y-65071947D01*
X157646777Y-65088423D01*
X157663253Y-65106602D01*
X157677867Y-65126307D01*
X157690480Y-65147351D01*
X157700970Y-65169529D01*
X157709235Y-65192629D01*
X157715196Y-65216427D01*
X157718796Y-65240696D01*
X157720000Y-65265200D01*
X157720000Y-66465200D01*
X157718796Y-66489704D01*
X157715196Y-66513973D01*
X157709235Y-66537771D01*
X157700970Y-66560871D01*
X157690480Y-66583049D01*
X157677867Y-66604093D01*
X157663253Y-66623798D01*
X157646777Y-66641977D01*
X157628598Y-66658453D01*
X157608893Y-66673067D01*
X157587849Y-66685680D01*
X157565671Y-66696170D01*
X157542571Y-66704435D01*
X157518773Y-66710396D01*
X157494504Y-66713996D01*
X157470000Y-66715200D01*
X156020000Y-66715200D01*
X155995496Y-66713996D01*
X155971227Y-66710396D01*
X155947429Y-66704435D01*
X155924329Y-66696170D01*
X155902151Y-66685680D01*
X155881107Y-66673067D01*
X155861402Y-66658453D01*
X155843223Y-66641977D01*
X155826747Y-66623798D01*
X155812133Y-66604093D01*
X155799520Y-66583049D01*
X155789030Y-66560871D01*
X155780765Y-66537771D01*
X155774804Y-66513973D01*
X155771204Y-66489704D01*
X155770000Y-66465200D01*
X155770000Y-65265200D01*
X155771204Y-65240696D01*
X155774804Y-65216427D01*
X155780765Y-65192629D01*
X155789030Y-65169529D01*
X155799520Y-65147351D01*
X155812133Y-65126307D01*
X155826747Y-65106602D01*
X155843223Y-65088423D01*
X155861402Y-65071947D01*
X155881107Y-65057333D01*
X155902151Y-65044720D01*
X155924329Y-65034230D01*
X155947429Y-65025965D01*
X155971227Y-65020004D01*
X155995496Y-65016404D01*
X156020000Y-65015200D01*
X157470000Y-65015200D01*
X157494504Y-65016404D01*
X157494504Y-65016404D01*
G37*
D10*
X156745000Y-65865200D03*
D24*
X156745000Y-98365200D03*
X156745000Y-95865200D03*
X156745000Y-93365200D03*
D18*
G36*
X157494504Y-90016404D02*
G01*
X157518773Y-90020004D01*
X157542571Y-90025965D01*
X157565671Y-90034230D01*
X157587849Y-90044720D01*
X157608893Y-90057333D01*
X157628598Y-90071947D01*
X157646777Y-90088423D01*
X157663253Y-90106602D01*
X157677867Y-90126307D01*
X157690480Y-90147351D01*
X157700970Y-90169529D01*
X157709235Y-90192629D01*
X157715196Y-90216427D01*
X157718796Y-90240696D01*
X157720000Y-90265200D01*
X157720000Y-91465200D01*
X157718796Y-91489704D01*
X157715196Y-91513973D01*
X157709235Y-91537771D01*
X157700970Y-91560871D01*
X157690480Y-91583049D01*
X157677867Y-91604093D01*
X157663253Y-91623798D01*
X157646777Y-91641977D01*
X157628598Y-91658453D01*
X157608893Y-91673067D01*
X157587849Y-91685680D01*
X157565671Y-91696170D01*
X157542571Y-91704435D01*
X157518773Y-91710396D01*
X157494504Y-91713996D01*
X157470000Y-91715200D01*
X156020000Y-91715200D01*
X155995496Y-91713996D01*
X155971227Y-91710396D01*
X155947429Y-91704435D01*
X155924329Y-91696170D01*
X155902151Y-91685680D01*
X155881107Y-91673067D01*
X155861402Y-91658453D01*
X155843223Y-91641977D01*
X155826747Y-91623798D01*
X155812133Y-91604093D01*
X155799520Y-91583049D01*
X155789030Y-91560871D01*
X155780765Y-91537771D01*
X155774804Y-91513973D01*
X155771204Y-91489704D01*
X155770000Y-91465200D01*
X155770000Y-90265200D01*
X155771204Y-90240696D01*
X155774804Y-90216427D01*
X155780765Y-90192629D01*
X155789030Y-90169529D01*
X155799520Y-90147351D01*
X155812133Y-90126307D01*
X155826747Y-90106602D01*
X155843223Y-90088423D01*
X155861402Y-90071947D01*
X155881107Y-90057333D01*
X155902151Y-90044720D01*
X155924329Y-90034230D01*
X155947429Y-90025965D01*
X155971227Y-90020004D01*
X155995496Y-90016404D01*
X156020000Y-90015200D01*
X157470000Y-90015200D01*
X157494504Y-90016404D01*
X157494504Y-90016404D01*
G37*
D10*
X156745000Y-90865200D03*
D20*
X201215000Y-133096000D03*
X198715000Y-133096000D03*
D18*
G36*
X196839504Y-132122204D02*
G01*
X196863773Y-132125804D01*
X196887571Y-132131765D01*
X196910671Y-132140030D01*
X196932849Y-132150520D01*
X196953893Y-132163133D01*
X196973598Y-132177747D01*
X196991777Y-132194223D01*
X197008253Y-132212402D01*
X197022867Y-132232107D01*
X197035480Y-132253151D01*
X197045970Y-132275329D01*
X197054235Y-132298429D01*
X197060196Y-132322227D01*
X197063796Y-132346496D01*
X197065000Y-132371000D01*
X197065000Y-133821000D01*
X197063796Y-133845504D01*
X197060196Y-133869773D01*
X197054235Y-133893571D01*
X197045970Y-133916671D01*
X197035480Y-133938849D01*
X197022867Y-133959893D01*
X197008253Y-133979598D01*
X196991777Y-133997777D01*
X196973598Y-134014253D01*
X196953893Y-134028867D01*
X196932849Y-134041480D01*
X196910671Y-134051970D01*
X196887571Y-134060235D01*
X196863773Y-134066196D01*
X196839504Y-134069796D01*
X196815000Y-134071000D01*
X195615000Y-134071000D01*
X195590496Y-134069796D01*
X195566227Y-134066196D01*
X195542429Y-134060235D01*
X195519329Y-134051970D01*
X195497151Y-134041480D01*
X195476107Y-134028867D01*
X195456402Y-134014253D01*
X195438223Y-133997777D01*
X195421747Y-133979598D01*
X195407133Y-133959893D01*
X195394520Y-133938849D01*
X195384030Y-133916671D01*
X195375765Y-133893571D01*
X195369804Y-133869773D01*
X195366204Y-133845504D01*
X195365000Y-133821000D01*
X195365000Y-132371000D01*
X195366204Y-132346496D01*
X195369804Y-132322227D01*
X195375765Y-132298429D01*
X195384030Y-132275329D01*
X195394520Y-132253151D01*
X195407133Y-132232107D01*
X195421747Y-132212402D01*
X195438223Y-132194223D01*
X195456402Y-132177747D01*
X195476107Y-132163133D01*
X195497151Y-132150520D01*
X195519329Y-132140030D01*
X195542429Y-132131765D01*
X195566227Y-132125804D01*
X195590496Y-132122204D01*
X195615000Y-132121000D01*
X196815000Y-132121000D01*
X196839504Y-132122204D01*
X196839504Y-132122204D01*
G37*
D10*
X196215000Y-133096000D03*
D20*
X201278500Y-153987500D03*
X198778500Y-153987500D03*
D18*
G36*
X196903004Y-153013704D02*
G01*
X196927273Y-153017304D01*
X196951071Y-153023265D01*
X196974171Y-153031530D01*
X196996349Y-153042020D01*
X197017393Y-153054633D01*
X197037098Y-153069247D01*
X197055277Y-153085723D01*
X197071753Y-153103902D01*
X197086367Y-153123607D01*
X197098980Y-153144651D01*
X197109470Y-153166829D01*
X197117735Y-153189929D01*
X197123696Y-153213727D01*
X197127296Y-153237996D01*
X197128500Y-153262500D01*
X197128500Y-154712500D01*
X197127296Y-154737004D01*
X197123696Y-154761273D01*
X197117735Y-154785071D01*
X197109470Y-154808171D01*
X197098980Y-154830349D01*
X197086367Y-154851393D01*
X197071753Y-154871098D01*
X197055277Y-154889277D01*
X197037098Y-154905753D01*
X197017393Y-154920367D01*
X196996349Y-154932980D01*
X196974171Y-154943470D01*
X196951071Y-154951735D01*
X196927273Y-154957696D01*
X196903004Y-154961296D01*
X196878500Y-154962500D01*
X195678500Y-154962500D01*
X195653996Y-154961296D01*
X195629727Y-154957696D01*
X195605929Y-154951735D01*
X195582829Y-154943470D01*
X195560651Y-154932980D01*
X195539607Y-154920367D01*
X195519902Y-154905753D01*
X195501723Y-154889277D01*
X195485247Y-154871098D01*
X195470633Y-154851393D01*
X195458020Y-154830349D01*
X195447530Y-154808171D01*
X195439265Y-154785071D01*
X195433304Y-154761273D01*
X195429704Y-154737004D01*
X195428500Y-154712500D01*
X195428500Y-153262500D01*
X195429704Y-153237996D01*
X195433304Y-153213727D01*
X195439265Y-153189929D01*
X195447530Y-153166829D01*
X195458020Y-153144651D01*
X195470633Y-153123607D01*
X195485247Y-153103902D01*
X195501723Y-153085723D01*
X195519902Y-153069247D01*
X195539607Y-153054633D01*
X195560651Y-153042020D01*
X195582829Y-153031530D01*
X195605929Y-153023265D01*
X195629727Y-153017304D01*
X195653996Y-153013704D01*
X195678500Y-153012500D01*
X196878500Y-153012500D01*
X196903004Y-153013704D01*
X196903004Y-153013704D01*
G37*
D10*
X196278500Y-153987500D03*
D20*
X201278500Y-147002500D03*
X198778500Y-147002500D03*
D18*
G36*
X196903004Y-146028704D02*
G01*
X196927273Y-146032304D01*
X196951071Y-146038265D01*
X196974171Y-146046530D01*
X196996349Y-146057020D01*
X197017393Y-146069633D01*
X197037098Y-146084247D01*
X197055277Y-146100723D01*
X197071753Y-146118902D01*
X197086367Y-146138607D01*
X197098980Y-146159651D01*
X197109470Y-146181829D01*
X197117735Y-146204929D01*
X197123696Y-146228727D01*
X197127296Y-146252996D01*
X197128500Y-146277500D01*
X197128500Y-147727500D01*
X197127296Y-147752004D01*
X197123696Y-147776273D01*
X197117735Y-147800071D01*
X197109470Y-147823171D01*
X197098980Y-147845349D01*
X197086367Y-147866393D01*
X197071753Y-147886098D01*
X197055277Y-147904277D01*
X197037098Y-147920753D01*
X197017393Y-147935367D01*
X196996349Y-147947980D01*
X196974171Y-147958470D01*
X196951071Y-147966735D01*
X196927273Y-147972696D01*
X196903004Y-147976296D01*
X196878500Y-147977500D01*
X195678500Y-147977500D01*
X195653996Y-147976296D01*
X195629727Y-147972696D01*
X195605929Y-147966735D01*
X195582829Y-147958470D01*
X195560651Y-147947980D01*
X195539607Y-147935367D01*
X195519902Y-147920753D01*
X195501723Y-147904277D01*
X195485247Y-147886098D01*
X195470633Y-147866393D01*
X195458020Y-147845349D01*
X195447530Y-147823171D01*
X195439265Y-147800071D01*
X195433304Y-147776273D01*
X195429704Y-147752004D01*
X195428500Y-147727500D01*
X195428500Y-146277500D01*
X195429704Y-146252996D01*
X195433304Y-146228727D01*
X195439265Y-146204929D01*
X195447530Y-146181829D01*
X195458020Y-146159651D01*
X195470633Y-146138607D01*
X195485247Y-146118902D01*
X195501723Y-146100723D01*
X195519902Y-146084247D01*
X195539607Y-146069633D01*
X195560651Y-146057020D01*
X195582829Y-146046530D01*
X195605929Y-146038265D01*
X195629727Y-146032304D01*
X195653996Y-146028704D01*
X195678500Y-146027500D01*
X196878500Y-146027500D01*
X196903004Y-146028704D01*
X196903004Y-146028704D01*
G37*
D10*
X196278500Y-147002500D03*
D24*
X181745000Y-73365200D03*
X181745000Y-70865200D03*
X181745000Y-68365200D03*
D18*
G36*
X182494504Y-65016404D02*
G01*
X182518773Y-65020004D01*
X182542571Y-65025965D01*
X182565671Y-65034230D01*
X182587849Y-65044720D01*
X182608893Y-65057333D01*
X182628598Y-65071947D01*
X182646777Y-65088423D01*
X182663253Y-65106602D01*
X182677867Y-65126307D01*
X182690480Y-65147351D01*
X182700970Y-65169529D01*
X182709235Y-65192629D01*
X182715196Y-65216427D01*
X182718796Y-65240696D01*
X182720000Y-65265200D01*
X182720000Y-66465200D01*
X182718796Y-66489704D01*
X182715196Y-66513973D01*
X182709235Y-66537771D01*
X182700970Y-66560871D01*
X182690480Y-66583049D01*
X182677867Y-66604093D01*
X182663253Y-66623798D01*
X182646777Y-66641977D01*
X182628598Y-66658453D01*
X182608893Y-66673067D01*
X182587849Y-66685680D01*
X182565671Y-66696170D01*
X182542571Y-66704435D01*
X182518773Y-66710396D01*
X182494504Y-66713996D01*
X182470000Y-66715200D01*
X181020000Y-66715200D01*
X180995496Y-66713996D01*
X180971227Y-66710396D01*
X180947429Y-66704435D01*
X180924329Y-66696170D01*
X180902151Y-66685680D01*
X180881107Y-66673067D01*
X180861402Y-66658453D01*
X180843223Y-66641977D01*
X180826747Y-66623798D01*
X180812133Y-66604093D01*
X180799520Y-66583049D01*
X180789030Y-66560871D01*
X180780765Y-66537771D01*
X180774804Y-66513973D01*
X180771204Y-66489704D01*
X180770000Y-66465200D01*
X180770000Y-65265200D01*
X180771204Y-65240696D01*
X180774804Y-65216427D01*
X180780765Y-65192629D01*
X180789030Y-65169529D01*
X180799520Y-65147351D01*
X180812133Y-65126307D01*
X180826747Y-65106602D01*
X180843223Y-65088423D01*
X180861402Y-65071947D01*
X180881107Y-65057333D01*
X180902151Y-65044720D01*
X180924329Y-65034230D01*
X180947429Y-65025965D01*
X180971227Y-65020004D01*
X180995496Y-65016404D01*
X181020000Y-65015200D01*
X182470000Y-65015200D01*
X182494504Y-65016404D01*
X182494504Y-65016404D01*
G37*
D10*
X181745000Y-65865200D03*
D20*
X201215000Y-140081000D03*
X198715000Y-140081000D03*
D18*
G36*
X196839504Y-139107204D02*
G01*
X196863773Y-139110804D01*
X196887571Y-139116765D01*
X196910671Y-139125030D01*
X196932849Y-139135520D01*
X196953893Y-139148133D01*
X196973598Y-139162747D01*
X196991777Y-139179223D01*
X197008253Y-139197402D01*
X197022867Y-139217107D01*
X197035480Y-139238151D01*
X197045970Y-139260329D01*
X197054235Y-139283429D01*
X197060196Y-139307227D01*
X197063796Y-139331496D01*
X197065000Y-139356000D01*
X197065000Y-140806000D01*
X197063796Y-140830504D01*
X197060196Y-140854773D01*
X197054235Y-140878571D01*
X197045970Y-140901671D01*
X197035480Y-140923849D01*
X197022867Y-140944893D01*
X197008253Y-140964598D01*
X196991777Y-140982777D01*
X196973598Y-140999253D01*
X196953893Y-141013867D01*
X196932849Y-141026480D01*
X196910671Y-141036970D01*
X196887571Y-141045235D01*
X196863773Y-141051196D01*
X196839504Y-141054796D01*
X196815000Y-141056000D01*
X195615000Y-141056000D01*
X195590496Y-141054796D01*
X195566227Y-141051196D01*
X195542429Y-141045235D01*
X195519329Y-141036970D01*
X195497151Y-141026480D01*
X195476107Y-141013867D01*
X195456402Y-140999253D01*
X195438223Y-140982777D01*
X195421747Y-140964598D01*
X195407133Y-140944893D01*
X195394520Y-140923849D01*
X195384030Y-140901671D01*
X195375765Y-140878571D01*
X195369804Y-140854773D01*
X195366204Y-140830504D01*
X195365000Y-140806000D01*
X195365000Y-139356000D01*
X195366204Y-139331496D01*
X195369804Y-139307227D01*
X195375765Y-139283429D01*
X195384030Y-139260329D01*
X195394520Y-139238151D01*
X195407133Y-139217107D01*
X195421747Y-139197402D01*
X195438223Y-139179223D01*
X195456402Y-139162747D01*
X195476107Y-139148133D01*
X195497151Y-139135520D01*
X195519329Y-139125030D01*
X195542429Y-139116765D01*
X195566227Y-139110804D01*
X195590496Y-139107204D01*
X195615000Y-139106000D01*
X196815000Y-139106000D01*
X196839504Y-139107204D01*
X196839504Y-139107204D01*
G37*
D10*
X196215000Y-140081000D03*
D18*
G36*
X195171891Y-117089253D02*
G01*
X195193126Y-117092403D01*
X195213950Y-117097619D01*
X195234162Y-117104851D01*
X195253568Y-117114030D01*
X195271981Y-117125066D01*
X195289224Y-117137854D01*
X195305130Y-117152270D01*
X195319546Y-117168176D01*
X195332334Y-117185419D01*
X195343370Y-117203832D01*
X195352549Y-117223238D01*
X195359781Y-117243450D01*
X195364997Y-117264274D01*
X195368147Y-117285509D01*
X195369200Y-117306950D01*
X195369200Y-117744450D01*
X195368147Y-117765891D01*
X195364997Y-117787126D01*
X195359781Y-117807950D01*
X195352549Y-117828162D01*
X195343370Y-117847568D01*
X195332334Y-117865981D01*
X195319546Y-117883224D01*
X195305130Y-117899130D01*
X195289224Y-117913546D01*
X195271981Y-117926334D01*
X195253568Y-117937370D01*
X195234162Y-117946549D01*
X195213950Y-117953781D01*
X195193126Y-117958997D01*
X195171891Y-117962147D01*
X195150450Y-117963200D01*
X194637950Y-117963200D01*
X194616509Y-117962147D01*
X194595274Y-117958997D01*
X194574450Y-117953781D01*
X194554238Y-117946549D01*
X194534832Y-117937370D01*
X194516419Y-117926334D01*
X194499176Y-117913546D01*
X194483270Y-117899130D01*
X194468854Y-117883224D01*
X194456066Y-117865981D01*
X194445030Y-117847568D01*
X194435851Y-117828162D01*
X194428619Y-117807950D01*
X194423403Y-117787126D01*
X194420253Y-117765891D01*
X194419200Y-117744450D01*
X194419200Y-117306950D01*
X194420253Y-117285509D01*
X194423403Y-117264274D01*
X194428619Y-117243450D01*
X194435851Y-117223238D01*
X194445030Y-117203832D01*
X194456066Y-117185419D01*
X194468854Y-117168176D01*
X194483270Y-117152270D01*
X194499176Y-117137854D01*
X194516419Y-117125066D01*
X194534832Y-117114030D01*
X194554238Y-117104851D01*
X194574450Y-117097619D01*
X194595274Y-117092403D01*
X194616509Y-117089253D01*
X194637950Y-117088200D01*
X195150450Y-117088200D01*
X195171891Y-117089253D01*
X195171891Y-117089253D01*
G37*
D19*
X194894200Y-117525700D03*
D18*
G36*
X195171891Y-118664253D02*
G01*
X195193126Y-118667403D01*
X195213950Y-118672619D01*
X195234162Y-118679851D01*
X195253568Y-118689030D01*
X195271981Y-118700066D01*
X195289224Y-118712854D01*
X195305130Y-118727270D01*
X195319546Y-118743176D01*
X195332334Y-118760419D01*
X195343370Y-118778832D01*
X195352549Y-118798238D01*
X195359781Y-118818450D01*
X195364997Y-118839274D01*
X195368147Y-118860509D01*
X195369200Y-118881950D01*
X195369200Y-119319450D01*
X195368147Y-119340891D01*
X195364997Y-119362126D01*
X195359781Y-119382950D01*
X195352549Y-119403162D01*
X195343370Y-119422568D01*
X195332334Y-119440981D01*
X195319546Y-119458224D01*
X195305130Y-119474130D01*
X195289224Y-119488546D01*
X195271981Y-119501334D01*
X195253568Y-119512370D01*
X195234162Y-119521549D01*
X195213950Y-119528781D01*
X195193126Y-119533997D01*
X195171891Y-119537147D01*
X195150450Y-119538200D01*
X194637950Y-119538200D01*
X194616509Y-119537147D01*
X194595274Y-119533997D01*
X194574450Y-119528781D01*
X194554238Y-119521549D01*
X194534832Y-119512370D01*
X194516419Y-119501334D01*
X194499176Y-119488546D01*
X194483270Y-119474130D01*
X194468854Y-119458224D01*
X194456066Y-119440981D01*
X194445030Y-119422568D01*
X194435851Y-119403162D01*
X194428619Y-119382950D01*
X194423403Y-119362126D01*
X194420253Y-119340891D01*
X194419200Y-119319450D01*
X194419200Y-118881950D01*
X194420253Y-118860509D01*
X194423403Y-118839274D01*
X194428619Y-118818450D01*
X194435851Y-118798238D01*
X194445030Y-118778832D01*
X194456066Y-118760419D01*
X194468854Y-118743176D01*
X194483270Y-118727270D01*
X194499176Y-118712854D01*
X194516419Y-118700066D01*
X194534832Y-118689030D01*
X194554238Y-118679851D01*
X194574450Y-118672619D01*
X194595274Y-118667403D01*
X194616509Y-118664253D01*
X194637950Y-118663200D01*
X195150450Y-118663200D01*
X195171891Y-118664253D01*
X195171891Y-118664253D01*
G37*
D19*
X194894200Y-119100700D03*
D24*
X198745000Y-90365200D03*
X198745000Y-87865200D03*
X198745000Y-85365200D03*
D18*
G36*
X199494504Y-82016404D02*
G01*
X199518773Y-82020004D01*
X199542571Y-82025965D01*
X199565671Y-82034230D01*
X199587849Y-82044720D01*
X199608893Y-82057333D01*
X199628598Y-82071947D01*
X199646777Y-82088423D01*
X199663253Y-82106602D01*
X199677867Y-82126307D01*
X199690480Y-82147351D01*
X199700970Y-82169529D01*
X199709235Y-82192629D01*
X199715196Y-82216427D01*
X199718796Y-82240696D01*
X199720000Y-82265200D01*
X199720000Y-83465200D01*
X199718796Y-83489704D01*
X199715196Y-83513973D01*
X199709235Y-83537771D01*
X199700970Y-83560871D01*
X199690480Y-83583049D01*
X199677867Y-83604093D01*
X199663253Y-83623798D01*
X199646777Y-83641977D01*
X199628598Y-83658453D01*
X199608893Y-83673067D01*
X199587849Y-83685680D01*
X199565671Y-83696170D01*
X199542571Y-83704435D01*
X199518773Y-83710396D01*
X199494504Y-83713996D01*
X199470000Y-83715200D01*
X198020000Y-83715200D01*
X197995496Y-83713996D01*
X197971227Y-83710396D01*
X197947429Y-83704435D01*
X197924329Y-83696170D01*
X197902151Y-83685680D01*
X197881107Y-83673067D01*
X197861402Y-83658453D01*
X197843223Y-83641977D01*
X197826747Y-83623798D01*
X197812133Y-83604093D01*
X197799520Y-83583049D01*
X197789030Y-83560871D01*
X197780765Y-83537771D01*
X197774804Y-83513973D01*
X197771204Y-83489704D01*
X197770000Y-83465200D01*
X197770000Y-82265200D01*
X197771204Y-82240696D01*
X197774804Y-82216427D01*
X197780765Y-82192629D01*
X197789030Y-82169529D01*
X197799520Y-82147351D01*
X197812133Y-82126307D01*
X197826747Y-82106602D01*
X197843223Y-82088423D01*
X197861402Y-82071947D01*
X197881107Y-82057333D01*
X197902151Y-82044720D01*
X197924329Y-82034230D01*
X197947429Y-82025965D01*
X197971227Y-82020004D01*
X197995496Y-82016404D01*
X198020000Y-82015200D01*
X199470000Y-82015200D01*
X199494504Y-82016404D01*
X199494504Y-82016404D01*
G37*
D10*
X198745000Y-82865200D03*
D12*
X190500000Y-142240000D03*
X187960000Y-142240000D03*
X190500000Y-139700000D03*
X187960000Y-139700000D03*
X190500000Y-137160000D03*
X187960000Y-137160000D03*
X190500000Y-134620000D03*
X187960000Y-134620000D03*
X190500000Y-132080000D03*
X187960000Y-132080000D03*
X190500000Y-129540000D03*
X187960000Y-129540000D03*
X190500000Y-127000000D03*
X187960000Y-127000000D03*
X190500000Y-124460000D03*
X187960000Y-124460000D03*
X190500000Y-121920000D03*
X187960000Y-121920000D03*
X190500000Y-119380000D03*
X187960000Y-119380000D03*
X190500000Y-116840000D03*
X187960000Y-116840000D03*
X190500000Y-114300000D03*
X187960000Y-114300000D03*
X190500000Y-111760000D03*
X187960000Y-111760000D03*
X190500000Y-109220000D03*
X187960000Y-109220000D03*
X190500000Y-106680000D03*
X187960000Y-106680000D03*
X190500000Y-104140000D03*
X187960000Y-104140000D03*
X190500000Y-101600000D03*
X187960000Y-101600000D03*
X190500000Y-99060000D03*
X187960000Y-99060000D03*
X190500000Y-96520000D03*
X187960000Y-96520000D03*
X190500000Y-93980000D03*
X187960000Y-93980000D03*
X190500000Y-91440000D03*
X187960000Y-91440000D03*
X190500000Y-88900000D03*
X187960000Y-88900000D03*
X190500000Y-86360000D03*
X187960000Y-86360000D03*
X190500000Y-83820000D03*
D11*
X187960000Y-83820000D03*
D12*
X137160000Y-153670000D03*
X137160000Y-151130000D03*
X139700000Y-153670000D03*
X139700000Y-151130000D03*
X142240000Y-153670000D03*
X142240000Y-151130000D03*
X144780000Y-153670000D03*
X144780000Y-151130000D03*
X147320000Y-153670000D03*
X147320000Y-151130000D03*
X149860000Y-153670000D03*
X149860000Y-151130000D03*
X152400000Y-153670000D03*
X152400000Y-151130000D03*
X154940000Y-153670000D03*
X154940000Y-151130000D03*
X157480000Y-153670000D03*
X157480000Y-151130000D03*
X160020000Y-153670000D03*
X160020000Y-151130000D03*
X162560000Y-153670000D03*
X162560000Y-151130000D03*
X165100000Y-153670000D03*
X165100000Y-151130000D03*
X167640000Y-153670000D03*
X167640000Y-151130000D03*
X170180000Y-153670000D03*
X170180000Y-151130000D03*
X172720000Y-153670000D03*
X172720000Y-151130000D03*
X175260000Y-153670000D03*
D11*
X175260000Y-151130000D03*
D28*
X132029200Y-78920200D03*
D18*
G36*
X132803704Y-75571404D02*
G01*
X132827973Y-75575004D01*
X132851771Y-75580965D01*
X132874871Y-75589230D01*
X132897049Y-75599720D01*
X132918093Y-75612333D01*
X132937798Y-75626947D01*
X132955977Y-75643423D01*
X132972453Y-75661602D01*
X132987067Y-75681307D01*
X132999680Y-75702351D01*
X133010170Y-75724529D01*
X133018435Y-75747629D01*
X133024396Y-75771427D01*
X133027996Y-75795696D01*
X133029200Y-75820200D01*
X133029200Y-77020200D01*
X133027996Y-77044704D01*
X133024396Y-77068973D01*
X133018435Y-77092771D01*
X133010170Y-77115871D01*
X132999680Y-77138049D01*
X132987067Y-77159093D01*
X132972453Y-77178798D01*
X132955977Y-77196977D01*
X132937798Y-77213453D01*
X132918093Y-77228067D01*
X132897049Y-77240680D01*
X132874871Y-77251170D01*
X132851771Y-77259435D01*
X132827973Y-77265396D01*
X132803704Y-77268996D01*
X132779200Y-77270200D01*
X131279200Y-77270200D01*
X131254696Y-77268996D01*
X131230427Y-77265396D01*
X131206629Y-77259435D01*
X131183529Y-77251170D01*
X131161351Y-77240680D01*
X131140307Y-77228067D01*
X131120602Y-77213453D01*
X131102423Y-77196977D01*
X131085947Y-77178798D01*
X131071333Y-77159093D01*
X131058720Y-77138049D01*
X131048230Y-77115871D01*
X131039965Y-77092771D01*
X131034004Y-77068973D01*
X131030404Y-77044704D01*
X131029200Y-77020200D01*
X131029200Y-75820200D01*
X131030404Y-75795696D01*
X131034004Y-75771427D01*
X131039965Y-75747629D01*
X131048230Y-75724529D01*
X131058720Y-75702351D01*
X131071333Y-75681307D01*
X131085947Y-75661602D01*
X131102423Y-75643423D01*
X131120602Y-75626947D01*
X131140307Y-75612333D01*
X131161351Y-75599720D01*
X131183529Y-75589230D01*
X131206629Y-75580965D01*
X131230427Y-75575004D01*
X131254696Y-75571404D01*
X131279200Y-75570200D01*
X132779200Y-75570200D01*
X132803704Y-75571404D01*
X132803704Y-75571404D01*
G37*
D10*
X132029200Y-76420200D03*
D28*
X132029200Y-87920200D03*
D18*
G36*
X132803704Y-84571404D02*
G01*
X132827973Y-84575004D01*
X132851771Y-84580965D01*
X132874871Y-84589230D01*
X132897049Y-84599720D01*
X132918093Y-84612333D01*
X132937798Y-84626947D01*
X132955977Y-84643423D01*
X132972453Y-84661602D01*
X132987067Y-84681307D01*
X132999680Y-84702351D01*
X133010170Y-84724529D01*
X133018435Y-84747629D01*
X133024396Y-84771427D01*
X133027996Y-84795696D01*
X133029200Y-84820200D01*
X133029200Y-86020200D01*
X133027996Y-86044704D01*
X133024396Y-86068973D01*
X133018435Y-86092771D01*
X133010170Y-86115871D01*
X132999680Y-86138049D01*
X132987067Y-86159093D01*
X132972453Y-86178798D01*
X132955977Y-86196977D01*
X132937798Y-86213453D01*
X132918093Y-86228067D01*
X132897049Y-86240680D01*
X132874871Y-86251170D01*
X132851771Y-86259435D01*
X132827973Y-86265396D01*
X132803704Y-86268996D01*
X132779200Y-86270200D01*
X131279200Y-86270200D01*
X131254696Y-86268996D01*
X131230427Y-86265396D01*
X131206629Y-86259435D01*
X131183529Y-86251170D01*
X131161351Y-86240680D01*
X131140307Y-86228067D01*
X131120602Y-86213453D01*
X131102423Y-86196977D01*
X131085947Y-86178798D01*
X131071333Y-86159093D01*
X131058720Y-86138049D01*
X131048230Y-86115871D01*
X131039965Y-86092771D01*
X131034004Y-86068973D01*
X131030404Y-86044704D01*
X131029200Y-86020200D01*
X131029200Y-84820200D01*
X131030404Y-84795696D01*
X131034004Y-84771427D01*
X131039965Y-84747629D01*
X131048230Y-84724529D01*
X131058720Y-84702351D01*
X131071333Y-84681307D01*
X131085947Y-84661602D01*
X131102423Y-84643423D01*
X131120602Y-84626947D01*
X131140307Y-84612333D01*
X131161351Y-84599720D01*
X131183529Y-84589230D01*
X131206629Y-84580965D01*
X131230427Y-84575004D01*
X131254696Y-84571404D01*
X131279200Y-84570200D01*
X132779200Y-84570200D01*
X132803704Y-84571404D01*
X132803704Y-84571404D01*
G37*
D10*
X132029200Y-85420200D03*
D28*
X131664200Y-101040200D03*
D18*
G36*
X132438704Y-97691404D02*
G01*
X132462973Y-97695004D01*
X132486771Y-97700965D01*
X132509871Y-97709230D01*
X132532049Y-97719720D01*
X132553093Y-97732333D01*
X132572798Y-97746947D01*
X132590977Y-97763423D01*
X132607453Y-97781602D01*
X132622067Y-97801307D01*
X132634680Y-97822351D01*
X132645170Y-97844529D01*
X132653435Y-97867629D01*
X132659396Y-97891427D01*
X132662996Y-97915696D01*
X132664200Y-97940200D01*
X132664200Y-99140200D01*
X132662996Y-99164704D01*
X132659396Y-99188973D01*
X132653435Y-99212771D01*
X132645170Y-99235871D01*
X132634680Y-99258049D01*
X132622067Y-99279093D01*
X132607453Y-99298798D01*
X132590977Y-99316977D01*
X132572798Y-99333453D01*
X132553093Y-99348067D01*
X132532049Y-99360680D01*
X132509871Y-99371170D01*
X132486771Y-99379435D01*
X132462973Y-99385396D01*
X132438704Y-99388996D01*
X132414200Y-99390200D01*
X130914200Y-99390200D01*
X130889696Y-99388996D01*
X130865427Y-99385396D01*
X130841629Y-99379435D01*
X130818529Y-99371170D01*
X130796351Y-99360680D01*
X130775307Y-99348067D01*
X130755602Y-99333453D01*
X130737423Y-99316977D01*
X130720947Y-99298798D01*
X130706333Y-99279093D01*
X130693720Y-99258049D01*
X130683230Y-99235871D01*
X130674965Y-99212771D01*
X130669004Y-99188973D01*
X130665404Y-99164704D01*
X130664200Y-99140200D01*
X130664200Y-97940200D01*
X130665404Y-97915696D01*
X130669004Y-97891427D01*
X130674965Y-97867629D01*
X130683230Y-97844529D01*
X130693720Y-97822351D01*
X130706333Y-97801307D01*
X130720947Y-97781602D01*
X130737423Y-97763423D01*
X130755602Y-97746947D01*
X130775307Y-97732333D01*
X130796351Y-97719720D01*
X130818529Y-97709230D01*
X130841629Y-97700965D01*
X130865427Y-97695004D01*
X130889696Y-97691404D01*
X130914200Y-97690200D01*
X132414200Y-97690200D01*
X132438704Y-97691404D01*
X132438704Y-97691404D01*
G37*
D10*
X131664200Y-98540200D03*
D28*
X131664200Y-115040200D03*
D18*
G36*
X132438704Y-111691404D02*
G01*
X132462973Y-111695004D01*
X132486771Y-111700965D01*
X132509871Y-111709230D01*
X132532049Y-111719720D01*
X132553093Y-111732333D01*
X132572798Y-111746947D01*
X132590977Y-111763423D01*
X132607453Y-111781602D01*
X132622067Y-111801307D01*
X132634680Y-111822351D01*
X132645170Y-111844529D01*
X132653435Y-111867629D01*
X132659396Y-111891427D01*
X132662996Y-111915696D01*
X132664200Y-111940200D01*
X132664200Y-113140200D01*
X132662996Y-113164704D01*
X132659396Y-113188973D01*
X132653435Y-113212771D01*
X132645170Y-113235871D01*
X132634680Y-113258049D01*
X132622067Y-113279093D01*
X132607453Y-113298798D01*
X132590977Y-113316977D01*
X132572798Y-113333453D01*
X132553093Y-113348067D01*
X132532049Y-113360680D01*
X132509871Y-113371170D01*
X132486771Y-113379435D01*
X132462973Y-113385396D01*
X132438704Y-113388996D01*
X132414200Y-113390200D01*
X130914200Y-113390200D01*
X130889696Y-113388996D01*
X130865427Y-113385396D01*
X130841629Y-113379435D01*
X130818529Y-113371170D01*
X130796351Y-113360680D01*
X130775307Y-113348067D01*
X130755602Y-113333453D01*
X130737423Y-113316977D01*
X130720947Y-113298798D01*
X130706333Y-113279093D01*
X130693720Y-113258049D01*
X130683230Y-113235871D01*
X130674965Y-113212771D01*
X130669004Y-113188973D01*
X130665404Y-113164704D01*
X130664200Y-113140200D01*
X130664200Y-111940200D01*
X130665404Y-111915696D01*
X130669004Y-111891427D01*
X130674965Y-111867629D01*
X130683230Y-111844529D01*
X130693720Y-111822351D01*
X130706333Y-111801307D01*
X130720947Y-111781602D01*
X130737423Y-111763423D01*
X130755602Y-111746947D01*
X130775307Y-111732333D01*
X130796351Y-111719720D01*
X130818529Y-111709230D01*
X130841629Y-111700965D01*
X130865427Y-111695004D01*
X130889696Y-111691404D01*
X130914200Y-111690200D01*
X132414200Y-111690200D01*
X132438704Y-111691404D01*
X132438704Y-111691404D01*
G37*
D10*
X131664200Y-112540200D03*
D26*
X154728600Y-127914400D03*
D27*
X148428600Y-125634400D03*
X148428600Y-130194400D03*
D26*
X154728600Y-113944400D03*
D27*
X148428600Y-111664400D03*
X148428600Y-116224400D03*
D12*
X190601600Y-149047200D03*
D11*
X190601600Y-146507200D03*
D12*
X178308000Y-140589000D03*
X180848000Y-140589000D03*
D11*
X183388000Y-140589000D03*
D12*
X178308000Y-144272000D03*
X180848000Y-144272000D03*
D11*
X183388000Y-144272000D03*
D12*
X115265200Y-154101800D03*
X115265200Y-151561800D03*
X115265200Y-149021800D03*
X115265200Y-146481800D03*
X115265200Y-143941800D03*
D11*
X115265200Y-141401800D03*
D12*
X111201200Y-154101800D03*
X111201200Y-151561800D03*
X111201200Y-149021800D03*
X111201200Y-146481800D03*
X111201200Y-143941800D03*
D11*
X111201200Y-141401800D03*
D12*
X182321200Y-102565200D03*
X182321200Y-105105200D03*
X182321200Y-107645200D03*
D11*
X182321200Y-110185200D03*
D12*
X194564000Y-128270000D03*
X197104000Y-128270000D03*
X199644000Y-128270000D03*
D11*
X202184000Y-128270000D03*
D28*
X163779200Y-111676800D03*
D18*
G36*
X164553704Y-108328004D02*
G01*
X164577973Y-108331604D01*
X164601771Y-108337565D01*
X164624871Y-108345830D01*
X164647049Y-108356320D01*
X164668093Y-108368933D01*
X164687798Y-108383547D01*
X164705977Y-108400023D01*
X164722453Y-108418202D01*
X164737067Y-108437907D01*
X164749680Y-108458951D01*
X164760170Y-108481129D01*
X164768435Y-108504229D01*
X164774396Y-108528027D01*
X164777996Y-108552296D01*
X164779200Y-108576800D01*
X164779200Y-109776800D01*
X164777996Y-109801304D01*
X164774396Y-109825573D01*
X164768435Y-109849371D01*
X164760170Y-109872471D01*
X164749680Y-109894649D01*
X164737067Y-109915693D01*
X164722453Y-109935398D01*
X164705977Y-109953577D01*
X164687798Y-109970053D01*
X164668093Y-109984667D01*
X164647049Y-109997280D01*
X164624871Y-110007770D01*
X164601771Y-110016035D01*
X164577973Y-110021996D01*
X164553704Y-110025596D01*
X164529200Y-110026800D01*
X163029200Y-110026800D01*
X163004696Y-110025596D01*
X162980427Y-110021996D01*
X162956629Y-110016035D01*
X162933529Y-110007770D01*
X162911351Y-109997280D01*
X162890307Y-109984667D01*
X162870602Y-109970053D01*
X162852423Y-109953577D01*
X162835947Y-109935398D01*
X162821333Y-109915693D01*
X162808720Y-109894649D01*
X162798230Y-109872471D01*
X162789965Y-109849371D01*
X162784004Y-109825573D01*
X162780404Y-109801304D01*
X162779200Y-109776800D01*
X162779200Y-108576800D01*
X162780404Y-108552296D01*
X162784004Y-108528027D01*
X162789965Y-108504229D01*
X162798230Y-108481129D01*
X162808720Y-108458951D01*
X162821333Y-108437907D01*
X162835947Y-108418202D01*
X162852423Y-108400023D01*
X162870602Y-108383547D01*
X162890307Y-108368933D01*
X162911351Y-108356320D01*
X162933529Y-108345830D01*
X162956629Y-108337565D01*
X162980427Y-108331604D01*
X163004696Y-108328004D01*
X163029200Y-108326800D01*
X164529200Y-108326800D01*
X164553704Y-108328004D01*
X164553704Y-108328004D01*
G37*
D10*
X163779200Y-109176800D03*
D28*
X172779200Y-111676800D03*
D18*
G36*
X173553704Y-108328004D02*
G01*
X173577973Y-108331604D01*
X173601771Y-108337565D01*
X173624871Y-108345830D01*
X173647049Y-108356320D01*
X173668093Y-108368933D01*
X173687798Y-108383547D01*
X173705977Y-108400023D01*
X173722453Y-108418202D01*
X173737067Y-108437907D01*
X173749680Y-108458951D01*
X173760170Y-108481129D01*
X173768435Y-108504229D01*
X173774396Y-108528027D01*
X173777996Y-108552296D01*
X173779200Y-108576800D01*
X173779200Y-109776800D01*
X173777996Y-109801304D01*
X173774396Y-109825573D01*
X173768435Y-109849371D01*
X173760170Y-109872471D01*
X173749680Y-109894649D01*
X173737067Y-109915693D01*
X173722453Y-109935398D01*
X173705977Y-109953577D01*
X173687798Y-109970053D01*
X173668093Y-109984667D01*
X173647049Y-109997280D01*
X173624871Y-110007770D01*
X173601771Y-110016035D01*
X173577973Y-110021996D01*
X173553704Y-110025596D01*
X173529200Y-110026800D01*
X172029200Y-110026800D01*
X172004696Y-110025596D01*
X171980427Y-110021996D01*
X171956629Y-110016035D01*
X171933529Y-110007770D01*
X171911351Y-109997280D01*
X171890307Y-109984667D01*
X171870602Y-109970053D01*
X171852423Y-109953577D01*
X171835947Y-109935398D01*
X171821333Y-109915693D01*
X171808720Y-109894649D01*
X171798230Y-109872471D01*
X171789965Y-109849371D01*
X171784004Y-109825573D01*
X171780404Y-109801304D01*
X171779200Y-109776800D01*
X171779200Y-108576800D01*
X171780404Y-108552296D01*
X171784004Y-108528027D01*
X171789965Y-108504229D01*
X171798230Y-108481129D01*
X171808720Y-108458951D01*
X171821333Y-108437907D01*
X171835947Y-108418202D01*
X171852423Y-108400023D01*
X171870602Y-108383547D01*
X171890307Y-108368933D01*
X171911351Y-108356320D01*
X171933529Y-108345830D01*
X171956629Y-108337565D01*
X171980427Y-108331604D01*
X172004696Y-108328004D01*
X172029200Y-108326800D01*
X173529200Y-108326800D01*
X173553704Y-108328004D01*
X173553704Y-108328004D01*
G37*
D10*
X172779200Y-109176800D03*
D28*
X163779200Y-121676800D03*
D18*
G36*
X164553704Y-118328004D02*
G01*
X164577973Y-118331604D01*
X164601771Y-118337565D01*
X164624871Y-118345830D01*
X164647049Y-118356320D01*
X164668093Y-118368933D01*
X164687798Y-118383547D01*
X164705977Y-118400023D01*
X164722453Y-118418202D01*
X164737067Y-118437907D01*
X164749680Y-118458951D01*
X164760170Y-118481129D01*
X164768435Y-118504229D01*
X164774396Y-118528027D01*
X164777996Y-118552296D01*
X164779200Y-118576800D01*
X164779200Y-119776800D01*
X164777996Y-119801304D01*
X164774396Y-119825573D01*
X164768435Y-119849371D01*
X164760170Y-119872471D01*
X164749680Y-119894649D01*
X164737067Y-119915693D01*
X164722453Y-119935398D01*
X164705977Y-119953577D01*
X164687798Y-119970053D01*
X164668093Y-119984667D01*
X164647049Y-119997280D01*
X164624871Y-120007770D01*
X164601771Y-120016035D01*
X164577973Y-120021996D01*
X164553704Y-120025596D01*
X164529200Y-120026800D01*
X163029200Y-120026800D01*
X163004696Y-120025596D01*
X162980427Y-120021996D01*
X162956629Y-120016035D01*
X162933529Y-120007770D01*
X162911351Y-119997280D01*
X162890307Y-119984667D01*
X162870602Y-119970053D01*
X162852423Y-119953577D01*
X162835947Y-119935398D01*
X162821333Y-119915693D01*
X162808720Y-119894649D01*
X162798230Y-119872471D01*
X162789965Y-119849371D01*
X162784004Y-119825573D01*
X162780404Y-119801304D01*
X162779200Y-119776800D01*
X162779200Y-118576800D01*
X162780404Y-118552296D01*
X162784004Y-118528027D01*
X162789965Y-118504229D01*
X162798230Y-118481129D01*
X162808720Y-118458951D01*
X162821333Y-118437907D01*
X162835947Y-118418202D01*
X162852423Y-118400023D01*
X162870602Y-118383547D01*
X162890307Y-118368933D01*
X162911351Y-118356320D01*
X162933529Y-118345830D01*
X162956629Y-118337565D01*
X162980427Y-118331604D01*
X163004696Y-118328004D01*
X163029200Y-118326800D01*
X164529200Y-118326800D01*
X164553704Y-118328004D01*
X164553704Y-118328004D01*
G37*
D10*
X163779200Y-119176800D03*
D28*
X172779200Y-121676800D03*
D18*
G36*
X173553704Y-118328004D02*
G01*
X173577973Y-118331604D01*
X173601771Y-118337565D01*
X173624871Y-118345830D01*
X173647049Y-118356320D01*
X173668093Y-118368933D01*
X173687798Y-118383547D01*
X173705977Y-118400023D01*
X173722453Y-118418202D01*
X173737067Y-118437907D01*
X173749680Y-118458951D01*
X173760170Y-118481129D01*
X173768435Y-118504229D01*
X173774396Y-118528027D01*
X173777996Y-118552296D01*
X173779200Y-118576800D01*
X173779200Y-119776800D01*
X173777996Y-119801304D01*
X173774396Y-119825573D01*
X173768435Y-119849371D01*
X173760170Y-119872471D01*
X173749680Y-119894649D01*
X173737067Y-119915693D01*
X173722453Y-119935398D01*
X173705977Y-119953577D01*
X173687798Y-119970053D01*
X173668093Y-119984667D01*
X173647049Y-119997280D01*
X173624871Y-120007770D01*
X173601771Y-120016035D01*
X173577973Y-120021996D01*
X173553704Y-120025596D01*
X173529200Y-120026800D01*
X172029200Y-120026800D01*
X172004696Y-120025596D01*
X171980427Y-120021996D01*
X171956629Y-120016035D01*
X171933529Y-120007770D01*
X171911351Y-119997280D01*
X171890307Y-119984667D01*
X171870602Y-119970053D01*
X171852423Y-119953577D01*
X171835947Y-119935398D01*
X171821333Y-119915693D01*
X171808720Y-119894649D01*
X171798230Y-119872471D01*
X171789965Y-119849371D01*
X171784004Y-119825573D01*
X171780404Y-119801304D01*
X171779200Y-119776800D01*
X171779200Y-118576800D01*
X171780404Y-118552296D01*
X171784004Y-118528027D01*
X171789965Y-118504229D01*
X171798230Y-118481129D01*
X171808720Y-118458951D01*
X171821333Y-118437907D01*
X171835947Y-118418202D01*
X171852423Y-118400023D01*
X171870602Y-118383547D01*
X171890307Y-118368933D01*
X171911351Y-118356320D01*
X171933529Y-118345830D01*
X171956629Y-118337565D01*
X171980427Y-118331604D01*
X172004696Y-118328004D01*
X172029200Y-118326800D01*
X173529200Y-118326800D01*
X173553704Y-118328004D01*
X173553704Y-118328004D01*
G37*
D10*
X172779200Y-119176800D03*
D14*
X194665600Y-115900200D03*
X195961000Y-109702600D03*
X128473200Y-109016800D03*
X127254000Y-112852200D03*
X127254000Y-105054400D03*
X127254000Y-92329000D03*
X127304800Y-83058000D03*
X150342600Y-126898400D03*
X122174000Y-68224400D03*
X122224800Y-67259200D03*
X147269200Y-58902600D03*
X147193000Y-60248800D03*
X172669200Y-60731400D03*
X170942000Y-60706000D03*
X167614600Y-82702400D03*
X168529000Y-82702400D03*
X167411400Y-101701600D03*
X168783000Y-101549200D03*
X171932600Y-126923800D03*
X164922200Y-126034800D03*
X124460000Y-83464400D03*
X201015600Y-108229400D03*
X195884800Y-116890800D03*
X174082200Y-125663200D03*
X169697400Y-125603000D03*
X167741600Y-123418600D03*
X161620200Y-126390400D03*
D29*
X118567200Y-109169200D03*
X117246400Y-95707200D03*
D14*
X119862600Y-110566200D03*
X120015000Y-107950000D03*
X140309600Y-86893400D03*
X134112000Y-151130000D03*
X194030600Y-91287600D03*
X171500800Y-74625200D03*
X173594498Y-81407000D03*
X169976800Y-81309900D03*
X170357800Y-101092000D03*
X177825400Y-100965000D03*
X198094600Y-108407200D03*
X199593200Y-125806200D03*
X145930001Y-156964999D03*
X117805200Y-151561800D03*
X129459382Y-136808818D03*
X139395200Y-111252000D03*
X142138400Y-95885000D03*
X142138400Y-70916800D03*
X143256000Y-147574000D03*
X117932200Y-149021800D03*
X132080000Y-136728200D03*
X142671800Y-111353600D03*
X144173402Y-90801998D03*
X144197300Y-65789002D03*
X118059200Y-146481800D03*
X118059200Y-144957800D03*
X192786000Y-137414000D03*
X160172400Y-156413200D03*
X125145800Y-93040200D03*
X132664200Y-82194400D03*
X140204099Y-61997499D03*
X140512800Y-77190600D03*
X137668000Y-81051400D03*
X149098000Y-148336000D03*
X140335000Y-147320000D03*
X137795000Y-139244300D03*
X137541000Y-147447000D03*
X117932200Y-154101800D03*
X130747754Y-136055386D03*
X140995400Y-111277400D03*
X143155901Y-88266501D03*
X143179800Y-63271400D03*
X136144000Y-147320000D03*
X143764000Y-156210000D03*
X132715000Y-147447000D03*
X164693600Y-104083103D03*
X164693600Y-102590600D03*
X164820600Y-85725000D03*
X167640000Y-148640800D03*
X170180000Y-148463000D03*
X158470600Y-147980400D03*
X162560000Y-148539200D03*
X160070800Y-148056600D03*
X165100000Y-148361400D03*
X172415200Y-78536800D03*
X172643800Y-75920600D03*
X178786699Y-59457499D03*
X187960000Y-146507200D03*
X192786000Y-135509000D03*
X192786000Y-132080000D03*
X185039000Y-132080000D03*
X185039000Y-133604000D03*
X184941259Y-129762216D03*
X184912000Y-128270000D03*
X184912000Y-126492000D03*
X194564000Y-124536200D03*
X197104000Y-125704600D03*
X193243200Y-123494800D03*
X193548000Y-119989600D03*
X184785000Y-124714000D03*
X184658000Y-120396000D03*
X184658000Y-118999000D03*
X185420000Y-113538000D03*
X185267600Y-103886000D03*
X178308000Y-105765600D03*
X185267600Y-102489000D03*
X178257200Y-102717600D03*
D29*
X117398800Y-84378800D03*
D30*
X145262600Y-116230400D03*
X145262600Y-130454400D03*
X145262600Y-123342400D03*
D14*
X140233400Y-94589600D03*
X140462000Y-69494400D03*
X164693600Y-93319600D03*
X172643800Y-68351400D03*
X192530500Y-118160800D03*
X119989600Y-121742200D03*
X192963800Y-90093800D03*
X127076200Y-118135400D03*
X129184400Y-122580400D03*
X127431800Y-122504200D03*
X173253400Y-97129600D03*
D31*
X199739000Y-115538998D02*
X199739000Y-115824000D01*
D32*
X109813990Y-79314410D02*
X109813990Y-114741590D01*
X115925600Y-73202800D02*
X109813990Y-79314410D01*
X109813990Y-114741590D02*
X113233200Y-118160800D01*
X113233200Y-130518400D02*
X117030000Y-134315200D01*
X113233200Y-118160800D02*
X113233200Y-130518400D01*
D31*
X132764200Y-112540200D02*
X137164200Y-112540200D01*
X131664200Y-112540200D02*
X132764200Y-112540200D01*
X199673580Y-114556499D02*
X198909899Y-114556499D01*
X199739000Y-114621919D02*
X199673580Y-114556499D01*
X199739000Y-115824000D02*
X199739000Y-114621919D01*
X198909899Y-114556499D02*
X195809511Y-114556499D01*
X195809511Y-114556499D02*
X195809511Y-114756289D01*
X195809511Y-114756289D02*
X194665600Y-115900200D01*
X195361001Y-110302599D02*
X195361001Y-111216999D01*
X195961000Y-109702600D02*
X195361001Y-110302599D01*
X195326000Y-111252000D02*
X194056000Y-111252000D01*
X195361001Y-111216999D02*
X195326000Y-111252000D01*
D33*
X114122200Y-71399400D02*
X115925600Y-73202800D01*
X114122200Y-66624200D02*
X114122200Y-71399400D01*
X115925600Y-70912200D02*
X118237000Y-68600800D01*
X115925600Y-73202800D02*
X115925600Y-70912200D01*
X113272201Y-65774201D02*
X114122200Y-66624200D01*
X112479699Y-64981699D02*
X113272201Y-65774201D01*
X112479699Y-63186701D02*
X112479699Y-64981699D01*
X114122200Y-61544200D02*
X112479699Y-63186701D01*
D34*
X111201200Y-141401800D02*
X115265200Y-141401800D01*
X115265200Y-136080000D02*
X117030000Y-134315200D01*
X115265200Y-141401800D02*
X115265200Y-136080000D01*
D31*
X136664200Y-115040200D02*
X137164200Y-114540200D01*
X131664200Y-115040200D02*
X136664200Y-115040200D01*
X130414200Y-115040200D02*
X128759600Y-113385600D01*
X131664200Y-115040200D02*
X130414200Y-115040200D01*
X128473200Y-109067600D02*
X128473200Y-113385600D01*
X128759600Y-113385600D02*
X128473200Y-113385600D01*
X128473200Y-113385600D02*
X128346200Y-113385600D01*
X127254000Y-112852200D02*
X127355600Y-112852200D01*
X127889000Y-113385600D02*
X128346200Y-113385600D01*
X127355600Y-112852200D02*
X127889000Y-113385600D01*
X124561600Y-106781600D02*
X124460000Y-106680000D01*
X131664200Y-105690200D02*
X131664200Y-106540200D01*
X131028400Y-105054400D02*
X131664200Y-105690200D01*
X127254000Y-105054400D02*
X131028400Y-105054400D01*
X131664200Y-104418600D02*
X131664200Y-101040200D01*
X131028400Y-105054400D02*
X131664200Y-104418600D01*
X132147800Y-92329000D02*
X132159200Y-92340400D01*
X128102528Y-92329000D02*
X128813728Y-91617800D01*
X127254000Y-92329000D02*
X128102528Y-92329000D01*
X131664200Y-92190200D02*
X131664200Y-93040200D01*
X131091800Y-91617800D02*
X131664200Y-92190200D01*
X128813728Y-91617800D02*
X131091800Y-91617800D01*
X132029200Y-90680400D02*
X132029200Y-87920200D01*
X131091800Y-91617800D02*
X132029200Y-90680400D01*
X127304800Y-83058000D02*
X128346200Y-83058000D01*
X128346200Y-83058000D02*
X130175000Y-81229200D01*
X130175000Y-81229200D02*
X131521200Y-81229200D01*
X132029200Y-80721200D02*
X132029200Y-78920200D01*
X131521200Y-81229200D02*
X132029200Y-80721200D01*
X129045600Y-81229200D02*
X130175000Y-81229200D01*
X126339600Y-78523200D02*
X129045600Y-81229200D01*
X126339600Y-77673200D02*
X126339600Y-78523200D01*
D35*
X151104600Y-131724400D02*
X150342600Y-130962400D01*
X150342600Y-130962400D02*
X150342600Y-126898400D01*
D36*
X117080800Y-126644400D02*
X117030000Y-126695200D01*
X117080800Y-116789200D02*
X117080800Y-126644400D01*
D32*
X115671600Y-100787200D02*
X115722400Y-100787200D01*
X112522000Y-92811600D02*
X115874800Y-89458800D01*
X112522000Y-97586800D02*
X112522000Y-92811600D01*
X115722400Y-100787200D02*
X112522000Y-97586800D01*
X112979200Y-81229200D02*
X115925600Y-78282800D01*
X112979200Y-86563200D02*
X112979200Y-81229200D01*
X115874800Y-89458800D02*
X112979200Y-86563200D01*
X114858800Y-100787200D02*
X115722400Y-100787200D01*
X112826800Y-102819200D02*
X114858800Y-100787200D01*
X112826800Y-112572800D02*
X112826800Y-102819200D01*
X115543201Y-115289201D02*
X112826800Y-112572800D01*
X117080800Y-116789200D02*
X115580801Y-115289201D01*
X115580801Y-115289201D02*
X115543201Y-115289201D01*
D33*
X118237000Y-60564430D02*
X118237000Y-59486800D01*
X118237000Y-61171481D02*
X118237000Y-60564430D01*
X115324281Y-64084200D02*
X118237000Y-61171481D01*
X114122200Y-64084200D02*
X115324281Y-64084200D01*
X118425600Y-78282800D02*
X115925600Y-78282800D01*
X119791501Y-76916899D02*
X118425600Y-78282800D01*
X119791501Y-67854639D02*
X119791501Y-76916899D01*
X116021062Y-64084200D02*
X119791501Y-67854639D01*
X114122200Y-64084200D02*
X116021062Y-64084200D01*
X119791501Y-67854639D02*
X121804239Y-67854639D01*
X121804239Y-67854639D02*
X122174000Y-68224400D01*
X122174000Y-68224400D02*
X122174000Y-67310000D01*
X122174000Y-67310000D02*
X122224800Y-67259200D01*
X148531200Y-58902600D02*
X150353600Y-60725000D01*
X147269200Y-58902600D02*
X148531200Y-58902600D01*
X149877400Y-60248800D02*
X150353600Y-60725000D01*
X147193000Y-60248800D02*
X149877400Y-60248800D01*
X174847200Y-60731400D02*
X174853600Y-60725000D01*
X172669200Y-60731400D02*
X174847200Y-60731400D01*
X172643800Y-60706000D02*
X172669200Y-60731400D01*
X170942000Y-60706000D02*
X172643800Y-60706000D01*
X174802800Y-85775800D02*
X174853600Y-85725000D01*
X153339800Y-85725000D02*
X150353600Y-85725000D01*
X171831000Y-82702400D02*
X174853600Y-85725000D01*
X168529000Y-82702400D02*
X171831000Y-82702400D01*
X156362400Y-82702400D02*
X153339800Y-85725000D01*
X168529000Y-82702400D02*
X156362400Y-82702400D01*
D37*
X167563800Y-101549200D02*
X167411400Y-101701600D01*
X168783000Y-101549200D02*
X167563800Y-101549200D01*
X167411400Y-101701600D02*
X167411400Y-109067600D01*
D34*
X167302200Y-109176800D02*
X163779200Y-109176800D01*
X167411400Y-109067600D02*
X167302200Y-109176800D01*
X167520600Y-109176800D02*
X172779200Y-109176800D01*
X167411400Y-109067600D02*
X167520600Y-109176800D01*
X167520600Y-115435400D02*
X163779200Y-119176800D01*
X167520600Y-109176800D02*
X167520600Y-115435400D01*
X173684753Y-118271247D02*
X172779200Y-119176800D01*
X174321710Y-117634290D02*
X173684753Y-118271247D01*
X174321710Y-111100004D02*
X174321710Y-117634290D01*
X172779200Y-109557494D02*
X174321710Y-111100004D01*
X172779200Y-109176800D02*
X172779200Y-109557494D01*
X171236690Y-126227890D02*
X171932600Y-126923800D01*
X172779200Y-119176800D02*
X171236690Y-120719310D01*
X171236690Y-120719310D02*
X171236690Y-126227890D01*
X170591580Y-126873000D02*
X165633400Y-126873000D01*
X171236690Y-126227890D02*
X170591580Y-126873000D01*
X165633400Y-126873000D02*
X164922200Y-126161800D01*
X164922200Y-126161800D02*
X164922200Y-126034800D01*
D38*
X201215000Y-140081000D02*
X201215000Y-133096000D01*
X201278500Y-140144500D02*
X201215000Y-140081000D01*
X201278500Y-147002500D02*
X201278500Y-140144500D01*
D34*
X196595900Y-115824000D02*
X194894200Y-117525700D01*
X197739000Y-115824000D02*
X196595900Y-115824000D01*
D33*
X124460000Y-71225800D02*
X124460000Y-73075800D01*
X124460000Y-67426170D02*
X124460000Y-71225800D01*
X132399370Y-59486800D02*
X124460000Y-67426170D01*
X133477000Y-59486800D02*
X132399370Y-59486800D01*
X122947099Y-76438701D02*
X122947099Y-81951499D01*
X124460000Y-73075800D02*
X124460000Y-74925800D01*
X124460000Y-74925800D02*
X122947099Y-76438701D01*
X122947099Y-81951499D02*
X124460000Y-83464400D01*
D39*
X125710000Y-73075800D02*
X126649800Y-72136000D01*
X124460000Y-73075800D02*
X125710000Y-73075800D01*
D31*
X137410099Y-72157499D02*
X138705499Y-72157499D01*
X136499600Y-72136000D02*
X137388600Y-72136000D01*
X137388600Y-72136000D02*
X137410099Y-72157499D01*
D34*
X146554099Y-72157499D02*
X149021800Y-74625200D01*
D31*
X149745199Y-74692501D02*
X151502101Y-74692501D01*
X149021800Y-74625200D02*
X149677898Y-74625200D01*
X149677898Y-74625200D02*
X149745199Y-74692501D01*
D34*
X151502101Y-74692501D02*
X155977995Y-74692501D01*
X155977995Y-74692501D02*
X156043204Y-74757710D01*
D31*
X161550197Y-74692501D02*
X163211501Y-74692501D01*
X160852690Y-74757710D02*
X161484988Y-74757710D01*
X161484988Y-74757710D02*
X161550197Y-74692501D01*
D34*
X168588699Y-74692501D02*
X171119800Y-72161400D01*
D31*
X174250197Y-72152501D02*
X180653699Y-72152501D01*
X173812200Y-72161400D02*
X174241298Y-72161400D01*
X174241298Y-72161400D02*
X174250197Y-72152501D01*
D35*
X181105336Y-72122690D02*
X182841290Y-72122690D01*
X180653699Y-72152501D02*
X181075525Y-72152501D01*
X181075525Y-72152501D02*
X181105336Y-72122690D01*
D34*
X200262510Y-81936928D02*
X200262510Y-94504490D01*
X190448272Y-72122690D02*
X200262510Y-81936928D01*
X200262510Y-94504490D02*
X201015600Y-95257580D01*
X201015600Y-95257580D02*
X201015600Y-108229400D01*
D39*
X201828400Y-131013200D02*
X201215000Y-131626600D01*
X203860400Y-126161800D02*
X203860400Y-129946400D01*
X203149200Y-125450600D02*
X203860400Y-126161800D01*
X201215000Y-131626600D02*
X201215000Y-133096000D01*
X201422000Y-125450600D02*
X203149200Y-125450600D01*
X200075800Y-124104400D02*
X201422000Y-125450600D01*
X200206499Y-109038501D02*
X200206499Y-112017699D01*
X201015600Y-108229400D02*
X200206499Y-109038501D01*
X202793600Y-131013200D02*
X201828400Y-131013200D01*
X200206499Y-112017699D02*
X202623710Y-114434910D01*
X202623710Y-114434910D02*
X202623710Y-119194290D01*
X202623710Y-119194290D02*
X200075800Y-121742200D01*
X203860400Y-129946400D02*
X202793600Y-131013200D01*
X200075800Y-121742200D02*
X200075800Y-124104400D01*
D38*
X201278500Y-150892500D02*
X201278500Y-147002500D01*
X201278500Y-153987500D02*
X201278500Y-150892500D01*
D39*
X184454800Y-155516290D02*
X184454800Y-154127200D01*
X184734200Y-155795690D02*
X184454800Y-155516290D01*
X191600110Y-155795690D02*
X184734200Y-155795690D01*
X201278500Y-150892500D02*
X196503300Y-150892500D01*
X196503300Y-150892500D02*
X191600110Y-155795690D01*
X180289200Y-149636800D02*
X180289200Y-148386800D01*
X180289200Y-150911600D02*
X180289200Y-149636800D01*
X183504800Y-154127200D02*
X180289200Y-150911600D01*
X184454800Y-154127200D02*
X183504800Y-154127200D01*
X154638800Y-140639800D02*
X154715000Y-140716000D01*
X153619200Y-140639800D02*
X154638800Y-140639800D01*
X180289200Y-148386800D02*
X179039200Y-148386800D01*
X177692699Y-149733301D02*
X157632099Y-149733301D01*
X157632099Y-149733301D02*
X152654000Y-144755202D01*
X152654000Y-144755202D02*
X152654000Y-141605000D01*
X179039200Y-148386800D02*
X177692699Y-149733301D01*
X152654000Y-141605000D02*
X153619200Y-140639800D01*
X135940800Y-72136000D02*
X135940800Y-73914000D01*
X135940800Y-72136000D02*
X136499600Y-72136000D01*
X126649800Y-72136000D02*
X135940800Y-72136000D01*
X135940800Y-73914000D02*
X135940800Y-74041000D01*
X135940800Y-74041000D02*
X136601200Y-74701400D01*
D31*
X137045199Y-74697499D02*
X138756299Y-74697499D01*
X136601200Y-74701400D02*
X137041298Y-74701400D01*
X137041298Y-74701400D02*
X137045199Y-74697499D01*
D39*
X139344400Y-72364600D02*
X139551501Y-72157499D01*
X139344400Y-74109398D02*
X139344400Y-72364600D01*
X138756299Y-74697499D02*
X139344400Y-74109398D01*
D34*
X138705499Y-72157499D02*
X139551501Y-72157499D01*
X139551501Y-72157499D02*
X146554099Y-72157499D01*
D31*
X146559097Y-72152501D02*
X155710899Y-72152501D01*
X146554099Y-72157499D02*
X146559097Y-72152501D01*
D35*
X155755690Y-72107710D02*
X157934310Y-72107710D01*
X155710899Y-72152501D02*
X155755690Y-72107710D01*
D34*
X158597600Y-74472800D02*
X158882510Y-74757710D01*
X158597600Y-72771000D02*
X158597600Y-74472800D01*
X157934310Y-72107710D02*
X158597600Y-72771000D01*
X156043204Y-74757710D02*
X158882510Y-74757710D01*
X158882510Y-74757710D02*
X160852690Y-74757710D01*
X158597600Y-72771000D02*
X158597600Y-72745600D01*
X158597600Y-72745600D02*
X159181800Y-72161400D01*
X159181800Y-72161400D02*
X161290000Y-72161400D01*
D31*
X163744901Y-73140399D02*
X163744901Y-74692501D01*
X162762001Y-72157499D02*
X163744901Y-73140399D01*
X161545199Y-72157499D02*
X162762001Y-72157499D01*
X161541298Y-72161400D02*
X161545199Y-72157499D01*
X161290000Y-72161400D02*
X161541298Y-72161400D01*
D34*
X163211501Y-74692501D02*
X163744901Y-74692501D01*
X163744901Y-74692501D02*
X168588699Y-74692501D01*
D31*
X174245199Y-69617499D02*
X181098099Y-69617499D01*
X171780200Y-72082498D02*
X174245199Y-69617499D01*
X171780200Y-72161400D02*
X171780200Y-72082498D01*
D34*
X171780200Y-72161400D02*
X173812200Y-72161400D01*
X171119800Y-72161400D02*
X171780200Y-72161400D01*
D35*
X183112510Y-71979690D02*
X182969510Y-72122690D01*
X183112510Y-70350536D02*
X183112510Y-71979690D01*
X182379473Y-69617499D02*
X183112510Y-70350536D01*
X181098099Y-69617499D02*
X182379473Y-69617499D01*
D34*
X182841290Y-72122690D02*
X182969510Y-72122690D01*
X182969510Y-72122690D02*
X190448272Y-72122690D01*
X172629200Y-121676800D02*
X172779200Y-121676800D01*
X174082200Y-122979800D02*
X172779200Y-121676800D01*
X174082200Y-125663200D02*
X174082200Y-122979800D01*
X163982400Y-121880000D02*
X163779200Y-121676800D01*
X163982400Y-122834400D02*
X163982400Y-121880000D01*
X169697400Y-125603000D02*
X166751000Y-125603000D01*
X166751000Y-125603000D02*
X163982400Y-122834400D01*
X172779200Y-113529600D02*
X172779200Y-111676800D01*
X171729400Y-114579400D02*
X172779200Y-113529600D01*
X169799000Y-114579400D02*
X171729400Y-114579400D01*
X167741600Y-123418600D02*
X167741600Y-116636800D01*
X167741600Y-116636800D02*
X169799000Y-114579400D01*
X163629200Y-111676800D02*
X163779200Y-111676800D01*
X159562800Y-115743200D02*
X163629200Y-111676800D01*
X159562800Y-118440200D02*
X159562800Y-115743200D01*
X161620200Y-120497600D02*
X159562800Y-118440200D01*
X161620200Y-126390400D02*
X161620200Y-120497600D01*
D32*
X117080800Y-109169200D02*
X118567200Y-109169200D01*
X115722400Y-95707200D02*
X117246400Y-95707200D01*
X117246400Y-95707200D02*
X117246400Y-95707200D01*
D31*
X137744200Y-102768400D02*
X137718800Y-102793800D01*
X137653600Y-105424400D02*
X137653600Y-103505000D01*
X134264400Y-108813600D02*
X137653600Y-105424400D01*
X129794000Y-108813600D02*
X134264400Y-108813600D01*
X120711128Y-110566200D02*
X120789827Y-110487501D01*
X119862600Y-110566200D02*
X120711128Y-110566200D01*
X125496597Y-110487501D02*
X127984799Y-107999299D01*
X120789827Y-110487501D02*
X125496597Y-110487501D01*
X127984799Y-107999299D02*
X128979699Y-107999299D01*
X128979699Y-107999299D02*
X129794000Y-108813600D01*
X135712200Y-102906400D02*
X137653600Y-100965000D01*
X135712200Y-106172000D02*
X135712200Y-102906400D01*
X120015000Y-107950000D02*
X127266874Y-107950000D01*
X127760085Y-107456789D02*
X129204413Y-107456789D01*
X129204413Y-107456789D02*
X130018714Y-108271090D01*
X127266874Y-107950000D02*
X127760085Y-107456789D01*
X130018714Y-108271090D02*
X133613110Y-108271090D01*
X133613110Y-108271090D02*
X135712200Y-106172000D01*
X139141200Y-85725000D02*
X137653600Y-85725000D01*
X140309600Y-86893400D02*
X139141200Y-85725000D01*
D38*
X111201200Y-143941800D02*
X115265200Y-143941800D01*
D34*
X116467281Y-143941800D02*
X115265200Y-143941800D01*
X122555000Y-151130000D02*
X119507000Y-148082000D01*
X134112000Y-151130000D02*
X122555000Y-151130000D01*
X119507000Y-148082000D02*
X119507000Y-143484600D01*
X119507000Y-143484600D02*
X118770400Y-142748000D01*
X117661081Y-142748000D02*
X116467281Y-143941800D01*
X118770400Y-142748000D02*
X117661081Y-142748000D01*
D31*
X194030600Y-94943400D02*
X199114800Y-100027600D01*
X194030600Y-91287600D02*
X194030600Y-94943400D01*
D34*
X174853600Y-75965000D02*
X173107400Y-74218800D01*
X173107400Y-74218800D02*
X171907200Y-74218800D01*
X171907200Y-74218800D02*
X171500800Y-74625200D01*
X154451000Y-75965000D02*
X150353600Y-75965000D01*
X159893000Y-81407000D02*
X154451000Y-75965000D01*
X169976800Y-81407000D02*
X169976800Y-81309900D01*
X169976800Y-81407000D02*
X159893000Y-81407000D01*
X173594498Y-81407000D02*
X169976800Y-81407000D01*
X174726600Y-101092000D02*
X174853600Y-100965000D01*
X170357800Y-101092000D02*
X174726600Y-101092000D01*
X160728701Y-99692501D02*
X159514499Y-99692501D01*
X158242000Y-100965000D02*
X150353600Y-100965000D01*
X159514499Y-99692501D02*
X158242000Y-100965000D01*
D31*
X160728701Y-99692501D02*
X163751301Y-99692501D01*
D34*
X168958301Y-99692501D02*
X170357800Y-101092000D01*
X163751301Y-99692501D02*
X168958301Y-99692501D01*
X174853600Y-100965000D02*
X177825400Y-100965000D01*
D31*
X134112000Y-151130000D02*
X134112000Y-153593800D01*
X138500700Y-157982500D02*
X150602100Y-157982500D01*
X134112000Y-153593800D02*
X138500700Y-157982500D01*
X153667501Y-154917099D02*
X153667501Y-147342901D01*
X150602100Y-157982500D02*
X153667501Y-154917099D01*
X153667501Y-147342901D02*
X151714200Y-145389600D01*
X151714200Y-145389600D02*
X151714200Y-141274800D01*
X151714200Y-141274800D02*
X153771600Y-139217400D01*
X155112430Y-139217400D02*
X155905200Y-140010170D01*
X153771600Y-139217400D02*
X155112430Y-139217400D01*
D35*
X156391401Y-142392401D02*
X157255000Y-143256000D01*
X155998899Y-141999899D02*
X156391401Y-142392401D01*
X155998899Y-140103869D02*
X155998899Y-141999899D01*
X155905200Y-140010170D02*
X155998899Y-140103869D01*
D34*
X185369200Y-148386800D02*
X185369200Y-145669000D01*
X185369200Y-145669000D02*
X186207400Y-144830800D01*
X185587401Y-130937499D02*
X184378101Y-130937499D01*
X186207400Y-144830800D02*
X186207400Y-131557498D01*
X186207400Y-131557498D02*
X185587401Y-130937499D01*
X182306600Y-133009000D02*
X180213000Y-133009000D01*
X184378101Y-130937499D02*
X182306600Y-133009000D01*
X180088000Y-133009000D02*
X177952400Y-130873400D01*
X180213000Y-133009000D02*
X180088000Y-133009000D01*
X180971200Y-110185200D02*
X182321200Y-110185200D01*
X177952400Y-113204000D02*
X180971200Y-110185200D01*
X177952400Y-130873400D02*
X177952400Y-113204000D01*
X199114800Y-106527600D02*
X199114800Y-107387000D01*
X199114800Y-107387000D02*
X198094600Y-108407200D01*
D31*
X202057000Y-128270000D02*
X202184000Y-128270000D01*
X199593200Y-125806200D02*
X202057000Y-128270000D01*
D38*
X111201200Y-151561800D02*
X115265200Y-151561800D01*
D35*
X145930001Y-142549687D02*
X145930001Y-156964999D01*
X142875000Y-140716000D02*
X144096314Y-140716000D01*
X144096314Y-140716000D02*
X145930001Y-142549687D01*
D31*
X117805200Y-151561800D02*
X115265200Y-151561800D01*
X128187643Y-136208819D02*
X127081424Y-135102600D01*
X129459382Y-136808818D02*
X128859383Y-136208819D01*
X128859383Y-136208819D02*
X128187643Y-136208819D01*
X127081424Y-135102600D02*
X121132600Y-135102600D01*
X121132600Y-135102600D02*
X120624600Y-134594600D01*
X120624600Y-134594600D02*
X120624600Y-124841000D01*
X120624600Y-124841000D02*
X121818400Y-123647200D01*
X121818400Y-123647200D02*
X131470400Y-123647200D01*
X131470400Y-123647200D02*
X131800600Y-123647200D01*
X131800600Y-123647200D02*
X133070600Y-122377200D01*
X133070600Y-122377200D02*
X138125200Y-122377200D01*
X138125200Y-122377200D02*
X139395200Y-121107200D01*
X139395200Y-121107200D02*
X139395200Y-111252000D01*
X141289872Y-95885000D02*
X137653600Y-95885000D01*
X142138400Y-95885000D02*
X141289872Y-95885000D01*
X143405901Y-94617499D02*
X155369301Y-94617499D01*
X142138400Y-95885000D02*
X143405901Y-94617499D01*
D35*
X155369301Y-94617499D02*
X157807701Y-94617499D01*
D31*
X160886099Y-94617499D02*
X162153600Y-95885000D01*
X157807701Y-94617499D02*
X160886099Y-94617499D01*
X137685400Y-70916800D02*
X137653600Y-70885000D01*
X142138400Y-70916800D02*
X137685400Y-70916800D01*
X149745199Y-69617499D02*
X155571099Y-69617499D01*
X142138400Y-70916800D02*
X148445898Y-70916800D01*
X148445898Y-70916800D02*
X149745199Y-69617499D01*
D35*
X155576290Y-69622690D02*
X158215310Y-69622690D01*
X155571099Y-69617499D02*
X155576290Y-69622690D01*
D31*
X160891290Y-69622690D02*
X162153600Y-70885000D01*
X158215310Y-69622690D02*
X160891290Y-69622690D01*
D38*
X111201200Y-149021800D02*
X115265200Y-149021800D01*
D31*
X143256000Y-143637000D02*
X142875000Y-143256000D01*
X143256000Y-147574000D02*
X143256000Y-143637000D01*
X117932200Y-149021800D02*
X115265200Y-149021800D01*
X130097960Y-133899690D02*
X127859714Y-133899690D01*
X132080000Y-136728200D02*
X132080000Y-135881730D01*
X132080000Y-135881730D02*
X130097960Y-133899690D01*
X122495090Y-133899690D02*
X122005310Y-133409910D01*
X127859714Y-133899690D02*
X122495090Y-133899690D01*
X122005310Y-125517690D02*
X122790780Y-124732220D01*
X122005310Y-133409910D02*
X122005310Y-125517690D01*
X122790780Y-124732220D02*
X132250028Y-124732220D01*
X132250028Y-124732220D02*
X133520028Y-123462220D01*
X138574628Y-123462220D02*
X140480220Y-121556628D01*
X133520028Y-123462220D02*
X138574628Y-123462220D01*
X140480220Y-121556628D02*
X140480220Y-113545180D01*
X140480220Y-113545180D02*
X142671800Y-111353600D01*
X137656602Y-90801998D02*
X137653600Y-90805000D01*
X144173402Y-90801998D02*
X137656602Y-90801998D01*
X161303601Y-89955001D02*
X162153600Y-90805000D01*
X160886099Y-89537499D02*
X161303601Y-89955001D01*
X149745199Y-89537499D02*
X160886099Y-89537499D01*
X148480700Y-90801998D02*
X149745199Y-89537499D01*
X144173402Y-90801998D02*
X148480700Y-90801998D01*
X137669598Y-65789002D02*
X137653600Y-65805000D01*
X144197300Y-65789002D02*
X137669598Y-65789002D01*
X161303601Y-64955001D02*
X162153600Y-65805000D01*
X160886099Y-64537499D02*
X161303601Y-64955001D01*
X149745199Y-64537499D02*
X160886099Y-64537499D01*
X148493696Y-65789002D02*
X149745199Y-64537499D01*
X144197300Y-65789002D02*
X148493696Y-65789002D01*
X117210672Y-146481800D02*
X115265200Y-146481800D01*
X118059200Y-146481800D02*
X117210672Y-146481800D01*
X112051199Y-145631801D02*
X111201200Y-146481800D01*
X112468701Y-145214299D02*
X112051199Y-145631801D01*
X116954173Y-145214299D02*
X112468701Y-145214299D01*
X117210672Y-144957800D02*
X116954173Y-145214299D01*
X118059200Y-144957800D02*
X117210672Y-144957800D01*
D35*
X187452000Y-137160000D02*
X187960000Y-137160000D01*
D31*
X192786000Y-143510000D02*
X196278500Y-147002500D01*
X192786000Y-137414000D02*
X192786000Y-143510000D01*
X161020928Y-156413200D02*
X160172400Y-156413200D01*
X192902800Y-156413200D02*
X161020928Y-156413200D01*
X195328500Y-153987500D02*
X192902800Y-156413200D01*
X196278500Y-153987500D02*
X195328500Y-153987500D01*
X129011699Y-88325773D02*
X129011699Y-83331799D01*
X125145800Y-93040200D02*
X125145800Y-92191672D01*
X125145800Y-92191672D02*
X129011699Y-88325773D01*
X129540799Y-82802699D02*
X129541301Y-82802699D01*
X129011699Y-83331799D02*
X129540799Y-82802699D01*
X129541301Y-82802699D02*
X130149600Y-82194400D01*
X130149600Y-82194400D02*
X132664200Y-82194400D01*
X138931600Y-60725000D02*
X137653600Y-60725000D01*
X140204099Y-61997499D02*
X138931600Y-60725000D01*
X138879200Y-77190600D02*
X137653600Y-75965000D01*
X140512800Y-77190600D02*
X138879200Y-77190600D01*
X137668000Y-78519400D02*
X137653600Y-78505000D01*
X137668000Y-81051400D02*
X137668000Y-78519400D01*
D35*
X140335000Y-139494686D02*
X141018686Y-138811000D01*
X140335000Y-140716000D02*
X140335000Y-139494686D01*
X141018686Y-138811000D02*
X148463000Y-138811000D01*
X148463000Y-138811000D02*
X149098000Y-139446000D01*
X149098000Y-139446000D02*
X149098000Y-148336000D01*
D31*
X140335000Y-146471472D02*
X140335000Y-143256000D01*
X140335000Y-147320000D02*
X140335000Y-146471472D01*
X137795000Y-139244300D02*
X137795000Y-140716000D01*
D38*
X111201200Y-154101800D02*
X115265200Y-154101800D01*
D35*
X115265200Y-154101800D02*
X117932200Y-154101800D01*
D31*
X137541000Y-143510000D02*
X137795000Y-143256000D01*
X137541000Y-147447000D02*
X137541000Y-143510000D01*
X130147755Y-135455387D02*
X128648187Y-135455387D01*
X130747754Y-136055386D02*
X130147755Y-135455387D01*
X128648187Y-135455387D02*
X127635000Y-134442200D01*
X127635000Y-134442200D02*
X121589800Y-134442200D01*
X121589800Y-134442200D02*
X121462800Y-134315200D01*
X121462800Y-134315200D02*
X121462800Y-124917200D01*
X132025314Y-124189710D02*
X132025316Y-124189708D01*
X121462800Y-124917200D02*
X122190290Y-124189710D01*
X122190290Y-124189710D02*
X132025314Y-124189710D01*
X138349914Y-122919710D02*
X139937710Y-121331914D01*
X132025316Y-124189708D02*
X133295314Y-122919710D01*
X133295314Y-122919710D02*
X138349914Y-122919710D01*
X139937710Y-121331914D02*
X139937710Y-112563690D01*
X139937710Y-112563690D02*
X140995400Y-111506000D01*
X140995400Y-111506000D02*
X140995400Y-111277400D01*
X137655101Y-88266501D02*
X137653600Y-88265000D01*
X143155901Y-88266501D02*
X137655101Y-88266501D01*
X161303601Y-87415001D02*
X162153600Y-88265000D01*
X160886099Y-86997499D02*
X161303601Y-87415001D01*
X149745199Y-86997499D02*
X160886099Y-86997499D01*
X148476197Y-88266501D02*
X149745199Y-86997499D01*
X143155901Y-88266501D02*
X148476197Y-88266501D01*
X137660000Y-63271400D02*
X137653600Y-63265000D01*
X143179800Y-63271400D02*
X137660000Y-63271400D01*
X161303601Y-62415001D02*
X162153600Y-63265000D01*
X160886099Y-61997499D02*
X161303601Y-62415001D01*
X149745199Y-61997499D02*
X160886099Y-61997499D01*
X148471298Y-63271400D02*
X149745199Y-61997499D01*
X143179800Y-63271400D02*
X148471298Y-63271400D01*
D35*
X136525000Y-146939000D02*
X136144000Y-147320000D01*
X135255000Y-140716000D02*
X136525000Y-141986000D01*
X136525000Y-141986000D02*
X136525000Y-146939000D01*
X143510000Y-155956000D02*
X143764000Y-156210000D01*
D31*
X134391401Y-144119599D02*
X135255000Y-143256000D01*
X134391401Y-147073303D02*
X134391401Y-144119599D01*
X135782599Y-148464501D02*
X134391401Y-147073303D01*
X138910403Y-148464501D02*
X135782599Y-148464501D01*
X140967501Y-150521599D02*
X138910403Y-148464501D01*
X140967501Y-151738401D02*
X140967501Y-150521599D01*
X141626601Y-152397501D02*
X140967501Y-151738401D01*
X142843403Y-152397501D02*
X141626601Y-152397501D01*
X143507501Y-155104973D02*
X143507501Y-153061599D01*
X143507501Y-153061599D02*
X142843403Y-152397501D01*
X143764000Y-155361472D02*
X143507501Y-155104973D01*
X143764000Y-156210000D02*
X143764000Y-155361472D01*
X132715000Y-147447000D02*
X132715000Y-143256000D01*
X162731703Y-104083103D02*
X162153600Y-103505000D01*
X164693600Y-104083103D02*
X162731703Y-104083103D01*
X163068000Y-100965000D02*
X162153600Y-100965000D01*
X164693600Y-102590600D02*
X163068000Y-100965000D01*
X163972072Y-85725000D02*
X162153600Y-85725000D01*
X164820600Y-85725000D02*
X163972072Y-85725000D01*
D35*
X167640000Y-150333000D02*
X167640000Y-151130000D01*
D31*
X162335000Y-141507000D02*
X162335000Y-140716000D01*
X167640000Y-148151315D02*
X163576000Y-144087315D01*
X163576000Y-144087315D02*
X163576000Y-142737870D01*
X163576000Y-142737870D02*
X162951130Y-142113000D01*
X162951130Y-142113000D02*
X162941000Y-142113000D01*
X162941000Y-142113000D02*
X162335000Y-141507000D01*
X166497000Y-144214315D02*
X166497000Y-142338000D01*
X169580001Y-147297316D02*
X166497000Y-144214315D01*
X169580001Y-147863001D02*
X169580001Y-147297316D01*
X170180000Y-148463000D02*
X169580001Y-147863001D01*
X166497000Y-142338000D02*
X164875000Y-140716000D01*
D35*
X158118599Y-141579599D02*
X157255000Y-140716000D01*
X158511101Y-141972101D02*
X158118599Y-141579599D01*
X158511101Y-143858929D02*
X158511101Y-141972101D01*
X158470600Y-143899430D02*
X158511101Y-143858929D01*
X158470600Y-147980400D02*
X158470600Y-143899430D01*
D31*
X161036000Y-141957000D02*
X159795000Y-140716000D01*
X162560000Y-148539200D02*
X161036000Y-147015200D01*
X161036000Y-147015200D02*
X161036000Y-141957000D01*
X160020000Y-143481000D02*
X159795000Y-143256000D01*
X160070800Y-143531800D02*
X159795000Y-143256000D01*
X160070800Y-148056600D02*
X160070800Y-143531800D01*
X162335000Y-145317000D02*
X162335000Y-143256000D01*
X165100000Y-148082000D02*
X162335000Y-145317000D01*
X165100000Y-148361400D02*
X165100000Y-148082000D01*
X162185400Y-78536800D02*
X162153600Y-78505000D01*
X172415200Y-78536800D02*
X162185400Y-78536800D01*
X162198000Y-75920600D02*
X162153600Y-75965000D01*
X172643800Y-75920600D02*
X162198000Y-75920600D01*
X163353800Y-60725000D02*
X162153600Y-60725000D01*
X163353800Y-60725000D02*
X163353800Y-60674200D01*
X164570501Y-59457499D02*
X178786699Y-59457499D01*
X163353800Y-60674200D02*
X164570501Y-59457499D01*
X188808528Y-146507200D02*
X190601600Y-146507200D01*
X187960000Y-146507200D02*
X188808528Y-146507200D01*
X192786000Y-135509000D02*
X195224400Y-135509000D01*
X196215000Y-136499600D02*
X196215000Y-140081000D01*
X195224400Y-135509000D02*
X196215000Y-136499600D01*
D34*
X196215000Y-133096000D02*
X193802000Y-133096000D01*
X193802000Y-133096000D02*
X192786000Y-132080000D01*
D31*
X183388000Y-133731000D02*
X185039000Y-132080000D01*
X183388000Y-140589000D02*
X183388000Y-133731000D01*
D35*
X184785000Y-133858000D02*
X185039000Y-133604000D01*
D31*
X185039000Y-134452528D02*
X185039000Y-133604000D01*
X185039000Y-143721000D02*
X185039000Y-134452528D01*
X184488000Y-144272000D02*
X185039000Y-143721000D01*
X183388000Y-144272000D02*
X184488000Y-144272000D01*
D35*
X180213000Y-130509000D02*
X180336200Y-130509000D01*
X180336200Y-130509000D02*
X181082984Y-129762216D01*
X181082984Y-129762216D02*
X184941259Y-129762216D01*
D31*
X179832000Y-128009000D02*
X184651000Y-128009000D01*
X184651000Y-128009000D02*
X184912000Y-128270000D01*
X183929000Y-125509000D02*
X184912000Y-126492000D01*
X180053000Y-125509000D02*
X183929000Y-125509000D01*
X179832000Y-125509000D02*
X180053000Y-125509000D01*
X194564000Y-125384728D02*
X194564000Y-128270000D01*
X194564000Y-124536200D02*
X194564000Y-125384728D01*
X197104000Y-126270285D02*
X197104000Y-128270000D01*
X197104000Y-125704600D02*
X197104000Y-126270285D01*
X193243200Y-123494800D02*
X193243200Y-121920000D01*
X193243200Y-115087400D02*
X193243200Y-114173000D01*
X193548000Y-119989600D02*
X193548000Y-115392200D01*
X193548000Y-115392200D02*
X193243200Y-115087400D01*
D35*
X182043000Y-124714000D02*
X184785000Y-124714000D01*
X180213000Y-123009000D02*
X180338000Y-123009000D01*
X180338000Y-123009000D02*
X182043000Y-124714000D01*
X180326000Y-120396000D02*
X180213000Y-120509000D01*
X184545000Y-120509000D02*
X184658000Y-120396000D01*
X180213000Y-120509000D02*
X184545000Y-120509000D01*
X180213000Y-118009000D02*
X180493000Y-118009000D01*
X184277000Y-119380000D02*
X184658000Y-118999000D01*
X181864000Y-119380000D02*
X184277000Y-119380000D01*
X180493000Y-118009000D02*
X181864000Y-119380000D01*
X184973000Y-115509000D02*
X185100000Y-115509000D01*
X185420000Y-115189000D02*
X185420000Y-113538000D01*
X185100000Y-115509000D02*
X185420000Y-115189000D01*
D31*
X179832000Y-115509000D02*
X183073000Y-115509000D01*
X183073000Y-115509000D02*
X184973000Y-115509000D01*
X182321200Y-105105200D02*
X184048400Y-105105200D01*
X184048400Y-105105200D02*
X185267600Y-103886000D01*
X181406800Y-105105200D02*
X182321200Y-105105200D01*
X178308000Y-105765600D02*
X180746400Y-105765600D01*
X180746400Y-105765600D02*
X181406800Y-105105200D01*
X182372000Y-102616000D02*
X182321200Y-102565200D01*
X185267600Y-102616000D02*
X182372000Y-102616000D01*
X182168800Y-102717600D02*
X182321200Y-102565200D01*
X178257200Y-102717600D02*
X182168800Y-102717600D01*
D32*
X115874800Y-84378800D02*
X117398800Y-84378800D01*
D34*
X182829200Y-147184719D02*
X182100881Y-146456400D01*
X182829200Y-148386800D02*
X182829200Y-147184719D01*
X182100881Y-146456400D02*
X181457600Y-146456400D01*
X180848000Y-145846800D02*
X180848000Y-144272000D01*
X181457600Y-146456400D02*
X180848000Y-145846800D01*
X180848000Y-144272000D02*
X180848000Y-140589000D01*
X148428600Y-116224400D02*
X146843601Y-116224400D01*
X146843601Y-116224400D02*
X145776600Y-116224400D01*
X145776600Y-116224400D02*
X145770600Y-116230400D01*
X145770600Y-116230400D02*
X145446601Y-116230400D01*
X148168600Y-130454400D02*
X148428600Y-130194400D01*
X145262600Y-130454400D02*
X148168600Y-130454400D01*
X148295600Y-123342400D02*
X148428600Y-123209400D01*
X145262600Y-123342400D02*
X148295600Y-123342400D01*
D31*
X195355700Y-114173000D02*
X196219300Y-113309400D01*
X194818200Y-114173000D02*
X195355700Y-114173000D01*
X196219300Y-113309400D02*
X200507600Y-113309400D01*
X200507600Y-113309400D02*
X202006200Y-114808000D01*
X202006200Y-114808000D02*
X202006200Y-116586000D01*
D35*
X201510701Y-117081499D02*
X202006200Y-116586000D01*
X197739000Y-118324000D02*
X198981501Y-117081499D01*
X198981501Y-117081499D02*
X201510701Y-117081499D01*
D34*
X199059800Y-120243600D02*
X199739000Y-119564400D01*
X195499600Y-120243600D02*
X199059800Y-120243600D01*
X194894200Y-119100700D02*
X194894200Y-119638200D01*
X199739000Y-119564400D02*
X199739000Y-118324000D01*
X194894200Y-119638200D02*
X195499600Y-120243600D01*
X194818200Y-121345000D02*
X194868800Y-121294400D01*
X194818200Y-121920000D02*
X194818200Y-121345000D01*
X194868800Y-119663600D02*
X194894200Y-119638200D01*
X194868800Y-121294400D02*
X194868800Y-119663600D01*
D31*
X138988800Y-93345000D02*
X137653600Y-93345000D01*
X140233400Y-94589600D02*
X138988800Y-93345000D01*
X139312600Y-68345000D02*
X137653600Y-68345000D01*
X140462000Y-69494400D02*
X139312600Y-68345000D01*
X162179000Y-93319600D02*
X162153600Y-93345000D01*
X164693600Y-93319600D02*
X162179000Y-93319600D01*
X162160000Y-68351400D02*
X162153600Y-68345000D01*
X172643800Y-68351400D02*
X162160000Y-68351400D01*
X191767501Y-119772327D02*
X191767501Y-144574301D01*
X192530500Y-118160800D02*
X192530500Y-119009328D01*
X192530500Y-119009328D02*
X191767501Y-119772327D01*
X191767501Y-144574301D02*
X192379600Y-145186400D01*
X192379600Y-145186400D02*
X192379600Y-149758400D01*
X192379600Y-149758400D02*
X190398400Y-151739600D01*
X186954800Y-154002200D02*
X186954800Y-154127200D01*
X189217400Y-151739600D02*
X186954800Y-154002200D01*
X190398400Y-151739600D02*
X189217400Y-151739600D01*
X163626800Y-142007800D02*
X164875000Y-143256000D01*
X119989600Y-135509000D02*
X120269000Y-135788400D01*
X119989600Y-121742200D02*
X119989600Y-135509000D01*
X120269000Y-135788400D02*
X127000000Y-135788400D01*
X127000000Y-135788400D02*
X129438400Y-138226800D01*
X163626800Y-139903200D02*
X163626800Y-142007800D01*
X129438400Y-138226800D02*
X161950400Y-138226800D01*
X161950400Y-138226800D02*
X163626800Y-139903200D01*
X193614801Y-99027601D02*
X193614801Y-99025201D01*
X194614800Y-100027600D02*
X193614801Y-99027601D01*
X193954400Y-107188000D02*
X194614800Y-106527600D01*
X193954400Y-109626400D02*
X193954400Y-107188000D01*
X194056000Y-107086400D02*
X194614800Y-106527600D01*
X194056000Y-109677000D02*
X194056000Y-107086400D01*
X192963800Y-98376600D02*
X194614800Y-100027600D01*
X192963800Y-90093800D02*
X192963800Y-98376600D01*
D33*
X181684800Y-65805000D02*
X181745000Y-65865200D01*
X174853600Y-65805000D02*
X181684800Y-65805000D01*
X181724800Y-68345000D02*
X181745000Y-68365200D01*
X174853600Y-68345000D02*
X181724800Y-68345000D01*
X181725200Y-70885000D02*
X181745000Y-70865200D01*
X174853600Y-70885000D02*
X181725200Y-70885000D01*
X181685200Y-73425000D02*
X181745000Y-73365200D01*
X174853600Y-73425000D02*
X181685200Y-73425000D01*
X181745000Y-94988000D02*
X181745000Y-90365200D01*
X174853600Y-98425000D02*
X178308000Y-98425000D01*
X178308000Y-98425000D02*
X181745000Y-94988000D01*
X183720000Y-90365200D02*
X183728000Y-90373200D01*
X181745000Y-90365200D02*
X183720000Y-90365200D01*
X183728000Y-90373200D02*
X184708800Y-90373200D01*
X186317499Y-88764501D02*
X186317499Y-82287501D01*
X184708800Y-90373200D02*
X186317499Y-88764501D01*
X186317499Y-82287501D02*
X186715400Y-81889600D01*
X191000502Y-81889600D02*
X192963800Y-83852898D01*
X186715400Y-81889600D02*
X191000502Y-81889600D01*
X192963800Y-83852898D02*
X192963800Y-87401400D01*
X195927600Y-90365200D02*
X198745000Y-90365200D01*
X192963800Y-87401400D02*
X195927600Y-90365200D01*
X195967600Y-87865200D02*
X198745000Y-87865200D01*
X194256310Y-86153910D02*
X195967600Y-87865200D01*
X194256310Y-83317523D02*
X194256310Y-86153910D01*
X183900789Y-87865200D02*
X185024989Y-86741000D01*
X181745000Y-87865200D02*
X183900789Y-87865200D01*
X185024989Y-86741000D02*
X185024989Y-81752126D01*
X185024989Y-81752126D02*
X186180025Y-80597090D01*
X186180025Y-80597090D02*
X191535877Y-80597090D01*
X191535877Y-80597090D02*
X194256310Y-83317523D01*
X181620000Y-87865200D02*
X181745000Y-87865200D01*
X179770000Y-89715200D02*
X181620000Y-87865200D01*
X179770000Y-94146600D02*
X179770000Y-89715200D01*
X179882800Y-94259400D02*
X179770000Y-94146600D01*
X178257200Y-95885000D02*
X179882800Y-94259400D01*
X174853600Y-95885000D02*
X178257200Y-95885000D01*
X196770000Y-85365200D02*
X198745000Y-85365200D01*
X195548820Y-82782148D02*
X195548820Y-84144020D01*
X181745000Y-85365200D02*
X183720000Y-85365200D01*
X183720000Y-85365200D02*
X183732479Y-85352721D01*
X183732479Y-85352721D02*
X183732479Y-81216751D01*
X195548820Y-84144020D02*
X196770000Y-85365200D01*
X183732479Y-81216751D02*
X185644650Y-79304580D01*
X185644650Y-79304580D02*
X192071252Y-79304580D01*
X192071252Y-79304580D02*
X195548820Y-82782148D01*
X181620000Y-85365200D02*
X181745000Y-85365200D01*
X177876200Y-93345000D02*
X178460400Y-92760800D01*
X178460400Y-92760800D02*
X178460400Y-91541600D01*
X178460400Y-91541600D02*
X178477490Y-91524510D01*
X178477490Y-91524510D02*
X178477490Y-88507710D01*
X174853600Y-93345000D02*
X177876200Y-93345000D01*
X178477490Y-88507710D02*
X181620000Y-85365200D01*
X197846628Y-81966828D02*
X198745000Y-82865200D01*
X193891870Y-78012070D02*
X197846628Y-81966828D01*
X185109275Y-78012070D02*
X193891870Y-78012070D01*
X181745000Y-81376345D02*
X185109275Y-78012070D01*
X181745000Y-82865200D02*
X181745000Y-81376345D01*
X179977490Y-84632710D02*
X180846628Y-83763572D01*
X176055681Y-90805000D02*
X176055681Y-90669719D01*
X176055681Y-90669719D02*
X177184980Y-89540420D01*
X177184980Y-89540420D02*
X177184980Y-87972335D01*
X180846628Y-83763572D02*
X181745000Y-82865200D01*
X177184980Y-87972335D02*
X179977490Y-85179826D01*
X174853600Y-90805000D02*
X176055681Y-90805000D01*
X179977490Y-85179826D02*
X179977490Y-84632710D01*
X150413400Y-98365200D02*
X150353600Y-98425000D01*
X156745000Y-98365200D02*
X150413400Y-98365200D01*
X150373400Y-95865200D02*
X150353600Y-95885000D01*
X156745000Y-95865200D02*
X150373400Y-95865200D01*
X150373800Y-93365200D02*
X150353600Y-93345000D01*
X156745000Y-93365200D02*
X150373800Y-93365200D01*
X150413800Y-90865200D02*
X150353600Y-90805000D01*
X156745000Y-90865200D02*
X150413800Y-90865200D01*
X156685200Y-73425000D02*
X156745000Y-73365200D01*
X150353600Y-73425000D02*
X156685200Y-73425000D01*
X156725200Y-70885000D02*
X156745000Y-70865200D01*
X150353600Y-70885000D02*
X156725200Y-70885000D01*
X156724800Y-68345000D02*
X156745000Y-68365200D01*
X150353600Y-68345000D02*
X156724800Y-68345000D01*
X156684800Y-65805000D02*
X156745000Y-65865200D01*
X150353600Y-65805000D02*
X156684800Y-65805000D01*
D31*
X132435600Y-118135400D02*
X134620000Y-120319800D01*
X127076200Y-118135400D02*
X132435600Y-118135400D01*
X129184400Y-122580400D02*
X130581400Y-121183400D01*
X131216400Y-121183400D02*
X132080000Y-120319800D01*
X130581400Y-121183400D02*
X131216400Y-121183400D01*
X129540000Y-120396000D02*
X129540000Y-120319800D01*
X127431800Y-122504200D02*
X129540000Y-120396000D01*
X137185400Y-120294400D02*
X137160000Y-120319800D01*
X138260000Y-120319800D02*
X137160000Y-120319800D01*
X138377699Y-120202101D02*
X138260000Y-120319800D01*
X138377699Y-110763599D02*
X138377699Y-120202101D01*
X139039600Y-110101698D02*
X138377699Y-110763599D01*
X139039600Y-99847400D02*
X139039600Y-110101698D01*
X139192000Y-99695000D02*
X139039600Y-99847400D01*
X149047200Y-99695000D02*
X139192000Y-99695000D01*
X173253400Y-97129600D02*
X162784902Y-97129600D01*
X162757003Y-97157499D02*
X160627101Y-97157499D01*
X160627101Y-97157499D02*
X158087101Y-99697499D01*
X158087101Y-99697499D02*
X149049699Y-99697499D01*
X162784902Y-97129600D02*
X162757003Y-97157499D01*
X149049699Y-99697499D02*
X149047200Y-99695000D01*
M02*
