M48
; DRILL file {KiCad (5.1.2)-2} date 13.08.2019 17:30:24
; FORMAT={-:-/ absolute / metric / decimal}
; #@! TF.CreationDate,2019-08-13T17:30:24+02:00
; #@! TF.GenerationSoftware,Kicad,Pcbnew,(5.1.2)-2
; #@! TF.FileFunction,Plated,1,2,PTH
FMAT,2
METRIC
T1C0.400
T2C0.600
T3C0.762
T4C0.800
T5C0.900
T6C0.920
T7C0.950
T8C1.000
T9C1.016
T10C1.100
T11C1.400
T12C1.520
T13C2.330
%
G90
G05
T1
X-37.754Y12.293
X-37.601Y23.621
X-36.433Y-1.169
T2
X-17.992Y-0.795
X-17.992Y-2.795
X-25.336Y14.96
X-23.336Y14.96
X-25.336Y1.46
X-23.336Y1.46
X-30.66Y30.327
X-28.66Y30.327
T3
X-36.763Y48.513
X-36.763Y39.399
X-21.523Y48.513
X-21.523Y39.399
T4
X-47.0Y-32.4
X-37.195Y-43.562
X-37.068Y-41.022
X-37.068Y-46.102
X-36.941Y-36.958
X-36.941Y-38.482
X-36.925Y-32.075
X-35.137Y-2.566
X-35.01Y-13.742
X-34.985Y0.05
X-32.826Y39.776
X-32.775Y40.741
X-30.54Y24.536
X-29.854Y14.96
X-27.924Y-10.135
X-27.746Y15.671
X-27.746Y2.946
X-27.746Y-4.852
X-27.695Y24.942
X-27.568Y-14.504
X-26.527Y-1.017
X-25.816Y-14.58
X-25.541Y-28.809
X-24.252Y-28.055
X-22.92Y-28.728
X-22.336Y25.806
X-22.285Y-39.447
X-22.174Y-31.244
X-21.6Y37.4
X-21.6Y34.6
X-20.888Y-43.13
X-20.8Y2.2
X-18.856Y-39.32
X-17.8Y0.4
X-17.459Y-39.447
X-17.332Y26.949
X-17.205Y-31.244
X-14.796Y46.003
X-14.767Y13.41
X-14.69Y21.107
X-14.665Y-39.32
X-14.538Y38.506
X-14.487Y30.809
X-12.862Y37.083
X-12.862Y12.115
X-12.862Y6.476
X-11.844Y19.733
X-11.844Y5.164
X-11.82Y44.729
X-11.744Y-39.574
X-11.236Y-48.21
X-10.827Y6.375
X-10.827Y17.198
X-10.803Y42.211
X-10.5Y-29.0
X-9.458Y1.32
X-9.458Y-1.22
X-9.204Y22.148
X-9.204Y6.146
X-8.95Y-48.2
X-8.0Y43.228
X-8.0Y29.6
X-8.0Y18.4
X-8.0Y4.4
X-7.807Y47.751
X-7.731Y49.097
X-5.902Y-40.336
X-0.06Y-7.57
X0.194Y-14.428
X0.194Y-19.254
X0.448Y1.828
X0.448Y-21.794
X0.702Y-3.506
X2.0Y-39.4
X3.0Y3.1
X3.2Y47.4
X3.2Y44.8
X3.471Y-39.98
X4.3Y-23.8
X5.071Y-40.057
X5.172Y-48.413
X7.56Y-40.539
X8.6Y-24.7
X8.83Y-19.508
X9.694Y14.68
X9.694Y5.409
X9.694Y3.917
X9.821Y22.275
X10.1Y-40.361
X12.386Y-19.762
X12.615Y25.298
X12.64Y-40.641
X13.148Y-14.936
X13.3Y-22.8
X13.529Y25.298
X14.6Y44.4
X14.6Y30.8
X14.977Y26.69
X15.18Y-40.463
X15.358Y6.908
X15.942Y47.294
X16.501Y33.375
X17.0Y5.4
X17.415Y29.463
X17.644Y39.649
X17.644Y32.079
X17.669Y47.269
X17.72Y-19.0
X17.72Y-23.064
X18.253Y10.87
X19.244Y-30.684
X19.498Y-35.51
X21.6Y-6.0
X21.81Y-19.378
X22.825Y7.035
X23.0Y-39.0
X23.257Y5.282
X23.308Y2.234
X23.6Y-44.0
X23.787Y48.543
X24.113Y-27.423
X29.606Y0.05
X29.658Y-10.999
X29.658Y-12.396
X29.785Y-16.714
X29.912Y-18.492
X29.912Y-20.27
X29.941Y-21.762
X30.039Y-24.08
X30.039Y-25.604
X30.268Y5.511
X30.268Y4.114
X30.42Y-5.538
X32.96Y-38.507
X33.0Y-42.6
X37.53Y-10.161
X37.786Y-24.08
X37.786Y-27.509
X37.786Y-29.414
X37.8Y-43.2
X37.964Y17.906
X39.564Y-16.536
X39.697Y16.463
X40.0Y-8.0
X40.5Y-5.25
X42.104Y-17.705
X42.75Y-2.5
X43.983Y-15.5
X44.114Y-1.439
X45.25Y-18.0
X48.0Y-43.2
X34.6Y47.2
X34.6Y44.7
X-1.0Y27.7
X-1.0Y25.2
X-1.2Y47.4
X1.3Y47.4
X19.0Y26.0
X21.5Y26.0
T5
X7.154Y22.275
X7.154Y19.735
X7.154Y17.195
X7.154Y14.655
X7.154Y12.115
X7.154Y9.575
X7.154Y7.035
X7.154Y4.495
X19.854Y22.275
X19.854Y19.735
X19.854Y17.195
X19.854Y14.655
X19.854Y12.115
X19.854Y9.575
X19.854Y7.035
X19.854Y4.495
X-17.346Y22.275
X-17.346Y19.735
X-17.346Y17.195
X-17.346Y14.655
X-17.346Y12.115
X-17.346Y9.575
X-17.346Y7.035
X-17.346Y4.495
X-4.646Y22.275
X-4.646Y19.735
X-4.646Y17.195
X-4.646Y14.655
X-4.646Y12.115
X-4.646Y9.575
X-4.646Y7.035
X-4.646Y4.495
X7.154Y47.275
X7.154Y44.735
X7.154Y42.195
X7.154Y39.655
X7.154Y37.115
X7.154Y34.575
X7.154Y32.035
X7.154Y29.495
X19.854Y47.275
X19.854Y44.735
X19.854Y42.195
X19.854Y39.655
X19.854Y37.115
X19.854Y34.575
X19.854Y32.035
X19.854Y29.495
X-17.346Y47.275
X-17.346Y44.735
X-17.346Y42.195
X-17.346Y39.655
X-17.346Y37.115
X-17.346Y34.575
X-17.346Y32.035
X-17.346Y29.495
X-4.646Y47.275
X-4.646Y44.735
X-4.646Y42.195
X-4.646Y39.655
X-4.646Y37.115
X-4.646Y34.575
X-4.646Y32.035
X-4.646Y29.495
T6
X42.739Y-7.824
X42.739Y-10.324
X44.739Y-7.824
X44.739Y-10.324
T7
X43.745Y25.135
X43.745Y22.635
X43.745Y20.135
X43.745Y17.635
X41.215Y-32.081
X43.715Y-32.081
X46.215Y-32.081
X26.745Y42.135
X26.745Y39.635
X26.745Y37.135
X26.745Y34.635
X41.279Y-45.987
X43.779Y-45.987
X46.279Y-45.987
X29.455Y-46.127
X31.955Y-46.127
X34.455Y-46.127
X41.215Y-25.096
X43.715Y-25.096
X46.215Y-25.096
X1.745Y42.135
X1.745Y39.635
X1.745Y37.135
X1.745Y34.635
X1.745Y17.135
X1.745Y14.635
X1.745Y12.135
X1.745Y9.635
X25.213Y-7.509
X25.213Y-10.009
X25.213Y-12.509
X25.213Y-15.009
X25.213Y-17.509
X25.213Y-20.009
X25.213Y-22.509
X25.213Y-25.009
X25.213Y-27.509
X26.745Y25.135
X26.745Y22.635
X26.745Y20.135
X26.745Y17.635
X41.279Y-39.002
X43.779Y-39.002
X46.279Y-39.002
T8
X-22.971Y31.58
X-22.971Y29.08
X-39.735Y-33.402
X-39.735Y-35.942
X-39.735Y-38.482
X-39.735Y-41.022
X-39.735Y-43.562
X-39.735Y-46.102
X25.289Y-40.387
X27.829Y-40.387
X30.369Y-40.387
X23.308Y-32.589
X25.848Y-32.589
X28.388Y-32.589
X8.779Y-11.177
X8.779Y-13.677
X-25.46Y-12.32
X-22.92Y-12.32
X-20.38Y-12.32
X-17.84Y-12.32
X8.779Y-1.177
X8.779Y-3.677
X-30.54Y34.924
X-23.336Y9.46
X-23.336Y6.96
X-22.971Y22.58
X-22.971Y20.08
X-3.9Y-27.2
X-1.36Y-27.2
X1.18Y-27.2
X-33.08Y21.64
X-33.08Y19.1
X-30.54Y21.64
X-30.54Y19.1
X-17.84Y-43.13
X-17.84Y-45.67
X-15.3Y-43.13
X-15.3Y-45.67
X-12.76Y-43.13
X-12.76Y-45.67
X-10.22Y-43.13
X-10.22Y-45.67
X-7.68Y-43.13
X-7.68Y-45.67
X-5.14Y-43.13
X-5.14Y-45.67
X-2.6Y-43.13
X-2.6Y-45.67
X-0.06Y-43.13
X-0.06Y-45.67
X2.48Y-43.13
X2.48Y-45.67
X5.02Y-43.13
X5.02Y-45.67
X7.56Y-43.13
X7.56Y-45.67
X10.1Y-43.13
X10.1Y-45.67
X12.64Y-43.13
X12.64Y-45.67
X15.18Y-43.13
X15.18Y-45.67
X17.72Y-43.13
X17.72Y-45.67
X20.26Y-43.13
X20.26Y-45.67
X39.564Y-20.27
X42.104Y-20.27
X44.644Y-20.27
X47.184Y-20.27
X32.96Y24.18
X32.96Y21.64
X32.96Y19.1
X32.96Y16.56
X32.96Y14.02
X32.96Y11.48
X32.96Y8.94
X32.96Y6.4
X32.96Y3.86
X32.96Y1.32
X32.96Y-1.22
X32.96Y-3.76
X32.96Y-6.3
X32.96Y-8.84
X32.96Y-11.38
X32.96Y-13.92
X32.96Y-16.46
X32.96Y-19.0
X32.96Y-21.54
X32.96Y-24.08
X32.96Y-26.62
X32.96Y-29.16
X32.96Y-31.7
X32.96Y-34.24
X35.5Y24.18
X35.5Y21.64
X35.5Y19.1
X35.5Y16.56
X35.5Y14.02
X35.5Y11.48
X35.5Y8.94
X35.5Y6.4
X35.5Y3.86
X35.5Y1.32
X35.5Y-1.22
X35.5Y-3.76
X35.5Y-6.3
X35.5Y-8.84
X35.5Y-11.38
X35.5Y-13.92
X35.5Y-16.46
X35.5Y-19.0
X35.5Y-21.54
X35.5Y-24.08
X35.5Y-26.62
X35.5Y-29.16
X35.5Y-31.7
X35.5Y-34.24
X17.779Y-1.177
X17.779Y-3.677
X-33.08Y-29.16
X-33.08Y-31.7
X-33.08Y-34.24
X-30.54Y-29.16
X-30.54Y-31.7
X-30.54Y-34.24
X6.0Y-27.2
X8.54Y-27.2
X11.08Y-27.2
X23.308Y-36.272
X25.848Y-36.272
X28.388Y-36.272
X-40.878Y46.456
X-40.878Y43.916
X-40.878Y41.376
X-33.08Y11.48
X-33.08Y8.94
X-33.08Y6.4
X-33.08Y3.86
X-33.08Y1.32
X-33.08Y-1.22
X-33.08Y-3.76
X-33.08Y-6.3
X-33.08Y-8.84
X-33.08Y-11.38
X-33.08Y-13.92
X-30.54Y11.48
X-30.54Y8.94
X-30.54Y6.4
X-30.54Y3.86
X-30.54Y1.32
X-30.54Y-1.22
X-30.54Y-3.76
X-30.54Y-6.3
X-30.54Y-8.84
X-30.54Y-11.38
X-30.54Y-13.92
X17.779Y-11.177
X17.779Y-13.677
X-43.799Y-33.402
X-43.799Y-35.942
X-43.799Y-38.482
X-43.799Y-41.022
X-43.799Y-43.562
X-43.799Y-46.102
X27.321Y5.435
X27.321Y2.895
X27.321Y0.355
X27.321Y-2.185
X35.602Y-38.507
X35.602Y-41.047
X-23.336Y-4.54
X-23.336Y-7.04
X-13.0Y-27.2
X-10.46Y-27.2
X-7.92Y-27.2
X42.6Y44.8
X42.6Y39.8
T9
X-0.285Y-32.716
X-0.285Y-35.256
X2.255Y-32.716
X2.255Y-35.256
X4.795Y-32.716
X4.795Y-35.256
X7.335Y-32.716
X7.335Y-35.256
X9.875Y-32.716
X9.875Y-35.256
X-22.285Y-32.716
X-22.285Y-35.256
X-19.745Y-32.716
X-19.745Y-35.256
X-17.205Y-32.716
X-17.205Y-35.256
X-14.665Y-32.716
X-14.665Y-35.256
X-12.125Y-32.716
X-12.125Y-35.256
T10
X39.615Y7.972
X39.615Y1.472
X44.115Y7.972
X44.115Y1.472
T11
X-37.97Y-18.695
X-37.97Y-26.315
X-37.919Y-1.169
X-37.919Y-8.789
T12
X-39.278Y12.293
X-39.278Y7.213
X-39.227Y23.621
X-39.227Y18.541
X-39.176Y34.797
X-39.176Y29.717
T13
X47.449Y-3.054
X47.449Y-15.094
T0
M30
