G04 #@! TF.GenerationSoftware,KiCad,Pcbnew,(5.1.2)-2*
G04 #@! TF.CreationDate,2019-07-15T11:53:10+02:00*
G04 #@! TF.ProjectId,STM32F407VET6,53544d33-3246-4343-9037-564554362e6b,rev?*
G04 #@! TF.SameCoordinates,Original*
G04 #@! TF.FileFunction,Copper,L2,Bot*
G04 #@! TF.FilePolarity,Positive*
%FSLAX46Y46*%
G04 Gerber Fmt 4.6, Leading zero omitted, Abs format (unit mm)*
G04 Created by KiCad (PCBNEW (5.1.2)-2) date 2019-07-15 11:53:10*
%MOMM*%
%LPD*%
G04 APERTURE LIST*
%ADD10O,1.700000X1.700000*%
%ADD11R,1.700000X1.700000*%
%ADD12C,1.200000*%
%ADD13R,1.200000X1.200000*%
%ADD14C,3.000000*%
%ADD15R,3.000000X3.000000*%
%ADD16C,0.100000*%
%ADD17C,0.875000*%
%ADD18O,1.700000X1.950000*%
%ADD19C,1.700000*%
%ADD20O,1.727200X1.727200*%
%ADD21R,1.727200X1.727200*%
%ADD22C,3.500000*%
%ADD23O,1.950000X1.700000*%
%ADD24C,2.000000*%
%ADD25R,1.200000X2.200000*%
%ADD26R,5.800000X6.400000*%
%ADD27O,2.000000X1.700000*%
%ADD28C,0.800000*%
%ADD29C,1.500000*%
%ADD30C,0.250000*%
%ADD31C,2.000000*%
%ADD32C,1.600000*%
%ADD33C,4.000000*%
%ADD34C,0.200000*%
%ADD35C,0.700000*%
%ADD36C,0.500000*%
G04 APERTURE END LIST*
D10*
X124460000Y-88900000D03*
X121920000Y-88900000D03*
X124460000Y-86360000D03*
D11*
X121920000Y-86360000D03*
D10*
X124460000Y-121920000D03*
X121920000Y-121920000D03*
X124460000Y-119380000D03*
X121920000Y-119380000D03*
X124460000Y-116840000D03*
X121920000Y-116840000D03*
X124460000Y-114300000D03*
X121920000Y-114300000D03*
X124460000Y-111760000D03*
X121920000Y-111760000D03*
X124460000Y-109220000D03*
X121920000Y-109220000D03*
X124460000Y-106680000D03*
X121920000Y-106680000D03*
X124460000Y-104140000D03*
X121920000Y-104140000D03*
X124460000Y-101600000D03*
X121920000Y-101600000D03*
X124460000Y-99060000D03*
X121920000Y-99060000D03*
X124460000Y-96520000D03*
D11*
X121920000Y-96520000D03*
D10*
X124460000Y-142240000D03*
X121920000Y-142240000D03*
X124460000Y-139700000D03*
X121920000Y-139700000D03*
X124460000Y-137160000D03*
D11*
X121920000Y-137160000D03*
D12*
X137464800Y-81210400D03*
D13*
X137464800Y-83210400D03*
D12*
X137464800Y-90049600D03*
D13*
X137464800Y-92049600D03*
D12*
X137464800Y-98685600D03*
D13*
X137464800Y-100685600D03*
D12*
X137769600Y-107423200D03*
D13*
X137769600Y-109423200D03*
D14*
X115925600Y-73202800D03*
D15*
X115925600Y-78282800D03*
D14*
X115874800Y-84378800D03*
D15*
X115874800Y-89458800D03*
D14*
X115722400Y-95707200D03*
D15*
X115722400Y-100787200D03*
D14*
X117080800Y-109169200D03*
X117080800Y-116789200D03*
X117030000Y-126695200D03*
X117030000Y-134315200D03*
D16*
G36*
X195058391Y-121446053D02*
G01*
X195079626Y-121449203D01*
X195100450Y-121454419D01*
X195120662Y-121461651D01*
X195140068Y-121470830D01*
X195158481Y-121481866D01*
X195175724Y-121494654D01*
X195191630Y-121509070D01*
X195206046Y-121524976D01*
X195218834Y-121542219D01*
X195229870Y-121560632D01*
X195239049Y-121580038D01*
X195246281Y-121600250D01*
X195251497Y-121621074D01*
X195254647Y-121642309D01*
X195255700Y-121663750D01*
X195255700Y-122176250D01*
X195254647Y-122197691D01*
X195251497Y-122218926D01*
X195246281Y-122239750D01*
X195239049Y-122259962D01*
X195229870Y-122279368D01*
X195218834Y-122297781D01*
X195206046Y-122315024D01*
X195191630Y-122330930D01*
X195175724Y-122345346D01*
X195158481Y-122358134D01*
X195140068Y-122369170D01*
X195120662Y-122378349D01*
X195100450Y-122385581D01*
X195079626Y-122390797D01*
X195058391Y-122393947D01*
X195036950Y-122395000D01*
X194599450Y-122395000D01*
X194578009Y-122393947D01*
X194556774Y-122390797D01*
X194535950Y-122385581D01*
X194515738Y-122378349D01*
X194496332Y-122369170D01*
X194477919Y-122358134D01*
X194460676Y-122345346D01*
X194444770Y-122330930D01*
X194430354Y-122315024D01*
X194417566Y-122297781D01*
X194406530Y-122279368D01*
X194397351Y-122259962D01*
X194390119Y-122239750D01*
X194384903Y-122218926D01*
X194381753Y-122197691D01*
X194380700Y-122176250D01*
X194380700Y-121663750D01*
X194381753Y-121642309D01*
X194384903Y-121621074D01*
X194390119Y-121600250D01*
X194397351Y-121580038D01*
X194406530Y-121560632D01*
X194417566Y-121542219D01*
X194430354Y-121524976D01*
X194444770Y-121509070D01*
X194460676Y-121494654D01*
X194477919Y-121481866D01*
X194496332Y-121470830D01*
X194515738Y-121461651D01*
X194535950Y-121454419D01*
X194556774Y-121449203D01*
X194578009Y-121446053D01*
X194599450Y-121445000D01*
X195036950Y-121445000D01*
X195058391Y-121446053D01*
X195058391Y-121446053D01*
G37*
D17*
X194818200Y-121920000D03*
D16*
G36*
X193483391Y-121446053D02*
G01*
X193504626Y-121449203D01*
X193525450Y-121454419D01*
X193545662Y-121461651D01*
X193565068Y-121470830D01*
X193583481Y-121481866D01*
X193600724Y-121494654D01*
X193616630Y-121509070D01*
X193631046Y-121524976D01*
X193643834Y-121542219D01*
X193654870Y-121560632D01*
X193664049Y-121580038D01*
X193671281Y-121600250D01*
X193676497Y-121621074D01*
X193679647Y-121642309D01*
X193680700Y-121663750D01*
X193680700Y-122176250D01*
X193679647Y-122197691D01*
X193676497Y-122218926D01*
X193671281Y-122239750D01*
X193664049Y-122259962D01*
X193654870Y-122279368D01*
X193643834Y-122297781D01*
X193631046Y-122315024D01*
X193616630Y-122330930D01*
X193600724Y-122345346D01*
X193583481Y-122358134D01*
X193565068Y-122369170D01*
X193545662Y-122378349D01*
X193525450Y-122385581D01*
X193504626Y-122390797D01*
X193483391Y-122393947D01*
X193461950Y-122395000D01*
X193024450Y-122395000D01*
X193003009Y-122393947D01*
X192981774Y-122390797D01*
X192960950Y-122385581D01*
X192940738Y-122378349D01*
X192921332Y-122369170D01*
X192902919Y-122358134D01*
X192885676Y-122345346D01*
X192869770Y-122330930D01*
X192855354Y-122315024D01*
X192842566Y-122297781D01*
X192831530Y-122279368D01*
X192822351Y-122259962D01*
X192815119Y-122239750D01*
X192809903Y-122218926D01*
X192806753Y-122197691D01*
X192805700Y-122176250D01*
X192805700Y-121663750D01*
X192806753Y-121642309D01*
X192809903Y-121621074D01*
X192815119Y-121600250D01*
X192822351Y-121580038D01*
X192831530Y-121560632D01*
X192842566Y-121542219D01*
X192855354Y-121524976D01*
X192869770Y-121509070D01*
X192885676Y-121494654D01*
X192902919Y-121481866D01*
X192921332Y-121470830D01*
X192940738Y-121461651D01*
X192960950Y-121454419D01*
X192981774Y-121449203D01*
X193003009Y-121446053D01*
X193024450Y-121445000D01*
X193461950Y-121445000D01*
X193483391Y-121446053D01*
X193483391Y-121446053D01*
G37*
D17*
X193243200Y-121920000D03*
D16*
G36*
X195058391Y-113699053D02*
G01*
X195079626Y-113702203D01*
X195100450Y-113707419D01*
X195120662Y-113714651D01*
X195140068Y-113723830D01*
X195158481Y-113734866D01*
X195175724Y-113747654D01*
X195191630Y-113762070D01*
X195206046Y-113777976D01*
X195218834Y-113795219D01*
X195229870Y-113813632D01*
X195239049Y-113833038D01*
X195246281Y-113853250D01*
X195251497Y-113874074D01*
X195254647Y-113895309D01*
X195255700Y-113916750D01*
X195255700Y-114429250D01*
X195254647Y-114450691D01*
X195251497Y-114471926D01*
X195246281Y-114492750D01*
X195239049Y-114512962D01*
X195229870Y-114532368D01*
X195218834Y-114550781D01*
X195206046Y-114568024D01*
X195191630Y-114583930D01*
X195175724Y-114598346D01*
X195158481Y-114611134D01*
X195140068Y-114622170D01*
X195120662Y-114631349D01*
X195100450Y-114638581D01*
X195079626Y-114643797D01*
X195058391Y-114646947D01*
X195036950Y-114648000D01*
X194599450Y-114648000D01*
X194578009Y-114646947D01*
X194556774Y-114643797D01*
X194535950Y-114638581D01*
X194515738Y-114631349D01*
X194496332Y-114622170D01*
X194477919Y-114611134D01*
X194460676Y-114598346D01*
X194444770Y-114583930D01*
X194430354Y-114568024D01*
X194417566Y-114550781D01*
X194406530Y-114532368D01*
X194397351Y-114512962D01*
X194390119Y-114492750D01*
X194384903Y-114471926D01*
X194381753Y-114450691D01*
X194380700Y-114429250D01*
X194380700Y-113916750D01*
X194381753Y-113895309D01*
X194384903Y-113874074D01*
X194390119Y-113853250D01*
X194397351Y-113833038D01*
X194406530Y-113813632D01*
X194417566Y-113795219D01*
X194430354Y-113777976D01*
X194444770Y-113762070D01*
X194460676Y-113747654D01*
X194477919Y-113734866D01*
X194496332Y-113723830D01*
X194515738Y-113714651D01*
X194535950Y-113707419D01*
X194556774Y-113702203D01*
X194578009Y-113699053D01*
X194599450Y-113698000D01*
X195036950Y-113698000D01*
X195058391Y-113699053D01*
X195058391Y-113699053D01*
G37*
D17*
X194818200Y-114173000D03*
D16*
G36*
X193483391Y-113699053D02*
G01*
X193504626Y-113702203D01*
X193525450Y-113707419D01*
X193545662Y-113714651D01*
X193565068Y-113723830D01*
X193583481Y-113734866D01*
X193600724Y-113747654D01*
X193616630Y-113762070D01*
X193631046Y-113777976D01*
X193643834Y-113795219D01*
X193654870Y-113813632D01*
X193664049Y-113833038D01*
X193671281Y-113853250D01*
X193676497Y-113874074D01*
X193679647Y-113895309D01*
X193680700Y-113916750D01*
X193680700Y-114429250D01*
X193679647Y-114450691D01*
X193676497Y-114471926D01*
X193671281Y-114492750D01*
X193664049Y-114512962D01*
X193654870Y-114532368D01*
X193643834Y-114550781D01*
X193631046Y-114568024D01*
X193616630Y-114583930D01*
X193600724Y-114598346D01*
X193583481Y-114611134D01*
X193565068Y-114622170D01*
X193545662Y-114631349D01*
X193525450Y-114638581D01*
X193504626Y-114643797D01*
X193483391Y-114646947D01*
X193461950Y-114648000D01*
X193024450Y-114648000D01*
X193003009Y-114646947D01*
X192981774Y-114643797D01*
X192960950Y-114638581D01*
X192940738Y-114631349D01*
X192921332Y-114622170D01*
X192902919Y-114611134D01*
X192885676Y-114598346D01*
X192869770Y-114583930D01*
X192855354Y-114568024D01*
X192842566Y-114550781D01*
X192831530Y-114532368D01*
X192822351Y-114512962D01*
X192815119Y-114492750D01*
X192809903Y-114471926D01*
X192806753Y-114450691D01*
X192805700Y-114429250D01*
X192805700Y-113916750D01*
X192806753Y-113895309D01*
X192809903Y-113874074D01*
X192815119Y-113853250D01*
X192822351Y-113833038D01*
X192831530Y-113813632D01*
X192842566Y-113795219D01*
X192855354Y-113777976D01*
X192869770Y-113762070D01*
X192885676Y-113747654D01*
X192902919Y-113734866D01*
X192921332Y-113723830D01*
X192940738Y-113714651D01*
X192960950Y-113707419D01*
X192981774Y-113702203D01*
X193003009Y-113699053D01*
X193024450Y-113698000D01*
X193461950Y-113698000D01*
X193483391Y-113699053D01*
X193483391Y-113699053D01*
G37*
D17*
X193243200Y-114173000D03*
D10*
X143611600Y-130759200D03*
X143611600Y-128219200D03*
D11*
X143611600Y-125679200D03*
D10*
X185369200Y-148386800D03*
X182829200Y-148386800D03*
D11*
X180289200Y-148386800D03*
D18*
X189454800Y-154127200D03*
X186954800Y-154127200D03*
D16*
G36*
X185079304Y-153153404D02*
G01*
X185103573Y-153157004D01*
X185127371Y-153162965D01*
X185150471Y-153171230D01*
X185172649Y-153181720D01*
X185193693Y-153194333D01*
X185213398Y-153208947D01*
X185231577Y-153225423D01*
X185248053Y-153243602D01*
X185262667Y-153263307D01*
X185275280Y-153284351D01*
X185285770Y-153306529D01*
X185294035Y-153329629D01*
X185299996Y-153353427D01*
X185303596Y-153377696D01*
X185304800Y-153402200D01*
X185304800Y-154852200D01*
X185303596Y-154876704D01*
X185299996Y-154900973D01*
X185294035Y-154924771D01*
X185285770Y-154947871D01*
X185275280Y-154970049D01*
X185262667Y-154991093D01*
X185248053Y-155010798D01*
X185231577Y-155028977D01*
X185213398Y-155045453D01*
X185193693Y-155060067D01*
X185172649Y-155072680D01*
X185150471Y-155083170D01*
X185127371Y-155091435D01*
X185103573Y-155097396D01*
X185079304Y-155100996D01*
X185054800Y-155102200D01*
X183854800Y-155102200D01*
X183830296Y-155100996D01*
X183806027Y-155097396D01*
X183782229Y-155091435D01*
X183759129Y-155083170D01*
X183736951Y-155072680D01*
X183715907Y-155060067D01*
X183696202Y-155045453D01*
X183678023Y-155028977D01*
X183661547Y-155010798D01*
X183646933Y-154991093D01*
X183634320Y-154970049D01*
X183623830Y-154947871D01*
X183615565Y-154924771D01*
X183609604Y-154900973D01*
X183606004Y-154876704D01*
X183604800Y-154852200D01*
X183604800Y-153402200D01*
X183606004Y-153377696D01*
X183609604Y-153353427D01*
X183615565Y-153329629D01*
X183623830Y-153306529D01*
X183634320Y-153284351D01*
X183646933Y-153263307D01*
X183661547Y-153243602D01*
X183678023Y-153225423D01*
X183696202Y-153208947D01*
X183715907Y-153194333D01*
X183736951Y-153181720D01*
X183759129Y-153171230D01*
X183782229Y-153162965D01*
X183806027Y-153157004D01*
X183830296Y-153153404D01*
X183854800Y-153152200D01*
X185054800Y-153152200D01*
X185079304Y-153153404D01*
X185079304Y-153153404D01*
G37*
D19*
X184454800Y-154127200D03*
D20*
X164875000Y-140716000D03*
X164875000Y-143256000D03*
X162335000Y-140716000D03*
X162335000Y-143256000D03*
X159795000Y-140716000D03*
X159795000Y-143256000D03*
X157255000Y-140716000D03*
X157255000Y-143256000D03*
X154715000Y-140716000D03*
D21*
X154715000Y-143256000D03*
D20*
X142875000Y-140716000D03*
X142875000Y-143256000D03*
X140335000Y-140716000D03*
X140335000Y-143256000D03*
X137795000Y-140716000D03*
X137795000Y-143256000D03*
X135255000Y-140716000D03*
X135255000Y-143256000D03*
X132715000Y-140716000D03*
D21*
X132715000Y-143256000D03*
D22*
X202449000Y-123094000D03*
X202449000Y-111054000D03*
D19*
X199739000Y-115824000D03*
X199739000Y-118324000D03*
X197739000Y-118324000D03*
D11*
X197739000Y-115824000D03*
D16*
G36*
X180962504Y-134660204D02*
G01*
X180986773Y-134663804D01*
X181010571Y-134669765D01*
X181033671Y-134678030D01*
X181055849Y-134688520D01*
X181076893Y-134701133D01*
X181096598Y-134715747D01*
X181114777Y-134732223D01*
X181131253Y-134750402D01*
X181145867Y-134770107D01*
X181158480Y-134791151D01*
X181168970Y-134813329D01*
X181177235Y-134836429D01*
X181183196Y-134860227D01*
X181186796Y-134884496D01*
X181188000Y-134909000D01*
X181188000Y-136109000D01*
X181186796Y-136133504D01*
X181183196Y-136157773D01*
X181177235Y-136181571D01*
X181168970Y-136204671D01*
X181158480Y-136226849D01*
X181145867Y-136247893D01*
X181131253Y-136267598D01*
X181114777Y-136285777D01*
X181096598Y-136302253D01*
X181076893Y-136316867D01*
X181055849Y-136329480D01*
X181033671Y-136339970D01*
X181010571Y-136348235D01*
X180986773Y-136354196D01*
X180962504Y-136357796D01*
X180938000Y-136359000D01*
X179488000Y-136359000D01*
X179463496Y-136357796D01*
X179439227Y-136354196D01*
X179415429Y-136348235D01*
X179392329Y-136339970D01*
X179370151Y-136329480D01*
X179349107Y-136316867D01*
X179329402Y-136302253D01*
X179311223Y-136285777D01*
X179294747Y-136267598D01*
X179280133Y-136247893D01*
X179267520Y-136226849D01*
X179257030Y-136204671D01*
X179248765Y-136181571D01*
X179242804Y-136157773D01*
X179239204Y-136133504D01*
X179238000Y-136109000D01*
X179238000Y-134909000D01*
X179239204Y-134884496D01*
X179242804Y-134860227D01*
X179248765Y-134836429D01*
X179257030Y-134813329D01*
X179267520Y-134791151D01*
X179280133Y-134770107D01*
X179294747Y-134750402D01*
X179311223Y-134732223D01*
X179329402Y-134715747D01*
X179349107Y-134701133D01*
X179370151Y-134688520D01*
X179392329Y-134678030D01*
X179415429Y-134669765D01*
X179439227Y-134663804D01*
X179463496Y-134660204D01*
X179488000Y-134659000D01*
X180938000Y-134659000D01*
X180962504Y-134660204D01*
X180962504Y-134660204D01*
G37*
D19*
X180213000Y-135509000D03*
D23*
X180213000Y-133009000D03*
X180213000Y-130509000D03*
X180213000Y-128009000D03*
X180213000Y-125509000D03*
X180213000Y-123009000D03*
X180213000Y-120509000D03*
X180213000Y-118009000D03*
X180213000Y-115509000D03*
D19*
X156667200Y-91236800D03*
X156667200Y-93776800D03*
X156667200Y-96316800D03*
X156667200Y-98856800D03*
X156667200Y-101396800D03*
X156667200Y-103936800D03*
X156667200Y-106476800D03*
X156667200Y-109016800D03*
X143967200Y-109016800D03*
X143967200Y-106476800D03*
X143967200Y-103936800D03*
X143967200Y-101396800D03*
X143967200Y-98856800D03*
X143967200Y-96316800D03*
X143967200Y-93776800D03*
X143967200Y-91236800D03*
X191566800Y-62230000D03*
X191566800Y-64770000D03*
X191566800Y-67310000D03*
X191566800Y-69850000D03*
X191566800Y-72390000D03*
X191566800Y-74930000D03*
X191566800Y-77470000D03*
X191566800Y-80010000D03*
X178866800Y-80010000D03*
X178866800Y-77470000D03*
X178866800Y-74930000D03*
X178866800Y-72390000D03*
X178866800Y-69850000D03*
X178866800Y-67310000D03*
X178866800Y-64770000D03*
X178866800Y-62230000D03*
X174244000Y-62179200D03*
X174244000Y-64719200D03*
X174244000Y-67259200D03*
X174244000Y-69799200D03*
X174244000Y-72339200D03*
X174244000Y-74879200D03*
X174244000Y-77419200D03*
X174244000Y-79959200D03*
X161544000Y-79959200D03*
X161544000Y-77419200D03*
X161544000Y-74879200D03*
X161544000Y-72339200D03*
X161544000Y-69799200D03*
X161544000Y-67259200D03*
X161544000Y-64719200D03*
X161544000Y-62179200D03*
X156870400Y-62128400D03*
X156870400Y-64668400D03*
X156870400Y-67208400D03*
X156870400Y-69748400D03*
X156870400Y-72288400D03*
X156870400Y-74828400D03*
X156870400Y-77368400D03*
X156870400Y-79908400D03*
X144170400Y-79908400D03*
X144170400Y-77368400D03*
X144170400Y-74828400D03*
X144170400Y-72288400D03*
X144170400Y-69748400D03*
X144170400Y-67208400D03*
X144170400Y-64668400D03*
X144170400Y-62128400D03*
D24*
X199114800Y-106527600D03*
X194614800Y-106527600D03*
X199114800Y-100027600D03*
X194614800Y-100027600D03*
D16*
G36*
X194333691Y-109240553D02*
G01*
X194354926Y-109243703D01*
X194375750Y-109248919D01*
X194395962Y-109256151D01*
X194415368Y-109265330D01*
X194433781Y-109276366D01*
X194451024Y-109289154D01*
X194466930Y-109303570D01*
X194481346Y-109319476D01*
X194494134Y-109336719D01*
X194505170Y-109355132D01*
X194514349Y-109374538D01*
X194521581Y-109394750D01*
X194526797Y-109415574D01*
X194529947Y-109436809D01*
X194531000Y-109458250D01*
X194531000Y-109895750D01*
X194529947Y-109917191D01*
X194526797Y-109938426D01*
X194521581Y-109959250D01*
X194514349Y-109979462D01*
X194505170Y-109998868D01*
X194494134Y-110017281D01*
X194481346Y-110034524D01*
X194466930Y-110050430D01*
X194451024Y-110064846D01*
X194433781Y-110077634D01*
X194415368Y-110088670D01*
X194395962Y-110097849D01*
X194375750Y-110105081D01*
X194354926Y-110110297D01*
X194333691Y-110113447D01*
X194312250Y-110114500D01*
X193799750Y-110114500D01*
X193778309Y-110113447D01*
X193757074Y-110110297D01*
X193736250Y-110105081D01*
X193716038Y-110097849D01*
X193696632Y-110088670D01*
X193678219Y-110077634D01*
X193660976Y-110064846D01*
X193645070Y-110050430D01*
X193630654Y-110034524D01*
X193617866Y-110017281D01*
X193606830Y-109998868D01*
X193597651Y-109979462D01*
X193590419Y-109959250D01*
X193585203Y-109938426D01*
X193582053Y-109917191D01*
X193581000Y-109895750D01*
X193581000Y-109458250D01*
X193582053Y-109436809D01*
X193585203Y-109415574D01*
X193590419Y-109394750D01*
X193597651Y-109374538D01*
X193606830Y-109355132D01*
X193617866Y-109336719D01*
X193630654Y-109319476D01*
X193645070Y-109303570D01*
X193660976Y-109289154D01*
X193678219Y-109276366D01*
X193696632Y-109265330D01*
X193716038Y-109256151D01*
X193736250Y-109248919D01*
X193757074Y-109243703D01*
X193778309Y-109240553D01*
X193799750Y-109239500D01*
X194312250Y-109239500D01*
X194333691Y-109240553D01*
X194333691Y-109240553D01*
G37*
D17*
X194056000Y-109677000D03*
D16*
G36*
X194333691Y-110815553D02*
G01*
X194354926Y-110818703D01*
X194375750Y-110823919D01*
X194395962Y-110831151D01*
X194415368Y-110840330D01*
X194433781Y-110851366D01*
X194451024Y-110864154D01*
X194466930Y-110878570D01*
X194481346Y-110894476D01*
X194494134Y-110911719D01*
X194505170Y-110930132D01*
X194514349Y-110949538D01*
X194521581Y-110969750D01*
X194526797Y-110990574D01*
X194529947Y-111011809D01*
X194531000Y-111033250D01*
X194531000Y-111470750D01*
X194529947Y-111492191D01*
X194526797Y-111513426D01*
X194521581Y-111534250D01*
X194514349Y-111554462D01*
X194505170Y-111573868D01*
X194494134Y-111592281D01*
X194481346Y-111609524D01*
X194466930Y-111625430D01*
X194451024Y-111639846D01*
X194433781Y-111652634D01*
X194415368Y-111663670D01*
X194395962Y-111672849D01*
X194375750Y-111680081D01*
X194354926Y-111685297D01*
X194333691Y-111688447D01*
X194312250Y-111689500D01*
X193799750Y-111689500D01*
X193778309Y-111688447D01*
X193757074Y-111685297D01*
X193736250Y-111680081D01*
X193716038Y-111672849D01*
X193696632Y-111663670D01*
X193678219Y-111652634D01*
X193660976Y-111639846D01*
X193645070Y-111625430D01*
X193630654Y-111609524D01*
X193617866Y-111592281D01*
X193606830Y-111573868D01*
X193597651Y-111554462D01*
X193590419Y-111534250D01*
X193585203Y-111513426D01*
X193582053Y-111492191D01*
X193581000Y-111470750D01*
X193581000Y-111033250D01*
X193582053Y-111011809D01*
X193585203Y-110990574D01*
X193590419Y-110969750D01*
X193597651Y-110949538D01*
X193606830Y-110930132D01*
X193617866Y-110911719D01*
X193630654Y-110894476D01*
X193645070Y-110878570D01*
X193660976Y-110864154D01*
X193678219Y-110851366D01*
X193696632Y-110840330D01*
X193716038Y-110831151D01*
X193736250Y-110823919D01*
X193757074Y-110818703D01*
X193778309Y-110815553D01*
X193799750Y-110814500D01*
X194312250Y-110814500D01*
X194333691Y-110815553D01*
X194333691Y-110815553D01*
G37*
D17*
X194056000Y-111252000D03*
D23*
X227380800Y-12549800D03*
X227380800Y-15049800D03*
X227380800Y-17549800D03*
D16*
G36*
X228130304Y-19201004D02*
G01*
X228154573Y-19204604D01*
X228178371Y-19210565D01*
X228201471Y-19218830D01*
X228223649Y-19229320D01*
X228244693Y-19241933D01*
X228264398Y-19256547D01*
X228282577Y-19273023D01*
X228299053Y-19291202D01*
X228313667Y-19310907D01*
X228326280Y-19331951D01*
X228336770Y-19354129D01*
X228345035Y-19377229D01*
X228350996Y-19401027D01*
X228354596Y-19425296D01*
X228355800Y-19449800D01*
X228355800Y-20649800D01*
X228354596Y-20674304D01*
X228350996Y-20698573D01*
X228345035Y-20722371D01*
X228336770Y-20745471D01*
X228326280Y-20767649D01*
X228313667Y-20788693D01*
X228299053Y-20808398D01*
X228282577Y-20826577D01*
X228264398Y-20843053D01*
X228244693Y-20857667D01*
X228223649Y-20870280D01*
X228201471Y-20880770D01*
X228178371Y-20889035D01*
X228154573Y-20894996D01*
X228130304Y-20898596D01*
X228105800Y-20899800D01*
X226655800Y-20899800D01*
X226631296Y-20898596D01*
X226607027Y-20894996D01*
X226583229Y-20889035D01*
X226560129Y-20880770D01*
X226537951Y-20870280D01*
X226516907Y-20857667D01*
X226497202Y-20843053D01*
X226479023Y-20826577D01*
X226462547Y-20808398D01*
X226447933Y-20788693D01*
X226435320Y-20767649D01*
X226424830Y-20745471D01*
X226416565Y-20722371D01*
X226410604Y-20698573D01*
X226407004Y-20674304D01*
X226405800Y-20649800D01*
X226405800Y-19449800D01*
X226407004Y-19425296D01*
X226410604Y-19401027D01*
X226416565Y-19377229D01*
X226424830Y-19354129D01*
X226435320Y-19331951D01*
X226447933Y-19310907D01*
X226462547Y-19291202D01*
X226479023Y-19273023D01*
X226497202Y-19256547D01*
X226516907Y-19241933D01*
X226537951Y-19229320D01*
X226560129Y-19218830D01*
X226583229Y-19210565D01*
X226607027Y-19204604D01*
X226631296Y-19201004D01*
X226655800Y-19199800D01*
X228105800Y-19199800D01*
X228130304Y-19201004D01*
X228130304Y-19201004D01*
G37*
D19*
X227380800Y-20049800D03*
D25*
X71139400Y-90763200D03*
X66579400Y-90763200D03*
D26*
X68859400Y-84463200D03*
D23*
X237744000Y-45382800D03*
X237744000Y-47882800D03*
X237744000Y-50382800D03*
D16*
G36*
X238493504Y-52034004D02*
G01*
X238517773Y-52037604D01*
X238541571Y-52043565D01*
X238564671Y-52051830D01*
X238586849Y-52062320D01*
X238607893Y-52074933D01*
X238627598Y-52089547D01*
X238645777Y-52106023D01*
X238662253Y-52124202D01*
X238676867Y-52143907D01*
X238689480Y-52164951D01*
X238699970Y-52187129D01*
X238708235Y-52210229D01*
X238714196Y-52234027D01*
X238717796Y-52258296D01*
X238719000Y-52282800D01*
X238719000Y-53482800D01*
X238717796Y-53507304D01*
X238714196Y-53531573D01*
X238708235Y-53555371D01*
X238699970Y-53578471D01*
X238689480Y-53600649D01*
X238676867Y-53621693D01*
X238662253Y-53641398D01*
X238645777Y-53659577D01*
X238627598Y-53676053D01*
X238607893Y-53690667D01*
X238586849Y-53703280D01*
X238564671Y-53713770D01*
X238541571Y-53722035D01*
X238517773Y-53727996D01*
X238493504Y-53731596D01*
X238469000Y-53732800D01*
X237019000Y-53732800D01*
X236994496Y-53731596D01*
X236970227Y-53727996D01*
X236946429Y-53722035D01*
X236923329Y-53713770D01*
X236901151Y-53703280D01*
X236880107Y-53690667D01*
X236860402Y-53676053D01*
X236842223Y-53659577D01*
X236825747Y-53641398D01*
X236811133Y-53621693D01*
X236798520Y-53600649D01*
X236788030Y-53578471D01*
X236779765Y-53555371D01*
X236773804Y-53531573D01*
X236770204Y-53507304D01*
X236769000Y-53482800D01*
X236769000Y-52282800D01*
X236770204Y-52258296D01*
X236773804Y-52234027D01*
X236779765Y-52210229D01*
X236788030Y-52187129D01*
X236798520Y-52164951D01*
X236811133Y-52143907D01*
X236825747Y-52124202D01*
X236842223Y-52106023D01*
X236860402Y-52089547D01*
X236880107Y-52074933D01*
X236901151Y-52062320D01*
X236923329Y-52051830D01*
X236946429Y-52043565D01*
X236970227Y-52037604D01*
X236994496Y-52034004D01*
X237019000Y-52032800D01*
X238469000Y-52032800D01*
X238493504Y-52034004D01*
X238493504Y-52034004D01*
G37*
D19*
X237744000Y-52882800D03*
D18*
X131248800Y-61468000D03*
X128748800Y-61468000D03*
X126248800Y-61468000D03*
D16*
G36*
X124373304Y-60494204D02*
G01*
X124397573Y-60497804D01*
X124421371Y-60503765D01*
X124444471Y-60512030D01*
X124466649Y-60522520D01*
X124487693Y-60535133D01*
X124507398Y-60549747D01*
X124525577Y-60566223D01*
X124542053Y-60584402D01*
X124556667Y-60604107D01*
X124569280Y-60625151D01*
X124579770Y-60647329D01*
X124588035Y-60670429D01*
X124593996Y-60694227D01*
X124597596Y-60718496D01*
X124598800Y-60743000D01*
X124598800Y-62193000D01*
X124597596Y-62217504D01*
X124593996Y-62241773D01*
X124588035Y-62265571D01*
X124579770Y-62288671D01*
X124569280Y-62310849D01*
X124556667Y-62331893D01*
X124542053Y-62351598D01*
X124525577Y-62369777D01*
X124507398Y-62386253D01*
X124487693Y-62400867D01*
X124466649Y-62413480D01*
X124444471Y-62423970D01*
X124421371Y-62432235D01*
X124397573Y-62438196D01*
X124373304Y-62441796D01*
X124348800Y-62443000D01*
X123148800Y-62443000D01*
X123124296Y-62441796D01*
X123100027Y-62438196D01*
X123076229Y-62432235D01*
X123053129Y-62423970D01*
X123030951Y-62413480D01*
X123009907Y-62400867D01*
X122990202Y-62386253D01*
X122972023Y-62369777D01*
X122955547Y-62351598D01*
X122940933Y-62331893D01*
X122928320Y-62310849D01*
X122917830Y-62288671D01*
X122909565Y-62265571D01*
X122903604Y-62241773D01*
X122900004Y-62217504D01*
X122898800Y-62193000D01*
X122898800Y-60743000D01*
X122900004Y-60718496D01*
X122903604Y-60694227D01*
X122909565Y-60670429D01*
X122917830Y-60647329D01*
X122928320Y-60625151D01*
X122940933Y-60604107D01*
X122955547Y-60584402D01*
X122972023Y-60566223D01*
X122990202Y-60549747D01*
X123009907Y-60535133D01*
X123030951Y-60522520D01*
X123053129Y-60512030D01*
X123076229Y-60503765D01*
X123100027Y-60497804D01*
X123124296Y-60494204D01*
X123148800Y-60493000D01*
X124348800Y-60493000D01*
X124373304Y-60494204D01*
X124373304Y-60494204D01*
G37*
D19*
X123748800Y-61468000D03*
D18*
X201215000Y-133096000D03*
X198715000Y-133096000D03*
D16*
G36*
X196839504Y-132122204D02*
G01*
X196863773Y-132125804D01*
X196887571Y-132131765D01*
X196910671Y-132140030D01*
X196932849Y-132150520D01*
X196953893Y-132163133D01*
X196973598Y-132177747D01*
X196991777Y-132194223D01*
X197008253Y-132212402D01*
X197022867Y-132232107D01*
X197035480Y-132253151D01*
X197045970Y-132275329D01*
X197054235Y-132298429D01*
X197060196Y-132322227D01*
X197063796Y-132346496D01*
X197065000Y-132371000D01*
X197065000Y-133821000D01*
X197063796Y-133845504D01*
X197060196Y-133869773D01*
X197054235Y-133893571D01*
X197045970Y-133916671D01*
X197035480Y-133938849D01*
X197022867Y-133959893D01*
X197008253Y-133979598D01*
X196991777Y-133997777D01*
X196973598Y-134014253D01*
X196953893Y-134028867D01*
X196932849Y-134041480D01*
X196910671Y-134051970D01*
X196887571Y-134060235D01*
X196863773Y-134066196D01*
X196839504Y-134069796D01*
X196815000Y-134071000D01*
X195615000Y-134071000D01*
X195590496Y-134069796D01*
X195566227Y-134066196D01*
X195542429Y-134060235D01*
X195519329Y-134051970D01*
X195497151Y-134041480D01*
X195476107Y-134028867D01*
X195456402Y-134014253D01*
X195438223Y-133997777D01*
X195421747Y-133979598D01*
X195407133Y-133959893D01*
X195394520Y-133938849D01*
X195384030Y-133916671D01*
X195375765Y-133893571D01*
X195369804Y-133869773D01*
X195366204Y-133845504D01*
X195365000Y-133821000D01*
X195365000Y-132371000D01*
X195366204Y-132346496D01*
X195369804Y-132322227D01*
X195375765Y-132298429D01*
X195384030Y-132275329D01*
X195394520Y-132253151D01*
X195407133Y-132232107D01*
X195421747Y-132212402D01*
X195438223Y-132194223D01*
X195456402Y-132177747D01*
X195476107Y-132163133D01*
X195497151Y-132150520D01*
X195519329Y-132140030D01*
X195542429Y-132131765D01*
X195566227Y-132125804D01*
X195590496Y-132122204D01*
X195615000Y-132121000D01*
X196815000Y-132121000D01*
X196839504Y-132122204D01*
X196839504Y-132122204D01*
G37*
D19*
X196215000Y-133096000D03*
D18*
X201278500Y-153987500D03*
X198778500Y-153987500D03*
D16*
G36*
X196903004Y-153013704D02*
G01*
X196927273Y-153017304D01*
X196951071Y-153023265D01*
X196974171Y-153031530D01*
X196996349Y-153042020D01*
X197017393Y-153054633D01*
X197037098Y-153069247D01*
X197055277Y-153085723D01*
X197071753Y-153103902D01*
X197086367Y-153123607D01*
X197098980Y-153144651D01*
X197109470Y-153166829D01*
X197117735Y-153189929D01*
X197123696Y-153213727D01*
X197127296Y-153237996D01*
X197128500Y-153262500D01*
X197128500Y-154712500D01*
X197127296Y-154737004D01*
X197123696Y-154761273D01*
X197117735Y-154785071D01*
X197109470Y-154808171D01*
X197098980Y-154830349D01*
X197086367Y-154851393D01*
X197071753Y-154871098D01*
X197055277Y-154889277D01*
X197037098Y-154905753D01*
X197017393Y-154920367D01*
X196996349Y-154932980D01*
X196974171Y-154943470D01*
X196951071Y-154951735D01*
X196927273Y-154957696D01*
X196903004Y-154961296D01*
X196878500Y-154962500D01*
X195678500Y-154962500D01*
X195653996Y-154961296D01*
X195629727Y-154957696D01*
X195605929Y-154951735D01*
X195582829Y-154943470D01*
X195560651Y-154932980D01*
X195539607Y-154920367D01*
X195519902Y-154905753D01*
X195501723Y-154889277D01*
X195485247Y-154871098D01*
X195470633Y-154851393D01*
X195458020Y-154830349D01*
X195447530Y-154808171D01*
X195439265Y-154785071D01*
X195433304Y-154761273D01*
X195429704Y-154737004D01*
X195428500Y-154712500D01*
X195428500Y-153262500D01*
X195429704Y-153237996D01*
X195433304Y-153213727D01*
X195439265Y-153189929D01*
X195447530Y-153166829D01*
X195458020Y-153144651D01*
X195470633Y-153123607D01*
X195485247Y-153103902D01*
X195501723Y-153085723D01*
X195519902Y-153069247D01*
X195539607Y-153054633D01*
X195560651Y-153042020D01*
X195582829Y-153031530D01*
X195605929Y-153023265D01*
X195629727Y-153017304D01*
X195653996Y-153013704D01*
X195678500Y-153012500D01*
X196878500Y-153012500D01*
X196903004Y-153013704D01*
X196903004Y-153013704D01*
G37*
D19*
X196278500Y-153987500D03*
D18*
X201278500Y-147002500D03*
X198778500Y-147002500D03*
D16*
G36*
X196903004Y-146028704D02*
G01*
X196927273Y-146032304D01*
X196951071Y-146038265D01*
X196974171Y-146046530D01*
X196996349Y-146057020D01*
X197017393Y-146069633D01*
X197037098Y-146084247D01*
X197055277Y-146100723D01*
X197071753Y-146118902D01*
X197086367Y-146138607D01*
X197098980Y-146159651D01*
X197109470Y-146181829D01*
X197117735Y-146204929D01*
X197123696Y-146228727D01*
X197127296Y-146252996D01*
X197128500Y-146277500D01*
X197128500Y-147727500D01*
X197127296Y-147752004D01*
X197123696Y-147776273D01*
X197117735Y-147800071D01*
X197109470Y-147823171D01*
X197098980Y-147845349D01*
X197086367Y-147866393D01*
X197071753Y-147886098D01*
X197055277Y-147904277D01*
X197037098Y-147920753D01*
X197017393Y-147935367D01*
X196996349Y-147947980D01*
X196974171Y-147958470D01*
X196951071Y-147966735D01*
X196927273Y-147972696D01*
X196903004Y-147976296D01*
X196878500Y-147977500D01*
X195678500Y-147977500D01*
X195653996Y-147976296D01*
X195629727Y-147972696D01*
X195605929Y-147966735D01*
X195582829Y-147958470D01*
X195560651Y-147947980D01*
X195539607Y-147935367D01*
X195519902Y-147920753D01*
X195501723Y-147904277D01*
X195485247Y-147886098D01*
X195470633Y-147866393D01*
X195458020Y-147845349D01*
X195447530Y-147823171D01*
X195439265Y-147800071D01*
X195433304Y-147776273D01*
X195429704Y-147752004D01*
X195428500Y-147727500D01*
X195428500Y-146277500D01*
X195429704Y-146252996D01*
X195433304Y-146228727D01*
X195439265Y-146204929D01*
X195447530Y-146181829D01*
X195458020Y-146159651D01*
X195470633Y-146138607D01*
X195485247Y-146118902D01*
X195501723Y-146100723D01*
X195519902Y-146084247D01*
X195539607Y-146069633D01*
X195560651Y-146057020D01*
X195582829Y-146046530D01*
X195605929Y-146038265D01*
X195629727Y-146032304D01*
X195653996Y-146028704D01*
X195678500Y-146027500D01*
X196878500Y-146027500D01*
X196903004Y-146028704D01*
X196903004Y-146028704D01*
G37*
D19*
X196278500Y-147002500D03*
D18*
X131706000Y-70358000D03*
X129206000Y-70358000D03*
X126706000Y-70358000D03*
D16*
G36*
X124830504Y-69384204D02*
G01*
X124854773Y-69387804D01*
X124878571Y-69393765D01*
X124901671Y-69402030D01*
X124923849Y-69412520D01*
X124944893Y-69425133D01*
X124964598Y-69439747D01*
X124982777Y-69456223D01*
X124999253Y-69474402D01*
X125013867Y-69494107D01*
X125026480Y-69515151D01*
X125036970Y-69537329D01*
X125045235Y-69560429D01*
X125051196Y-69584227D01*
X125054796Y-69608496D01*
X125056000Y-69633000D01*
X125056000Y-71083000D01*
X125054796Y-71107504D01*
X125051196Y-71131773D01*
X125045235Y-71155571D01*
X125036970Y-71178671D01*
X125026480Y-71200849D01*
X125013867Y-71221893D01*
X124999253Y-71241598D01*
X124982777Y-71259777D01*
X124964598Y-71276253D01*
X124944893Y-71290867D01*
X124923849Y-71303480D01*
X124901671Y-71313970D01*
X124878571Y-71322235D01*
X124854773Y-71328196D01*
X124830504Y-71331796D01*
X124806000Y-71333000D01*
X123606000Y-71333000D01*
X123581496Y-71331796D01*
X123557227Y-71328196D01*
X123533429Y-71322235D01*
X123510329Y-71313970D01*
X123488151Y-71303480D01*
X123467107Y-71290867D01*
X123447402Y-71276253D01*
X123429223Y-71259777D01*
X123412747Y-71241598D01*
X123398133Y-71221893D01*
X123385520Y-71200849D01*
X123375030Y-71178671D01*
X123366765Y-71155571D01*
X123360804Y-71131773D01*
X123357204Y-71107504D01*
X123356000Y-71083000D01*
X123356000Y-69633000D01*
X123357204Y-69608496D01*
X123360804Y-69584227D01*
X123366765Y-69560429D01*
X123375030Y-69537329D01*
X123385520Y-69515151D01*
X123398133Y-69494107D01*
X123412747Y-69474402D01*
X123429223Y-69456223D01*
X123447402Y-69439747D01*
X123467107Y-69425133D01*
X123488151Y-69412520D01*
X123510329Y-69402030D01*
X123533429Y-69393765D01*
X123557227Y-69387804D01*
X123581496Y-69384204D01*
X123606000Y-69383000D01*
X124806000Y-69383000D01*
X124830504Y-69384204D01*
X124830504Y-69384204D01*
G37*
D19*
X124206000Y-70358000D03*
D18*
X201215000Y-140081000D03*
X198715000Y-140081000D03*
D16*
G36*
X196839504Y-139107204D02*
G01*
X196863773Y-139110804D01*
X196887571Y-139116765D01*
X196910671Y-139125030D01*
X196932849Y-139135520D01*
X196953893Y-139148133D01*
X196973598Y-139162747D01*
X196991777Y-139179223D01*
X197008253Y-139197402D01*
X197022867Y-139217107D01*
X197035480Y-139238151D01*
X197045970Y-139260329D01*
X197054235Y-139283429D01*
X197060196Y-139307227D01*
X197063796Y-139331496D01*
X197065000Y-139356000D01*
X197065000Y-140806000D01*
X197063796Y-140830504D01*
X197060196Y-140854773D01*
X197054235Y-140878571D01*
X197045970Y-140901671D01*
X197035480Y-140923849D01*
X197022867Y-140944893D01*
X197008253Y-140964598D01*
X196991777Y-140982777D01*
X196973598Y-140999253D01*
X196953893Y-141013867D01*
X196932849Y-141026480D01*
X196910671Y-141036970D01*
X196887571Y-141045235D01*
X196863773Y-141051196D01*
X196839504Y-141054796D01*
X196815000Y-141056000D01*
X195615000Y-141056000D01*
X195590496Y-141054796D01*
X195566227Y-141051196D01*
X195542429Y-141045235D01*
X195519329Y-141036970D01*
X195497151Y-141026480D01*
X195476107Y-141013867D01*
X195456402Y-140999253D01*
X195438223Y-140982777D01*
X195421747Y-140964598D01*
X195407133Y-140944893D01*
X195394520Y-140923849D01*
X195384030Y-140901671D01*
X195375765Y-140878571D01*
X195369804Y-140854773D01*
X195366204Y-140830504D01*
X195365000Y-140806000D01*
X195365000Y-139356000D01*
X195366204Y-139331496D01*
X195369804Y-139307227D01*
X195375765Y-139283429D01*
X195384030Y-139260329D01*
X195394520Y-139238151D01*
X195407133Y-139217107D01*
X195421747Y-139197402D01*
X195438223Y-139179223D01*
X195456402Y-139162747D01*
X195476107Y-139148133D01*
X195497151Y-139135520D01*
X195519329Y-139125030D01*
X195542429Y-139116765D01*
X195566227Y-139110804D01*
X195590496Y-139107204D01*
X195615000Y-139106000D01*
X196815000Y-139106000D01*
X196839504Y-139107204D01*
X196839504Y-139107204D01*
G37*
D19*
X196215000Y-140081000D03*
D16*
G36*
X195171891Y-117089253D02*
G01*
X195193126Y-117092403D01*
X195213950Y-117097619D01*
X195234162Y-117104851D01*
X195253568Y-117114030D01*
X195271981Y-117125066D01*
X195289224Y-117137854D01*
X195305130Y-117152270D01*
X195319546Y-117168176D01*
X195332334Y-117185419D01*
X195343370Y-117203832D01*
X195352549Y-117223238D01*
X195359781Y-117243450D01*
X195364997Y-117264274D01*
X195368147Y-117285509D01*
X195369200Y-117306950D01*
X195369200Y-117744450D01*
X195368147Y-117765891D01*
X195364997Y-117787126D01*
X195359781Y-117807950D01*
X195352549Y-117828162D01*
X195343370Y-117847568D01*
X195332334Y-117865981D01*
X195319546Y-117883224D01*
X195305130Y-117899130D01*
X195289224Y-117913546D01*
X195271981Y-117926334D01*
X195253568Y-117937370D01*
X195234162Y-117946549D01*
X195213950Y-117953781D01*
X195193126Y-117958997D01*
X195171891Y-117962147D01*
X195150450Y-117963200D01*
X194637950Y-117963200D01*
X194616509Y-117962147D01*
X194595274Y-117958997D01*
X194574450Y-117953781D01*
X194554238Y-117946549D01*
X194534832Y-117937370D01*
X194516419Y-117926334D01*
X194499176Y-117913546D01*
X194483270Y-117899130D01*
X194468854Y-117883224D01*
X194456066Y-117865981D01*
X194445030Y-117847568D01*
X194435851Y-117828162D01*
X194428619Y-117807950D01*
X194423403Y-117787126D01*
X194420253Y-117765891D01*
X194419200Y-117744450D01*
X194419200Y-117306950D01*
X194420253Y-117285509D01*
X194423403Y-117264274D01*
X194428619Y-117243450D01*
X194435851Y-117223238D01*
X194445030Y-117203832D01*
X194456066Y-117185419D01*
X194468854Y-117168176D01*
X194483270Y-117152270D01*
X194499176Y-117137854D01*
X194516419Y-117125066D01*
X194534832Y-117114030D01*
X194554238Y-117104851D01*
X194574450Y-117097619D01*
X194595274Y-117092403D01*
X194616509Y-117089253D01*
X194637950Y-117088200D01*
X195150450Y-117088200D01*
X195171891Y-117089253D01*
X195171891Y-117089253D01*
G37*
D17*
X194894200Y-117525700D03*
D16*
G36*
X195171891Y-118664253D02*
G01*
X195193126Y-118667403D01*
X195213950Y-118672619D01*
X195234162Y-118679851D01*
X195253568Y-118689030D01*
X195271981Y-118700066D01*
X195289224Y-118712854D01*
X195305130Y-118727270D01*
X195319546Y-118743176D01*
X195332334Y-118760419D01*
X195343370Y-118778832D01*
X195352549Y-118798238D01*
X195359781Y-118818450D01*
X195364997Y-118839274D01*
X195368147Y-118860509D01*
X195369200Y-118881950D01*
X195369200Y-119319450D01*
X195368147Y-119340891D01*
X195364997Y-119362126D01*
X195359781Y-119382950D01*
X195352549Y-119403162D01*
X195343370Y-119422568D01*
X195332334Y-119440981D01*
X195319546Y-119458224D01*
X195305130Y-119474130D01*
X195289224Y-119488546D01*
X195271981Y-119501334D01*
X195253568Y-119512370D01*
X195234162Y-119521549D01*
X195213950Y-119528781D01*
X195193126Y-119533997D01*
X195171891Y-119537147D01*
X195150450Y-119538200D01*
X194637950Y-119538200D01*
X194616509Y-119537147D01*
X194595274Y-119533997D01*
X194574450Y-119528781D01*
X194554238Y-119521549D01*
X194534832Y-119512370D01*
X194516419Y-119501334D01*
X194499176Y-119488546D01*
X194483270Y-119474130D01*
X194468854Y-119458224D01*
X194456066Y-119440981D01*
X194445030Y-119422568D01*
X194435851Y-119403162D01*
X194428619Y-119382950D01*
X194423403Y-119362126D01*
X194420253Y-119340891D01*
X194419200Y-119319450D01*
X194419200Y-118881950D01*
X194420253Y-118860509D01*
X194423403Y-118839274D01*
X194428619Y-118818450D01*
X194435851Y-118798238D01*
X194445030Y-118778832D01*
X194456066Y-118760419D01*
X194468854Y-118743176D01*
X194483270Y-118727270D01*
X194499176Y-118712854D01*
X194516419Y-118700066D01*
X194534832Y-118689030D01*
X194554238Y-118679851D01*
X194574450Y-118672619D01*
X194595274Y-118667403D01*
X194616509Y-118664253D01*
X194637950Y-118663200D01*
X195150450Y-118663200D01*
X195171891Y-118664253D01*
X195171891Y-118664253D01*
G37*
D17*
X194894200Y-119100700D03*
D23*
X227380800Y-26265800D03*
X227380800Y-28765800D03*
X227380800Y-31265800D03*
D16*
G36*
X228130304Y-32917004D02*
G01*
X228154573Y-32920604D01*
X228178371Y-32926565D01*
X228201471Y-32934830D01*
X228223649Y-32945320D01*
X228244693Y-32957933D01*
X228264398Y-32972547D01*
X228282577Y-32989023D01*
X228299053Y-33007202D01*
X228313667Y-33026907D01*
X228326280Y-33047951D01*
X228336770Y-33070129D01*
X228345035Y-33093229D01*
X228350996Y-33117027D01*
X228354596Y-33141296D01*
X228355800Y-33165800D01*
X228355800Y-34365800D01*
X228354596Y-34390304D01*
X228350996Y-34414573D01*
X228345035Y-34438371D01*
X228336770Y-34461471D01*
X228326280Y-34483649D01*
X228313667Y-34504693D01*
X228299053Y-34524398D01*
X228282577Y-34542577D01*
X228264398Y-34559053D01*
X228244693Y-34573667D01*
X228223649Y-34586280D01*
X228201471Y-34596770D01*
X228178371Y-34605035D01*
X228154573Y-34610996D01*
X228130304Y-34614596D01*
X228105800Y-34615800D01*
X226655800Y-34615800D01*
X226631296Y-34614596D01*
X226607027Y-34610996D01*
X226583229Y-34605035D01*
X226560129Y-34596770D01*
X226537951Y-34586280D01*
X226516907Y-34573667D01*
X226497202Y-34559053D01*
X226479023Y-34542577D01*
X226462547Y-34524398D01*
X226447933Y-34504693D01*
X226435320Y-34483649D01*
X226424830Y-34461471D01*
X226416565Y-34438371D01*
X226410604Y-34414573D01*
X226407004Y-34390304D01*
X226405800Y-34365800D01*
X226405800Y-33165800D01*
X226407004Y-33141296D01*
X226410604Y-33117027D01*
X226416565Y-33093229D01*
X226424830Y-33070129D01*
X226435320Y-33047951D01*
X226447933Y-33026907D01*
X226462547Y-33007202D01*
X226479023Y-32989023D01*
X226497202Y-32972547D01*
X226516907Y-32957933D01*
X226537951Y-32945320D01*
X226560129Y-32934830D01*
X226583229Y-32926565D01*
X226607027Y-32920604D01*
X226631296Y-32917004D01*
X226655800Y-32915800D01*
X228105800Y-32915800D01*
X228130304Y-32917004D01*
X228130304Y-32917004D01*
G37*
D19*
X227380800Y-33765800D03*
D10*
X190500000Y-142240000D03*
X187960000Y-142240000D03*
X190500000Y-139700000D03*
X187960000Y-139700000D03*
X190500000Y-137160000D03*
X187960000Y-137160000D03*
X190500000Y-134620000D03*
X187960000Y-134620000D03*
X190500000Y-132080000D03*
X187960000Y-132080000D03*
X190500000Y-129540000D03*
X187960000Y-129540000D03*
X190500000Y-127000000D03*
X187960000Y-127000000D03*
X190500000Y-124460000D03*
X187960000Y-124460000D03*
X190500000Y-121920000D03*
X187960000Y-121920000D03*
X190500000Y-119380000D03*
X187960000Y-119380000D03*
X190500000Y-116840000D03*
X187960000Y-116840000D03*
X190500000Y-114300000D03*
X187960000Y-114300000D03*
X190500000Y-111760000D03*
X187960000Y-111760000D03*
X190500000Y-109220000D03*
X187960000Y-109220000D03*
X190500000Y-106680000D03*
X187960000Y-106680000D03*
X190500000Y-104140000D03*
X187960000Y-104140000D03*
X190500000Y-101600000D03*
X187960000Y-101600000D03*
X190500000Y-99060000D03*
X187960000Y-99060000D03*
X190500000Y-96520000D03*
X187960000Y-96520000D03*
X190500000Y-93980000D03*
X187960000Y-93980000D03*
X190500000Y-91440000D03*
X187960000Y-91440000D03*
X190500000Y-88900000D03*
X187960000Y-88900000D03*
X190500000Y-86360000D03*
X187960000Y-86360000D03*
X190500000Y-83820000D03*
D11*
X187960000Y-83820000D03*
D10*
X137160000Y-153670000D03*
X137160000Y-151130000D03*
X139700000Y-153670000D03*
X139700000Y-151130000D03*
X142240000Y-153670000D03*
X142240000Y-151130000D03*
X144780000Y-153670000D03*
X144780000Y-151130000D03*
X147320000Y-153670000D03*
X147320000Y-151130000D03*
X149860000Y-153670000D03*
X149860000Y-151130000D03*
X152400000Y-153670000D03*
X152400000Y-151130000D03*
X154940000Y-153670000D03*
X154940000Y-151130000D03*
X157480000Y-153670000D03*
X157480000Y-151130000D03*
X160020000Y-153670000D03*
X160020000Y-151130000D03*
X162560000Y-153670000D03*
X162560000Y-151130000D03*
X165100000Y-153670000D03*
X165100000Y-151130000D03*
X167640000Y-153670000D03*
X167640000Y-151130000D03*
X170180000Y-153670000D03*
X170180000Y-151130000D03*
X172720000Y-153670000D03*
X172720000Y-151130000D03*
X175260000Y-153670000D03*
D11*
X175260000Y-151130000D03*
D16*
G36*
X132933704Y-80241604D02*
G01*
X132957973Y-80245204D01*
X132981771Y-80251165D01*
X133004871Y-80259430D01*
X133027049Y-80269920D01*
X133048093Y-80282533D01*
X133067798Y-80297147D01*
X133085977Y-80313623D01*
X133102453Y-80331802D01*
X133117067Y-80351507D01*
X133129680Y-80372551D01*
X133140170Y-80394729D01*
X133148435Y-80417829D01*
X133154396Y-80441627D01*
X133157996Y-80465896D01*
X133159200Y-80490400D01*
X133159200Y-81690400D01*
X133157996Y-81714904D01*
X133154396Y-81739173D01*
X133148435Y-81762971D01*
X133140170Y-81786071D01*
X133129680Y-81808249D01*
X133117067Y-81829293D01*
X133102453Y-81848998D01*
X133085977Y-81867177D01*
X133067798Y-81883653D01*
X133048093Y-81898267D01*
X133027049Y-81910880D01*
X133004871Y-81921370D01*
X132981771Y-81929635D01*
X132957973Y-81935596D01*
X132933704Y-81939196D01*
X132909200Y-81940400D01*
X131409200Y-81940400D01*
X131384696Y-81939196D01*
X131360427Y-81935596D01*
X131336629Y-81929635D01*
X131313529Y-81921370D01*
X131291351Y-81910880D01*
X131270307Y-81898267D01*
X131250602Y-81883653D01*
X131232423Y-81867177D01*
X131215947Y-81848998D01*
X131201333Y-81829293D01*
X131188720Y-81808249D01*
X131178230Y-81786071D01*
X131169965Y-81762971D01*
X131164004Y-81739173D01*
X131160404Y-81714904D01*
X131159200Y-81690400D01*
X131159200Y-80490400D01*
X131160404Y-80465896D01*
X131164004Y-80441627D01*
X131169965Y-80417829D01*
X131178230Y-80394729D01*
X131188720Y-80372551D01*
X131201333Y-80351507D01*
X131215947Y-80331802D01*
X131232423Y-80313623D01*
X131250602Y-80297147D01*
X131270307Y-80282533D01*
X131291351Y-80269920D01*
X131313529Y-80259430D01*
X131336629Y-80251165D01*
X131360427Y-80245204D01*
X131384696Y-80241604D01*
X131409200Y-80240400D01*
X132909200Y-80240400D01*
X132933704Y-80241604D01*
X132933704Y-80241604D01*
G37*
D19*
X132159200Y-81090400D03*
D27*
X132159200Y-83590400D03*
D16*
G36*
X132933704Y-88991604D02*
G01*
X132957973Y-88995204D01*
X132981771Y-89001165D01*
X133004871Y-89009430D01*
X133027049Y-89019920D01*
X133048093Y-89032533D01*
X133067798Y-89047147D01*
X133085977Y-89063623D01*
X133102453Y-89081802D01*
X133117067Y-89101507D01*
X133129680Y-89122551D01*
X133140170Y-89144729D01*
X133148435Y-89167829D01*
X133154396Y-89191627D01*
X133157996Y-89215896D01*
X133159200Y-89240400D01*
X133159200Y-90440400D01*
X133157996Y-90464904D01*
X133154396Y-90489173D01*
X133148435Y-90512971D01*
X133140170Y-90536071D01*
X133129680Y-90558249D01*
X133117067Y-90579293D01*
X133102453Y-90598998D01*
X133085977Y-90617177D01*
X133067798Y-90633653D01*
X133048093Y-90648267D01*
X133027049Y-90660880D01*
X133004871Y-90671370D01*
X132981771Y-90679635D01*
X132957973Y-90685596D01*
X132933704Y-90689196D01*
X132909200Y-90690400D01*
X131409200Y-90690400D01*
X131384696Y-90689196D01*
X131360427Y-90685596D01*
X131336629Y-90679635D01*
X131313529Y-90671370D01*
X131291351Y-90660880D01*
X131270307Y-90648267D01*
X131250602Y-90633653D01*
X131232423Y-90617177D01*
X131215947Y-90598998D01*
X131201333Y-90579293D01*
X131188720Y-90558249D01*
X131178230Y-90536071D01*
X131169965Y-90512971D01*
X131164004Y-90489173D01*
X131160404Y-90464904D01*
X131159200Y-90440400D01*
X131159200Y-89240400D01*
X131160404Y-89215896D01*
X131164004Y-89191627D01*
X131169965Y-89167829D01*
X131178230Y-89144729D01*
X131188720Y-89122551D01*
X131201333Y-89101507D01*
X131215947Y-89081802D01*
X131232423Y-89063623D01*
X131250602Y-89047147D01*
X131270307Y-89032533D01*
X131291351Y-89019920D01*
X131313529Y-89009430D01*
X131336629Y-89001165D01*
X131360427Y-88995204D01*
X131384696Y-88991604D01*
X131409200Y-88990400D01*
X132909200Y-88990400D01*
X132933704Y-88991604D01*
X132933704Y-88991604D01*
G37*
D19*
X132159200Y-89840400D03*
D27*
X132159200Y-92340400D03*
D16*
G36*
X132933704Y-97741604D02*
G01*
X132957973Y-97745204D01*
X132981771Y-97751165D01*
X133004871Y-97759430D01*
X133027049Y-97769920D01*
X133048093Y-97782533D01*
X133067798Y-97797147D01*
X133085977Y-97813623D01*
X133102453Y-97831802D01*
X133117067Y-97851507D01*
X133129680Y-97872551D01*
X133140170Y-97894729D01*
X133148435Y-97917829D01*
X133154396Y-97941627D01*
X133157996Y-97965896D01*
X133159200Y-97990400D01*
X133159200Y-99190400D01*
X133157996Y-99214904D01*
X133154396Y-99239173D01*
X133148435Y-99262971D01*
X133140170Y-99286071D01*
X133129680Y-99308249D01*
X133117067Y-99329293D01*
X133102453Y-99348998D01*
X133085977Y-99367177D01*
X133067798Y-99383653D01*
X133048093Y-99398267D01*
X133027049Y-99410880D01*
X133004871Y-99421370D01*
X132981771Y-99429635D01*
X132957973Y-99435596D01*
X132933704Y-99439196D01*
X132909200Y-99440400D01*
X131409200Y-99440400D01*
X131384696Y-99439196D01*
X131360427Y-99435596D01*
X131336629Y-99429635D01*
X131313529Y-99421370D01*
X131291351Y-99410880D01*
X131270307Y-99398267D01*
X131250602Y-99383653D01*
X131232423Y-99367177D01*
X131215947Y-99348998D01*
X131201333Y-99329293D01*
X131188720Y-99308249D01*
X131178230Y-99286071D01*
X131169965Y-99262971D01*
X131164004Y-99239173D01*
X131160404Y-99214904D01*
X131159200Y-99190400D01*
X131159200Y-97990400D01*
X131160404Y-97965896D01*
X131164004Y-97941627D01*
X131169965Y-97917829D01*
X131178230Y-97894729D01*
X131188720Y-97872551D01*
X131201333Y-97851507D01*
X131215947Y-97831802D01*
X131232423Y-97813623D01*
X131250602Y-97797147D01*
X131270307Y-97782533D01*
X131291351Y-97769920D01*
X131313529Y-97759430D01*
X131336629Y-97751165D01*
X131360427Y-97745204D01*
X131384696Y-97741604D01*
X131409200Y-97740400D01*
X132909200Y-97740400D01*
X132933704Y-97741604D01*
X132933704Y-97741604D01*
G37*
D19*
X132159200Y-98590400D03*
D27*
X132159200Y-101090400D03*
D16*
G36*
X132933704Y-106491604D02*
G01*
X132957973Y-106495204D01*
X132981771Y-106501165D01*
X133004871Y-106509430D01*
X133027049Y-106519920D01*
X133048093Y-106532533D01*
X133067798Y-106547147D01*
X133085977Y-106563623D01*
X133102453Y-106581802D01*
X133117067Y-106601507D01*
X133129680Y-106622551D01*
X133140170Y-106644729D01*
X133148435Y-106667829D01*
X133154396Y-106691627D01*
X133157996Y-106715896D01*
X133159200Y-106740400D01*
X133159200Y-107940400D01*
X133157996Y-107964904D01*
X133154396Y-107989173D01*
X133148435Y-108012971D01*
X133140170Y-108036071D01*
X133129680Y-108058249D01*
X133117067Y-108079293D01*
X133102453Y-108098998D01*
X133085977Y-108117177D01*
X133067798Y-108133653D01*
X133048093Y-108148267D01*
X133027049Y-108160880D01*
X133004871Y-108171370D01*
X132981771Y-108179635D01*
X132957973Y-108185596D01*
X132933704Y-108189196D01*
X132909200Y-108190400D01*
X131409200Y-108190400D01*
X131384696Y-108189196D01*
X131360427Y-108185596D01*
X131336629Y-108179635D01*
X131313529Y-108171370D01*
X131291351Y-108160880D01*
X131270307Y-108148267D01*
X131250602Y-108133653D01*
X131232423Y-108117177D01*
X131215947Y-108098998D01*
X131201333Y-108079293D01*
X131188720Y-108058249D01*
X131178230Y-108036071D01*
X131169965Y-108012971D01*
X131164004Y-107989173D01*
X131160404Y-107964904D01*
X131159200Y-107940400D01*
X131159200Y-106740400D01*
X131160404Y-106715896D01*
X131164004Y-106691627D01*
X131169965Y-106667829D01*
X131178230Y-106644729D01*
X131188720Y-106622551D01*
X131201333Y-106601507D01*
X131215947Y-106581802D01*
X131232423Y-106563623D01*
X131250602Y-106547147D01*
X131270307Y-106532533D01*
X131291351Y-106519920D01*
X131313529Y-106509430D01*
X131336629Y-106501165D01*
X131360427Y-106495204D01*
X131384696Y-106491604D01*
X131409200Y-106490400D01*
X132909200Y-106490400D01*
X132933704Y-106491604D01*
X132933704Y-106491604D01*
G37*
D19*
X132159200Y-107340400D03*
D27*
X132159200Y-109840400D03*
D25*
X78124400Y-90763200D03*
X73564400Y-90763200D03*
D26*
X75844400Y-84463200D03*
D25*
X64154400Y-90763200D03*
X59594400Y-90763200D03*
D26*
X61874400Y-84463200D03*
D10*
X150876000Y-130708400D03*
X150876000Y-128168400D03*
D11*
X150876000Y-125628400D03*
D10*
X190601600Y-149047200D03*
D11*
X190601600Y-146507200D03*
D10*
X178308000Y-140589000D03*
X180848000Y-140589000D03*
D11*
X183388000Y-140589000D03*
D10*
X178308000Y-144272000D03*
X180848000Y-144272000D03*
D11*
X183388000Y-144272000D03*
D10*
X115265200Y-154101800D03*
X115265200Y-151561800D03*
X115265200Y-149021800D03*
X115265200Y-146481800D03*
X115265200Y-143941800D03*
D11*
X115265200Y-141401800D03*
D10*
X111201200Y-154101800D03*
X111201200Y-151561800D03*
X111201200Y-149021800D03*
X111201200Y-146481800D03*
X111201200Y-143941800D03*
D11*
X111201200Y-141401800D03*
D10*
X182321200Y-102565200D03*
X182321200Y-105105200D03*
X182321200Y-107645200D03*
D11*
X182321200Y-110185200D03*
D10*
X194564000Y-128270000D03*
X197104000Y-128270000D03*
X199644000Y-128270000D03*
D11*
X202184000Y-128270000D03*
D16*
G36*
X164553704Y-108328004D02*
G01*
X164577973Y-108331604D01*
X164601771Y-108337565D01*
X164624871Y-108345830D01*
X164647049Y-108356320D01*
X164668093Y-108368933D01*
X164687798Y-108383547D01*
X164705977Y-108400023D01*
X164722453Y-108418202D01*
X164737067Y-108437907D01*
X164749680Y-108458951D01*
X164760170Y-108481129D01*
X164768435Y-108504229D01*
X164774396Y-108528027D01*
X164777996Y-108552296D01*
X164779200Y-108576800D01*
X164779200Y-109776800D01*
X164777996Y-109801304D01*
X164774396Y-109825573D01*
X164768435Y-109849371D01*
X164760170Y-109872471D01*
X164749680Y-109894649D01*
X164737067Y-109915693D01*
X164722453Y-109935398D01*
X164705977Y-109953577D01*
X164687798Y-109970053D01*
X164668093Y-109984667D01*
X164647049Y-109997280D01*
X164624871Y-110007770D01*
X164601771Y-110016035D01*
X164577973Y-110021996D01*
X164553704Y-110025596D01*
X164529200Y-110026800D01*
X163029200Y-110026800D01*
X163004696Y-110025596D01*
X162980427Y-110021996D01*
X162956629Y-110016035D01*
X162933529Y-110007770D01*
X162911351Y-109997280D01*
X162890307Y-109984667D01*
X162870602Y-109970053D01*
X162852423Y-109953577D01*
X162835947Y-109935398D01*
X162821333Y-109915693D01*
X162808720Y-109894649D01*
X162798230Y-109872471D01*
X162789965Y-109849371D01*
X162784004Y-109825573D01*
X162780404Y-109801304D01*
X162779200Y-109776800D01*
X162779200Y-108576800D01*
X162780404Y-108552296D01*
X162784004Y-108528027D01*
X162789965Y-108504229D01*
X162798230Y-108481129D01*
X162808720Y-108458951D01*
X162821333Y-108437907D01*
X162835947Y-108418202D01*
X162852423Y-108400023D01*
X162870602Y-108383547D01*
X162890307Y-108368933D01*
X162911351Y-108356320D01*
X162933529Y-108345830D01*
X162956629Y-108337565D01*
X162980427Y-108331604D01*
X163004696Y-108328004D01*
X163029200Y-108326800D01*
X164529200Y-108326800D01*
X164553704Y-108328004D01*
X164553704Y-108328004D01*
G37*
D19*
X163779200Y-109176800D03*
D27*
X163779200Y-111676800D03*
D16*
G36*
X173553704Y-108328004D02*
G01*
X173577973Y-108331604D01*
X173601771Y-108337565D01*
X173624871Y-108345830D01*
X173647049Y-108356320D01*
X173668093Y-108368933D01*
X173687798Y-108383547D01*
X173705977Y-108400023D01*
X173722453Y-108418202D01*
X173737067Y-108437907D01*
X173749680Y-108458951D01*
X173760170Y-108481129D01*
X173768435Y-108504229D01*
X173774396Y-108528027D01*
X173777996Y-108552296D01*
X173779200Y-108576800D01*
X173779200Y-109776800D01*
X173777996Y-109801304D01*
X173774396Y-109825573D01*
X173768435Y-109849371D01*
X173760170Y-109872471D01*
X173749680Y-109894649D01*
X173737067Y-109915693D01*
X173722453Y-109935398D01*
X173705977Y-109953577D01*
X173687798Y-109970053D01*
X173668093Y-109984667D01*
X173647049Y-109997280D01*
X173624871Y-110007770D01*
X173601771Y-110016035D01*
X173577973Y-110021996D01*
X173553704Y-110025596D01*
X173529200Y-110026800D01*
X172029200Y-110026800D01*
X172004696Y-110025596D01*
X171980427Y-110021996D01*
X171956629Y-110016035D01*
X171933529Y-110007770D01*
X171911351Y-109997280D01*
X171890307Y-109984667D01*
X171870602Y-109970053D01*
X171852423Y-109953577D01*
X171835947Y-109935398D01*
X171821333Y-109915693D01*
X171808720Y-109894649D01*
X171798230Y-109872471D01*
X171789965Y-109849371D01*
X171784004Y-109825573D01*
X171780404Y-109801304D01*
X171779200Y-109776800D01*
X171779200Y-108576800D01*
X171780404Y-108552296D01*
X171784004Y-108528027D01*
X171789965Y-108504229D01*
X171798230Y-108481129D01*
X171808720Y-108458951D01*
X171821333Y-108437907D01*
X171835947Y-108418202D01*
X171852423Y-108400023D01*
X171870602Y-108383547D01*
X171890307Y-108368933D01*
X171911351Y-108356320D01*
X171933529Y-108345830D01*
X171956629Y-108337565D01*
X171980427Y-108331604D01*
X172004696Y-108328004D01*
X172029200Y-108326800D01*
X173529200Y-108326800D01*
X173553704Y-108328004D01*
X173553704Y-108328004D01*
G37*
D19*
X172779200Y-109176800D03*
D27*
X172779200Y-111676800D03*
D16*
G36*
X164553704Y-118328004D02*
G01*
X164577973Y-118331604D01*
X164601771Y-118337565D01*
X164624871Y-118345830D01*
X164647049Y-118356320D01*
X164668093Y-118368933D01*
X164687798Y-118383547D01*
X164705977Y-118400023D01*
X164722453Y-118418202D01*
X164737067Y-118437907D01*
X164749680Y-118458951D01*
X164760170Y-118481129D01*
X164768435Y-118504229D01*
X164774396Y-118528027D01*
X164777996Y-118552296D01*
X164779200Y-118576800D01*
X164779200Y-119776800D01*
X164777996Y-119801304D01*
X164774396Y-119825573D01*
X164768435Y-119849371D01*
X164760170Y-119872471D01*
X164749680Y-119894649D01*
X164737067Y-119915693D01*
X164722453Y-119935398D01*
X164705977Y-119953577D01*
X164687798Y-119970053D01*
X164668093Y-119984667D01*
X164647049Y-119997280D01*
X164624871Y-120007770D01*
X164601771Y-120016035D01*
X164577973Y-120021996D01*
X164553704Y-120025596D01*
X164529200Y-120026800D01*
X163029200Y-120026800D01*
X163004696Y-120025596D01*
X162980427Y-120021996D01*
X162956629Y-120016035D01*
X162933529Y-120007770D01*
X162911351Y-119997280D01*
X162890307Y-119984667D01*
X162870602Y-119970053D01*
X162852423Y-119953577D01*
X162835947Y-119935398D01*
X162821333Y-119915693D01*
X162808720Y-119894649D01*
X162798230Y-119872471D01*
X162789965Y-119849371D01*
X162784004Y-119825573D01*
X162780404Y-119801304D01*
X162779200Y-119776800D01*
X162779200Y-118576800D01*
X162780404Y-118552296D01*
X162784004Y-118528027D01*
X162789965Y-118504229D01*
X162798230Y-118481129D01*
X162808720Y-118458951D01*
X162821333Y-118437907D01*
X162835947Y-118418202D01*
X162852423Y-118400023D01*
X162870602Y-118383547D01*
X162890307Y-118368933D01*
X162911351Y-118356320D01*
X162933529Y-118345830D01*
X162956629Y-118337565D01*
X162980427Y-118331604D01*
X163004696Y-118328004D01*
X163029200Y-118326800D01*
X164529200Y-118326800D01*
X164553704Y-118328004D01*
X164553704Y-118328004D01*
G37*
D19*
X163779200Y-119176800D03*
D27*
X163779200Y-121676800D03*
D16*
G36*
X173553704Y-118328004D02*
G01*
X173577973Y-118331604D01*
X173601771Y-118337565D01*
X173624871Y-118345830D01*
X173647049Y-118356320D01*
X173668093Y-118368933D01*
X173687798Y-118383547D01*
X173705977Y-118400023D01*
X173722453Y-118418202D01*
X173737067Y-118437907D01*
X173749680Y-118458951D01*
X173760170Y-118481129D01*
X173768435Y-118504229D01*
X173774396Y-118528027D01*
X173777996Y-118552296D01*
X173779200Y-118576800D01*
X173779200Y-119776800D01*
X173777996Y-119801304D01*
X173774396Y-119825573D01*
X173768435Y-119849371D01*
X173760170Y-119872471D01*
X173749680Y-119894649D01*
X173737067Y-119915693D01*
X173722453Y-119935398D01*
X173705977Y-119953577D01*
X173687798Y-119970053D01*
X173668093Y-119984667D01*
X173647049Y-119997280D01*
X173624871Y-120007770D01*
X173601771Y-120016035D01*
X173577973Y-120021996D01*
X173553704Y-120025596D01*
X173529200Y-120026800D01*
X172029200Y-120026800D01*
X172004696Y-120025596D01*
X171980427Y-120021996D01*
X171956629Y-120016035D01*
X171933529Y-120007770D01*
X171911351Y-119997280D01*
X171890307Y-119984667D01*
X171870602Y-119970053D01*
X171852423Y-119953577D01*
X171835947Y-119935398D01*
X171821333Y-119915693D01*
X171808720Y-119894649D01*
X171798230Y-119872471D01*
X171789965Y-119849371D01*
X171784004Y-119825573D01*
X171780404Y-119801304D01*
X171779200Y-119776800D01*
X171779200Y-118576800D01*
X171780404Y-118552296D01*
X171784004Y-118528027D01*
X171789965Y-118504229D01*
X171798230Y-118481129D01*
X171808720Y-118458951D01*
X171821333Y-118437907D01*
X171835947Y-118418202D01*
X171852423Y-118400023D01*
X171870602Y-118383547D01*
X171890307Y-118368933D01*
X171911351Y-118356320D01*
X171933529Y-118345830D01*
X171956629Y-118337565D01*
X171980427Y-118331604D01*
X172004696Y-118328004D01*
X172029200Y-118326800D01*
X173529200Y-118326800D01*
X173553704Y-118328004D01*
X173553704Y-118328004D01*
G37*
D19*
X172779200Y-119176800D03*
D27*
X172779200Y-121676800D03*
D28*
X127304800Y-113030000D03*
X127254000Y-105054400D03*
X120751600Y-91135200D03*
X120446800Y-84074000D03*
D12*
X74828400Y-88849200D03*
D28*
X169697400Y-125603000D03*
X174082200Y-125663200D03*
X167741600Y-123418600D03*
X161620200Y-126390400D03*
X118567200Y-109169200D03*
X117246400Y-95707200D03*
D12*
X134112000Y-151130000D03*
D28*
X193773607Y-97187323D03*
X127254000Y-109220000D03*
X127254000Y-87884000D03*
D12*
X145930001Y-156964999D03*
X117805200Y-151561800D03*
X143256000Y-147574000D03*
X117932200Y-149021800D03*
X118059200Y-146481800D03*
X118059200Y-144957800D03*
X192786000Y-137414000D03*
X160172400Y-156413200D03*
X149098000Y-148336000D03*
X140335000Y-147320000D03*
X137541000Y-147447000D03*
X117932200Y-154101800D03*
X136144000Y-147320000D03*
X143764000Y-156210000D03*
X132715000Y-147447000D03*
D28*
X167640000Y-148229401D03*
X170180000Y-148463000D03*
X158470600Y-147980400D03*
X162560000Y-148539200D03*
X160070800Y-148056600D03*
X165100000Y-148361400D03*
X188366400Y-146507200D03*
D12*
X192786000Y-135509000D03*
X192786000Y-132080000D03*
X185039000Y-132080000D03*
X185039000Y-133604000D03*
X184912000Y-130302000D03*
X184912000Y-128270000D03*
X184912000Y-126492000D03*
X194564000Y-125984000D03*
X193294000Y-125349000D03*
D28*
X193243200Y-123494800D03*
X193243200Y-120650000D03*
D12*
X184785000Y-124714000D03*
X184658000Y-120396000D03*
X184658000Y-118999000D03*
X185420000Y-113538000D03*
D28*
X185267600Y-103886000D03*
X178308000Y-105765600D03*
X185267600Y-102616000D03*
X178257200Y-102717600D03*
X117398800Y-84378800D03*
D29*
X64160400Y-93929200D03*
X78384400Y-93929200D03*
X71272400Y-93929200D03*
D28*
X192735200Y-97180400D03*
D30*
X194056000Y-111789500D02*
X194005200Y-111840300D01*
X194056000Y-111252000D02*
X194056000Y-111789500D01*
X194005710Y-113691516D02*
X194005710Y-114858290D01*
X194005200Y-111840300D02*
X194005200Y-113691006D01*
X194005200Y-113691006D02*
X194005710Y-113691516D01*
X194005710Y-114858290D02*
X194260220Y-115112800D01*
X195783200Y-115112800D02*
X196272990Y-114623010D01*
X194260220Y-115112800D02*
X195783200Y-115112800D01*
X199739000Y-115538998D02*
X199739000Y-115824000D01*
X198849001Y-114648999D02*
X199739000Y-115538998D01*
X196298979Y-114648999D02*
X198849001Y-114648999D01*
X196272990Y-114623010D02*
X196298979Y-114648999D01*
D31*
X109813990Y-79314410D02*
X109813990Y-114741590D01*
X115925600Y-73202800D02*
X109813990Y-79314410D01*
X109813990Y-114741590D02*
X113233200Y-118160800D01*
X113233200Y-130518400D02*
X117030000Y-134315200D01*
X113233200Y-118160800D02*
X113233200Y-130518400D01*
D30*
X127304800Y-112464315D02*
X125279685Y-110439200D01*
X127304800Y-113030000D02*
X127304800Y-112464315D01*
X123940198Y-110439200D02*
X123190000Y-109689002D01*
X125279685Y-110439200D02*
X123940198Y-110439200D01*
X123190000Y-107950000D02*
X121920000Y-106680000D01*
X123190000Y-109689002D02*
X123190000Y-107950000D01*
X127254000Y-105054400D02*
X126688315Y-105054400D01*
X126688315Y-105054400D02*
X126688315Y-105061285D01*
X126688315Y-105061285D02*
X125933200Y-105816400D01*
X125933200Y-105816400D02*
X125933200Y-106273600D01*
X125933200Y-106273600D02*
X125425200Y-106781600D01*
X124561600Y-106781600D02*
X124460000Y-106680000D01*
X125425200Y-106781600D02*
X124561600Y-106781600D01*
X121920000Y-104140000D02*
X119728410Y-101948410D01*
X119728410Y-101948410D02*
X119728410Y-92158390D01*
X119728410Y-92158390D02*
X120751600Y-91135200D01*
X121355999Y-105315001D02*
X119278400Y-103237402D01*
X122484001Y-105315001D02*
X121355999Y-105315001D01*
X124460000Y-104140000D02*
X123659002Y-104140000D01*
X123659002Y-104140000D02*
X122484001Y-105315001D01*
X119278400Y-103237402D02*
X119278400Y-85344000D01*
X119278400Y-85344000D02*
X119278400Y-85242400D01*
X119278400Y-85242400D02*
X120446800Y-84074000D01*
D32*
X69367400Y-70815200D02*
X69494400Y-70688200D01*
X69367400Y-75133200D02*
X69367400Y-70815200D01*
D31*
X76225400Y-75133200D02*
X76225400Y-72974200D01*
D33*
X69285399Y-70733199D02*
X69367400Y-70815200D01*
X69285399Y-70733199D02*
X76016399Y-70733199D01*
X76225400Y-70942200D02*
X76225400Y-72974200D01*
X76016399Y-70733199D02*
X76225400Y-70942200D01*
X69285399Y-70733199D02*
X62464401Y-70733199D01*
X69285399Y-69061967D02*
X69285399Y-70733199D01*
X73384400Y-64962966D02*
X69285399Y-69061967D01*
X73384400Y-63195200D02*
X73384400Y-64962966D01*
D32*
X62382400Y-70815200D02*
X62464401Y-70733199D01*
D33*
X62382400Y-72339200D02*
X62382400Y-70815200D01*
D32*
X62382400Y-75133200D02*
X62382400Y-72339200D01*
D34*
X77325400Y-75133200D02*
X79654400Y-77462200D01*
X76225400Y-75133200D02*
X77325400Y-75133200D01*
X79654400Y-88087200D02*
X78892400Y-88849200D01*
X78892400Y-88849200D02*
X74828400Y-88849200D01*
D33*
X117080800Y-126644400D02*
X117030000Y-126695200D01*
X117080800Y-116789200D02*
X117080800Y-126644400D01*
D31*
X115671600Y-100787200D02*
X115722400Y-100787200D01*
X112522000Y-92811600D02*
X115874800Y-89458800D01*
X112522000Y-97586800D02*
X112522000Y-92811600D01*
X115722400Y-100787200D02*
X112522000Y-97586800D01*
X112979200Y-81229200D02*
X115925600Y-78282800D01*
X112979200Y-86563200D02*
X112979200Y-81229200D01*
X115874800Y-89458800D02*
X112979200Y-86563200D01*
X114858800Y-100787200D02*
X115722400Y-100787200D01*
X112826800Y-102819200D02*
X114858800Y-100787200D01*
X112826800Y-112572800D02*
X112826800Y-102819200D01*
X115543201Y-115289201D02*
X112826800Y-112572800D01*
X117080800Y-116789200D02*
X115580801Y-115289201D01*
X115580801Y-115289201D02*
X115543201Y-115289201D01*
D35*
X201215000Y-140081000D02*
X201215000Y-133096000D01*
X201278500Y-153987500D02*
X201278500Y-147002500D01*
X201278500Y-140144500D02*
X201215000Y-140081000D01*
X201278500Y-147002500D02*
X201278500Y-140144500D01*
D36*
X196595900Y-115824000D02*
X194894200Y-117525700D01*
X197739000Y-115824000D02*
X196595900Y-115824000D01*
X172629200Y-121676800D02*
X172779200Y-121676800D01*
X174082200Y-122979800D02*
X172779200Y-121676800D01*
X174082200Y-125663200D02*
X174082200Y-122979800D01*
X163982400Y-121880000D02*
X163779200Y-121676800D01*
X163982400Y-122834400D02*
X163982400Y-121880000D01*
X169697400Y-125603000D02*
X166751000Y-125603000D01*
X166751000Y-125603000D02*
X163982400Y-122834400D01*
X172779200Y-113529600D02*
X172779200Y-111676800D01*
X171729400Y-114579400D02*
X172779200Y-113529600D01*
X169799000Y-114579400D02*
X171729400Y-114579400D01*
X167741600Y-123418600D02*
X167741600Y-116636800D01*
X167741600Y-116636800D02*
X169799000Y-114579400D01*
X163629200Y-111676800D02*
X163779200Y-111676800D01*
X159562800Y-115743200D02*
X163629200Y-111676800D01*
X159562800Y-118440200D02*
X159562800Y-115743200D01*
X161620200Y-120497600D02*
X159562800Y-118440200D01*
X161620200Y-126390400D02*
X161620200Y-120497600D01*
D31*
X61874400Y-78141200D02*
X62382400Y-77633200D01*
X61874400Y-84463200D02*
X61874400Y-78141200D01*
X117080800Y-109169200D02*
X118567200Y-109169200D01*
X75844400Y-78014200D02*
X76225400Y-77633200D01*
X75844400Y-84463200D02*
X75844400Y-78014200D01*
X115722400Y-95707200D02*
X117246400Y-95707200D01*
X117246400Y-95707200D02*
X117246400Y-95707200D01*
D35*
X111201200Y-143941800D02*
X115265200Y-143941800D01*
D30*
X199114800Y-100027600D02*
X197700587Y-100027600D01*
X197700587Y-100027600D02*
X197698187Y-100025200D01*
X193766684Y-97180400D02*
X193773607Y-97187323D01*
X196799200Y-100025200D02*
X193954400Y-97180400D01*
X197698187Y-100025200D02*
X196799200Y-100025200D01*
X193954400Y-97180400D02*
X193766684Y-97180400D01*
D36*
X116467281Y-143941800D02*
X115265200Y-143941800D01*
X122555000Y-151130000D02*
X119507000Y-148082000D01*
X134112000Y-151130000D02*
X122555000Y-151130000D01*
X119507000Y-148082000D02*
X119507000Y-143484600D01*
X119507000Y-143484600D02*
X118770400Y-142748000D01*
X117661081Y-142748000D02*
X116467281Y-143941800D01*
X118770400Y-142748000D02*
X117661081Y-142748000D01*
D30*
X124460000Y-109220000D02*
X125662081Y-109220000D01*
X125662081Y-109220000D02*
X127254000Y-109220000D01*
X125476000Y-87884000D02*
X124460000Y-88900000D01*
X127254000Y-87884000D02*
X125476000Y-87884000D01*
X123257919Y-88900000D02*
X121920000Y-88900000D01*
X124460000Y-88900000D02*
X123257919Y-88900000D01*
D35*
X111201200Y-151561800D02*
X115265200Y-151561800D01*
D34*
X145930001Y-142549687D02*
X145930001Y-156964999D01*
X142875000Y-140716000D02*
X144096314Y-140716000D01*
X144096314Y-140716000D02*
X145930001Y-142549687D01*
X115265200Y-151561800D02*
X117805200Y-151561800D01*
D35*
X111201200Y-149021800D02*
X115265200Y-149021800D01*
D34*
X142875000Y-143256000D02*
X142875000Y-147193000D01*
X142875000Y-147193000D02*
X143256000Y-147574000D01*
X115265200Y-149021800D02*
X117932200Y-149021800D01*
X115265200Y-146481800D02*
X118059200Y-146481800D01*
X117805200Y-145211800D02*
X118059200Y-144957800D01*
X111201200Y-146481800D02*
X112471200Y-145211800D01*
X112471200Y-145211800D02*
X117805200Y-145211800D01*
X187452000Y-137160000D02*
X187960000Y-137160000D01*
X193385999Y-138013999D02*
X193385999Y-146141999D01*
X192786000Y-137414000D02*
X193385999Y-138013999D01*
X194246500Y-147002500D02*
X196278500Y-147002500D01*
X193385999Y-146141999D02*
X194246500Y-147002500D01*
X196278500Y-153987500D02*
X194614800Y-155651200D01*
X194614800Y-155651200D02*
X160934400Y-155651200D01*
X160934400Y-155651200D02*
X160172400Y-156413200D01*
X140335000Y-139494686D02*
X141018686Y-138811000D01*
X140335000Y-140716000D02*
X140335000Y-139494686D01*
X141018686Y-138811000D02*
X148463000Y-138811000D01*
X148463000Y-138811000D02*
X149098000Y-139446000D01*
X149098000Y-139446000D02*
X149098000Y-148336000D01*
X140335000Y-143256000D02*
X140335000Y-147320000D01*
D35*
X111201200Y-154101800D02*
X115265200Y-154101800D01*
D34*
X115265200Y-154101800D02*
X117932200Y-154101800D01*
X137795000Y-147193000D02*
X137541000Y-147447000D01*
X137795000Y-143256000D02*
X137795000Y-147193000D01*
X136525000Y-146939000D02*
X136144000Y-147320000D01*
X135255000Y-140716000D02*
X136525000Y-141986000D01*
X136525000Y-141986000D02*
X136525000Y-146939000D01*
X135255000Y-143256000D02*
X135255000Y-144477314D01*
X135255000Y-144477314D02*
X135255000Y-149225000D01*
X135520001Y-149490001D02*
X143140001Y-149490001D01*
X135255000Y-149225000D02*
X135520001Y-149490001D01*
X143140001Y-149490001D02*
X143510000Y-149860000D01*
X143510000Y-149860000D02*
X143510000Y-152400000D01*
X143510000Y-152400000D02*
X143510000Y-155956000D01*
X143510000Y-155956000D02*
X143764000Y-156210000D01*
X132715000Y-143256000D02*
X132715000Y-147447000D01*
X167640000Y-150333000D02*
X167640000Y-151130000D01*
D30*
X162335000Y-141507000D02*
X162335000Y-140716000D01*
X167640000Y-148151315D02*
X163576000Y-144087315D01*
X163576000Y-144087315D02*
X163576000Y-142737870D01*
X163576000Y-142737870D02*
X162951130Y-142113000D01*
X162951130Y-142113000D02*
X162941000Y-142113000D01*
X162941000Y-142113000D02*
X162335000Y-141507000D01*
X170180000Y-147897315D02*
X166497000Y-144214315D01*
X170180000Y-148463000D02*
X170180000Y-147897315D01*
X166497000Y-142338000D02*
X164875000Y-140716000D01*
X166497000Y-144214315D02*
X166497000Y-142338000D01*
D34*
X158470600Y-141931600D02*
X157255000Y-140716000D01*
X158470600Y-147980400D02*
X158470600Y-141931600D01*
D30*
X161036000Y-141957000D02*
X159795000Y-140716000D01*
X162560000Y-148539200D02*
X161036000Y-147015200D01*
X161036000Y-147015200D02*
X161036000Y-141957000D01*
X160020000Y-143481000D02*
X159795000Y-143256000D01*
X160070800Y-143531800D02*
X159795000Y-143256000D01*
X160070800Y-148056600D02*
X160070800Y-143531800D01*
X162335000Y-145317000D02*
X162335000Y-143256000D01*
X165100000Y-148082000D02*
X162335000Y-145317000D01*
X165100000Y-148361400D02*
X165100000Y-148082000D01*
D34*
X188932085Y-146507200D02*
X190601600Y-146507200D01*
X188366400Y-146507200D02*
X188932085Y-146507200D01*
X192786000Y-136398000D02*
X195961000Y-136398000D01*
X196215000Y-136652000D02*
X196215000Y-140081000D01*
X195961000Y-136398000D02*
X196215000Y-136652000D01*
X192786000Y-136398000D02*
X192786000Y-135509000D01*
D36*
X196215000Y-133096000D02*
X193802000Y-133096000D01*
X193802000Y-133096000D02*
X192786000Y-132080000D01*
D34*
X183388000Y-140589000D02*
X183388000Y-133731000D01*
X183388000Y-133731000D02*
X185039000Y-132080000D01*
X184438000Y-144272000D02*
X184785000Y-143925000D01*
X183388000Y-144272000D02*
X184438000Y-144272000D01*
X184785000Y-143925000D02*
X184785000Y-133858000D01*
X184785000Y-133858000D02*
X185039000Y-133604000D01*
D30*
X184912000Y-130302000D02*
X180039000Y-130302000D01*
X179832000Y-128009000D02*
X184651000Y-128009000D01*
X184651000Y-128009000D02*
X184912000Y-128270000D01*
X183929000Y-125509000D02*
X184912000Y-126492000D01*
X180053000Y-125509000D02*
X183929000Y-125509000D01*
X179832000Y-125509000D02*
X180053000Y-125509000D01*
D34*
X194564000Y-128270000D02*
X194564000Y-125984000D01*
X197104000Y-128270000D02*
X197104000Y-125476000D01*
X197104000Y-125476000D02*
X196596000Y-124968000D01*
X196596000Y-124968000D02*
X193675000Y-124968000D01*
X193675000Y-124968000D02*
X193294000Y-125349000D01*
D30*
X193243200Y-123494800D02*
X193243200Y-121920000D01*
X193243200Y-120650000D02*
X193243200Y-114173000D01*
D34*
X182043000Y-124714000D02*
X184785000Y-124714000D01*
X180213000Y-123009000D02*
X180338000Y-123009000D01*
X180338000Y-123009000D02*
X182043000Y-124714000D01*
X180326000Y-120396000D02*
X180213000Y-120509000D01*
X184545000Y-120509000D02*
X184658000Y-120396000D01*
X180213000Y-120509000D02*
X184545000Y-120509000D01*
X180213000Y-118009000D02*
X180493000Y-118009000D01*
X184277000Y-119380000D02*
X184658000Y-118999000D01*
X181864000Y-119380000D02*
X184277000Y-119380000D01*
X180493000Y-118009000D02*
X181864000Y-119380000D01*
X184973000Y-115509000D02*
X185100000Y-115509000D01*
X185420000Y-115189000D02*
X185420000Y-113538000D01*
X185100000Y-115509000D02*
X185420000Y-115189000D01*
D30*
X179832000Y-115509000D02*
X183073000Y-115509000D01*
X183073000Y-115509000D02*
X184973000Y-115509000D01*
X182321200Y-105105200D02*
X184048400Y-105105200D01*
X184048400Y-105105200D02*
X185267600Y-103886000D01*
X181406800Y-105105200D02*
X182321200Y-105105200D01*
X178308000Y-105765600D02*
X180746400Y-105765600D01*
X180746400Y-105765600D02*
X181406800Y-105105200D01*
X182372000Y-102616000D02*
X182321200Y-102565200D01*
X185267600Y-102616000D02*
X182372000Y-102616000D01*
X182168800Y-102717600D02*
X182321200Y-102565200D01*
X178257200Y-102717600D02*
X182168800Y-102717600D01*
D31*
X68859400Y-78141200D02*
X69367400Y-77633200D01*
X68859400Y-84463200D02*
X68859400Y-78141200D01*
X115874800Y-84378800D02*
X117398800Y-84378800D01*
D36*
X182829200Y-147184719D02*
X182100881Y-146456400D01*
X182829200Y-148386800D02*
X182829200Y-147184719D01*
X182100881Y-146456400D02*
X181457600Y-146456400D01*
X180848000Y-145846800D02*
X180848000Y-144272000D01*
X181457600Y-146456400D02*
X180848000Y-145846800D01*
X180848000Y-144272000D02*
X180848000Y-140589000D01*
X64154400Y-90763200D02*
X64154400Y-92348199D01*
X64154400Y-92348199D02*
X64154400Y-93415200D01*
X64154400Y-93415200D02*
X64160400Y-93421200D01*
X64160400Y-93421200D02*
X64160400Y-93745199D01*
X78384400Y-91023200D02*
X78124400Y-90763200D01*
X78384400Y-93929200D02*
X78384400Y-91023200D01*
X71272400Y-90896200D02*
X71139400Y-90763200D01*
X71272400Y-93929200D02*
X71272400Y-90896200D01*
D30*
X194818200Y-114173000D02*
X200228200Y-114173000D01*
X200228200Y-114173000D02*
X201269600Y-115214400D01*
X201269600Y-115214400D02*
X201269600Y-116332000D01*
X201269600Y-116332000D02*
X200507600Y-117094000D01*
X198969000Y-117094000D02*
X197739000Y-118324000D01*
X200507600Y-117094000D02*
X198969000Y-117094000D01*
D36*
X199059800Y-120243600D02*
X199739000Y-119564400D01*
X195499600Y-120243600D02*
X199059800Y-120243600D01*
X194894200Y-119100700D02*
X194894200Y-119638200D01*
X199739000Y-119564400D02*
X199739000Y-118324000D01*
X194894200Y-119638200D02*
X195499600Y-120243600D01*
X194818200Y-121345000D02*
X194868800Y-121294400D01*
X194818200Y-121920000D02*
X194818200Y-121345000D01*
X194868800Y-119663600D02*
X194894200Y-119638200D01*
X194868800Y-121294400D02*
X194868800Y-119663600D01*
D30*
X163626800Y-142007800D02*
X164875000Y-143256000D01*
X163626800Y-139903200D02*
X163626800Y-142007800D01*
X161950400Y-138226800D02*
X163626800Y-139903200D01*
X129438400Y-138226800D02*
X161950400Y-138226800D01*
X127000000Y-135788400D02*
X129438400Y-138226800D01*
X193060106Y-97058694D02*
X193060108Y-97058694D01*
X193614801Y-99027601D02*
X193614801Y-99025201D01*
X194614800Y-100027600D02*
X193614801Y-99027601D01*
X193614801Y-99025201D02*
X192735200Y-98145600D01*
X192735200Y-98145600D02*
X192735200Y-97180400D01*
X193954400Y-107188000D02*
X194614800Y-106527600D01*
X193954400Y-109626400D02*
X193954400Y-107188000D01*
M02*
