G04 #@! TF.GenerationSoftware,KiCad,Pcbnew,(5.1.2)-2*
G04 #@! TF.CreationDate,2019-07-17T14:38:25+02:00*
G04 #@! TF.ProjectId,STM32F407VET6,53544d33-3246-4343-9037-564554362e6b,rev?*
G04 #@! TF.SameCoordinates,Original*
G04 #@! TF.FileFunction,Copper,L2,Bot*
G04 #@! TF.FilePolarity,Positive*
%FSLAX46Y46*%
G04 Gerber Fmt 4.6, Leading zero omitted, Abs format (unit mm)*
G04 Created by KiCad (PCBNEW (5.1.2)-2) date 2019-07-17 14:38:25*
%MOMM*%
%LPD*%
G04 APERTURE LIST*
%ADD10O,1.700000X1.700000*%
%ADD11R,1.700000X1.700000*%
%ADD12C,1.700000*%
%ADD13C,1.200000*%
%ADD14R,1.200000X1.200000*%
%ADD15C,3.000000*%
%ADD16R,3.000000X3.000000*%
%ADD17C,0.100000*%
%ADD18C,0.875000*%
%ADD19O,1.700000X1.950000*%
%ADD20O,1.727200X1.727200*%
%ADD21R,1.727200X1.727200*%
%ADD22C,3.500000*%
%ADD23O,1.950000X1.700000*%
%ADD24C,2.000000*%
%ADD25R,1.200000X2.200000*%
%ADD26R,5.800000X6.400000*%
%ADD27O,2.000000X1.700000*%
%ADD28C,0.800000*%
%ADD29C,1.500000*%
%ADD30C,0.250000*%
%ADD31C,2.000000*%
%ADD32C,1.600000*%
%ADD33C,4.000000*%
%ADD34C,0.200000*%
%ADD35C,0.700000*%
%ADD36C,0.500000*%
G04 APERTURE END LIST*
D10*
X129540000Y-120319800D03*
X132080000Y-120319800D03*
X134620000Y-120319800D03*
D11*
X137160000Y-120319800D03*
D12*
X150418800Y-85013800D03*
X150418800Y-87553800D03*
X150418800Y-90093800D03*
X150418800Y-92633800D03*
X150418800Y-95173800D03*
X150418800Y-97713800D03*
X150418800Y-100253800D03*
X150418800Y-102793800D03*
X137718800Y-102793800D03*
X137718800Y-100253800D03*
X137718800Y-97713800D03*
X137718800Y-95173800D03*
X137718800Y-92633800D03*
X137718800Y-90093800D03*
X137718800Y-87553800D03*
X137718800Y-85013800D03*
X150418800Y-62611000D03*
X150418800Y-65151000D03*
X150418800Y-67691000D03*
X150418800Y-70231000D03*
X150418800Y-72771000D03*
X150418800Y-75311000D03*
X150418800Y-77851000D03*
X150418800Y-80391000D03*
X137718800Y-80391000D03*
X137718800Y-77851000D03*
X137718800Y-75311000D03*
X137718800Y-72771000D03*
X137718800Y-70231000D03*
X137718800Y-67691000D03*
X137718800Y-65151000D03*
X137718800Y-62611000D03*
D10*
X124460000Y-88900000D03*
X121920000Y-88900000D03*
X124460000Y-86360000D03*
D11*
X121920000Y-86360000D03*
D10*
X124460000Y-121920000D03*
X121920000Y-121920000D03*
X124460000Y-119380000D03*
X121920000Y-119380000D03*
X124460000Y-116840000D03*
X121920000Y-116840000D03*
X124460000Y-114300000D03*
X121920000Y-114300000D03*
X124460000Y-111760000D03*
X121920000Y-111760000D03*
X124460000Y-109220000D03*
X121920000Y-109220000D03*
X124460000Y-106680000D03*
X121920000Y-106680000D03*
X124460000Y-104140000D03*
X121920000Y-104140000D03*
X124460000Y-101600000D03*
X121920000Y-101600000D03*
X124460000Y-99060000D03*
X121920000Y-99060000D03*
X124460000Y-96520000D03*
D11*
X121920000Y-96520000D03*
D10*
X124460000Y-142240000D03*
X121920000Y-142240000D03*
X124460000Y-139700000D03*
X121920000Y-139700000D03*
X124460000Y-137160000D03*
D11*
X121920000Y-137160000D03*
D13*
X130816600Y-71247000D03*
D14*
X132816600Y-71247000D03*
D13*
X129664200Y-93040200D03*
D14*
X131664200Y-93040200D03*
D13*
X129664200Y-106540200D03*
D14*
X131664200Y-106540200D03*
D13*
X137164200Y-112540200D03*
D14*
X137164200Y-114540200D03*
D15*
X115925600Y-73202800D03*
D16*
X115925600Y-78282800D03*
D15*
X115874800Y-84378800D03*
D16*
X115874800Y-89458800D03*
D15*
X115722400Y-95707200D03*
D16*
X115722400Y-100787200D03*
D15*
X117080800Y-109169200D03*
X117080800Y-116789200D03*
X117030000Y-126695200D03*
X117030000Y-134315200D03*
D17*
G36*
X195058391Y-121446053D02*
G01*
X195079626Y-121449203D01*
X195100450Y-121454419D01*
X195120662Y-121461651D01*
X195140068Y-121470830D01*
X195158481Y-121481866D01*
X195175724Y-121494654D01*
X195191630Y-121509070D01*
X195206046Y-121524976D01*
X195218834Y-121542219D01*
X195229870Y-121560632D01*
X195239049Y-121580038D01*
X195246281Y-121600250D01*
X195251497Y-121621074D01*
X195254647Y-121642309D01*
X195255700Y-121663750D01*
X195255700Y-122176250D01*
X195254647Y-122197691D01*
X195251497Y-122218926D01*
X195246281Y-122239750D01*
X195239049Y-122259962D01*
X195229870Y-122279368D01*
X195218834Y-122297781D01*
X195206046Y-122315024D01*
X195191630Y-122330930D01*
X195175724Y-122345346D01*
X195158481Y-122358134D01*
X195140068Y-122369170D01*
X195120662Y-122378349D01*
X195100450Y-122385581D01*
X195079626Y-122390797D01*
X195058391Y-122393947D01*
X195036950Y-122395000D01*
X194599450Y-122395000D01*
X194578009Y-122393947D01*
X194556774Y-122390797D01*
X194535950Y-122385581D01*
X194515738Y-122378349D01*
X194496332Y-122369170D01*
X194477919Y-122358134D01*
X194460676Y-122345346D01*
X194444770Y-122330930D01*
X194430354Y-122315024D01*
X194417566Y-122297781D01*
X194406530Y-122279368D01*
X194397351Y-122259962D01*
X194390119Y-122239750D01*
X194384903Y-122218926D01*
X194381753Y-122197691D01*
X194380700Y-122176250D01*
X194380700Y-121663750D01*
X194381753Y-121642309D01*
X194384903Y-121621074D01*
X194390119Y-121600250D01*
X194397351Y-121580038D01*
X194406530Y-121560632D01*
X194417566Y-121542219D01*
X194430354Y-121524976D01*
X194444770Y-121509070D01*
X194460676Y-121494654D01*
X194477919Y-121481866D01*
X194496332Y-121470830D01*
X194515738Y-121461651D01*
X194535950Y-121454419D01*
X194556774Y-121449203D01*
X194578009Y-121446053D01*
X194599450Y-121445000D01*
X195036950Y-121445000D01*
X195058391Y-121446053D01*
X195058391Y-121446053D01*
G37*
D18*
X194818200Y-121920000D03*
D17*
G36*
X193483391Y-121446053D02*
G01*
X193504626Y-121449203D01*
X193525450Y-121454419D01*
X193545662Y-121461651D01*
X193565068Y-121470830D01*
X193583481Y-121481866D01*
X193600724Y-121494654D01*
X193616630Y-121509070D01*
X193631046Y-121524976D01*
X193643834Y-121542219D01*
X193654870Y-121560632D01*
X193664049Y-121580038D01*
X193671281Y-121600250D01*
X193676497Y-121621074D01*
X193679647Y-121642309D01*
X193680700Y-121663750D01*
X193680700Y-122176250D01*
X193679647Y-122197691D01*
X193676497Y-122218926D01*
X193671281Y-122239750D01*
X193664049Y-122259962D01*
X193654870Y-122279368D01*
X193643834Y-122297781D01*
X193631046Y-122315024D01*
X193616630Y-122330930D01*
X193600724Y-122345346D01*
X193583481Y-122358134D01*
X193565068Y-122369170D01*
X193545662Y-122378349D01*
X193525450Y-122385581D01*
X193504626Y-122390797D01*
X193483391Y-122393947D01*
X193461950Y-122395000D01*
X193024450Y-122395000D01*
X193003009Y-122393947D01*
X192981774Y-122390797D01*
X192960950Y-122385581D01*
X192940738Y-122378349D01*
X192921332Y-122369170D01*
X192902919Y-122358134D01*
X192885676Y-122345346D01*
X192869770Y-122330930D01*
X192855354Y-122315024D01*
X192842566Y-122297781D01*
X192831530Y-122279368D01*
X192822351Y-122259962D01*
X192815119Y-122239750D01*
X192809903Y-122218926D01*
X192806753Y-122197691D01*
X192805700Y-122176250D01*
X192805700Y-121663750D01*
X192806753Y-121642309D01*
X192809903Y-121621074D01*
X192815119Y-121600250D01*
X192822351Y-121580038D01*
X192831530Y-121560632D01*
X192842566Y-121542219D01*
X192855354Y-121524976D01*
X192869770Y-121509070D01*
X192885676Y-121494654D01*
X192902919Y-121481866D01*
X192921332Y-121470830D01*
X192940738Y-121461651D01*
X192960950Y-121454419D01*
X192981774Y-121449203D01*
X193003009Y-121446053D01*
X193024450Y-121445000D01*
X193461950Y-121445000D01*
X193483391Y-121446053D01*
X193483391Y-121446053D01*
G37*
D18*
X193243200Y-121920000D03*
D17*
G36*
X195058391Y-113699053D02*
G01*
X195079626Y-113702203D01*
X195100450Y-113707419D01*
X195120662Y-113714651D01*
X195140068Y-113723830D01*
X195158481Y-113734866D01*
X195175724Y-113747654D01*
X195191630Y-113762070D01*
X195206046Y-113777976D01*
X195218834Y-113795219D01*
X195229870Y-113813632D01*
X195239049Y-113833038D01*
X195246281Y-113853250D01*
X195251497Y-113874074D01*
X195254647Y-113895309D01*
X195255700Y-113916750D01*
X195255700Y-114429250D01*
X195254647Y-114450691D01*
X195251497Y-114471926D01*
X195246281Y-114492750D01*
X195239049Y-114512962D01*
X195229870Y-114532368D01*
X195218834Y-114550781D01*
X195206046Y-114568024D01*
X195191630Y-114583930D01*
X195175724Y-114598346D01*
X195158481Y-114611134D01*
X195140068Y-114622170D01*
X195120662Y-114631349D01*
X195100450Y-114638581D01*
X195079626Y-114643797D01*
X195058391Y-114646947D01*
X195036950Y-114648000D01*
X194599450Y-114648000D01*
X194578009Y-114646947D01*
X194556774Y-114643797D01*
X194535950Y-114638581D01*
X194515738Y-114631349D01*
X194496332Y-114622170D01*
X194477919Y-114611134D01*
X194460676Y-114598346D01*
X194444770Y-114583930D01*
X194430354Y-114568024D01*
X194417566Y-114550781D01*
X194406530Y-114532368D01*
X194397351Y-114512962D01*
X194390119Y-114492750D01*
X194384903Y-114471926D01*
X194381753Y-114450691D01*
X194380700Y-114429250D01*
X194380700Y-113916750D01*
X194381753Y-113895309D01*
X194384903Y-113874074D01*
X194390119Y-113853250D01*
X194397351Y-113833038D01*
X194406530Y-113813632D01*
X194417566Y-113795219D01*
X194430354Y-113777976D01*
X194444770Y-113762070D01*
X194460676Y-113747654D01*
X194477919Y-113734866D01*
X194496332Y-113723830D01*
X194515738Y-113714651D01*
X194535950Y-113707419D01*
X194556774Y-113702203D01*
X194578009Y-113699053D01*
X194599450Y-113698000D01*
X195036950Y-113698000D01*
X195058391Y-113699053D01*
X195058391Y-113699053D01*
G37*
D18*
X194818200Y-114173000D03*
D17*
G36*
X193483391Y-113699053D02*
G01*
X193504626Y-113702203D01*
X193525450Y-113707419D01*
X193545662Y-113714651D01*
X193565068Y-113723830D01*
X193583481Y-113734866D01*
X193600724Y-113747654D01*
X193616630Y-113762070D01*
X193631046Y-113777976D01*
X193643834Y-113795219D01*
X193654870Y-113813632D01*
X193664049Y-113833038D01*
X193671281Y-113853250D01*
X193676497Y-113874074D01*
X193679647Y-113895309D01*
X193680700Y-113916750D01*
X193680700Y-114429250D01*
X193679647Y-114450691D01*
X193676497Y-114471926D01*
X193671281Y-114492750D01*
X193664049Y-114512962D01*
X193654870Y-114532368D01*
X193643834Y-114550781D01*
X193631046Y-114568024D01*
X193616630Y-114583930D01*
X193600724Y-114598346D01*
X193583481Y-114611134D01*
X193565068Y-114622170D01*
X193545662Y-114631349D01*
X193525450Y-114638581D01*
X193504626Y-114643797D01*
X193483391Y-114646947D01*
X193461950Y-114648000D01*
X193024450Y-114648000D01*
X193003009Y-114646947D01*
X192981774Y-114643797D01*
X192960950Y-114638581D01*
X192940738Y-114631349D01*
X192921332Y-114622170D01*
X192902919Y-114611134D01*
X192885676Y-114598346D01*
X192869770Y-114583930D01*
X192855354Y-114568024D01*
X192842566Y-114550781D01*
X192831530Y-114532368D01*
X192822351Y-114512962D01*
X192815119Y-114492750D01*
X192809903Y-114471926D01*
X192806753Y-114450691D01*
X192805700Y-114429250D01*
X192805700Y-113916750D01*
X192806753Y-113895309D01*
X192809903Y-113874074D01*
X192815119Y-113853250D01*
X192822351Y-113833038D01*
X192831530Y-113813632D01*
X192842566Y-113795219D01*
X192855354Y-113777976D01*
X192869770Y-113762070D01*
X192885676Y-113747654D01*
X192902919Y-113734866D01*
X192921332Y-113723830D01*
X192940738Y-113714651D01*
X192960950Y-113707419D01*
X192981774Y-113702203D01*
X193003009Y-113699053D01*
X193024450Y-113698000D01*
X193461950Y-113698000D01*
X193483391Y-113699053D01*
X193483391Y-113699053D01*
G37*
D18*
X193243200Y-114173000D03*
D10*
X145313400Y-135305800D03*
X147853400Y-135305800D03*
D11*
X150393400Y-135305800D03*
D10*
X185369200Y-148386800D03*
X182829200Y-148386800D03*
D11*
X180289200Y-148386800D03*
D19*
X189454800Y-154127200D03*
X186954800Y-154127200D03*
D17*
G36*
X185079304Y-153153404D02*
G01*
X185103573Y-153157004D01*
X185127371Y-153162965D01*
X185150471Y-153171230D01*
X185172649Y-153181720D01*
X185193693Y-153194333D01*
X185213398Y-153208947D01*
X185231577Y-153225423D01*
X185248053Y-153243602D01*
X185262667Y-153263307D01*
X185275280Y-153284351D01*
X185285770Y-153306529D01*
X185294035Y-153329629D01*
X185299996Y-153353427D01*
X185303596Y-153377696D01*
X185304800Y-153402200D01*
X185304800Y-154852200D01*
X185303596Y-154876704D01*
X185299996Y-154900973D01*
X185294035Y-154924771D01*
X185285770Y-154947871D01*
X185275280Y-154970049D01*
X185262667Y-154991093D01*
X185248053Y-155010798D01*
X185231577Y-155028977D01*
X185213398Y-155045453D01*
X185193693Y-155060067D01*
X185172649Y-155072680D01*
X185150471Y-155083170D01*
X185127371Y-155091435D01*
X185103573Y-155097396D01*
X185079304Y-155100996D01*
X185054800Y-155102200D01*
X183854800Y-155102200D01*
X183830296Y-155100996D01*
X183806027Y-155097396D01*
X183782229Y-155091435D01*
X183759129Y-155083170D01*
X183736951Y-155072680D01*
X183715907Y-155060067D01*
X183696202Y-155045453D01*
X183678023Y-155028977D01*
X183661547Y-155010798D01*
X183646933Y-154991093D01*
X183634320Y-154970049D01*
X183623830Y-154947871D01*
X183615565Y-154924771D01*
X183609604Y-154900973D01*
X183606004Y-154876704D01*
X183604800Y-154852200D01*
X183604800Y-153402200D01*
X183606004Y-153377696D01*
X183609604Y-153353427D01*
X183615565Y-153329629D01*
X183623830Y-153306529D01*
X183634320Y-153284351D01*
X183646933Y-153263307D01*
X183661547Y-153243602D01*
X183678023Y-153225423D01*
X183696202Y-153208947D01*
X183715907Y-153194333D01*
X183736951Y-153181720D01*
X183759129Y-153171230D01*
X183782229Y-153162965D01*
X183806027Y-153157004D01*
X183830296Y-153153404D01*
X183854800Y-153152200D01*
X185054800Y-153152200D01*
X185079304Y-153153404D01*
X185079304Y-153153404D01*
G37*
D12*
X184454800Y-154127200D03*
D20*
X164875000Y-140716000D03*
X164875000Y-143256000D03*
X162335000Y-140716000D03*
X162335000Y-143256000D03*
X159795000Y-140716000D03*
X159795000Y-143256000D03*
X157255000Y-140716000D03*
X157255000Y-143256000D03*
X154715000Y-140716000D03*
D21*
X154715000Y-143256000D03*
D20*
X142875000Y-140716000D03*
X142875000Y-143256000D03*
X140335000Y-140716000D03*
X140335000Y-143256000D03*
X137795000Y-140716000D03*
X137795000Y-143256000D03*
X135255000Y-140716000D03*
X135255000Y-143256000D03*
X132715000Y-140716000D03*
D21*
X132715000Y-143256000D03*
D22*
X202449000Y-123094000D03*
X202449000Y-111054000D03*
D12*
X199739000Y-115824000D03*
X199739000Y-118324000D03*
X197739000Y-118324000D03*
D11*
X197739000Y-115824000D03*
D17*
G36*
X180962504Y-134660204D02*
G01*
X180986773Y-134663804D01*
X181010571Y-134669765D01*
X181033671Y-134678030D01*
X181055849Y-134688520D01*
X181076893Y-134701133D01*
X181096598Y-134715747D01*
X181114777Y-134732223D01*
X181131253Y-134750402D01*
X181145867Y-134770107D01*
X181158480Y-134791151D01*
X181168970Y-134813329D01*
X181177235Y-134836429D01*
X181183196Y-134860227D01*
X181186796Y-134884496D01*
X181188000Y-134909000D01*
X181188000Y-136109000D01*
X181186796Y-136133504D01*
X181183196Y-136157773D01*
X181177235Y-136181571D01*
X181168970Y-136204671D01*
X181158480Y-136226849D01*
X181145867Y-136247893D01*
X181131253Y-136267598D01*
X181114777Y-136285777D01*
X181096598Y-136302253D01*
X181076893Y-136316867D01*
X181055849Y-136329480D01*
X181033671Y-136339970D01*
X181010571Y-136348235D01*
X180986773Y-136354196D01*
X180962504Y-136357796D01*
X180938000Y-136359000D01*
X179488000Y-136359000D01*
X179463496Y-136357796D01*
X179439227Y-136354196D01*
X179415429Y-136348235D01*
X179392329Y-136339970D01*
X179370151Y-136329480D01*
X179349107Y-136316867D01*
X179329402Y-136302253D01*
X179311223Y-136285777D01*
X179294747Y-136267598D01*
X179280133Y-136247893D01*
X179267520Y-136226849D01*
X179257030Y-136204671D01*
X179248765Y-136181571D01*
X179242804Y-136157773D01*
X179239204Y-136133504D01*
X179238000Y-136109000D01*
X179238000Y-134909000D01*
X179239204Y-134884496D01*
X179242804Y-134860227D01*
X179248765Y-134836429D01*
X179257030Y-134813329D01*
X179267520Y-134791151D01*
X179280133Y-134770107D01*
X179294747Y-134750402D01*
X179311223Y-134732223D01*
X179329402Y-134715747D01*
X179349107Y-134701133D01*
X179370151Y-134688520D01*
X179392329Y-134678030D01*
X179415429Y-134669765D01*
X179439227Y-134663804D01*
X179463496Y-134660204D01*
X179488000Y-134659000D01*
X180938000Y-134659000D01*
X180962504Y-134660204D01*
X180962504Y-134660204D01*
G37*
D12*
X180213000Y-135509000D03*
D23*
X180213000Y-133009000D03*
X180213000Y-130509000D03*
X180213000Y-128009000D03*
X180213000Y-125509000D03*
X180213000Y-123009000D03*
X180213000Y-120509000D03*
X180213000Y-118009000D03*
X180213000Y-115509000D03*
D12*
X174802800Y-63347600D03*
X174802800Y-65887600D03*
X174802800Y-68427600D03*
X174802800Y-70967600D03*
X174802800Y-73507600D03*
X174802800Y-76047600D03*
X174802800Y-78587600D03*
X174802800Y-81127600D03*
X162102800Y-81127600D03*
X162102800Y-78587600D03*
X162102800Y-76047600D03*
X162102800Y-73507600D03*
X162102800Y-70967600D03*
X162102800Y-68427600D03*
X162102800Y-65887600D03*
X162102800Y-63347600D03*
X174853600Y-85725000D03*
X174853600Y-88265000D03*
X174853600Y-90805000D03*
X174853600Y-93345000D03*
X174853600Y-95885000D03*
X174853600Y-98425000D03*
X174853600Y-100965000D03*
X174853600Y-103505000D03*
X162153600Y-103505000D03*
X162153600Y-100965000D03*
X162153600Y-98425000D03*
X162153600Y-95885000D03*
X162153600Y-93345000D03*
X162153600Y-90805000D03*
X162153600Y-88265000D03*
X162153600Y-85725000D03*
D24*
X199114800Y-106527600D03*
X194614800Y-106527600D03*
X199114800Y-100027600D03*
X194614800Y-100027600D03*
D17*
G36*
X194333691Y-109240553D02*
G01*
X194354926Y-109243703D01*
X194375750Y-109248919D01*
X194395962Y-109256151D01*
X194415368Y-109265330D01*
X194433781Y-109276366D01*
X194451024Y-109289154D01*
X194466930Y-109303570D01*
X194481346Y-109319476D01*
X194494134Y-109336719D01*
X194505170Y-109355132D01*
X194514349Y-109374538D01*
X194521581Y-109394750D01*
X194526797Y-109415574D01*
X194529947Y-109436809D01*
X194531000Y-109458250D01*
X194531000Y-109895750D01*
X194529947Y-109917191D01*
X194526797Y-109938426D01*
X194521581Y-109959250D01*
X194514349Y-109979462D01*
X194505170Y-109998868D01*
X194494134Y-110017281D01*
X194481346Y-110034524D01*
X194466930Y-110050430D01*
X194451024Y-110064846D01*
X194433781Y-110077634D01*
X194415368Y-110088670D01*
X194395962Y-110097849D01*
X194375750Y-110105081D01*
X194354926Y-110110297D01*
X194333691Y-110113447D01*
X194312250Y-110114500D01*
X193799750Y-110114500D01*
X193778309Y-110113447D01*
X193757074Y-110110297D01*
X193736250Y-110105081D01*
X193716038Y-110097849D01*
X193696632Y-110088670D01*
X193678219Y-110077634D01*
X193660976Y-110064846D01*
X193645070Y-110050430D01*
X193630654Y-110034524D01*
X193617866Y-110017281D01*
X193606830Y-109998868D01*
X193597651Y-109979462D01*
X193590419Y-109959250D01*
X193585203Y-109938426D01*
X193582053Y-109917191D01*
X193581000Y-109895750D01*
X193581000Y-109458250D01*
X193582053Y-109436809D01*
X193585203Y-109415574D01*
X193590419Y-109394750D01*
X193597651Y-109374538D01*
X193606830Y-109355132D01*
X193617866Y-109336719D01*
X193630654Y-109319476D01*
X193645070Y-109303570D01*
X193660976Y-109289154D01*
X193678219Y-109276366D01*
X193696632Y-109265330D01*
X193716038Y-109256151D01*
X193736250Y-109248919D01*
X193757074Y-109243703D01*
X193778309Y-109240553D01*
X193799750Y-109239500D01*
X194312250Y-109239500D01*
X194333691Y-109240553D01*
X194333691Y-109240553D01*
G37*
D18*
X194056000Y-109677000D03*
D17*
G36*
X194333691Y-110815553D02*
G01*
X194354926Y-110818703D01*
X194375750Y-110823919D01*
X194395962Y-110831151D01*
X194415368Y-110840330D01*
X194433781Y-110851366D01*
X194451024Y-110864154D01*
X194466930Y-110878570D01*
X194481346Y-110894476D01*
X194494134Y-110911719D01*
X194505170Y-110930132D01*
X194514349Y-110949538D01*
X194521581Y-110969750D01*
X194526797Y-110990574D01*
X194529947Y-111011809D01*
X194531000Y-111033250D01*
X194531000Y-111470750D01*
X194529947Y-111492191D01*
X194526797Y-111513426D01*
X194521581Y-111534250D01*
X194514349Y-111554462D01*
X194505170Y-111573868D01*
X194494134Y-111592281D01*
X194481346Y-111609524D01*
X194466930Y-111625430D01*
X194451024Y-111639846D01*
X194433781Y-111652634D01*
X194415368Y-111663670D01*
X194395962Y-111672849D01*
X194375750Y-111680081D01*
X194354926Y-111685297D01*
X194333691Y-111688447D01*
X194312250Y-111689500D01*
X193799750Y-111689500D01*
X193778309Y-111688447D01*
X193757074Y-111685297D01*
X193736250Y-111680081D01*
X193716038Y-111672849D01*
X193696632Y-111663670D01*
X193678219Y-111652634D01*
X193660976Y-111639846D01*
X193645070Y-111625430D01*
X193630654Y-111609524D01*
X193617866Y-111592281D01*
X193606830Y-111573868D01*
X193597651Y-111554462D01*
X193590419Y-111534250D01*
X193585203Y-111513426D01*
X193582053Y-111492191D01*
X193581000Y-111470750D01*
X193581000Y-111033250D01*
X193582053Y-111011809D01*
X193585203Y-110990574D01*
X193590419Y-110969750D01*
X193597651Y-110949538D01*
X193606830Y-110930132D01*
X193617866Y-110911719D01*
X193630654Y-110894476D01*
X193645070Y-110878570D01*
X193660976Y-110864154D01*
X193678219Y-110851366D01*
X193696632Y-110840330D01*
X193716038Y-110831151D01*
X193736250Y-110823919D01*
X193757074Y-110818703D01*
X193778309Y-110815553D01*
X193799750Y-110814500D01*
X194312250Y-110814500D01*
X194333691Y-110815553D01*
X194333691Y-110815553D01*
G37*
D18*
X194056000Y-111252000D03*
D23*
X182346600Y-90126200D03*
X182346600Y-87626200D03*
X182346600Y-85126200D03*
D17*
G36*
X183096104Y-81777404D02*
G01*
X183120373Y-81781004D01*
X183144171Y-81786965D01*
X183167271Y-81795230D01*
X183189449Y-81805720D01*
X183210493Y-81818333D01*
X183230198Y-81832947D01*
X183248377Y-81849423D01*
X183264853Y-81867602D01*
X183279467Y-81887307D01*
X183292080Y-81908351D01*
X183302570Y-81930529D01*
X183310835Y-81953629D01*
X183316796Y-81977427D01*
X183320396Y-82001696D01*
X183321600Y-82026200D01*
X183321600Y-83226200D01*
X183320396Y-83250704D01*
X183316796Y-83274973D01*
X183310835Y-83298771D01*
X183302570Y-83321871D01*
X183292080Y-83344049D01*
X183279467Y-83365093D01*
X183264853Y-83384798D01*
X183248377Y-83402977D01*
X183230198Y-83419453D01*
X183210493Y-83434067D01*
X183189449Y-83446680D01*
X183167271Y-83457170D01*
X183144171Y-83465435D01*
X183120373Y-83471396D01*
X183096104Y-83474996D01*
X183071600Y-83476200D01*
X181621600Y-83476200D01*
X181597096Y-83474996D01*
X181572827Y-83471396D01*
X181549029Y-83465435D01*
X181525929Y-83457170D01*
X181503751Y-83446680D01*
X181482707Y-83434067D01*
X181463002Y-83419453D01*
X181444823Y-83402977D01*
X181428347Y-83384798D01*
X181413733Y-83365093D01*
X181401120Y-83344049D01*
X181390630Y-83321871D01*
X181382365Y-83298771D01*
X181376404Y-83274973D01*
X181372804Y-83250704D01*
X181371600Y-83226200D01*
X181371600Y-82026200D01*
X181372804Y-82001696D01*
X181376404Y-81977427D01*
X181382365Y-81953629D01*
X181390630Y-81930529D01*
X181401120Y-81908351D01*
X181413733Y-81887307D01*
X181428347Y-81867602D01*
X181444823Y-81849423D01*
X181463002Y-81832947D01*
X181482707Y-81818333D01*
X181503751Y-81805720D01*
X181525929Y-81795230D01*
X181549029Y-81786965D01*
X181572827Y-81781004D01*
X181597096Y-81777404D01*
X181621600Y-81776200D01*
X183071600Y-81776200D01*
X183096104Y-81777404D01*
X183096104Y-81777404D01*
G37*
D12*
X182346600Y-82626200D03*
D25*
X71139400Y-90763200D03*
X66579400Y-90763200D03*
D26*
X68859400Y-84463200D03*
D23*
X157048200Y-75368800D03*
X157048200Y-72868800D03*
X157048200Y-70368800D03*
D17*
G36*
X157797704Y-67020004D02*
G01*
X157821973Y-67023604D01*
X157845771Y-67029565D01*
X157868871Y-67037830D01*
X157891049Y-67048320D01*
X157912093Y-67060933D01*
X157931798Y-67075547D01*
X157949977Y-67092023D01*
X157966453Y-67110202D01*
X157981067Y-67129907D01*
X157993680Y-67150951D01*
X158004170Y-67173129D01*
X158012435Y-67196229D01*
X158018396Y-67220027D01*
X158021996Y-67244296D01*
X158023200Y-67268800D01*
X158023200Y-68468800D01*
X158021996Y-68493304D01*
X158018396Y-68517573D01*
X158012435Y-68541371D01*
X158004170Y-68564471D01*
X157993680Y-68586649D01*
X157981067Y-68607693D01*
X157966453Y-68627398D01*
X157949977Y-68645577D01*
X157931798Y-68662053D01*
X157912093Y-68676667D01*
X157891049Y-68689280D01*
X157868871Y-68699770D01*
X157845771Y-68708035D01*
X157821973Y-68713996D01*
X157797704Y-68717596D01*
X157773200Y-68718800D01*
X156323200Y-68718800D01*
X156298696Y-68717596D01*
X156274427Y-68713996D01*
X156250629Y-68708035D01*
X156227529Y-68699770D01*
X156205351Y-68689280D01*
X156184307Y-68676667D01*
X156164602Y-68662053D01*
X156146423Y-68645577D01*
X156129947Y-68627398D01*
X156115333Y-68607693D01*
X156102720Y-68586649D01*
X156092230Y-68564471D01*
X156083965Y-68541371D01*
X156078004Y-68517573D01*
X156074404Y-68493304D01*
X156073200Y-68468800D01*
X156073200Y-67268800D01*
X156074404Y-67244296D01*
X156078004Y-67220027D01*
X156083965Y-67196229D01*
X156092230Y-67173129D01*
X156102720Y-67150951D01*
X156115333Y-67129907D01*
X156129947Y-67110202D01*
X156146423Y-67092023D01*
X156164602Y-67075547D01*
X156184307Y-67060933D01*
X156205351Y-67048320D01*
X156227529Y-67037830D01*
X156250629Y-67029565D01*
X156274427Y-67023604D01*
X156298696Y-67020004D01*
X156323200Y-67018800D01*
X157773200Y-67018800D01*
X157797704Y-67020004D01*
X157797704Y-67020004D01*
G37*
D12*
X157048200Y-67868800D03*
D23*
X156845000Y-97365200D03*
X156845000Y-94865200D03*
X156845000Y-92365200D03*
D17*
G36*
X157594504Y-89016404D02*
G01*
X157618773Y-89020004D01*
X157642571Y-89025965D01*
X157665671Y-89034230D01*
X157687849Y-89044720D01*
X157708893Y-89057333D01*
X157728598Y-89071947D01*
X157746777Y-89088423D01*
X157763253Y-89106602D01*
X157777867Y-89126307D01*
X157790480Y-89147351D01*
X157800970Y-89169529D01*
X157809235Y-89192629D01*
X157815196Y-89216427D01*
X157818796Y-89240696D01*
X157820000Y-89265200D01*
X157820000Y-90465200D01*
X157818796Y-90489704D01*
X157815196Y-90513973D01*
X157809235Y-90537771D01*
X157800970Y-90560871D01*
X157790480Y-90583049D01*
X157777867Y-90604093D01*
X157763253Y-90623798D01*
X157746777Y-90641977D01*
X157728598Y-90658453D01*
X157708893Y-90673067D01*
X157687849Y-90685680D01*
X157665671Y-90696170D01*
X157642571Y-90704435D01*
X157618773Y-90710396D01*
X157594504Y-90713996D01*
X157570000Y-90715200D01*
X156120000Y-90715200D01*
X156095496Y-90713996D01*
X156071227Y-90710396D01*
X156047429Y-90704435D01*
X156024329Y-90696170D01*
X156002151Y-90685680D01*
X155981107Y-90673067D01*
X155961402Y-90658453D01*
X155943223Y-90641977D01*
X155926747Y-90623798D01*
X155912133Y-90604093D01*
X155899520Y-90583049D01*
X155889030Y-90560871D01*
X155880765Y-90537771D01*
X155874804Y-90513973D01*
X155871204Y-90489704D01*
X155870000Y-90465200D01*
X155870000Y-89265200D01*
X155871204Y-89240696D01*
X155874804Y-89216427D01*
X155880765Y-89192629D01*
X155889030Y-89169529D01*
X155899520Y-89147351D01*
X155912133Y-89126307D01*
X155926747Y-89106602D01*
X155943223Y-89088423D01*
X155961402Y-89071947D01*
X155981107Y-89057333D01*
X156002151Y-89044720D01*
X156024329Y-89034230D01*
X156047429Y-89025965D01*
X156071227Y-89020004D01*
X156095496Y-89016404D01*
X156120000Y-89015200D01*
X157570000Y-89015200D01*
X157594504Y-89016404D01*
X157594504Y-89016404D01*
G37*
D12*
X156845000Y-89865200D03*
D19*
X201215000Y-133096000D03*
X198715000Y-133096000D03*
D17*
G36*
X196839504Y-132122204D02*
G01*
X196863773Y-132125804D01*
X196887571Y-132131765D01*
X196910671Y-132140030D01*
X196932849Y-132150520D01*
X196953893Y-132163133D01*
X196973598Y-132177747D01*
X196991777Y-132194223D01*
X197008253Y-132212402D01*
X197022867Y-132232107D01*
X197035480Y-132253151D01*
X197045970Y-132275329D01*
X197054235Y-132298429D01*
X197060196Y-132322227D01*
X197063796Y-132346496D01*
X197065000Y-132371000D01*
X197065000Y-133821000D01*
X197063796Y-133845504D01*
X197060196Y-133869773D01*
X197054235Y-133893571D01*
X197045970Y-133916671D01*
X197035480Y-133938849D01*
X197022867Y-133959893D01*
X197008253Y-133979598D01*
X196991777Y-133997777D01*
X196973598Y-134014253D01*
X196953893Y-134028867D01*
X196932849Y-134041480D01*
X196910671Y-134051970D01*
X196887571Y-134060235D01*
X196863773Y-134066196D01*
X196839504Y-134069796D01*
X196815000Y-134071000D01*
X195615000Y-134071000D01*
X195590496Y-134069796D01*
X195566227Y-134066196D01*
X195542429Y-134060235D01*
X195519329Y-134051970D01*
X195497151Y-134041480D01*
X195476107Y-134028867D01*
X195456402Y-134014253D01*
X195438223Y-133997777D01*
X195421747Y-133979598D01*
X195407133Y-133959893D01*
X195394520Y-133938849D01*
X195384030Y-133916671D01*
X195375765Y-133893571D01*
X195369804Y-133869773D01*
X195366204Y-133845504D01*
X195365000Y-133821000D01*
X195365000Y-132371000D01*
X195366204Y-132346496D01*
X195369804Y-132322227D01*
X195375765Y-132298429D01*
X195384030Y-132275329D01*
X195394520Y-132253151D01*
X195407133Y-132232107D01*
X195421747Y-132212402D01*
X195438223Y-132194223D01*
X195456402Y-132177747D01*
X195476107Y-132163133D01*
X195497151Y-132150520D01*
X195519329Y-132140030D01*
X195542429Y-132131765D01*
X195566227Y-132125804D01*
X195590496Y-132122204D01*
X195615000Y-132121000D01*
X196815000Y-132121000D01*
X196839504Y-132122204D01*
X196839504Y-132122204D01*
G37*
D12*
X196215000Y-133096000D03*
D19*
X201278500Y-153987500D03*
X198778500Y-153987500D03*
D17*
G36*
X196903004Y-153013704D02*
G01*
X196927273Y-153017304D01*
X196951071Y-153023265D01*
X196974171Y-153031530D01*
X196996349Y-153042020D01*
X197017393Y-153054633D01*
X197037098Y-153069247D01*
X197055277Y-153085723D01*
X197071753Y-153103902D01*
X197086367Y-153123607D01*
X197098980Y-153144651D01*
X197109470Y-153166829D01*
X197117735Y-153189929D01*
X197123696Y-153213727D01*
X197127296Y-153237996D01*
X197128500Y-153262500D01*
X197128500Y-154712500D01*
X197127296Y-154737004D01*
X197123696Y-154761273D01*
X197117735Y-154785071D01*
X197109470Y-154808171D01*
X197098980Y-154830349D01*
X197086367Y-154851393D01*
X197071753Y-154871098D01*
X197055277Y-154889277D01*
X197037098Y-154905753D01*
X197017393Y-154920367D01*
X196996349Y-154932980D01*
X196974171Y-154943470D01*
X196951071Y-154951735D01*
X196927273Y-154957696D01*
X196903004Y-154961296D01*
X196878500Y-154962500D01*
X195678500Y-154962500D01*
X195653996Y-154961296D01*
X195629727Y-154957696D01*
X195605929Y-154951735D01*
X195582829Y-154943470D01*
X195560651Y-154932980D01*
X195539607Y-154920367D01*
X195519902Y-154905753D01*
X195501723Y-154889277D01*
X195485247Y-154871098D01*
X195470633Y-154851393D01*
X195458020Y-154830349D01*
X195447530Y-154808171D01*
X195439265Y-154785071D01*
X195433304Y-154761273D01*
X195429704Y-154737004D01*
X195428500Y-154712500D01*
X195428500Y-153262500D01*
X195429704Y-153237996D01*
X195433304Y-153213727D01*
X195439265Y-153189929D01*
X195447530Y-153166829D01*
X195458020Y-153144651D01*
X195470633Y-153123607D01*
X195485247Y-153103902D01*
X195501723Y-153085723D01*
X195519902Y-153069247D01*
X195539607Y-153054633D01*
X195560651Y-153042020D01*
X195582829Y-153031530D01*
X195605929Y-153023265D01*
X195629727Y-153017304D01*
X195653996Y-153013704D01*
X195678500Y-153012500D01*
X196878500Y-153012500D01*
X196903004Y-153013704D01*
X196903004Y-153013704D01*
G37*
D12*
X196278500Y-153987500D03*
D19*
X201278500Y-147002500D03*
X198778500Y-147002500D03*
D17*
G36*
X196903004Y-146028704D02*
G01*
X196927273Y-146032304D01*
X196951071Y-146038265D01*
X196974171Y-146046530D01*
X196996349Y-146057020D01*
X197017393Y-146069633D01*
X197037098Y-146084247D01*
X197055277Y-146100723D01*
X197071753Y-146118902D01*
X197086367Y-146138607D01*
X197098980Y-146159651D01*
X197109470Y-146181829D01*
X197117735Y-146204929D01*
X197123696Y-146228727D01*
X197127296Y-146252996D01*
X197128500Y-146277500D01*
X197128500Y-147727500D01*
X197127296Y-147752004D01*
X197123696Y-147776273D01*
X197117735Y-147800071D01*
X197109470Y-147823171D01*
X197098980Y-147845349D01*
X197086367Y-147866393D01*
X197071753Y-147886098D01*
X197055277Y-147904277D01*
X197037098Y-147920753D01*
X197017393Y-147935367D01*
X196996349Y-147947980D01*
X196974171Y-147958470D01*
X196951071Y-147966735D01*
X196927273Y-147972696D01*
X196903004Y-147976296D01*
X196878500Y-147977500D01*
X195678500Y-147977500D01*
X195653996Y-147976296D01*
X195629727Y-147972696D01*
X195605929Y-147966735D01*
X195582829Y-147958470D01*
X195560651Y-147947980D01*
X195539607Y-147935367D01*
X195519902Y-147920753D01*
X195501723Y-147904277D01*
X195485247Y-147886098D01*
X195470633Y-147866393D01*
X195458020Y-147845349D01*
X195447530Y-147823171D01*
X195439265Y-147800071D01*
X195433304Y-147776273D01*
X195429704Y-147752004D01*
X195428500Y-147727500D01*
X195428500Y-146277500D01*
X195429704Y-146252996D01*
X195433304Y-146228727D01*
X195439265Y-146204929D01*
X195447530Y-146181829D01*
X195458020Y-146159651D01*
X195470633Y-146138607D01*
X195485247Y-146118902D01*
X195501723Y-146100723D01*
X195519902Y-146084247D01*
X195539607Y-146069633D01*
X195560651Y-146057020D01*
X195582829Y-146046530D01*
X195605929Y-146038265D01*
X195629727Y-146032304D01*
X195653996Y-146028704D01*
X195678500Y-146027500D01*
X196878500Y-146027500D01*
X196903004Y-146028704D01*
X196903004Y-146028704D01*
G37*
D12*
X196278500Y-147002500D03*
D23*
X182270400Y-76003800D03*
X182270400Y-73503800D03*
X182270400Y-71003800D03*
D17*
G36*
X183019904Y-67655004D02*
G01*
X183044173Y-67658604D01*
X183067971Y-67664565D01*
X183091071Y-67672830D01*
X183113249Y-67683320D01*
X183134293Y-67695933D01*
X183153998Y-67710547D01*
X183172177Y-67727023D01*
X183188653Y-67745202D01*
X183203267Y-67764907D01*
X183215880Y-67785951D01*
X183226370Y-67808129D01*
X183234635Y-67831229D01*
X183240596Y-67855027D01*
X183244196Y-67879296D01*
X183245400Y-67903800D01*
X183245400Y-69103800D01*
X183244196Y-69128304D01*
X183240596Y-69152573D01*
X183234635Y-69176371D01*
X183226370Y-69199471D01*
X183215880Y-69221649D01*
X183203267Y-69242693D01*
X183188653Y-69262398D01*
X183172177Y-69280577D01*
X183153998Y-69297053D01*
X183134293Y-69311667D01*
X183113249Y-69324280D01*
X183091071Y-69334770D01*
X183067971Y-69343035D01*
X183044173Y-69348996D01*
X183019904Y-69352596D01*
X182995400Y-69353800D01*
X181545400Y-69353800D01*
X181520896Y-69352596D01*
X181496627Y-69348996D01*
X181472829Y-69343035D01*
X181449729Y-69334770D01*
X181427551Y-69324280D01*
X181406507Y-69311667D01*
X181386802Y-69297053D01*
X181368623Y-69280577D01*
X181352147Y-69262398D01*
X181337533Y-69242693D01*
X181324920Y-69221649D01*
X181314430Y-69199471D01*
X181306165Y-69176371D01*
X181300204Y-69152573D01*
X181296604Y-69128304D01*
X181295400Y-69103800D01*
X181295400Y-67903800D01*
X181296604Y-67879296D01*
X181300204Y-67855027D01*
X181306165Y-67831229D01*
X181314430Y-67808129D01*
X181324920Y-67785951D01*
X181337533Y-67764907D01*
X181352147Y-67745202D01*
X181368623Y-67727023D01*
X181386802Y-67710547D01*
X181406507Y-67695933D01*
X181427551Y-67683320D01*
X181449729Y-67672830D01*
X181472829Y-67664565D01*
X181496627Y-67658604D01*
X181520896Y-67655004D01*
X181545400Y-67653800D01*
X182995400Y-67653800D01*
X183019904Y-67655004D01*
X183019904Y-67655004D01*
G37*
D12*
X182270400Y-68503800D03*
D19*
X201215000Y-140081000D03*
X198715000Y-140081000D03*
D17*
G36*
X196839504Y-139107204D02*
G01*
X196863773Y-139110804D01*
X196887571Y-139116765D01*
X196910671Y-139125030D01*
X196932849Y-139135520D01*
X196953893Y-139148133D01*
X196973598Y-139162747D01*
X196991777Y-139179223D01*
X197008253Y-139197402D01*
X197022867Y-139217107D01*
X197035480Y-139238151D01*
X197045970Y-139260329D01*
X197054235Y-139283429D01*
X197060196Y-139307227D01*
X197063796Y-139331496D01*
X197065000Y-139356000D01*
X197065000Y-140806000D01*
X197063796Y-140830504D01*
X197060196Y-140854773D01*
X197054235Y-140878571D01*
X197045970Y-140901671D01*
X197035480Y-140923849D01*
X197022867Y-140944893D01*
X197008253Y-140964598D01*
X196991777Y-140982777D01*
X196973598Y-140999253D01*
X196953893Y-141013867D01*
X196932849Y-141026480D01*
X196910671Y-141036970D01*
X196887571Y-141045235D01*
X196863773Y-141051196D01*
X196839504Y-141054796D01*
X196815000Y-141056000D01*
X195615000Y-141056000D01*
X195590496Y-141054796D01*
X195566227Y-141051196D01*
X195542429Y-141045235D01*
X195519329Y-141036970D01*
X195497151Y-141026480D01*
X195476107Y-141013867D01*
X195456402Y-140999253D01*
X195438223Y-140982777D01*
X195421747Y-140964598D01*
X195407133Y-140944893D01*
X195394520Y-140923849D01*
X195384030Y-140901671D01*
X195375765Y-140878571D01*
X195369804Y-140854773D01*
X195366204Y-140830504D01*
X195365000Y-140806000D01*
X195365000Y-139356000D01*
X195366204Y-139331496D01*
X195369804Y-139307227D01*
X195375765Y-139283429D01*
X195384030Y-139260329D01*
X195394520Y-139238151D01*
X195407133Y-139217107D01*
X195421747Y-139197402D01*
X195438223Y-139179223D01*
X195456402Y-139162747D01*
X195476107Y-139148133D01*
X195497151Y-139135520D01*
X195519329Y-139125030D01*
X195542429Y-139116765D01*
X195566227Y-139110804D01*
X195590496Y-139107204D01*
X195615000Y-139106000D01*
X196815000Y-139106000D01*
X196839504Y-139107204D01*
X196839504Y-139107204D01*
G37*
D12*
X196215000Y-140081000D03*
D17*
G36*
X195171891Y-117089253D02*
G01*
X195193126Y-117092403D01*
X195213950Y-117097619D01*
X195234162Y-117104851D01*
X195253568Y-117114030D01*
X195271981Y-117125066D01*
X195289224Y-117137854D01*
X195305130Y-117152270D01*
X195319546Y-117168176D01*
X195332334Y-117185419D01*
X195343370Y-117203832D01*
X195352549Y-117223238D01*
X195359781Y-117243450D01*
X195364997Y-117264274D01*
X195368147Y-117285509D01*
X195369200Y-117306950D01*
X195369200Y-117744450D01*
X195368147Y-117765891D01*
X195364997Y-117787126D01*
X195359781Y-117807950D01*
X195352549Y-117828162D01*
X195343370Y-117847568D01*
X195332334Y-117865981D01*
X195319546Y-117883224D01*
X195305130Y-117899130D01*
X195289224Y-117913546D01*
X195271981Y-117926334D01*
X195253568Y-117937370D01*
X195234162Y-117946549D01*
X195213950Y-117953781D01*
X195193126Y-117958997D01*
X195171891Y-117962147D01*
X195150450Y-117963200D01*
X194637950Y-117963200D01*
X194616509Y-117962147D01*
X194595274Y-117958997D01*
X194574450Y-117953781D01*
X194554238Y-117946549D01*
X194534832Y-117937370D01*
X194516419Y-117926334D01*
X194499176Y-117913546D01*
X194483270Y-117899130D01*
X194468854Y-117883224D01*
X194456066Y-117865981D01*
X194445030Y-117847568D01*
X194435851Y-117828162D01*
X194428619Y-117807950D01*
X194423403Y-117787126D01*
X194420253Y-117765891D01*
X194419200Y-117744450D01*
X194419200Y-117306950D01*
X194420253Y-117285509D01*
X194423403Y-117264274D01*
X194428619Y-117243450D01*
X194435851Y-117223238D01*
X194445030Y-117203832D01*
X194456066Y-117185419D01*
X194468854Y-117168176D01*
X194483270Y-117152270D01*
X194499176Y-117137854D01*
X194516419Y-117125066D01*
X194534832Y-117114030D01*
X194554238Y-117104851D01*
X194574450Y-117097619D01*
X194595274Y-117092403D01*
X194616509Y-117089253D01*
X194637950Y-117088200D01*
X195150450Y-117088200D01*
X195171891Y-117089253D01*
X195171891Y-117089253D01*
G37*
D18*
X194894200Y-117525700D03*
D17*
G36*
X195171891Y-118664253D02*
G01*
X195193126Y-118667403D01*
X195213950Y-118672619D01*
X195234162Y-118679851D01*
X195253568Y-118689030D01*
X195271981Y-118700066D01*
X195289224Y-118712854D01*
X195305130Y-118727270D01*
X195319546Y-118743176D01*
X195332334Y-118760419D01*
X195343370Y-118778832D01*
X195352549Y-118798238D01*
X195359781Y-118818450D01*
X195364997Y-118839274D01*
X195368147Y-118860509D01*
X195369200Y-118881950D01*
X195369200Y-119319450D01*
X195368147Y-119340891D01*
X195364997Y-119362126D01*
X195359781Y-119382950D01*
X195352549Y-119403162D01*
X195343370Y-119422568D01*
X195332334Y-119440981D01*
X195319546Y-119458224D01*
X195305130Y-119474130D01*
X195289224Y-119488546D01*
X195271981Y-119501334D01*
X195253568Y-119512370D01*
X195234162Y-119521549D01*
X195213950Y-119528781D01*
X195193126Y-119533997D01*
X195171891Y-119537147D01*
X195150450Y-119538200D01*
X194637950Y-119538200D01*
X194616509Y-119537147D01*
X194595274Y-119533997D01*
X194574450Y-119528781D01*
X194554238Y-119521549D01*
X194534832Y-119512370D01*
X194516419Y-119501334D01*
X194499176Y-119488546D01*
X194483270Y-119474130D01*
X194468854Y-119458224D01*
X194456066Y-119440981D01*
X194445030Y-119422568D01*
X194435851Y-119403162D01*
X194428619Y-119382950D01*
X194423403Y-119362126D01*
X194420253Y-119340891D01*
X194419200Y-119319450D01*
X194419200Y-118881950D01*
X194420253Y-118860509D01*
X194423403Y-118839274D01*
X194428619Y-118818450D01*
X194435851Y-118798238D01*
X194445030Y-118778832D01*
X194456066Y-118760419D01*
X194468854Y-118743176D01*
X194483270Y-118727270D01*
X194499176Y-118712854D01*
X194516419Y-118700066D01*
X194534832Y-118689030D01*
X194554238Y-118679851D01*
X194574450Y-118672619D01*
X194595274Y-118667403D01*
X194616509Y-118664253D01*
X194637950Y-118663200D01*
X195150450Y-118663200D01*
X195171891Y-118664253D01*
X195171891Y-118664253D01*
G37*
D18*
X194894200Y-119100700D03*
D23*
X198526400Y-90608800D03*
X198526400Y-88108800D03*
X198526400Y-85608800D03*
D17*
G36*
X199275904Y-82260004D02*
G01*
X199300173Y-82263604D01*
X199323971Y-82269565D01*
X199347071Y-82277830D01*
X199369249Y-82288320D01*
X199390293Y-82300933D01*
X199409998Y-82315547D01*
X199428177Y-82332023D01*
X199444653Y-82350202D01*
X199459267Y-82369907D01*
X199471880Y-82390951D01*
X199482370Y-82413129D01*
X199490635Y-82436229D01*
X199496596Y-82460027D01*
X199500196Y-82484296D01*
X199501400Y-82508800D01*
X199501400Y-83708800D01*
X199500196Y-83733304D01*
X199496596Y-83757573D01*
X199490635Y-83781371D01*
X199482370Y-83804471D01*
X199471880Y-83826649D01*
X199459267Y-83847693D01*
X199444653Y-83867398D01*
X199428177Y-83885577D01*
X199409998Y-83902053D01*
X199390293Y-83916667D01*
X199369249Y-83929280D01*
X199347071Y-83939770D01*
X199323971Y-83948035D01*
X199300173Y-83953996D01*
X199275904Y-83957596D01*
X199251400Y-83958800D01*
X197801400Y-83958800D01*
X197776896Y-83957596D01*
X197752627Y-83953996D01*
X197728829Y-83948035D01*
X197705729Y-83939770D01*
X197683551Y-83929280D01*
X197662507Y-83916667D01*
X197642802Y-83902053D01*
X197624623Y-83885577D01*
X197608147Y-83867398D01*
X197593533Y-83847693D01*
X197580920Y-83826649D01*
X197570430Y-83804471D01*
X197562165Y-83781371D01*
X197556204Y-83757573D01*
X197552604Y-83733304D01*
X197551400Y-83708800D01*
X197551400Y-82508800D01*
X197552604Y-82484296D01*
X197556204Y-82460027D01*
X197562165Y-82436229D01*
X197570430Y-82413129D01*
X197580920Y-82390951D01*
X197593533Y-82369907D01*
X197608147Y-82350202D01*
X197624623Y-82332023D01*
X197642802Y-82315547D01*
X197662507Y-82300933D01*
X197683551Y-82288320D01*
X197705729Y-82277830D01*
X197728829Y-82269565D01*
X197752627Y-82263604D01*
X197776896Y-82260004D01*
X197801400Y-82258800D01*
X199251400Y-82258800D01*
X199275904Y-82260004D01*
X199275904Y-82260004D01*
G37*
D12*
X198526400Y-83108800D03*
D10*
X190500000Y-142240000D03*
X187960000Y-142240000D03*
X190500000Y-139700000D03*
X187960000Y-139700000D03*
X190500000Y-137160000D03*
X187960000Y-137160000D03*
X190500000Y-134620000D03*
X187960000Y-134620000D03*
X190500000Y-132080000D03*
X187960000Y-132080000D03*
X190500000Y-129540000D03*
X187960000Y-129540000D03*
X190500000Y-127000000D03*
X187960000Y-127000000D03*
X190500000Y-124460000D03*
X187960000Y-124460000D03*
X190500000Y-121920000D03*
X187960000Y-121920000D03*
X190500000Y-119380000D03*
X187960000Y-119380000D03*
X190500000Y-116840000D03*
X187960000Y-116840000D03*
X190500000Y-114300000D03*
X187960000Y-114300000D03*
X190500000Y-111760000D03*
X187960000Y-111760000D03*
X190500000Y-109220000D03*
X187960000Y-109220000D03*
X190500000Y-106680000D03*
X187960000Y-106680000D03*
X190500000Y-104140000D03*
X187960000Y-104140000D03*
X190500000Y-101600000D03*
X187960000Y-101600000D03*
X190500000Y-99060000D03*
X187960000Y-99060000D03*
X190500000Y-96520000D03*
X187960000Y-96520000D03*
X190500000Y-93980000D03*
X187960000Y-93980000D03*
X190500000Y-91440000D03*
X187960000Y-91440000D03*
X190500000Y-88900000D03*
X187960000Y-88900000D03*
X190500000Y-86360000D03*
X187960000Y-86360000D03*
X190500000Y-83820000D03*
D11*
X187960000Y-83820000D03*
D10*
X137160000Y-153670000D03*
X137160000Y-151130000D03*
X139700000Y-153670000D03*
X139700000Y-151130000D03*
X142240000Y-153670000D03*
X142240000Y-151130000D03*
X144780000Y-153670000D03*
X144780000Y-151130000D03*
X147320000Y-153670000D03*
X147320000Y-151130000D03*
X149860000Y-153670000D03*
X149860000Y-151130000D03*
X152400000Y-153670000D03*
X152400000Y-151130000D03*
X154940000Y-153670000D03*
X154940000Y-151130000D03*
X157480000Y-153670000D03*
X157480000Y-151130000D03*
X160020000Y-153670000D03*
X160020000Y-151130000D03*
X162560000Y-153670000D03*
X162560000Y-151130000D03*
X165100000Y-153670000D03*
X165100000Y-151130000D03*
X167640000Y-153670000D03*
X167640000Y-151130000D03*
X170180000Y-153670000D03*
X170180000Y-151130000D03*
X172720000Y-153670000D03*
X172720000Y-151130000D03*
X175260000Y-153670000D03*
D11*
X175260000Y-151130000D03*
D17*
G36*
X132803704Y-75571404D02*
G01*
X132827973Y-75575004D01*
X132851771Y-75580965D01*
X132874871Y-75589230D01*
X132897049Y-75599720D01*
X132918093Y-75612333D01*
X132937798Y-75626947D01*
X132955977Y-75643423D01*
X132972453Y-75661602D01*
X132987067Y-75681307D01*
X132999680Y-75702351D01*
X133010170Y-75724529D01*
X133018435Y-75747629D01*
X133024396Y-75771427D01*
X133027996Y-75795696D01*
X133029200Y-75820200D01*
X133029200Y-77020200D01*
X133027996Y-77044704D01*
X133024396Y-77068973D01*
X133018435Y-77092771D01*
X133010170Y-77115871D01*
X132999680Y-77138049D01*
X132987067Y-77159093D01*
X132972453Y-77178798D01*
X132955977Y-77196977D01*
X132937798Y-77213453D01*
X132918093Y-77228067D01*
X132897049Y-77240680D01*
X132874871Y-77251170D01*
X132851771Y-77259435D01*
X132827973Y-77265396D01*
X132803704Y-77268996D01*
X132779200Y-77270200D01*
X131279200Y-77270200D01*
X131254696Y-77268996D01*
X131230427Y-77265396D01*
X131206629Y-77259435D01*
X131183529Y-77251170D01*
X131161351Y-77240680D01*
X131140307Y-77228067D01*
X131120602Y-77213453D01*
X131102423Y-77196977D01*
X131085947Y-77178798D01*
X131071333Y-77159093D01*
X131058720Y-77138049D01*
X131048230Y-77115871D01*
X131039965Y-77092771D01*
X131034004Y-77068973D01*
X131030404Y-77044704D01*
X131029200Y-77020200D01*
X131029200Y-75820200D01*
X131030404Y-75795696D01*
X131034004Y-75771427D01*
X131039965Y-75747629D01*
X131048230Y-75724529D01*
X131058720Y-75702351D01*
X131071333Y-75681307D01*
X131085947Y-75661602D01*
X131102423Y-75643423D01*
X131120602Y-75626947D01*
X131140307Y-75612333D01*
X131161351Y-75599720D01*
X131183529Y-75589230D01*
X131206629Y-75580965D01*
X131230427Y-75575004D01*
X131254696Y-75571404D01*
X131279200Y-75570200D01*
X132779200Y-75570200D01*
X132803704Y-75571404D01*
X132803704Y-75571404D01*
G37*
D12*
X132029200Y-76420200D03*
D27*
X132029200Y-78920200D03*
D17*
G36*
X132803704Y-84571404D02*
G01*
X132827973Y-84575004D01*
X132851771Y-84580965D01*
X132874871Y-84589230D01*
X132897049Y-84599720D01*
X132918093Y-84612333D01*
X132937798Y-84626947D01*
X132955977Y-84643423D01*
X132972453Y-84661602D01*
X132987067Y-84681307D01*
X132999680Y-84702351D01*
X133010170Y-84724529D01*
X133018435Y-84747629D01*
X133024396Y-84771427D01*
X133027996Y-84795696D01*
X133029200Y-84820200D01*
X133029200Y-86020200D01*
X133027996Y-86044704D01*
X133024396Y-86068973D01*
X133018435Y-86092771D01*
X133010170Y-86115871D01*
X132999680Y-86138049D01*
X132987067Y-86159093D01*
X132972453Y-86178798D01*
X132955977Y-86196977D01*
X132937798Y-86213453D01*
X132918093Y-86228067D01*
X132897049Y-86240680D01*
X132874871Y-86251170D01*
X132851771Y-86259435D01*
X132827973Y-86265396D01*
X132803704Y-86268996D01*
X132779200Y-86270200D01*
X131279200Y-86270200D01*
X131254696Y-86268996D01*
X131230427Y-86265396D01*
X131206629Y-86259435D01*
X131183529Y-86251170D01*
X131161351Y-86240680D01*
X131140307Y-86228067D01*
X131120602Y-86213453D01*
X131102423Y-86196977D01*
X131085947Y-86178798D01*
X131071333Y-86159093D01*
X131058720Y-86138049D01*
X131048230Y-86115871D01*
X131039965Y-86092771D01*
X131034004Y-86068973D01*
X131030404Y-86044704D01*
X131029200Y-86020200D01*
X131029200Y-84820200D01*
X131030404Y-84795696D01*
X131034004Y-84771427D01*
X131039965Y-84747629D01*
X131048230Y-84724529D01*
X131058720Y-84702351D01*
X131071333Y-84681307D01*
X131085947Y-84661602D01*
X131102423Y-84643423D01*
X131120602Y-84626947D01*
X131140307Y-84612333D01*
X131161351Y-84599720D01*
X131183529Y-84589230D01*
X131206629Y-84580965D01*
X131230427Y-84575004D01*
X131254696Y-84571404D01*
X131279200Y-84570200D01*
X132779200Y-84570200D01*
X132803704Y-84571404D01*
X132803704Y-84571404D01*
G37*
D12*
X132029200Y-85420200D03*
D27*
X132029200Y-87920200D03*
D17*
G36*
X132438704Y-97691404D02*
G01*
X132462973Y-97695004D01*
X132486771Y-97700965D01*
X132509871Y-97709230D01*
X132532049Y-97719720D01*
X132553093Y-97732333D01*
X132572798Y-97746947D01*
X132590977Y-97763423D01*
X132607453Y-97781602D01*
X132622067Y-97801307D01*
X132634680Y-97822351D01*
X132645170Y-97844529D01*
X132653435Y-97867629D01*
X132659396Y-97891427D01*
X132662996Y-97915696D01*
X132664200Y-97940200D01*
X132664200Y-99140200D01*
X132662996Y-99164704D01*
X132659396Y-99188973D01*
X132653435Y-99212771D01*
X132645170Y-99235871D01*
X132634680Y-99258049D01*
X132622067Y-99279093D01*
X132607453Y-99298798D01*
X132590977Y-99316977D01*
X132572798Y-99333453D01*
X132553093Y-99348067D01*
X132532049Y-99360680D01*
X132509871Y-99371170D01*
X132486771Y-99379435D01*
X132462973Y-99385396D01*
X132438704Y-99388996D01*
X132414200Y-99390200D01*
X130914200Y-99390200D01*
X130889696Y-99388996D01*
X130865427Y-99385396D01*
X130841629Y-99379435D01*
X130818529Y-99371170D01*
X130796351Y-99360680D01*
X130775307Y-99348067D01*
X130755602Y-99333453D01*
X130737423Y-99316977D01*
X130720947Y-99298798D01*
X130706333Y-99279093D01*
X130693720Y-99258049D01*
X130683230Y-99235871D01*
X130674965Y-99212771D01*
X130669004Y-99188973D01*
X130665404Y-99164704D01*
X130664200Y-99140200D01*
X130664200Y-97940200D01*
X130665404Y-97915696D01*
X130669004Y-97891427D01*
X130674965Y-97867629D01*
X130683230Y-97844529D01*
X130693720Y-97822351D01*
X130706333Y-97801307D01*
X130720947Y-97781602D01*
X130737423Y-97763423D01*
X130755602Y-97746947D01*
X130775307Y-97732333D01*
X130796351Y-97719720D01*
X130818529Y-97709230D01*
X130841629Y-97700965D01*
X130865427Y-97695004D01*
X130889696Y-97691404D01*
X130914200Y-97690200D01*
X132414200Y-97690200D01*
X132438704Y-97691404D01*
X132438704Y-97691404D01*
G37*
D12*
X131664200Y-98540200D03*
D27*
X131664200Y-101040200D03*
D17*
G36*
X132438704Y-111691404D02*
G01*
X132462973Y-111695004D01*
X132486771Y-111700965D01*
X132509871Y-111709230D01*
X132532049Y-111719720D01*
X132553093Y-111732333D01*
X132572798Y-111746947D01*
X132590977Y-111763423D01*
X132607453Y-111781602D01*
X132622067Y-111801307D01*
X132634680Y-111822351D01*
X132645170Y-111844529D01*
X132653435Y-111867629D01*
X132659396Y-111891427D01*
X132662996Y-111915696D01*
X132664200Y-111940200D01*
X132664200Y-113140200D01*
X132662996Y-113164704D01*
X132659396Y-113188973D01*
X132653435Y-113212771D01*
X132645170Y-113235871D01*
X132634680Y-113258049D01*
X132622067Y-113279093D01*
X132607453Y-113298798D01*
X132590977Y-113316977D01*
X132572798Y-113333453D01*
X132553093Y-113348067D01*
X132532049Y-113360680D01*
X132509871Y-113371170D01*
X132486771Y-113379435D01*
X132462973Y-113385396D01*
X132438704Y-113388996D01*
X132414200Y-113390200D01*
X130914200Y-113390200D01*
X130889696Y-113388996D01*
X130865427Y-113385396D01*
X130841629Y-113379435D01*
X130818529Y-113371170D01*
X130796351Y-113360680D01*
X130775307Y-113348067D01*
X130755602Y-113333453D01*
X130737423Y-113316977D01*
X130720947Y-113298798D01*
X130706333Y-113279093D01*
X130693720Y-113258049D01*
X130683230Y-113235871D01*
X130674965Y-113212771D01*
X130669004Y-113188973D01*
X130665404Y-113164704D01*
X130664200Y-113140200D01*
X130664200Y-111940200D01*
X130665404Y-111915696D01*
X130669004Y-111891427D01*
X130674965Y-111867629D01*
X130683230Y-111844529D01*
X130693720Y-111822351D01*
X130706333Y-111801307D01*
X130720947Y-111781602D01*
X130737423Y-111763423D01*
X130755602Y-111746947D01*
X130775307Y-111732333D01*
X130796351Y-111719720D01*
X130818529Y-111709230D01*
X130841629Y-111700965D01*
X130865427Y-111695004D01*
X130889696Y-111691404D01*
X130914200Y-111690200D01*
X132414200Y-111690200D01*
X132438704Y-111691404D01*
X132438704Y-111691404D01*
G37*
D12*
X131664200Y-112540200D03*
D27*
X131664200Y-115040200D03*
D25*
X78124400Y-90763200D03*
X73564400Y-90763200D03*
D26*
X75844400Y-84463200D03*
D25*
X64154400Y-90763200D03*
X59594400Y-90763200D03*
D26*
X61874400Y-84463200D03*
D10*
X154279600Y-135331200D03*
X156819600Y-135331200D03*
D11*
X159359600Y-135331200D03*
D10*
X190601600Y-149047200D03*
D11*
X190601600Y-146507200D03*
D10*
X178308000Y-140589000D03*
X180848000Y-140589000D03*
D11*
X183388000Y-140589000D03*
D10*
X178308000Y-144272000D03*
X180848000Y-144272000D03*
D11*
X183388000Y-144272000D03*
D10*
X115265200Y-154101800D03*
X115265200Y-151561800D03*
X115265200Y-149021800D03*
X115265200Y-146481800D03*
X115265200Y-143941800D03*
D11*
X115265200Y-141401800D03*
D10*
X111201200Y-154101800D03*
X111201200Y-151561800D03*
X111201200Y-149021800D03*
X111201200Y-146481800D03*
X111201200Y-143941800D03*
D11*
X111201200Y-141401800D03*
D10*
X182321200Y-102565200D03*
X182321200Y-105105200D03*
X182321200Y-107645200D03*
D11*
X182321200Y-110185200D03*
D10*
X194564000Y-128270000D03*
X197104000Y-128270000D03*
X199644000Y-128270000D03*
D11*
X202184000Y-128270000D03*
D17*
G36*
X164553704Y-108328004D02*
G01*
X164577973Y-108331604D01*
X164601771Y-108337565D01*
X164624871Y-108345830D01*
X164647049Y-108356320D01*
X164668093Y-108368933D01*
X164687798Y-108383547D01*
X164705977Y-108400023D01*
X164722453Y-108418202D01*
X164737067Y-108437907D01*
X164749680Y-108458951D01*
X164760170Y-108481129D01*
X164768435Y-108504229D01*
X164774396Y-108528027D01*
X164777996Y-108552296D01*
X164779200Y-108576800D01*
X164779200Y-109776800D01*
X164777996Y-109801304D01*
X164774396Y-109825573D01*
X164768435Y-109849371D01*
X164760170Y-109872471D01*
X164749680Y-109894649D01*
X164737067Y-109915693D01*
X164722453Y-109935398D01*
X164705977Y-109953577D01*
X164687798Y-109970053D01*
X164668093Y-109984667D01*
X164647049Y-109997280D01*
X164624871Y-110007770D01*
X164601771Y-110016035D01*
X164577973Y-110021996D01*
X164553704Y-110025596D01*
X164529200Y-110026800D01*
X163029200Y-110026800D01*
X163004696Y-110025596D01*
X162980427Y-110021996D01*
X162956629Y-110016035D01*
X162933529Y-110007770D01*
X162911351Y-109997280D01*
X162890307Y-109984667D01*
X162870602Y-109970053D01*
X162852423Y-109953577D01*
X162835947Y-109935398D01*
X162821333Y-109915693D01*
X162808720Y-109894649D01*
X162798230Y-109872471D01*
X162789965Y-109849371D01*
X162784004Y-109825573D01*
X162780404Y-109801304D01*
X162779200Y-109776800D01*
X162779200Y-108576800D01*
X162780404Y-108552296D01*
X162784004Y-108528027D01*
X162789965Y-108504229D01*
X162798230Y-108481129D01*
X162808720Y-108458951D01*
X162821333Y-108437907D01*
X162835947Y-108418202D01*
X162852423Y-108400023D01*
X162870602Y-108383547D01*
X162890307Y-108368933D01*
X162911351Y-108356320D01*
X162933529Y-108345830D01*
X162956629Y-108337565D01*
X162980427Y-108331604D01*
X163004696Y-108328004D01*
X163029200Y-108326800D01*
X164529200Y-108326800D01*
X164553704Y-108328004D01*
X164553704Y-108328004D01*
G37*
D12*
X163779200Y-109176800D03*
D27*
X163779200Y-111676800D03*
D17*
G36*
X173553704Y-108328004D02*
G01*
X173577973Y-108331604D01*
X173601771Y-108337565D01*
X173624871Y-108345830D01*
X173647049Y-108356320D01*
X173668093Y-108368933D01*
X173687798Y-108383547D01*
X173705977Y-108400023D01*
X173722453Y-108418202D01*
X173737067Y-108437907D01*
X173749680Y-108458951D01*
X173760170Y-108481129D01*
X173768435Y-108504229D01*
X173774396Y-108528027D01*
X173777996Y-108552296D01*
X173779200Y-108576800D01*
X173779200Y-109776800D01*
X173777996Y-109801304D01*
X173774396Y-109825573D01*
X173768435Y-109849371D01*
X173760170Y-109872471D01*
X173749680Y-109894649D01*
X173737067Y-109915693D01*
X173722453Y-109935398D01*
X173705977Y-109953577D01*
X173687798Y-109970053D01*
X173668093Y-109984667D01*
X173647049Y-109997280D01*
X173624871Y-110007770D01*
X173601771Y-110016035D01*
X173577973Y-110021996D01*
X173553704Y-110025596D01*
X173529200Y-110026800D01*
X172029200Y-110026800D01*
X172004696Y-110025596D01*
X171980427Y-110021996D01*
X171956629Y-110016035D01*
X171933529Y-110007770D01*
X171911351Y-109997280D01*
X171890307Y-109984667D01*
X171870602Y-109970053D01*
X171852423Y-109953577D01*
X171835947Y-109935398D01*
X171821333Y-109915693D01*
X171808720Y-109894649D01*
X171798230Y-109872471D01*
X171789965Y-109849371D01*
X171784004Y-109825573D01*
X171780404Y-109801304D01*
X171779200Y-109776800D01*
X171779200Y-108576800D01*
X171780404Y-108552296D01*
X171784004Y-108528027D01*
X171789965Y-108504229D01*
X171798230Y-108481129D01*
X171808720Y-108458951D01*
X171821333Y-108437907D01*
X171835947Y-108418202D01*
X171852423Y-108400023D01*
X171870602Y-108383547D01*
X171890307Y-108368933D01*
X171911351Y-108356320D01*
X171933529Y-108345830D01*
X171956629Y-108337565D01*
X171980427Y-108331604D01*
X172004696Y-108328004D01*
X172029200Y-108326800D01*
X173529200Y-108326800D01*
X173553704Y-108328004D01*
X173553704Y-108328004D01*
G37*
D12*
X172779200Y-109176800D03*
D27*
X172779200Y-111676800D03*
D17*
G36*
X164553704Y-118328004D02*
G01*
X164577973Y-118331604D01*
X164601771Y-118337565D01*
X164624871Y-118345830D01*
X164647049Y-118356320D01*
X164668093Y-118368933D01*
X164687798Y-118383547D01*
X164705977Y-118400023D01*
X164722453Y-118418202D01*
X164737067Y-118437907D01*
X164749680Y-118458951D01*
X164760170Y-118481129D01*
X164768435Y-118504229D01*
X164774396Y-118528027D01*
X164777996Y-118552296D01*
X164779200Y-118576800D01*
X164779200Y-119776800D01*
X164777996Y-119801304D01*
X164774396Y-119825573D01*
X164768435Y-119849371D01*
X164760170Y-119872471D01*
X164749680Y-119894649D01*
X164737067Y-119915693D01*
X164722453Y-119935398D01*
X164705977Y-119953577D01*
X164687798Y-119970053D01*
X164668093Y-119984667D01*
X164647049Y-119997280D01*
X164624871Y-120007770D01*
X164601771Y-120016035D01*
X164577973Y-120021996D01*
X164553704Y-120025596D01*
X164529200Y-120026800D01*
X163029200Y-120026800D01*
X163004696Y-120025596D01*
X162980427Y-120021996D01*
X162956629Y-120016035D01*
X162933529Y-120007770D01*
X162911351Y-119997280D01*
X162890307Y-119984667D01*
X162870602Y-119970053D01*
X162852423Y-119953577D01*
X162835947Y-119935398D01*
X162821333Y-119915693D01*
X162808720Y-119894649D01*
X162798230Y-119872471D01*
X162789965Y-119849371D01*
X162784004Y-119825573D01*
X162780404Y-119801304D01*
X162779200Y-119776800D01*
X162779200Y-118576800D01*
X162780404Y-118552296D01*
X162784004Y-118528027D01*
X162789965Y-118504229D01*
X162798230Y-118481129D01*
X162808720Y-118458951D01*
X162821333Y-118437907D01*
X162835947Y-118418202D01*
X162852423Y-118400023D01*
X162870602Y-118383547D01*
X162890307Y-118368933D01*
X162911351Y-118356320D01*
X162933529Y-118345830D01*
X162956629Y-118337565D01*
X162980427Y-118331604D01*
X163004696Y-118328004D01*
X163029200Y-118326800D01*
X164529200Y-118326800D01*
X164553704Y-118328004D01*
X164553704Y-118328004D01*
G37*
D12*
X163779200Y-119176800D03*
D27*
X163779200Y-121676800D03*
D17*
G36*
X173553704Y-118328004D02*
G01*
X173577973Y-118331604D01*
X173601771Y-118337565D01*
X173624871Y-118345830D01*
X173647049Y-118356320D01*
X173668093Y-118368933D01*
X173687798Y-118383547D01*
X173705977Y-118400023D01*
X173722453Y-118418202D01*
X173737067Y-118437907D01*
X173749680Y-118458951D01*
X173760170Y-118481129D01*
X173768435Y-118504229D01*
X173774396Y-118528027D01*
X173777996Y-118552296D01*
X173779200Y-118576800D01*
X173779200Y-119776800D01*
X173777996Y-119801304D01*
X173774396Y-119825573D01*
X173768435Y-119849371D01*
X173760170Y-119872471D01*
X173749680Y-119894649D01*
X173737067Y-119915693D01*
X173722453Y-119935398D01*
X173705977Y-119953577D01*
X173687798Y-119970053D01*
X173668093Y-119984667D01*
X173647049Y-119997280D01*
X173624871Y-120007770D01*
X173601771Y-120016035D01*
X173577973Y-120021996D01*
X173553704Y-120025596D01*
X173529200Y-120026800D01*
X172029200Y-120026800D01*
X172004696Y-120025596D01*
X171980427Y-120021996D01*
X171956629Y-120016035D01*
X171933529Y-120007770D01*
X171911351Y-119997280D01*
X171890307Y-119984667D01*
X171870602Y-119970053D01*
X171852423Y-119953577D01*
X171835947Y-119935398D01*
X171821333Y-119915693D01*
X171808720Y-119894649D01*
X171798230Y-119872471D01*
X171789965Y-119849371D01*
X171784004Y-119825573D01*
X171780404Y-119801304D01*
X171779200Y-119776800D01*
X171779200Y-118576800D01*
X171780404Y-118552296D01*
X171784004Y-118528027D01*
X171789965Y-118504229D01*
X171798230Y-118481129D01*
X171808720Y-118458951D01*
X171821333Y-118437907D01*
X171835947Y-118418202D01*
X171852423Y-118400023D01*
X171870602Y-118383547D01*
X171890307Y-118368933D01*
X171911351Y-118356320D01*
X171933529Y-118345830D01*
X171956629Y-118337565D01*
X171980427Y-118331604D01*
X172004696Y-118328004D01*
X172029200Y-118326800D01*
X173529200Y-118326800D01*
X173553704Y-118328004D01*
X173553704Y-118328004D01*
G37*
D12*
X172779200Y-119176800D03*
D27*
X172779200Y-121676800D03*
D13*
X127254000Y-113385600D03*
X128473200Y-109016800D03*
X127254000Y-105054400D03*
X127254000Y-92329000D03*
X127304800Y-83058000D03*
X74828400Y-88849200D03*
X174082200Y-125663200D03*
X169697400Y-125603000D03*
X167741600Y-123418600D03*
X161620200Y-126390400D03*
D28*
X118567200Y-109169200D03*
X117246400Y-95707200D03*
D13*
X134112000Y-151130000D03*
X194106800Y-97129600D03*
X145930001Y-156964999D03*
X117805200Y-151561800D03*
X143256000Y-147574000D03*
X117932200Y-149021800D03*
X118059200Y-146481800D03*
X118059200Y-144957800D03*
X192786000Y-137414000D03*
X160172400Y-156413200D03*
X149098000Y-148336000D03*
X140335000Y-147320000D03*
X137541000Y-147447000D03*
X117932200Y-154101800D03*
X136144000Y-147320000D03*
X143764000Y-156210000D03*
X132715000Y-147447000D03*
X167640000Y-148640800D03*
X170180000Y-148463000D03*
X158470600Y-147980400D03*
X162560000Y-148539200D03*
X160070800Y-148056600D03*
X165100000Y-148361400D03*
X187960000Y-146507200D03*
X192786000Y-135509000D03*
X192786000Y-132080000D03*
X185039000Y-132080000D03*
X185039000Y-133604000D03*
X184912000Y-130302000D03*
X184912000Y-128270000D03*
X184912000Y-126492000D03*
X194564000Y-125984000D03*
X193294000Y-125349000D03*
X193243200Y-123494800D03*
X193116200Y-120421400D03*
X184785000Y-124714000D03*
X184658000Y-120396000D03*
X184658000Y-118999000D03*
X185420000Y-113538000D03*
X185267600Y-103886000D03*
X178308000Y-105765600D03*
X185267600Y-102489000D03*
X178257200Y-102717600D03*
D28*
X117398800Y-84378800D03*
D29*
X64160400Y-93929200D03*
X78384400Y-93929200D03*
X71272400Y-93929200D03*
D13*
X144627600Y-72796400D03*
X144627600Y-95173800D03*
X142976600Y-67691000D03*
X143256000Y-90119200D03*
X141986000Y-65252600D03*
X141986000Y-87655400D03*
X119989600Y-121742200D03*
X192735200Y-97180400D03*
X127076200Y-118135400D03*
X129184400Y-122580400D03*
X137185400Y-118059200D03*
X127431800Y-122504200D03*
D30*
X194056000Y-111789500D02*
X194005200Y-111840300D01*
X194056000Y-111252000D02*
X194056000Y-111789500D01*
X194005710Y-113691516D02*
X194005710Y-114858290D01*
X194005200Y-111840300D02*
X194005200Y-113691006D01*
X194005200Y-113691006D02*
X194005710Y-113691516D01*
X194005710Y-114858290D02*
X194260220Y-115112800D01*
X195783200Y-115112800D02*
X196272990Y-114623010D01*
X194260220Y-115112800D02*
X195783200Y-115112800D01*
X199739000Y-115538998D02*
X199739000Y-115824000D01*
X198849001Y-114648999D02*
X199739000Y-115538998D01*
X196298979Y-114648999D02*
X198849001Y-114648999D01*
X196272990Y-114623010D02*
X196298979Y-114648999D01*
D31*
X109813990Y-79314410D02*
X109813990Y-114741590D01*
X115925600Y-73202800D02*
X109813990Y-79314410D01*
X109813990Y-114741590D02*
X113233200Y-118160800D01*
X113233200Y-130518400D02*
X117030000Y-134315200D01*
X113233200Y-118160800D02*
X113233200Y-130518400D01*
D30*
X132764200Y-112540200D02*
X137164200Y-112540200D01*
X131664200Y-112540200D02*
X132764200Y-112540200D01*
X128346200Y-113385600D02*
X127254000Y-113385600D01*
X136664200Y-115040200D02*
X137164200Y-114540200D01*
X131664200Y-115040200D02*
X136664200Y-115040200D01*
X130414200Y-115040200D02*
X128759600Y-113385600D01*
X131664200Y-115040200D02*
X130414200Y-115040200D01*
X128473200Y-109067600D02*
X128473200Y-113385600D01*
X128759600Y-113385600D02*
X128473200Y-113385600D01*
X128473200Y-113385600D02*
X128346200Y-113385600D01*
X124561600Y-106781600D02*
X124460000Y-106680000D01*
X131664200Y-105690200D02*
X131664200Y-106540200D01*
X131028400Y-105054400D02*
X131664200Y-105690200D01*
X127254000Y-105054400D02*
X131028400Y-105054400D01*
X131664200Y-104418600D02*
X131664200Y-101040200D01*
X131028400Y-105054400D02*
X131664200Y-104418600D01*
X132147800Y-92329000D02*
X132159200Y-92340400D01*
X128102528Y-92329000D02*
X128813728Y-91617800D01*
X127254000Y-92329000D02*
X128102528Y-92329000D01*
X131664200Y-92190200D02*
X131664200Y-93040200D01*
X131091800Y-91617800D02*
X131664200Y-92190200D01*
X128813728Y-91617800D02*
X131091800Y-91617800D01*
X132029200Y-90680400D02*
X132029200Y-87920200D01*
X131091800Y-91617800D02*
X132029200Y-90680400D01*
X127304800Y-83058000D02*
X128346200Y-83058000D01*
X128346200Y-83058000D02*
X130175000Y-81229200D01*
X130175000Y-81229200D02*
X131521200Y-81229200D01*
X132029200Y-80721200D02*
X132029200Y-78920200D01*
X131521200Y-81229200D02*
X132029200Y-80721200D01*
X133279200Y-78920200D02*
X133281600Y-78917800D01*
X132029200Y-78920200D02*
X133279200Y-78920200D01*
X133281600Y-78917800D02*
X133502400Y-78917800D01*
X133502400Y-78917800D02*
X133807200Y-78613000D01*
X132816600Y-72097000D02*
X132816600Y-71247000D01*
X133807200Y-73087600D02*
X132816600Y-72097000D01*
X133807200Y-78613000D02*
X133807200Y-73087600D01*
D32*
X69367400Y-70815200D02*
X69494400Y-70688200D01*
X69367400Y-75133200D02*
X69367400Y-70815200D01*
D31*
X76225400Y-75133200D02*
X76225400Y-72974200D01*
D33*
X69285399Y-70733199D02*
X69367400Y-70815200D01*
X69285399Y-70733199D02*
X76016399Y-70733199D01*
X76225400Y-70942200D02*
X76225400Y-72974200D01*
X76016399Y-70733199D02*
X76225400Y-70942200D01*
X69285399Y-70733199D02*
X62464401Y-70733199D01*
X69285399Y-69061967D02*
X69285399Y-70733199D01*
X73384400Y-64962966D02*
X69285399Y-69061967D01*
X73384400Y-63195200D02*
X73384400Y-64962966D01*
D32*
X62382400Y-70815200D02*
X62464401Y-70733199D01*
D33*
X62382400Y-72339200D02*
X62382400Y-70815200D01*
D32*
X62382400Y-75133200D02*
X62382400Y-72339200D01*
D34*
X77325400Y-75133200D02*
X79654400Y-77462200D01*
X76225400Y-75133200D02*
X77325400Y-75133200D01*
X79654400Y-88087200D02*
X78892400Y-88849200D01*
X78892400Y-88849200D02*
X74828400Y-88849200D01*
D33*
X117080800Y-126644400D02*
X117030000Y-126695200D01*
X117080800Y-116789200D02*
X117080800Y-126644400D01*
D31*
X115671600Y-100787200D02*
X115722400Y-100787200D01*
X112522000Y-92811600D02*
X115874800Y-89458800D01*
X112522000Y-97586800D02*
X112522000Y-92811600D01*
X115722400Y-100787200D02*
X112522000Y-97586800D01*
X112979200Y-81229200D02*
X115925600Y-78282800D01*
X112979200Y-86563200D02*
X112979200Y-81229200D01*
X115874800Y-89458800D02*
X112979200Y-86563200D01*
X114858800Y-100787200D02*
X115722400Y-100787200D01*
X112826800Y-102819200D02*
X114858800Y-100787200D01*
X112826800Y-112572800D02*
X112826800Y-102819200D01*
X115543201Y-115289201D02*
X112826800Y-112572800D01*
X117080800Y-116789200D02*
X115580801Y-115289201D01*
X115580801Y-115289201D02*
X115543201Y-115289201D01*
D35*
X201215000Y-140081000D02*
X201215000Y-133096000D01*
X201278500Y-153987500D02*
X201278500Y-147002500D01*
X201278500Y-140144500D02*
X201215000Y-140081000D01*
X201278500Y-147002500D02*
X201278500Y-140144500D01*
D36*
X196595900Y-115824000D02*
X194894200Y-117525700D01*
X197739000Y-115824000D02*
X196595900Y-115824000D01*
X172629200Y-121676800D02*
X172779200Y-121676800D01*
X174082200Y-122979800D02*
X172779200Y-121676800D01*
X174082200Y-125663200D02*
X174082200Y-122979800D01*
X163982400Y-121880000D02*
X163779200Y-121676800D01*
X163982400Y-122834400D02*
X163982400Y-121880000D01*
X169697400Y-125603000D02*
X166751000Y-125603000D01*
X166751000Y-125603000D02*
X163982400Y-122834400D01*
X172779200Y-113529600D02*
X172779200Y-111676800D01*
X171729400Y-114579400D02*
X172779200Y-113529600D01*
X169799000Y-114579400D02*
X171729400Y-114579400D01*
X167741600Y-123418600D02*
X167741600Y-116636800D01*
X167741600Y-116636800D02*
X169799000Y-114579400D01*
X163629200Y-111676800D02*
X163779200Y-111676800D01*
X159562800Y-115743200D02*
X163629200Y-111676800D01*
X159562800Y-118440200D02*
X159562800Y-115743200D01*
X161620200Y-120497600D02*
X159562800Y-118440200D01*
X161620200Y-126390400D02*
X161620200Y-120497600D01*
D31*
X117080800Y-109169200D02*
X118567200Y-109169200D01*
X75844400Y-78014200D02*
X76225400Y-77633200D01*
X75844400Y-84463200D02*
X75844400Y-78014200D01*
X115722400Y-95707200D02*
X117246400Y-95707200D01*
X117246400Y-95707200D02*
X117246400Y-95707200D01*
D30*
X137744200Y-102768400D02*
X137718800Y-102793800D01*
D35*
X111201200Y-143941800D02*
X115265200Y-143941800D01*
D30*
X199114800Y-100027600D02*
X197700587Y-100027600D01*
X197700587Y-100027600D02*
X197698187Y-100025200D01*
X197698187Y-100025200D02*
X196799200Y-100025200D01*
D36*
X116467281Y-143941800D02*
X115265200Y-143941800D01*
X122555000Y-151130000D02*
X119507000Y-148082000D01*
X134112000Y-151130000D02*
X122555000Y-151130000D01*
X119507000Y-148082000D02*
X119507000Y-143484600D01*
X119507000Y-143484600D02*
X118770400Y-142748000D01*
X117661081Y-142748000D02*
X116467281Y-143941800D01*
X118770400Y-142748000D02*
X117661081Y-142748000D01*
D30*
X196799200Y-100025200D02*
X196748400Y-100025200D01*
X196748400Y-100025200D02*
X194005200Y-97282000D01*
D35*
X111201200Y-151561800D02*
X115265200Y-151561800D01*
D34*
X145930001Y-142549687D02*
X145930001Y-156964999D01*
X142875000Y-140716000D02*
X144096314Y-140716000D01*
X144096314Y-140716000D02*
X145930001Y-142549687D01*
X115265200Y-151561800D02*
X117805200Y-151561800D01*
D35*
X111201200Y-149021800D02*
X115265200Y-149021800D01*
D34*
X142875000Y-143256000D02*
X142875000Y-147193000D01*
X142875000Y-147193000D02*
X143256000Y-147574000D01*
X115265200Y-149021800D02*
X117932200Y-149021800D01*
X115265200Y-146481800D02*
X118059200Y-146481800D01*
X117805200Y-145211800D02*
X118059200Y-144957800D01*
X111201200Y-146481800D02*
X112471200Y-145211800D01*
X112471200Y-145211800D02*
X117805200Y-145211800D01*
X187452000Y-137160000D02*
X187960000Y-137160000D01*
X193385999Y-138013999D02*
X193385999Y-146141999D01*
X192786000Y-137414000D02*
X193385999Y-138013999D01*
X194246500Y-147002500D02*
X196278500Y-147002500D01*
X193385999Y-146141999D02*
X194246500Y-147002500D01*
X196278500Y-153987500D02*
X194614800Y-155651200D01*
X194614800Y-155651200D02*
X160934400Y-155651200D01*
X160934400Y-155651200D02*
X160172400Y-156413200D01*
X140335000Y-139494686D02*
X141018686Y-138811000D01*
X140335000Y-140716000D02*
X140335000Y-139494686D01*
X141018686Y-138811000D02*
X148463000Y-138811000D01*
X148463000Y-138811000D02*
X149098000Y-139446000D01*
X149098000Y-139446000D02*
X149098000Y-148336000D01*
X140335000Y-143256000D02*
X140335000Y-147320000D01*
D35*
X111201200Y-154101800D02*
X115265200Y-154101800D01*
D34*
X115265200Y-154101800D02*
X117932200Y-154101800D01*
X137795000Y-147193000D02*
X137541000Y-147447000D01*
X137795000Y-143256000D02*
X137795000Y-147193000D01*
X136525000Y-146939000D02*
X136144000Y-147320000D01*
X135255000Y-140716000D02*
X136525000Y-141986000D01*
X136525000Y-141986000D02*
X136525000Y-146939000D01*
X135255000Y-143256000D02*
X135255000Y-144477314D01*
X135255000Y-144477314D02*
X135255000Y-149225000D01*
X135520001Y-149490001D02*
X143140001Y-149490001D01*
X135255000Y-149225000D02*
X135520001Y-149490001D01*
X143140001Y-149490001D02*
X143510000Y-149860000D01*
X143510000Y-149860000D02*
X143510000Y-152400000D01*
X143510000Y-152400000D02*
X143510000Y-155956000D01*
X143510000Y-155956000D02*
X143764000Y-156210000D01*
X132715000Y-143256000D02*
X132715000Y-147447000D01*
X167640000Y-150333000D02*
X167640000Y-151130000D01*
D30*
X162335000Y-141507000D02*
X162335000Y-140716000D01*
X167640000Y-148151315D02*
X163576000Y-144087315D01*
X163576000Y-144087315D02*
X163576000Y-142737870D01*
X163576000Y-142737870D02*
X162951130Y-142113000D01*
X162951130Y-142113000D02*
X162941000Y-142113000D01*
X162941000Y-142113000D02*
X162335000Y-141507000D01*
X170180000Y-147897315D02*
X166497000Y-144214315D01*
X170180000Y-148463000D02*
X170180000Y-147897315D01*
X166497000Y-142338000D02*
X164875000Y-140716000D01*
X166497000Y-144214315D02*
X166497000Y-142338000D01*
D34*
X158470600Y-141931600D02*
X157255000Y-140716000D01*
X158470600Y-147980400D02*
X158470600Y-141931600D01*
D30*
X161036000Y-141957000D02*
X159795000Y-140716000D01*
X162560000Y-148539200D02*
X161036000Y-147015200D01*
X161036000Y-147015200D02*
X161036000Y-141957000D01*
X160020000Y-143481000D02*
X159795000Y-143256000D01*
X160070800Y-143531800D02*
X159795000Y-143256000D01*
X160070800Y-148056600D02*
X160070800Y-143531800D01*
X162335000Y-145317000D02*
X162335000Y-143256000D01*
X165100000Y-148082000D02*
X162335000Y-145317000D01*
X165100000Y-148361400D02*
X165100000Y-148082000D01*
D34*
X188932085Y-146507200D02*
X190601600Y-146507200D01*
X188366400Y-146507200D02*
X188932085Y-146507200D01*
X192786000Y-136398000D02*
X195961000Y-136398000D01*
X196215000Y-136652000D02*
X196215000Y-140081000D01*
X195961000Y-136398000D02*
X196215000Y-136652000D01*
X192786000Y-136398000D02*
X192786000Y-135509000D01*
D36*
X196215000Y-133096000D02*
X193802000Y-133096000D01*
X193802000Y-133096000D02*
X192786000Y-132080000D01*
D34*
X183388000Y-140589000D02*
X183388000Y-133731000D01*
X183388000Y-133731000D02*
X185039000Y-132080000D01*
X184438000Y-144272000D02*
X184785000Y-143925000D01*
X183388000Y-144272000D02*
X184438000Y-144272000D01*
X184785000Y-143925000D02*
X184785000Y-133858000D01*
X184785000Y-133858000D02*
X185039000Y-133604000D01*
D30*
X184912000Y-130302000D02*
X180039000Y-130302000D01*
X179832000Y-128009000D02*
X184651000Y-128009000D01*
X184651000Y-128009000D02*
X184912000Y-128270000D01*
X183929000Y-125509000D02*
X184912000Y-126492000D01*
X180053000Y-125509000D02*
X183929000Y-125509000D01*
X179832000Y-125509000D02*
X180053000Y-125509000D01*
D34*
X194564000Y-128270000D02*
X194564000Y-125984000D01*
X197104000Y-128270000D02*
X197104000Y-125476000D01*
X197104000Y-125476000D02*
X196596000Y-124968000D01*
X196596000Y-124968000D02*
X193675000Y-124968000D01*
X193675000Y-124968000D02*
X193294000Y-125349000D01*
D30*
X193243200Y-123494800D02*
X193243200Y-121920000D01*
X193243200Y-120650000D02*
X193243200Y-114173000D01*
D34*
X182043000Y-124714000D02*
X184785000Y-124714000D01*
X180213000Y-123009000D02*
X180338000Y-123009000D01*
X180338000Y-123009000D02*
X182043000Y-124714000D01*
X180326000Y-120396000D02*
X180213000Y-120509000D01*
X184545000Y-120509000D02*
X184658000Y-120396000D01*
X180213000Y-120509000D02*
X184545000Y-120509000D01*
X180213000Y-118009000D02*
X180493000Y-118009000D01*
X184277000Y-119380000D02*
X184658000Y-118999000D01*
X181864000Y-119380000D02*
X184277000Y-119380000D01*
X180493000Y-118009000D02*
X181864000Y-119380000D01*
X184973000Y-115509000D02*
X185100000Y-115509000D01*
X185420000Y-115189000D02*
X185420000Y-113538000D01*
X185100000Y-115509000D02*
X185420000Y-115189000D01*
D30*
X179832000Y-115509000D02*
X183073000Y-115509000D01*
X183073000Y-115509000D02*
X184973000Y-115509000D01*
X182321200Y-105105200D02*
X184048400Y-105105200D01*
X184048400Y-105105200D02*
X185267600Y-103886000D01*
X181406800Y-105105200D02*
X182321200Y-105105200D01*
X178308000Y-105765600D02*
X180746400Y-105765600D01*
X180746400Y-105765600D02*
X181406800Y-105105200D01*
X182372000Y-102616000D02*
X182321200Y-102565200D01*
X185267600Y-102616000D02*
X182372000Y-102616000D01*
X182168800Y-102717600D02*
X182321200Y-102565200D01*
X178257200Y-102717600D02*
X182168800Y-102717600D01*
D31*
X68859400Y-78141200D02*
X69367400Y-77633200D01*
X68859400Y-84463200D02*
X68859400Y-78141200D01*
X115874800Y-84378800D02*
X117398800Y-84378800D01*
D36*
X182829200Y-147184719D02*
X182100881Y-146456400D01*
X182829200Y-148386800D02*
X182829200Y-147184719D01*
X182100881Y-146456400D02*
X181457600Y-146456400D01*
X180848000Y-145846800D02*
X180848000Y-144272000D01*
X181457600Y-146456400D02*
X180848000Y-145846800D01*
X180848000Y-144272000D02*
X180848000Y-140589000D01*
X64154400Y-90763200D02*
X64154400Y-92348199D01*
X64154400Y-92348199D02*
X64154400Y-93415200D01*
X64154400Y-93415200D02*
X64160400Y-93421200D01*
X64160400Y-93421200D02*
X64160400Y-93745199D01*
X78384400Y-91023200D02*
X78124400Y-90763200D01*
X78384400Y-93929200D02*
X78384400Y-91023200D01*
X71272400Y-90896200D02*
X71139400Y-90763200D01*
X71272400Y-93929200D02*
X71272400Y-90896200D01*
D30*
X194818200Y-114173000D02*
X200228200Y-114173000D01*
X200228200Y-114173000D02*
X201269600Y-115214400D01*
X201269600Y-115214400D02*
X201269600Y-116332000D01*
X201269600Y-116332000D02*
X200507600Y-117094000D01*
X198969000Y-117094000D02*
X197739000Y-118324000D01*
X200507600Y-117094000D02*
X198969000Y-117094000D01*
D36*
X199059800Y-120243600D02*
X199739000Y-119564400D01*
X195499600Y-120243600D02*
X199059800Y-120243600D01*
X194894200Y-119100700D02*
X194894200Y-119638200D01*
X199739000Y-119564400D02*
X199739000Y-118324000D01*
X194894200Y-119638200D02*
X195499600Y-120243600D01*
X194818200Y-121345000D02*
X194868800Y-121294400D01*
X194818200Y-121920000D02*
X194818200Y-121345000D01*
X194868800Y-119663600D02*
X194894200Y-119638200D01*
X194868800Y-121294400D02*
X194868800Y-119663600D01*
D30*
X160951519Y-95885000D02*
X162153600Y-95885000D01*
X156233295Y-96040210D02*
X160796309Y-96040210D01*
X155924704Y-96348801D02*
X156233295Y-96040210D01*
X149854799Y-96348801D02*
X155924704Y-96348801D01*
X160796309Y-96040210D02*
X160951519Y-95885000D01*
X148679798Y-95173800D02*
X149854799Y-96348801D01*
X137744200Y-72796400D02*
X137718800Y-72771000D01*
X160900719Y-73507600D02*
X162102800Y-73507600D01*
X160364509Y-74043810D02*
X160900719Y-73507600D01*
X149952608Y-74043810D02*
X160364509Y-74043810D01*
X148705198Y-72796400D02*
X149952608Y-74043810D01*
X144627600Y-72796400D02*
X148705198Y-72796400D01*
X144627600Y-72796400D02*
X137744200Y-72796400D01*
X144627600Y-95173800D02*
X148679798Y-95173800D01*
X144627600Y-95173800D02*
X137718800Y-95173800D01*
X137744200Y-90119200D02*
X137718800Y-90093800D01*
X160951519Y-90805000D02*
X162153600Y-90805000D01*
X160716309Y-91040210D02*
X160951519Y-90805000D01*
X155111190Y-91040210D02*
X160716309Y-91040210D01*
X154882599Y-91268801D02*
X155111190Y-91040210D01*
X160900719Y-68427600D02*
X162102800Y-68427600D01*
X160284509Y-69043810D02*
X160900719Y-68427600D01*
X142976600Y-67691000D02*
X143825128Y-67691000D01*
X143825128Y-67691000D02*
X145177938Y-69043810D01*
X145177938Y-69043810D02*
X160284509Y-69043810D01*
X142128072Y-67691000D02*
X137718800Y-67691000D01*
X142976600Y-67691000D02*
X142128072Y-67691000D01*
X143256000Y-90119200D02*
X144405601Y-91268801D01*
X144405601Y-91268801D02*
X154882599Y-91268801D01*
X143256000Y-90119200D02*
X137744200Y-90119200D01*
X137820400Y-87655400D02*
X137718800Y-87553800D01*
X160951519Y-88265000D02*
X162153600Y-88265000D01*
X156307010Y-88265000D02*
X160951519Y-88265000D01*
X155653211Y-88918799D02*
X156307010Y-88265000D01*
X150044797Y-88918799D02*
X155653211Y-88918799D01*
X148781398Y-87655400D02*
X150044797Y-88918799D01*
X137820400Y-65252600D02*
X137718800Y-65151000D01*
X160900719Y-65887600D02*
X162102800Y-65887600D01*
X160462318Y-66326001D02*
X160900719Y-65887600D01*
X149854799Y-66326001D02*
X160462318Y-66326001D01*
X148781398Y-65252600D02*
X149854799Y-66326001D01*
X141986000Y-65252600D02*
X148781398Y-65252600D01*
X141986000Y-65252600D02*
X137820400Y-65252600D01*
X141986000Y-87655400D02*
X148781398Y-87655400D01*
X141986000Y-87655400D02*
X137820400Y-87655400D01*
X163626800Y-142007800D02*
X164875000Y-143256000D01*
X119989600Y-135509000D02*
X120269000Y-135788400D01*
X119989600Y-121742200D02*
X119989600Y-135509000D01*
X120269000Y-135788400D02*
X127000000Y-135788400D01*
X127000000Y-135788400D02*
X129438400Y-138226800D01*
X163626800Y-139903200D02*
X163626800Y-142007800D01*
X129438400Y-138226800D02*
X161950400Y-138226800D01*
X161950400Y-138226800D02*
X163626800Y-139903200D01*
X193060106Y-97058694D02*
X193060108Y-97058694D01*
X193614801Y-99027601D02*
X193614801Y-99025201D01*
X194614800Y-100027600D02*
X193614801Y-99027601D01*
X193614801Y-99025201D02*
X192735200Y-98145600D01*
X192735200Y-98145600D02*
X192735200Y-97180400D01*
X193954400Y-107188000D02*
X194614800Y-106527600D01*
X193954400Y-109626400D02*
X193954400Y-107188000D01*
D31*
X61874400Y-78141200D02*
X62382400Y-77633200D01*
X61874400Y-84463200D02*
X61874400Y-78141200D01*
D30*
X132435600Y-118135400D02*
X134620000Y-120319800D01*
X127076200Y-118135400D02*
X132435600Y-118135400D01*
X129184400Y-122580400D02*
X130581400Y-121183400D01*
X131216400Y-121183400D02*
X132080000Y-120319800D01*
X130581400Y-121183400D02*
X131216400Y-121183400D01*
X137185400Y-120294400D02*
X137160000Y-120319800D01*
X137185400Y-118059200D02*
X137185400Y-120294400D01*
X129540000Y-120396000D02*
X129540000Y-120319800D01*
X127431800Y-122504200D02*
X129540000Y-120396000D01*
M02*
