G04 #@! TF.GenerationSoftware,KiCad,Pcbnew,(5.1.2)-2*
G04 #@! TF.CreationDate,2019-07-19T01:26:21+02:00*
G04 #@! TF.ProjectId,STM32F407VET6,53544d33-3246-4343-9037-564554362e6b,rev?*
G04 #@! TF.SameCoordinates,Original*
G04 #@! TF.FileFunction,Copper,L1,Top*
G04 #@! TF.FilePolarity,Positive*
%FSLAX46Y46*%
G04 Gerber Fmt 4.6, Leading zero omitted, Abs format (unit mm)*
G04 Created by KiCad (PCBNEW (5.1.2)-2) date 2019-07-19 01:26:21*
%MOMM*%
%LPD*%
G04 APERTURE LIST*
%ADD10C,1.700000*%
%ADD11R,1.700000X1.700000*%
%ADD12O,1.700000X1.700000*%
%ADD13C,1.524000*%
%ADD14R,0.900000X0.800000*%
%ADD15C,0.100000*%
%ADD16C,0.875000*%
%ADD17C,1.200000*%
%ADD18R,1.200000X1.200000*%
%ADD19C,3.000000*%
%ADD20R,3.000000X3.000000*%
%ADD21O,1.700000X1.950000*%
%ADD22O,1.727200X1.727200*%
%ADD23R,1.727200X1.727200*%
%ADD24C,3.500000*%
%ADD25O,1.950000X1.700000*%
%ADD26C,2.000000*%
%ADD27R,0.800000X0.900000*%
%ADD28C,1.900000*%
%ADD29O,2.000000X1.700000*%
%ADD30C,0.600000*%
%ADD31C,0.800000*%
%ADD32C,1.500000*%
%ADD33C,0.250000*%
%ADD34C,1.000000*%
%ADD35C,0.500000*%
%ADD36C,0.200000*%
%ADD37C,1.600000*%
%ADD38C,1.300000*%
%ADD39C,0.400000*%
%ADD40C,2.000000*%
G04 APERTURE END LIST*
D10*
X174853600Y-85725000D03*
X174853600Y-88265000D03*
X174853600Y-90805000D03*
X174853600Y-93345000D03*
X174853600Y-95885000D03*
X174853600Y-98425000D03*
X174853600Y-100965000D03*
X174853600Y-103505000D03*
X162153600Y-103505000D03*
X162153600Y-100965000D03*
X162153600Y-98425000D03*
X162153600Y-95885000D03*
X162153600Y-93345000D03*
X162153600Y-90805000D03*
X162153600Y-88265000D03*
X162153600Y-85725000D03*
X174853600Y-60725000D03*
X174853600Y-63265000D03*
X174853600Y-65805000D03*
X174853600Y-68345000D03*
X174853600Y-70885000D03*
X174853600Y-73425000D03*
X174853600Y-75965000D03*
X174853600Y-78505000D03*
X162153600Y-78505000D03*
X162153600Y-75965000D03*
X162153600Y-73425000D03*
X162153600Y-70885000D03*
X162153600Y-68345000D03*
X162153600Y-65805000D03*
X162153600Y-63265000D03*
X162153600Y-60725000D03*
D11*
X124460000Y-73075800D03*
D12*
X114122200Y-66624200D03*
X114122200Y-64084200D03*
D11*
X114122200Y-61544200D03*
D12*
X150317200Y-135077200D03*
X147777200Y-135077200D03*
D11*
X145237200Y-135077200D03*
D12*
X159410400Y-135051800D03*
X156870400Y-135051800D03*
D11*
X154330400Y-135051800D03*
D13*
X133477000Y-68600800D03*
X133477000Y-59486800D03*
X118237000Y-68600800D03*
X118237000Y-59486800D03*
D12*
X129540000Y-120319800D03*
X132080000Y-120319800D03*
X134620000Y-120319800D03*
D11*
X137160000Y-120319800D03*
D10*
X150353600Y-85725000D03*
X150353600Y-88265000D03*
X150353600Y-90805000D03*
X150353600Y-93345000D03*
X150353600Y-95885000D03*
X150353600Y-98425000D03*
X150353600Y-100965000D03*
X150353600Y-103505000D03*
X137653600Y-103505000D03*
X137653600Y-100965000D03*
X137653600Y-98425000D03*
X137653600Y-95885000D03*
X137653600Y-93345000D03*
X137653600Y-90805000D03*
X137653600Y-88265000D03*
X137653600Y-85725000D03*
X150353600Y-60725000D03*
X150353600Y-63265000D03*
X150353600Y-65805000D03*
X150353600Y-68345000D03*
X150353600Y-70885000D03*
X150353600Y-73425000D03*
X150353600Y-75965000D03*
X150353600Y-78505000D03*
X137653600Y-78505000D03*
X137653600Y-75965000D03*
X137653600Y-73425000D03*
X137653600Y-70885000D03*
X137653600Y-68345000D03*
X137653600Y-65805000D03*
X137653600Y-63265000D03*
X137653600Y-60725000D03*
D14*
X165185600Y-134924800D03*
X163185600Y-135874800D03*
X163185600Y-133974800D03*
D15*
G36*
X173150091Y-140990753D02*
G01*
X173171326Y-140993903D01*
X173192150Y-140999119D01*
X173212362Y-141006351D01*
X173231768Y-141015530D01*
X173250181Y-141026566D01*
X173267424Y-141039354D01*
X173283330Y-141053770D01*
X173297746Y-141069676D01*
X173310534Y-141086919D01*
X173321570Y-141105332D01*
X173330749Y-141124738D01*
X173337981Y-141144950D01*
X173343197Y-141165774D01*
X173346347Y-141187009D01*
X173347400Y-141208450D01*
X173347400Y-141645950D01*
X173346347Y-141667391D01*
X173343197Y-141688626D01*
X173337981Y-141709450D01*
X173330749Y-141729662D01*
X173321570Y-141749068D01*
X173310534Y-141767481D01*
X173297746Y-141784724D01*
X173283330Y-141800630D01*
X173267424Y-141815046D01*
X173250181Y-141827834D01*
X173231768Y-141838870D01*
X173212362Y-141848049D01*
X173192150Y-141855281D01*
X173171326Y-141860497D01*
X173150091Y-141863647D01*
X173128650Y-141864700D01*
X172616150Y-141864700D01*
X172594709Y-141863647D01*
X172573474Y-141860497D01*
X172552650Y-141855281D01*
X172532438Y-141848049D01*
X172513032Y-141838870D01*
X172494619Y-141827834D01*
X172477376Y-141815046D01*
X172461470Y-141800630D01*
X172447054Y-141784724D01*
X172434266Y-141767481D01*
X172423230Y-141749068D01*
X172414051Y-141729662D01*
X172406819Y-141709450D01*
X172401603Y-141688626D01*
X172398453Y-141667391D01*
X172397400Y-141645950D01*
X172397400Y-141208450D01*
X172398453Y-141187009D01*
X172401603Y-141165774D01*
X172406819Y-141144950D01*
X172414051Y-141124738D01*
X172423230Y-141105332D01*
X172434266Y-141086919D01*
X172447054Y-141069676D01*
X172461470Y-141053770D01*
X172477376Y-141039354D01*
X172494619Y-141026566D01*
X172513032Y-141015530D01*
X172532438Y-141006351D01*
X172552650Y-140999119D01*
X172573474Y-140993903D01*
X172594709Y-140990753D01*
X172616150Y-140989700D01*
X173128650Y-140989700D01*
X173150091Y-140990753D01*
X173150091Y-140990753D01*
G37*
D16*
X172872400Y-141427200D03*
D15*
G36*
X173150091Y-142565753D02*
G01*
X173171326Y-142568903D01*
X173192150Y-142574119D01*
X173212362Y-142581351D01*
X173231768Y-142590530D01*
X173250181Y-142601566D01*
X173267424Y-142614354D01*
X173283330Y-142628770D01*
X173297746Y-142644676D01*
X173310534Y-142661919D01*
X173321570Y-142680332D01*
X173330749Y-142699738D01*
X173337981Y-142719950D01*
X173343197Y-142740774D01*
X173346347Y-142762009D01*
X173347400Y-142783450D01*
X173347400Y-143220950D01*
X173346347Y-143242391D01*
X173343197Y-143263626D01*
X173337981Y-143284450D01*
X173330749Y-143304662D01*
X173321570Y-143324068D01*
X173310534Y-143342481D01*
X173297746Y-143359724D01*
X173283330Y-143375630D01*
X173267424Y-143390046D01*
X173250181Y-143402834D01*
X173231768Y-143413870D01*
X173212362Y-143423049D01*
X173192150Y-143430281D01*
X173171326Y-143435497D01*
X173150091Y-143438647D01*
X173128650Y-143439700D01*
X172616150Y-143439700D01*
X172594709Y-143438647D01*
X172573474Y-143435497D01*
X172552650Y-143430281D01*
X172532438Y-143423049D01*
X172513032Y-143413870D01*
X172494619Y-143402834D01*
X172477376Y-143390046D01*
X172461470Y-143375630D01*
X172447054Y-143359724D01*
X172434266Y-143342481D01*
X172423230Y-143324068D01*
X172414051Y-143304662D01*
X172406819Y-143284450D01*
X172401603Y-143263626D01*
X172398453Y-143242391D01*
X172397400Y-143220950D01*
X172397400Y-142783450D01*
X172398453Y-142762009D01*
X172401603Y-142740774D01*
X172406819Y-142719950D01*
X172414051Y-142699738D01*
X172423230Y-142680332D01*
X172434266Y-142661919D01*
X172447054Y-142644676D01*
X172461470Y-142628770D01*
X172477376Y-142614354D01*
X172494619Y-142601566D01*
X172513032Y-142590530D01*
X172532438Y-142581351D01*
X172552650Y-142574119D01*
X172573474Y-142568903D01*
X172594709Y-142565753D01*
X172616150Y-142564700D01*
X173128650Y-142564700D01*
X173150091Y-142565753D01*
X173150091Y-142565753D01*
G37*
D16*
X172872400Y-143002200D03*
D15*
G36*
X166991091Y-131783853D02*
G01*
X167012326Y-131787003D01*
X167033150Y-131792219D01*
X167053362Y-131799451D01*
X167072768Y-131808630D01*
X167091181Y-131819666D01*
X167108424Y-131832454D01*
X167124330Y-131846870D01*
X167138746Y-131862776D01*
X167151534Y-131880019D01*
X167162570Y-131898432D01*
X167171749Y-131917838D01*
X167178981Y-131938050D01*
X167184197Y-131958874D01*
X167187347Y-131980109D01*
X167188400Y-132001550D01*
X167188400Y-132514050D01*
X167187347Y-132535491D01*
X167184197Y-132556726D01*
X167178981Y-132577550D01*
X167171749Y-132597762D01*
X167162570Y-132617168D01*
X167151534Y-132635581D01*
X167138746Y-132652824D01*
X167124330Y-132668730D01*
X167108424Y-132683146D01*
X167091181Y-132695934D01*
X167072768Y-132706970D01*
X167053362Y-132716149D01*
X167033150Y-132723381D01*
X167012326Y-132728597D01*
X166991091Y-132731747D01*
X166969650Y-132732800D01*
X166532150Y-132732800D01*
X166510709Y-132731747D01*
X166489474Y-132728597D01*
X166468650Y-132723381D01*
X166448438Y-132716149D01*
X166429032Y-132706970D01*
X166410619Y-132695934D01*
X166393376Y-132683146D01*
X166377470Y-132668730D01*
X166363054Y-132652824D01*
X166350266Y-132635581D01*
X166339230Y-132617168D01*
X166330051Y-132597762D01*
X166322819Y-132577550D01*
X166317603Y-132556726D01*
X166314453Y-132535491D01*
X166313400Y-132514050D01*
X166313400Y-132001550D01*
X166314453Y-131980109D01*
X166317603Y-131958874D01*
X166322819Y-131938050D01*
X166330051Y-131917838D01*
X166339230Y-131898432D01*
X166350266Y-131880019D01*
X166363054Y-131862776D01*
X166377470Y-131846870D01*
X166393376Y-131832454D01*
X166410619Y-131819666D01*
X166429032Y-131808630D01*
X166448438Y-131799451D01*
X166468650Y-131792219D01*
X166489474Y-131787003D01*
X166510709Y-131783853D01*
X166532150Y-131782800D01*
X166969650Y-131782800D01*
X166991091Y-131783853D01*
X166991091Y-131783853D01*
G37*
D16*
X166750900Y-132257800D03*
D15*
G36*
X168566091Y-131783853D02*
G01*
X168587326Y-131787003D01*
X168608150Y-131792219D01*
X168628362Y-131799451D01*
X168647768Y-131808630D01*
X168666181Y-131819666D01*
X168683424Y-131832454D01*
X168699330Y-131846870D01*
X168713746Y-131862776D01*
X168726534Y-131880019D01*
X168737570Y-131898432D01*
X168746749Y-131917838D01*
X168753981Y-131938050D01*
X168759197Y-131958874D01*
X168762347Y-131980109D01*
X168763400Y-132001550D01*
X168763400Y-132514050D01*
X168762347Y-132535491D01*
X168759197Y-132556726D01*
X168753981Y-132577550D01*
X168746749Y-132597762D01*
X168737570Y-132617168D01*
X168726534Y-132635581D01*
X168713746Y-132652824D01*
X168699330Y-132668730D01*
X168683424Y-132683146D01*
X168666181Y-132695934D01*
X168647768Y-132706970D01*
X168628362Y-132716149D01*
X168608150Y-132723381D01*
X168587326Y-132728597D01*
X168566091Y-132731747D01*
X168544650Y-132732800D01*
X168107150Y-132732800D01*
X168085709Y-132731747D01*
X168064474Y-132728597D01*
X168043650Y-132723381D01*
X168023438Y-132716149D01*
X168004032Y-132706970D01*
X167985619Y-132695934D01*
X167968376Y-132683146D01*
X167952470Y-132668730D01*
X167938054Y-132652824D01*
X167925266Y-132635581D01*
X167914230Y-132617168D01*
X167905051Y-132597762D01*
X167897819Y-132577550D01*
X167892603Y-132556726D01*
X167889453Y-132535491D01*
X167888400Y-132514050D01*
X167888400Y-132001550D01*
X167889453Y-131980109D01*
X167892603Y-131958874D01*
X167897819Y-131938050D01*
X167905051Y-131917838D01*
X167914230Y-131898432D01*
X167925266Y-131880019D01*
X167938054Y-131862776D01*
X167952470Y-131846870D01*
X167968376Y-131832454D01*
X167985619Y-131819666D01*
X168004032Y-131808630D01*
X168023438Y-131799451D01*
X168043650Y-131792219D01*
X168064474Y-131787003D01*
X168085709Y-131783853D01*
X168107150Y-131782800D01*
X168544650Y-131782800D01*
X168566091Y-131783853D01*
X168566091Y-131783853D01*
G37*
D16*
X168325900Y-132257800D03*
D14*
X166182800Y-129641600D03*
X168182800Y-128691600D03*
X168182800Y-130591600D03*
X168792400Y-134924800D03*
X166792400Y-135874800D03*
X166792400Y-133974800D03*
D12*
X124460000Y-88900000D03*
X121920000Y-88900000D03*
X124460000Y-86360000D03*
D11*
X121920000Y-86360000D03*
D12*
X124460000Y-121920000D03*
X121920000Y-121920000D03*
X124460000Y-119380000D03*
X121920000Y-119380000D03*
X124460000Y-116840000D03*
X121920000Y-116840000D03*
X124460000Y-114300000D03*
X121920000Y-114300000D03*
X124460000Y-111760000D03*
X121920000Y-111760000D03*
X124460000Y-109220000D03*
X121920000Y-109220000D03*
X124460000Y-106680000D03*
X121920000Y-106680000D03*
X124460000Y-104140000D03*
X121920000Y-104140000D03*
X124460000Y-101600000D03*
X121920000Y-101600000D03*
X124460000Y-99060000D03*
X121920000Y-99060000D03*
X124460000Y-96520000D03*
D11*
X121920000Y-96520000D03*
D12*
X124460000Y-142240000D03*
X121920000Y-142240000D03*
X124460000Y-139700000D03*
X121920000Y-139700000D03*
X124460000Y-137160000D03*
D11*
X121920000Y-137160000D03*
D17*
X124339600Y-77673200D03*
D18*
X126339600Y-77673200D03*
D17*
X129664200Y-93040200D03*
D18*
X131664200Y-93040200D03*
D17*
X129664200Y-106540200D03*
D18*
X131664200Y-106540200D03*
D17*
X137164200Y-112540200D03*
D18*
X137164200Y-114540200D03*
D19*
X115824000Y-73202800D03*
D20*
X115824000Y-78282800D03*
D19*
X115773200Y-84378800D03*
D20*
X115773200Y-89458800D03*
D19*
X115722400Y-95707200D03*
D20*
X115722400Y-100787200D03*
D19*
X117080800Y-109169200D03*
X117080800Y-116789200D03*
X117030000Y-126695200D03*
X117030000Y-134315200D03*
D12*
X185369200Y-148386800D03*
X182829200Y-148386800D03*
D11*
X180289200Y-148386800D03*
D21*
X189454800Y-154127200D03*
X186954800Y-154127200D03*
D15*
G36*
X185079304Y-153153404D02*
G01*
X185103573Y-153157004D01*
X185127371Y-153162965D01*
X185150471Y-153171230D01*
X185172649Y-153181720D01*
X185193693Y-153194333D01*
X185213398Y-153208947D01*
X185231577Y-153225423D01*
X185248053Y-153243602D01*
X185262667Y-153263307D01*
X185275280Y-153284351D01*
X185285770Y-153306529D01*
X185294035Y-153329629D01*
X185299996Y-153353427D01*
X185303596Y-153377696D01*
X185304800Y-153402200D01*
X185304800Y-154852200D01*
X185303596Y-154876704D01*
X185299996Y-154900973D01*
X185294035Y-154924771D01*
X185285770Y-154947871D01*
X185275280Y-154970049D01*
X185262667Y-154991093D01*
X185248053Y-155010798D01*
X185231577Y-155028977D01*
X185213398Y-155045453D01*
X185193693Y-155060067D01*
X185172649Y-155072680D01*
X185150471Y-155083170D01*
X185127371Y-155091435D01*
X185103573Y-155097396D01*
X185079304Y-155100996D01*
X185054800Y-155102200D01*
X183854800Y-155102200D01*
X183830296Y-155100996D01*
X183806027Y-155097396D01*
X183782229Y-155091435D01*
X183759129Y-155083170D01*
X183736951Y-155072680D01*
X183715907Y-155060067D01*
X183696202Y-155045453D01*
X183678023Y-155028977D01*
X183661547Y-155010798D01*
X183646933Y-154991093D01*
X183634320Y-154970049D01*
X183623830Y-154947871D01*
X183615565Y-154924771D01*
X183609604Y-154900973D01*
X183606004Y-154876704D01*
X183604800Y-154852200D01*
X183604800Y-153402200D01*
X183606004Y-153377696D01*
X183609604Y-153353427D01*
X183615565Y-153329629D01*
X183623830Y-153306529D01*
X183634320Y-153284351D01*
X183646933Y-153263307D01*
X183661547Y-153243602D01*
X183678023Y-153225423D01*
X183696202Y-153208947D01*
X183715907Y-153194333D01*
X183736951Y-153181720D01*
X183759129Y-153171230D01*
X183782229Y-153162965D01*
X183806027Y-153157004D01*
X183830296Y-153153404D01*
X183854800Y-153152200D01*
X185054800Y-153152200D01*
X185079304Y-153153404D01*
X185079304Y-153153404D01*
G37*
D10*
X184454800Y-154127200D03*
D22*
X164875000Y-140716000D03*
X164875000Y-143256000D03*
X162335000Y-140716000D03*
X162335000Y-143256000D03*
X159795000Y-140716000D03*
X159795000Y-143256000D03*
X157255000Y-140716000D03*
X157255000Y-143256000D03*
X154715000Y-140716000D03*
D23*
X154715000Y-143256000D03*
D22*
X142875000Y-140716000D03*
X142875000Y-143256000D03*
X140335000Y-140716000D03*
X140335000Y-143256000D03*
X137795000Y-140716000D03*
X137795000Y-143256000D03*
X135255000Y-140716000D03*
X135255000Y-143256000D03*
X132715000Y-140716000D03*
D23*
X132715000Y-143256000D03*
D24*
X202449000Y-123094000D03*
X202449000Y-111054000D03*
D10*
X199739000Y-115824000D03*
X199739000Y-118324000D03*
X197739000Y-118324000D03*
D11*
X197739000Y-115824000D03*
D15*
G36*
X180962504Y-134660204D02*
G01*
X180986773Y-134663804D01*
X181010571Y-134669765D01*
X181033671Y-134678030D01*
X181055849Y-134688520D01*
X181076893Y-134701133D01*
X181096598Y-134715747D01*
X181114777Y-134732223D01*
X181131253Y-134750402D01*
X181145867Y-134770107D01*
X181158480Y-134791151D01*
X181168970Y-134813329D01*
X181177235Y-134836429D01*
X181183196Y-134860227D01*
X181186796Y-134884496D01*
X181188000Y-134909000D01*
X181188000Y-136109000D01*
X181186796Y-136133504D01*
X181183196Y-136157773D01*
X181177235Y-136181571D01*
X181168970Y-136204671D01*
X181158480Y-136226849D01*
X181145867Y-136247893D01*
X181131253Y-136267598D01*
X181114777Y-136285777D01*
X181096598Y-136302253D01*
X181076893Y-136316867D01*
X181055849Y-136329480D01*
X181033671Y-136339970D01*
X181010571Y-136348235D01*
X180986773Y-136354196D01*
X180962504Y-136357796D01*
X180938000Y-136359000D01*
X179488000Y-136359000D01*
X179463496Y-136357796D01*
X179439227Y-136354196D01*
X179415429Y-136348235D01*
X179392329Y-136339970D01*
X179370151Y-136329480D01*
X179349107Y-136316867D01*
X179329402Y-136302253D01*
X179311223Y-136285777D01*
X179294747Y-136267598D01*
X179280133Y-136247893D01*
X179267520Y-136226849D01*
X179257030Y-136204671D01*
X179248765Y-136181571D01*
X179242804Y-136157773D01*
X179239204Y-136133504D01*
X179238000Y-136109000D01*
X179238000Y-134909000D01*
X179239204Y-134884496D01*
X179242804Y-134860227D01*
X179248765Y-134836429D01*
X179257030Y-134813329D01*
X179267520Y-134791151D01*
X179280133Y-134770107D01*
X179294747Y-134750402D01*
X179311223Y-134732223D01*
X179329402Y-134715747D01*
X179349107Y-134701133D01*
X179370151Y-134688520D01*
X179392329Y-134678030D01*
X179415429Y-134669765D01*
X179439227Y-134663804D01*
X179463496Y-134660204D01*
X179488000Y-134659000D01*
X180938000Y-134659000D01*
X180962504Y-134660204D01*
X180962504Y-134660204D01*
G37*
D10*
X180213000Y-135509000D03*
D25*
X180213000Y-133009000D03*
X180213000Y-130509000D03*
X180213000Y-128009000D03*
X180213000Y-125509000D03*
X180213000Y-123009000D03*
X180213000Y-120509000D03*
X180213000Y-118009000D03*
X180213000Y-115509000D03*
D26*
X199114800Y-106527600D03*
X194614800Y-106527600D03*
X199114800Y-100027600D03*
X194614800Y-100027600D03*
D25*
X181745000Y-90365200D03*
X181745000Y-87865200D03*
X181745000Y-85365200D03*
D15*
G36*
X182494504Y-82016404D02*
G01*
X182518773Y-82020004D01*
X182542571Y-82025965D01*
X182565671Y-82034230D01*
X182587849Y-82044720D01*
X182608893Y-82057333D01*
X182628598Y-82071947D01*
X182646777Y-82088423D01*
X182663253Y-82106602D01*
X182677867Y-82126307D01*
X182690480Y-82147351D01*
X182700970Y-82169529D01*
X182709235Y-82192629D01*
X182715196Y-82216427D01*
X182718796Y-82240696D01*
X182720000Y-82265200D01*
X182720000Y-83465200D01*
X182718796Y-83489704D01*
X182715196Y-83513973D01*
X182709235Y-83537771D01*
X182700970Y-83560871D01*
X182690480Y-83583049D01*
X182677867Y-83604093D01*
X182663253Y-83623798D01*
X182646777Y-83641977D01*
X182628598Y-83658453D01*
X182608893Y-83673067D01*
X182587849Y-83685680D01*
X182565671Y-83696170D01*
X182542571Y-83704435D01*
X182518773Y-83710396D01*
X182494504Y-83713996D01*
X182470000Y-83715200D01*
X181020000Y-83715200D01*
X180995496Y-83713996D01*
X180971227Y-83710396D01*
X180947429Y-83704435D01*
X180924329Y-83696170D01*
X180902151Y-83685680D01*
X180881107Y-83673067D01*
X180861402Y-83658453D01*
X180843223Y-83641977D01*
X180826747Y-83623798D01*
X180812133Y-83604093D01*
X180799520Y-83583049D01*
X180789030Y-83560871D01*
X180780765Y-83537771D01*
X180774804Y-83513973D01*
X180771204Y-83489704D01*
X180770000Y-83465200D01*
X180770000Y-82265200D01*
X180771204Y-82240696D01*
X180774804Y-82216427D01*
X180780765Y-82192629D01*
X180789030Y-82169529D01*
X180799520Y-82147351D01*
X180812133Y-82126307D01*
X180826747Y-82106602D01*
X180843223Y-82088423D01*
X180861402Y-82071947D01*
X180881107Y-82057333D01*
X180902151Y-82044720D01*
X180924329Y-82034230D01*
X180947429Y-82025965D01*
X180971227Y-82020004D01*
X180995496Y-82016404D01*
X181020000Y-82015200D01*
X182470000Y-82015200D01*
X182494504Y-82016404D01*
X182494504Y-82016404D01*
G37*
D10*
X181745000Y-82865200D03*
D15*
G36*
X149604291Y-119375453D02*
G01*
X149625526Y-119378603D01*
X149646350Y-119383819D01*
X149666562Y-119391051D01*
X149685968Y-119400230D01*
X149704381Y-119411266D01*
X149721624Y-119424054D01*
X149737530Y-119438470D01*
X149751946Y-119454376D01*
X149764734Y-119471619D01*
X149775770Y-119490032D01*
X149784949Y-119509438D01*
X149792181Y-119529650D01*
X149797397Y-119550474D01*
X149800547Y-119571709D01*
X149801600Y-119593150D01*
X149801600Y-120030650D01*
X149800547Y-120052091D01*
X149797397Y-120073326D01*
X149792181Y-120094150D01*
X149784949Y-120114362D01*
X149775770Y-120133768D01*
X149764734Y-120152181D01*
X149751946Y-120169424D01*
X149737530Y-120185330D01*
X149721624Y-120199746D01*
X149704381Y-120212534D01*
X149685968Y-120223570D01*
X149666562Y-120232749D01*
X149646350Y-120239981D01*
X149625526Y-120245197D01*
X149604291Y-120248347D01*
X149582850Y-120249400D01*
X149070350Y-120249400D01*
X149048909Y-120248347D01*
X149027674Y-120245197D01*
X149006850Y-120239981D01*
X148986638Y-120232749D01*
X148967232Y-120223570D01*
X148948819Y-120212534D01*
X148931576Y-120199746D01*
X148915670Y-120185330D01*
X148901254Y-120169424D01*
X148888466Y-120152181D01*
X148877430Y-120133768D01*
X148868251Y-120114362D01*
X148861019Y-120094150D01*
X148855803Y-120073326D01*
X148852653Y-120052091D01*
X148851600Y-120030650D01*
X148851600Y-119593150D01*
X148852653Y-119571709D01*
X148855803Y-119550474D01*
X148861019Y-119529650D01*
X148868251Y-119509438D01*
X148877430Y-119490032D01*
X148888466Y-119471619D01*
X148901254Y-119454376D01*
X148915670Y-119438470D01*
X148931576Y-119424054D01*
X148948819Y-119411266D01*
X148967232Y-119400230D01*
X148986638Y-119391051D01*
X149006850Y-119383819D01*
X149027674Y-119378603D01*
X149048909Y-119375453D01*
X149070350Y-119374400D01*
X149582850Y-119374400D01*
X149604291Y-119375453D01*
X149604291Y-119375453D01*
G37*
D16*
X149326600Y-119811900D03*
D15*
G36*
X149604291Y-117800453D02*
G01*
X149625526Y-117803603D01*
X149646350Y-117808819D01*
X149666562Y-117816051D01*
X149685968Y-117825230D01*
X149704381Y-117836266D01*
X149721624Y-117849054D01*
X149737530Y-117863470D01*
X149751946Y-117879376D01*
X149764734Y-117896619D01*
X149775770Y-117915032D01*
X149784949Y-117934438D01*
X149792181Y-117954650D01*
X149797397Y-117975474D01*
X149800547Y-117996709D01*
X149801600Y-118018150D01*
X149801600Y-118455650D01*
X149800547Y-118477091D01*
X149797397Y-118498326D01*
X149792181Y-118519150D01*
X149784949Y-118539362D01*
X149775770Y-118558768D01*
X149764734Y-118577181D01*
X149751946Y-118594424D01*
X149737530Y-118610330D01*
X149721624Y-118624746D01*
X149704381Y-118637534D01*
X149685968Y-118648570D01*
X149666562Y-118657749D01*
X149646350Y-118664981D01*
X149625526Y-118670197D01*
X149604291Y-118673347D01*
X149582850Y-118674400D01*
X149070350Y-118674400D01*
X149048909Y-118673347D01*
X149027674Y-118670197D01*
X149006850Y-118664981D01*
X148986638Y-118657749D01*
X148967232Y-118648570D01*
X148948819Y-118637534D01*
X148931576Y-118624746D01*
X148915670Y-118610330D01*
X148901254Y-118594424D01*
X148888466Y-118577181D01*
X148877430Y-118558768D01*
X148868251Y-118539362D01*
X148861019Y-118519150D01*
X148855803Y-118498326D01*
X148852653Y-118477091D01*
X148851600Y-118455650D01*
X148851600Y-118018150D01*
X148852653Y-117996709D01*
X148855803Y-117975474D01*
X148861019Y-117954650D01*
X148868251Y-117934438D01*
X148877430Y-117915032D01*
X148888466Y-117896619D01*
X148901254Y-117879376D01*
X148915670Y-117863470D01*
X148931576Y-117849054D01*
X148948819Y-117836266D01*
X148967232Y-117825230D01*
X148986638Y-117816051D01*
X149006850Y-117808819D01*
X149027674Y-117803603D01*
X149048909Y-117800453D01*
X149070350Y-117799400D01*
X149582850Y-117799400D01*
X149604291Y-117800453D01*
X149604291Y-117800453D01*
G37*
D16*
X149326600Y-118236900D03*
D27*
X148818600Y-116722400D03*
X147868600Y-114722400D03*
X149768600Y-114722400D03*
D25*
X156745000Y-73365200D03*
X156745000Y-70865200D03*
X156745000Y-68365200D03*
D15*
G36*
X157494504Y-65016404D02*
G01*
X157518773Y-65020004D01*
X157542571Y-65025965D01*
X157565671Y-65034230D01*
X157587849Y-65044720D01*
X157608893Y-65057333D01*
X157628598Y-65071947D01*
X157646777Y-65088423D01*
X157663253Y-65106602D01*
X157677867Y-65126307D01*
X157690480Y-65147351D01*
X157700970Y-65169529D01*
X157709235Y-65192629D01*
X157715196Y-65216427D01*
X157718796Y-65240696D01*
X157720000Y-65265200D01*
X157720000Y-66465200D01*
X157718796Y-66489704D01*
X157715196Y-66513973D01*
X157709235Y-66537771D01*
X157700970Y-66560871D01*
X157690480Y-66583049D01*
X157677867Y-66604093D01*
X157663253Y-66623798D01*
X157646777Y-66641977D01*
X157628598Y-66658453D01*
X157608893Y-66673067D01*
X157587849Y-66685680D01*
X157565671Y-66696170D01*
X157542571Y-66704435D01*
X157518773Y-66710396D01*
X157494504Y-66713996D01*
X157470000Y-66715200D01*
X156020000Y-66715200D01*
X155995496Y-66713996D01*
X155971227Y-66710396D01*
X155947429Y-66704435D01*
X155924329Y-66696170D01*
X155902151Y-66685680D01*
X155881107Y-66673067D01*
X155861402Y-66658453D01*
X155843223Y-66641977D01*
X155826747Y-66623798D01*
X155812133Y-66604093D01*
X155799520Y-66583049D01*
X155789030Y-66560871D01*
X155780765Y-66537771D01*
X155774804Y-66513973D01*
X155771204Y-66489704D01*
X155770000Y-66465200D01*
X155770000Y-65265200D01*
X155771204Y-65240696D01*
X155774804Y-65216427D01*
X155780765Y-65192629D01*
X155789030Y-65169529D01*
X155799520Y-65147351D01*
X155812133Y-65126307D01*
X155826747Y-65106602D01*
X155843223Y-65088423D01*
X155861402Y-65071947D01*
X155881107Y-65057333D01*
X155902151Y-65044720D01*
X155924329Y-65034230D01*
X155947429Y-65025965D01*
X155971227Y-65020004D01*
X155995496Y-65016404D01*
X156020000Y-65015200D01*
X157470000Y-65015200D01*
X157494504Y-65016404D01*
X157494504Y-65016404D01*
G37*
D10*
X156745000Y-65865200D03*
D25*
X156745000Y-98365200D03*
X156745000Y-95865200D03*
X156745000Y-93365200D03*
D15*
G36*
X157494504Y-90016404D02*
G01*
X157518773Y-90020004D01*
X157542571Y-90025965D01*
X157565671Y-90034230D01*
X157587849Y-90044720D01*
X157608893Y-90057333D01*
X157628598Y-90071947D01*
X157646777Y-90088423D01*
X157663253Y-90106602D01*
X157677867Y-90126307D01*
X157690480Y-90147351D01*
X157700970Y-90169529D01*
X157709235Y-90192629D01*
X157715196Y-90216427D01*
X157718796Y-90240696D01*
X157720000Y-90265200D01*
X157720000Y-91465200D01*
X157718796Y-91489704D01*
X157715196Y-91513973D01*
X157709235Y-91537771D01*
X157700970Y-91560871D01*
X157690480Y-91583049D01*
X157677867Y-91604093D01*
X157663253Y-91623798D01*
X157646777Y-91641977D01*
X157628598Y-91658453D01*
X157608893Y-91673067D01*
X157587849Y-91685680D01*
X157565671Y-91696170D01*
X157542571Y-91704435D01*
X157518773Y-91710396D01*
X157494504Y-91713996D01*
X157470000Y-91715200D01*
X156020000Y-91715200D01*
X155995496Y-91713996D01*
X155971227Y-91710396D01*
X155947429Y-91704435D01*
X155924329Y-91696170D01*
X155902151Y-91685680D01*
X155881107Y-91673067D01*
X155861402Y-91658453D01*
X155843223Y-91641977D01*
X155826747Y-91623798D01*
X155812133Y-91604093D01*
X155799520Y-91583049D01*
X155789030Y-91560871D01*
X155780765Y-91537771D01*
X155774804Y-91513973D01*
X155771204Y-91489704D01*
X155770000Y-91465200D01*
X155770000Y-90265200D01*
X155771204Y-90240696D01*
X155774804Y-90216427D01*
X155780765Y-90192629D01*
X155789030Y-90169529D01*
X155799520Y-90147351D01*
X155812133Y-90126307D01*
X155826747Y-90106602D01*
X155843223Y-90088423D01*
X155861402Y-90071947D01*
X155881107Y-90057333D01*
X155902151Y-90044720D01*
X155924329Y-90034230D01*
X155947429Y-90025965D01*
X155971227Y-90020004D01*
X155995496Y-90016404D01*
X156020000Y-90015200D01*
X157470000Y-90015200D01*
X157494504Y-90016404D01*
X157494504Y-90016404D01*
G37*
D10*
X156745000Y-90865200D03*
D21*
X201215000Y-133096000D03*
X198715000Y-133096000D03*
D15*
G36*
X196839504Y-132122204D02*
G01*
X196863773Y-132125804D01*
X196887571Y-132131765D01*
X196910671Y-132140030D01*
X196932849Y-132150520D01*
X196953893Y-132163133D01*
X196973598Y-132177747D01*
X196991777Y-132194223D01*
X197008253Y-132212402D01*
X197022867Y-132232107D01*
X197035480Y-132253151D01*
X197045970Y-132275329D01*
X197054235Y-132298429D01*
X197060196Y-132322227D01*
X197063796Y-132346496D01*
X197065000Y-132371000D01*
X197065000Y-133821000D01*
X197063796Y-133845504D01*
X197060196Y-133869773D01*
X197054235Y-133893571D01*
X197045970Y-133916671D01*
X197035480Y-133938849D01*
X197022867Y-133959893D01*
X197008253Y-133979598D01*
X196991777Y-133997777D01*
X196973598Y-134014253D01*
X196953893Y-134028867D01*
X196932849Y-134041480D01*
X196910671Y-134051970D01*
X196887571Y-134060235D01*
X196863773Y-134066196D01*
X196839504Y-134069796D01*
X196815000Y-134071000D01*
X195615000Y-134071000D01*
X195590496Y-134069796D01*
X195566227Y-134066196D01*
X195542429Y-134060235D01*
X195519329Y-134051970D01*
X195497151Y-134041480D01*
X195476107Y-134028867D01*
X195456402Y-134014253D01*
X195438223Y-133997777D01*
X195421747Y-133979598D01*
X195407133Y-133959893D01*
X195394520Y-133938849D01*
X195384030Y-133916671D01*
X195375765Y-133893571D01*
X195369804Y-133869773D01*
X195366204Y-133845504D01*
X195365000Y-133821000D01*
X195365000Y-132371000D01*
X195366204Y-132346496D01*
X195369804Y-132322227D01*
X195375765Y-132298429D01*
X195384030Y-132275329D01*
X195394520Y-132253151D01*
X195407133Y-132232107D01*
X195421747Y-132212402D01*
X195438223Y-132194223D01*
X195456402Y-132177747D01*
X195476107Y-132163133D01*
X195497151Y-132150520D01*
X195519329Y-132140030D01*
X195542429Y-132131765D01*
X195566227Y-132125804D01*
X195590496Y-132122204D01*
X195615000Y-132121000D01*
X196815000Y-132121000D01*
X196839504Y-132122204D01*
X196839504Y-132122204D01*
G37*
D10*
X196215000Y-133096000D03*
D21*
X201278500Y-153987500D03*
X198778500Y-153987500D03*
D15*
G36*
X196903004Y-153013704D02*
G01*
X196927273Y-153017304D01*
X196951071Y-153023265D01*
X196974171Y-153031530D01*
X196996349Y-153042020D01*
X197017393Y-153054633D01*
X197037098Y-153069247D01*
X197055277Y-153085723D01*
X197071753Y-153103902D01*
X197086367Y-153123607D01*
X197098980Y-153144651D01*
X197109470Y-153166829D01*
X197117735Y-153189929D01*
X197123696Y-153213727D01*
X197127296Y-153237996D01*
X197128500Y-153262500D01*
X197128500Y-154712500D01*
X197127296Y-154737004D01*
X197123696Y-154761273D01*
X197117735Y-154785071D01*
X197109470Y-154808171D01*
X197098980Y-154830349D01*
X197086367Y-154851393D01*
X197071753Y-154871098D01*
X197055277Y-154889277D01*
X197037098Y-154905753D01*
X197017393Y-154920367D01*
X196996349Y-154932980D01*
X196974171Y-154943470D01*
X196951071Y-154951735D01*
X196927273Y-154957696D01*
X196903004Y-154961296D01*
X196878500Y-154962500D01*
X195678500Y-154962500D01*
X195653996Y-154961296D01*
X195629727Y-154957696D01*
X195605929Y-154951735D01*
X195582829Y-154943470D01*
X195560651Y-154932980D01*
X195539607Y-154920367D01*
X195519902Y-154905753D01*
X195501723Y-154889277D01*
X195485247Y-154871098D01*
X195470633Y-154851393D01*
X195458020Y-154830349D01*
X195447530Y-154808171D01*
X195439265Y-154785071D01*
X195433304Y-154761273D01*
X195429704Y-154737004D01*
X195428500Y-154712500D01*
X195428500Y-153262500D01*
X195429704Y-153237996D01*
X195433304Y-153213727D01*
X195439265Y-153189929D01*
X195447530Y-153166829D01*
X195458020Y-153144651D01*
X195470633Y-153123607D01*
X195485247Y-153103902D01*
X195501723Y-153085723D01*
X195519902Y-153069247D01*
X195539607Y-153054633D01*
X195560651Y-153042020D01*
X195582829Y-153031530D01*
X195605929Y-153023265D01*
X195629727Y-153017304D01*
X195653996Y-153013704D01*
X195678500Y-153012500D01*
X196878500Y-153012500D01*
X196903004Y-153013704D01*
X196903004Y-153013704D01*
G37*
D10*
X196278500Y-153987500D03*
D21*
X201278500Y-147002500D03*
X198778500Y-147002500D03*
D15*
G36*
X196903004Y-146028704D02*
G01*
X196927273Y-146032304D01*
X196951071Y-146038265D01*
X196974171Y-146046530D01*
X196996349Y-146057020D01*
X197017393Y-146069633D01*
X197037098Y-146084247D01*
X197055277Y-146100723D01*
X197071753Y-146118902D01*
X197086367Y-146138607D01*
X197098980Y-146159651D01*
X197109470Y-146181829D01*
X197117735Y-146204929D01*
X197123696Y-146228727D01*
X197127296Y-146252996D01*
X197128500Y-146277500D01*
X197128500Y-147727500D01*
X197127296Y-147752004D01*
X197123696Y-147776273D01*
X197117735Y-147800071D01*
X197109470Y-147823171D01*
X197098980Y-147845349D01*
X197086367Y-147866393D01*
X197071753Y-147886098D01*
X197055277Y-147904277D01*
X197037098Y-147920753D01*
X197017393Y-147935367D01*
X196996349Y-147947980D01*
X196974171Y-147958470D01*
X196951071Y-147966735D01*
X196927273Y-147972696D01*
X196903004Y-147976296D01*
X196878500Y-147977500D01*
X195678500Y-147977500D01*
X195653996Y-147976296D01*
X195629727Y-147972696D01*
X195605929Y-147966735D01*
X195582829Y-147958470D01*
X195560651Y-147947980D01*
X195539607Y-147935367D01*
X195519902Y-147920753D01*
X195501723Y-147904277D01*
X195485247Y-147886098D01*
X195470633Y-147866393D01*
X195458020Y-147845349D01*
X195447530Y-147823171D01*
X195439265Y-147800071D01*
X195433304Y-147776273D01*
X195429704Y-147752004D01*
X195428500Y-147727500D01*
X195428500Y-146277500D01*
X195429704Y-146252996D01*
X195433304Y-146228727D01*
X195439265Y-146204929D01*
X195447530Y-146181829D01*
X195458020Y-146159651D01*
X195470633Y-146138607D01*
X195485247Y-146118902D01*
X195501723Y-146100723D01*
X195519902Y-146084247D01*
X195539607Y-146069633D01*
X195560651Y-146057020D01*
X195582829Y-146046530D01*
X195605929Y-146038265D01*
X195629727Y-146032304D01*
X195653996Y-146028704D01*
X195678500Y-146027500D01*
X196878500Y-146027500D01*
X196903004Y-146028704D01*
X196903004Y-146028704D01*
G37*
D10*
X196278500Y-147002500D03*
D25*
X181745000Y-73365200D03*
X181745000Y-70865200D03*
X181745000Y-68365200D03*
D15*
G36*
X182494504Y-65016404D02*
G01*
X182518773Y-65020004D01*
X182542571Y-65025965D01*
X182565671Y-65034230D01*
X182587849Y-65044720D01*
X182608893Y-65057333D01*
X182628598Y-65071947D01*
X182646777Y-65088423D01*
X182663253Y-65106602D01*
X182677867Y-65126307D01*
X182690480Y-65147351D01*
X182700970Y-65169529D01*
X182709235Y-65192629D01*
X182715196Y-65216427D01*
X182718796Y-65240696D01*
X182720000Y-65265200D01*
X182720000Y-66465200D01*
X182718796Y-66489704D01*
X182715196Y-66513973D01*
X182709235Y-66537771D01*
X182700970Y-66560871D01*
X182690480Y-66583049D01*
X182677867Y-66604093D01*
X182663253Y-66623798D01*
X182646777Y-66641977D01*
X182628598Y-66658453D01*
X182608893Y-66673067D01*
X182587849Y-66685680D01*
X182565671Y-66696170D01*
X182542571Y-66704435D01*
X182518773Y-66710396D01*
X182494504Y-66713996D01*
X182470000Y-66715200D01*
X181020000Y-66715200D01*
X180995496Y-66713996D01*
X180971227Y-66710396D01*
X180947429Y-66704435D01*
X180924329Y-66696170D01*
X180902151Y-66685680D01*
X180881107Y-66673067D01*
X180861402Y-66658453D01*
X180843223Y-66641977D01*
X180826747Y-66623798D01*
X180812133Y-66604093D01*
X180799520Y-66583049D01*
X180789030Y-66560871D01*
X180780765Y-66537771D01*
X180774804Y-66513973D01*
X180771204Y-66489704D01*
X180770000Y-66465200D01*
X180770000Y-65265200D01*
X180771204Y-65240696D01*
X180774804Y-65216427D01*
X180780765Y-65192629D01*
X180789030Y-65169529D01*
X180799520Y-65147351D01*
X180812133Y-65126307D01*
X180826747Y-65106602D01*
X180843223Y-65088423D01*
X180861402Y-65071947D01*
X180881107Y-65057333D01*
X180902151Y-65044720D01*
X180924329Y-65034230D01*
X180947429Y-65025965D01*
X180971227Y-65020004D01*
X180995496Y-65016404D01*
X181020000Y-65015200D01*
X182470000Y-65015200D01*
X182494504Y-65016404D01*
X182494504Y-65016404D01*
G37*
D10*
X181745000Y-65865200D03*
D21*
X201215000Y-140081000D03*
X198715000Y-140081000D03*
D15*
G36*
X196839504Y-139107204D02*
G01*
X196863773Y-139110804D01*
X196887571Y-139116765D01*
X196910671Y-139125030D01*
X196932849Y-139135520D01*
X196953893Y-139148133D01*
X196973598Y-139162747D01*
X196991777Y-139179223D01*
X197008253Y-139197402D01*
X197022867Y-139217107D01*
X197035480Y-139238151D01*
X197045970Y-139260329D01*
X197054235Y-139283429D01*
X197060196Y-139307227D01*
X197063796Y-139331496D01*
X197065000Y-139356000D01*
X197065000Y-140806000D01*
X197063796Y-140830504D01*
X197060196Y-140854773D01*
X197054235Y-140878571D01*
X197045970Y-140901671D01*
X197035480Y-140923849D01*
X197022867Y-140944893D01*
X197008253Y-140964598D01*
X196991777Y-140982777D01*
X196973598Y-140999253D01*
X196953893Y-141013867D01*
X196932849Y-141026480D01*
X196910671Y-141036970D01*
X196887571Y-141045235D01*
X196863773Y-141051196D01*
X196839504Y-141054796D01*
X196815000Y-141056000D01*
X195615000Y-141056000D01*
X195590496Y-141054796D01*
X195566227Y-141051196D01*
X195542429Y-141045235D01*
X195519329Y-141036970D01*
X195497151Y-141026480D01*
X195476107Y-141013867D01*
X195456402Y-140999253D01*
X195438223Y-140982777D01*
X195421747Y-140964598D01*
X195407133Y-140944893D01*
X195394520Y-140923849D01*
X195384030Y-140901671D01*
X195375765Y-140878571D01*
X195369804Y-140854773D01*
X195366204Y-140830504D01*
X195365000Y-140806000D01*
X195365000Y-139356000D01*
X195366204Y-139331496D01*
X195369804Y-139307227D01*
X195375765Y-139283429D01*
X195384030Y-139260329D01*
X195394520Y-139238151D01*
X195407133Y-139217107D01*
X195421747Y-139197402D01*
X195438223Y-139179223D01*
X195456402Y-139162747D01*
X195476107Y-139148133D01*
X195497151Y-139135520D01*
X195519329Y-139125030D01*
X195542429Y-139116765D01*
X195566227Y-139110804D01*
X195590496Y-139107204D01*
X195615000Y-139106000D01*
X196815000Y-139106000D01*
X196839504Y-139107204D01*
X196839504Y-139107204D01*
G37*
D10*
X196215000Y-140081000D03*
D15*
G36*
X151636291Y-121610453D02*
G01*
X151657526Y-121613603D01*
X151678350Y-121618819D01*
X151698562Y-121626051D01*
X151717968Y-121635230D01*
X151736381Y-121646266D01*
X151753624Y-121659054D01*
X151769530Y-121673470D01*
X151783946Y-121689376D01*
X151796734Y-121706619D01*
X151807770Y-121725032D01*
X151816949Y-121744438D01*
X151824181Y-121764650D01*
X151829397Y-121785474D01*
X151832547Y-121806709D01*
X151833600Y-121828150D01*
X151833600Y-122265650D01*
X151832547Y-122287091D01*
X151829397Y-122308326D01*
X151824181Y-122329150D01*
X151816949Y-122349362D01*
X151807770Y-122368768D01*
X151796734Y-122387181D01*
X151783946Y-122404424D01*
X151769530Y-122420330D01*
X151753624Y-122434746D01*
X151736381Y-122447534D01*
X151717968Y-122458570D01*
X151698562Y-122467749D01*
X151678350Y-122474981D01*
X151657526Y-122480197D01*
X151636291Y-122483347D01*
X151614850Y-122484400D01*
X151102350Y-122484400D01*
X151080909Y-122483347D01*
X151059674Y-122480197D01*
X151038850Y-122474981D01*
X151018638Y-122467749D01*
X150999232Y-122458570D01*
X150980819Y-122447534D01*
X150963576Y-122434746D01*
X150947670Y-122420330D01*
X150933254Y-122404424D01*
X150920466Y-122387181D01*
X150909430Y-122368768D01*
X150900251Y-122349362D01*
X150893019Y-122329150D01*
X150887803Y-122308326D01*
X150884653Y-122287091D01*
X150883600Y-122265650D01*
X150883600Y-121828150D01*
X150884653Y-121806709D01*
X150887803Y-121785474D01*
X150893019Y-121764650D01*
X150900251Y-121744438D01*
X150909430Y-121725032D01*
X150920466Y-121706619D01*
X150933254Y-121689376D01*
X150947670Y-121673470D01*
X150963576Y-121659054D01*
X150980819Y-121646266D01*
X150999232Y-121635230D01*
X151018638Y-121626051D01*
X151038850Y-121618819D01*
X151059674Y-121613603D01*
X151080909Y-121610453D01*
X151102350Y-121609400D01*
X151614850Y-121609400D01*
X151636291Y-121610453D01*
X151636291Y-121610453D01*
G37*
D16*
X151358600Y-122046900D03*
D15*
G36*
X151636291Y-123185453D02*
G01*
X151657526Y-123188603D01*
X151678350Y-123193819D01*
X151698562Y-123201051D01*
X151717968Y-123210230D01*
X151736381Y-123221266D01*
X151753624Y-123234054D01*
X151769530Y-123248470D01*
X151783946Y-123264376D01*
X151796734Y-123281619D01*
X151807770Y-123300032D01*
X151816949Y-123319438D01*
X151824181Y-123339650D01*
X151829397Y-123360474D01*
X151832547Y-123381709D01*
X151833600Y-123403150D01*
X151833600Y-123840650D01*
X151832547Y-123862091D01*
X151829397Y-123883326D01*
X151824181Y-123904150D01*
X151816949Y-123924362D01*
X151807770Y-123943768D01*
X151796734Y-123962181D01*
X151783946Y-123979424D01*
X151769530Y-123995330D01*
X151753624Y-124009746D01*
X151736381Y-124022534D01*
X151717968Y-124033570D01*
X151698562Y-124042749D01*
X151678350Y-124049981D01*
X151657526Y-124055197D01*
X151636291Y-124058347D01*
X151614850Y-124059400D01*
X151102350Y-124059400D01*
X151080909Y-124058347D01*
X151059674Y-124055197D01*
X151038850Y-124049981D01*
X151018638Y-124042749D01*
X150999232Y-124033570D01*
X150980819Y-124022534D01*
X150963576Y-124009746D01*
X150947670Y-123995330D01*
X150933254Y-123979424D01*
X150920466Y-123962181D01*
X150909430Y-123943768D01*
X150900251Y-123924362D01*
X150893019Y-123904150D01*
X150887803Y-123883326D01*
X150884653Y-123862091D01*
X150883600Y-123840650D01*
X150883600Y-123403150D01*
X150884653Y-123381709D01*
X150887803Y-123360474D01*
X150893019Y-123339650D01*
X150900251Y-123319438D01*
X150909430Y-123300032D01*
X150920466Y-123281619D01*
X150933254Y-123264376D01*
X150947670Y-123248470D01*
X150963576Y-123234054D01*
X150980819Y-123221266D01*
X150999232Y-123210230D01*
X151018638Y-123201051D01*
X151038850Y-123193819D01*
X151059674Y-123188603D01*
X151080909Y-123185453D01*
X151102350Y-123184400D01*
X151614850Y-123184400D01*
X151636291Y-123185453D01*
X151636291Y-123185453D01*
G37*
D16*
X151358600Y-123621900D03*
D15*
G36*
X148080291Y-124658453D02*
G01*
X148101526Y-124661603D01*
X148122350Y-124666819D01*
X148142562Y-124674051D01*
X148161968Y-124683230D01*
X148180381Y-124694266D01*
X148197624Y-124707054D01*
X148213530Y-124721470D01*
X148227946Y-124737376D01*
X148240734Y-124754619D01*
X148251770Y-124773032D01*
X148260949Y-124792438D01*
X148268181Y-124812650D01*
X148273397Y-124833474D01*
X148276547Y-124854709D01*
X148277600Y-124876150D01*
X148277600Y-125313650D01*
X148276547Y-125335091D01*
X148273397Y-125356326D01*
X148268181Y-125377150D01*
X148260949Y-125397362D01*
X148251770Y-125416768D01*
X148240734Y-125435181D01*
X148227946Y-125452424D01*
X148213530Y-125468330D01*
X148197624Y-125482746D01*
X148180381Y-125495534D01*
X148161968Y-125506570D01*
X148142562Y-125515749D01*
X148122350Y-125522981D01*
X148101526Y-125528197D01*
X148080291Y-125531347D01*
X148058850Y-125532400D01*
X147546350Y-125532400D01*
X147524909Y-125531347D01*
X147503674Y-125528197D01*
X147482850Y-125522981D01*
X147462638Y-125515749D01*
X147443232Y-125506570D01*
X147424819Y-125495534D01*
X147407576Y-125482746D01*
X147391670Y-125468330D01*
X147377254Y-125452424D01*
X147364466Y-125435181D01*
X147353430Y-125416768D01*
X147344251Y-125397362D01*
X147337019Y-125377150D01*
X147331803Y-125356326D01*
X147328653Y-125335091D01*
X147327600Y-125313650D01*
X147327600Y-124876150D01*
X147328653Y-124854709D01*
X147331803Y-124833474D01*
X147337019Y-124812650D01*
X147344251Y-124792438D01*
X147353430Y-124773032D01*
X147364466Y-124754619D01*
X147377254Y-124737376D01*
X147391670Y-124721470D01*
X147407576Y-124707054D01*
X147424819Y-124694266D01*
X147443232Y-124683230D01*
X147462638Y-124674051D01*
X147482850Y-124666819D01*
X147503674Y-124661603D01*
X147524909Y-124658453D01*
X147546350Y-124657400D01*
X148058850Y-124657400D01*
X148080291Y-124658453D01*
X148080291Y-124658453D01*
G37*
D16*
X147802600Y-125094900D03*
D15*
G36*
X148080291Y-126233453D02*
G01*
X148101526Y-126236603D01*
X148122350Y-126241819D01*
X148142562Y-126249051D01*
X148161968Y-126258230D01*
X148180381Y-126269266D01*
X148197624Y-126282054D01*
X148213530Y-126296470D01*
X148227946Y-126312376D01*
X148240734Y-126329619D01*
X148251770Y-126348032D01*
X148260949Y-126367438D01*
X148268181Y-126387650D01*
X148273397Y-126408474D01*
X148276547Y-126429709D01*
X148277600Y-126451150D01*
X148277600Y-126888650D01*
X148276547Y-126910091D01*
X148273397Y-126931326D01*
X148268181Y-126952150D01*
X148260949Y-126972362D01*
X148251770Y-126991768D01*
X148240734Y-127010181D01*
X148227946Y-127027424D01*
X148213530Y-127043330D01*
X148197624Y-127057746D01*
X148180381Y-127070534D01*
X148161968Y-127081570D01*
X148142562Y-127090749D01*
X148122350Y-127097981D01*
X148101526Y-127103197D01*
X148080291Y-127106347D01*
X148058850Y-127107400D01*
X147546350Y-127107400D01*
X147524909Y-127106347D01*
X147503674Y-127103197D01*
X147482850Y-127097981D01*
X147462638Y-127090749D01*
X147443232Y-127081570D01*
X147424819Y-127070534D01*
X147407576Y-127057746D01*
X147391670Y-127043330D01*
X147377254Y-127027424D01*
X147364466Y-127010181D01*
X147353430Y-126991768D01*
X147344251Y-126972362D01*
X147337019Y-126952150D01*
X147331803Y-126931326D01*
X147328653Y-126910091D01*
X147327600Y-126888650D01*
X147327600Y-126451150D01*
X147328653Y-126429709D01*
X147331803Y-126408474D01*
X147337019Y-126387650D01*
X147344251Y-126367438D01*
X147353430Y-126348032D01*
X147364466Y-126329619D01*
X147377254Y-126312376D01*
X147391670Y-126296470D01*
X147407576Y-126282054D01*
X147424819Y-126269266D01*
X147443232Y-126258230D01*
X147462638Y-126249051D01*
X147482850Y-126241819D01*
X147503674Y-126236603D01*
X147524909Y-126233453D01*
X147546350Y-126232400D01*
X148058850Y-126232400D01*
X148080291Y-126233453D01*
X148080291Y-126233453D01*
G37*
D16*
X147802600Y-126669900D03*
D15*
G36*
X148080291Y-119375453D02*
G01*
X148101526Y-119378603D01*
X148122350Y-119383819D01*
X148142562Y-119391051D01*
X148161968Y-119400230D01*
X148180381Y-119411266D01*
X148197624Y-119424054D01*
X148213530Y-119438470D01*
X148227946Y-119454376D01*
X148240734Y-119471619D01*
X148251770Y-119490032D01*
X148260949Y-119509438D01*
X148268181Y-119529650D01*
X148273397Y-119550474D01*
X148276547Y-119571709D01*
X148277600Y-119593150D01*
X148277600Y-120030650D01*
X148276547Y-120052091D01*
X148273397Y-120073326D01*
X148268181Y-120094150D01*
X148260949Y-120114362D01*
X148251770Y-120133768D01*
X148240734Y-120152181D01*
X148227946Y-120169424D01*
X148213530Y-120185330D01*
X148197624Y-120199746D01*
X148180381Y-120212534D01*
X148161968Y-120223570D01*
X148142562Y-120232749D01*
X148122350Y-120239981D01*
X148101526Y-120245197D01*
X148080291Y-120248347D01*
X148058850Y-120249400D01*
X147546350Y-120249400D01*
X147524909Y-120248347D01*
X147503674Y-120245197D01*
X147482850Y-120239981D01*
X147462638Y-120232749D01*
X147443232Y-120223570D01*
X147424819Y-120212534D01*
X147407576Y-120199746D01*
X147391670Y-120185330D01*
X147377254Y-120169424D01*
X147364466Y-120152181D01*
X147353430Y-120133768D01*
X147344251Y-120114362D01*
X147337019Y-120094150D01*
X147331803Y-120073326D01*
X147328653Y-120052091D01*
X147327600Y-120030650D01*
X147327600Y-119593150D01*
X147328653Y-119571709D01*
X147331803Y-119550474D01*
X147337019Y-119529650D01*
X147344251Y-119509438D01*
X147353430Y-119490032D01*
X147364466Y-119471619D01*
X147377254Y-119454376D01*
X147391670Y-119438470D01*
X147407576Y-119424054D01*
X147424819Y-119411266D01*
X147443232Y-119400230D01*
X147462638Y-119391051D01*
X147482850Y-119383819D01*
X147503674Y-119378603D01*
X147524909Y-119375453D01*
X147546350Y-119374400D01*
X148058850Y-119374400D01*
X148080291Y-119375453D01*
X148080291Y-119375453D01*
G37*
D16*
X147802600Y-119811900D03*
D15*
G36*
X148080291Y-117800453D02*
G01*
X148101526Y-117803603D01*
X148122350Y-117808819D01*
X148142562Y-117816051D01*
X148161968Y-117825230D01*
X148180381Y-117836266D01*
X148197624Y-117849054D01*
X148213530Y-117863470D01*
X148227946Y-117879376D01*
X148240734Y-117896619D01*
X148251770Y-117915032D01*
X148260949Y-117934438D01*
X148268181Y-117954650D01*
X148273397Y-117975474D01*
X148276547Y-117996709D01*
X148277600Y-118018150D01*
X148277600Y-118455650D01*
X148276547Y-118477091D01*
X148273397Y-118498326D01*
X148268181Y-118519150D01*
X148260949Y-118539362D01*
X148251770Y-118558768D01*
X148240734Y-118577181D01*
X148227946Y-118594424D01*
X148213530Y-118610330D01*
X148197624Y-118624746D01*
X148180381Y-118637534D01*
X148161968Y-118648570D01*
X148142562Y-118657749D01*
X148122350Y-118664981D01*
X148101526Y-118670197D01*
X148080291Y-118673347D01*
X148058850Y-118674400D01*
X147546350Y-118674400D01*
X147524909Y-118673347D01*
X147503674Y-118670197D01*
X147482850Y-118664981D01*
X147462638Y-118657749D01*
X147443232Y-118648570D01*
X147424819Y-118637534D01*
X147407576Y-118624746D01*
X147391670Y-118610330D01*
X147377254Y-118594424D01*
X147364466Y-118577181D01*
X147353430Y-118558768D01*
X147344251Y-118539362D01*
X147337019Y-118519150D01*
X147331803Y-118498326D01*
X147328653Y-118477091D01*
X147327600Y-118455650D01*
X147327600Y-118018150D01*
X147328653Y-117996709D01*
X147331803Y-117975474D01*
X147337019Y-117954650D01*
X147344251Y-117934438D01*
X147353430Y-117915032D01*
X147364466Y-117896619D01*
X147377254Y-117879376D01*
X147391670Y-117863470D01*
X147407576Y-117849054D01*
X147424819Y-117836266D01*
X147443232Y-117825230D01*
X147462638Y-117816051D01*
X147482850Y-117808819D01*
X147503674Y-117803603D01*
X147524909Y-117800453D01*
X147546350Y-117799400D01*
X148058850Y-117799400D01*
X148080291Y-117800453D01*
X148080291Y-117800453D01*
G37*
D16*
X147802600Y-118236900D03*
D15*
G36*
X143699491Y-114918253D02*
G01*
X143720726Y-114921403D01*
X143741550Y-114926619D01*
X143761762Y-114933851D01*
X143781168Y-114943030D01*
X143799581Y-114954066D01*
X143816824Y-114966854D01*
X143832730Y-114981270D01*
X143847146Y-114997176D01*
X143859934Y-115014419D01*
X143870970Y-115032832D01*
X143880149Y-115052238D01*
X143887381Y-115072450D01*
X143892597Y-115093274D01*
X143895747Y-115114509D01*
X143896800Y-115135950D01*
X143896800Y-115648450D01*
X143895747Y-115669891D01*
X143892597Y-115691126D01*
X143887381Y-115711950D01*
X143880149Y-115732162D01*
X143870970Y-115751568D01*
X143859934Y-115769981D01*
X143847146Y-115787224D01*
X143832730Y-115803130D01*
X143816824Y-115817546D01*
X143799581Y-115830334D01*
X143781168Y-115841370D01*
X143761762Y-115850549D01*
X143741550Y-115857781D01*
X143720726Y-115862997D01*
X143699491Y-115866147D01*
X143678050Y-115867200D01*
X143240550Y-115867200D01*
X143219109Y-115866147D01*
X143197874Y-115862997D01*
X143177050Y-115857781D01*
X143156838Y-115850549D01*
X143137432Y-115841370D01*
X143119019Y-115830334D01*
X143101776Y-115817546D01*
X143085870Y-115803130D01*
X143071454Y-115787224D01*
X143058666Y-115769981D01*
X143047630Y-115751568D01*
X143038451Y-115732162D01*
X143031219Y-115711950D01*
X143026003Y-115691126D01*
X143022853Y-115669891D01*
X143021800Y-115648450D01*
X143021800Y-115135950D01*
X143022853Y-115114509D01*
X143026003Y-115093274D01*
X143031219Y-115072450D01*
X143038451Y-115052238D01*
X143047630Y-115032832D01*
X143058666Y-115014419D01*
X143071454Y-114997176D01*
X143085870Y-114981270D01*
X143101776Y-114966854D01*
X143119019Y-114954066D01*
X143137432Y-114943030D01*
X143156838Y-114933851D01*
X143177050Y-114926619D01*
X143197874Y-114921403D01*
X143219109Y-114918253D01*
X143240550Y-114917200D01*
X143678050Y-114917200D01*
X143699491Y-114918253D01*
X143699491Y-114918253D01*
G37*
D16*
X143459300Y-115392200D03*
D15*
G36*
X142124491Y-114918253D02*
G01*
X142145726Y-114921403D01*
X142166550Y-114926619D01*
X142186762Y-114933851D01*
X142206168Y-114943030D01*
X142224581Y-114954066D01*
X142241824Y-114966854D01*
X142257730Y-114981270D01*
X142272146Y-114997176D01*
X142284934Y-115014419D01*
X142295970Y-115032832D01*
X142305149Y-115052238D01*
X142312381Y-115072450D01*
X142317597Y-115093274D01*
X142320747Y-115114509D01*
X142321800Y-115135950D01*
X142321800Y-115648450D01*
X142320747Y-115669891D01*
X142317597Y-115691126D01*
X142312381Y-115711950D01*
X142305149Y-115732162D01*
X142295970Y-115751568D01*
X142284934Y-115769981D01*
X142272146Y-115787224D01*
X142257730Y-115803130D01*
X142241824Y-115817546D01*
X142224581Y-115830334D01*
X142206168Y-115841370D01*
X142186762Y-115850549D01*
X142166550Y-115857781D01*
X142145726Y-115862997D01*
X142124491Y-115866147D01*
X142103050Y-115867200D01*
X141665550Y-115867200D01*
X141644109Y-115866147D01*
X141622874Y-115862997D01*
X141602050Y-115857781D01*
X141581838Y-115850549D01*
X141562432Y-115841370D01*
X141544019Y-115830334D01*
X141526776Y-115817546D01*
X141510870Y-115803130D01*
X141496454Y-115787224D01*
X141483666Y-115769981D01*
X141472630Y-115751568D01*
X141463451Y-115732162D01*
X141456219Y-115711950D01*
X141451003Y-115691126D01*
X141447853Y-115669891D01*
X141446800Y-115648450D01*
X141446800Y-115135950D01*
X141447853Y-115114509D01*
X141451003Y-115093274D01*
X141456219Y-115072450D01*
X141463451Y-115052238D01*
X141472630Y-115032832D01*
X141483666Y-115014419D01*
X141496454Y-114997176D01*
X141510870Y-114981270D01*
X141526776Y-114966854D01*
X141544019Y-114954066D01*
X141562432Y-114943030D01*
X141581838Y-114933851D01*
X141602050Y-114926619D01*
X141622874Y-114921403D01*
X141644109Y-114918253D01*
X141665550Y-114917200D01*
X142103050Y-114917200D01*
X142124491Y-114918253D01*
X142124491Y-114918253D01*
G37*
D16*
X141884300Y-115392200D03*
D15*
G36*
X143760492Y-116691254D02*
G01*
X143781727Y-116694404D01*
X143802551Y-116699620D01*
X143822763Y-116706852D01*
X143842169Y-116716031D01*
X143860582Y-116727067D01*
X143877825Y-116739855D01*
X143893731Y-116754271D01*
X143908147Y-116770177D01*
X143920935Y-116787420D01*
X143931971Y-116805833D01*
X143941150Y-116825239D01*
X143948382Y-116845451D01*
X143953598Y-116866275D01*
X143956748Y-116887510D01*
X143957801Y-116908951D01*
X143957801Y-117421451D01*
X143956748Y-117442892D01*
X143953598Y-117464127D01*
X143948382Y-117484951D01*
X143941150Y-117505163D01*
X143931971Y-117524569D01*
X143920935Y-117542982D01*
X143908147Y-117560225D01*
X143893731Y-117576131D01*
X143877825Y-117590547D01*
X143860582Y-117603335D01*
X143842169Y-117614371D01*
X143822763Y-117623550D01*
X143802551Y-117630782D01*
X143781727Y-117635998D01*
X143760492Y-117639148D01*
X143739051Y-117640201D01*
X143301551Y-117640201D01*
X143280110Y-117639148D01*
X143258875Y-117635998D01*
X143238051Y-117630782D01*
X143217839Y-117623550D01*
X143198433Y-117614371D01*
X143180020Y-117603335D01*
X143162777Y-117590547D01*
X143146871Y-117576131D01*
X143132455Y-117560225D01*
X143119667Y-117542982D01*
X143108631Y-117524569D01*
X143099452Y-117505163D01*
X143092220Y-117484951D01*
X143087004Y-117464127D01*
X143083854Y-117442892D01*
X143082801Y-117421451D01*
X143082801Y-116908951D01*
X143083854Y-116887510D01*
X143087004Y-116866275D01*
X143092220Y-116845451D01*
X143099452Y-116825239D01*
X143108631Y-116805833D01*
X143119667Y-116787420D01*
X143132455Y-116770177D01*
X143146871Y-116754271D01*
X143162777Y-116739855D01*
X143180020Y-116727067D01*
X143198433Y-116716031D01*
X143217839Y-116706852D01*
X143238051Y-116699620D01*
X143258875Y-116694404D01*
X143280110Y-116691254D01*
X143301551Y-116690201D01*
X143739051Y-116690201D01*
X143760492Y-116691254D01*
X143760492Y-116691254D01*
G37*
D16*
X143520301Y-117165201D03*
D15*
G36*
X142185492Y-116691254D02*
G01*
X142206727Y-116694404D01*
X142227551Y-116699620D01*
X142247763Y-116706852D01*
X142267169Y-116716031D01*
X142285582Y-116727067D01*
X142302825Y-116739855D01*
X142318731Y-116754271D01*
X142333147Y-116770177D01*
X142345935Y-116787420D01*
X142356971Y-116805833D01*
X142366150Y-116825239D01*
X142373382Y-116845451D01*
X142378598Y-116866275D01*
X142381748Y-116887510D01*
X142382801Y-116908951D01*
X142382801Y-117421451D01*
X142381748Y-117442892D01*
X142378598Y-117464127D01*
X142373382Y-117484951D01*
X142366150Y-117505163D01*
X142356971Y-117524569D01*
X142345935Y-117542982D01*
X142333147Y-117560225D01*
X142318731Y-117576131D01*
X142302825Y-117590547D01*
X142285582Y-117603335D01*
X142267169Y-117614371D01*
X142247763Y-117623550D01*
X142227551Y-117630782D01*
X142206727Y-117635998D01*
X142185492Y-117639148D01*
X142164051Y-117640201D01*
X141726551Y-117640201D01*
X141705110Y-117639148D01*
X141683875Y-117635998D01*
X141663051Y-117630782D01*
X141642839Y-117623550D01*
X141623433Y-117614371D01*
X141605020Y-117603335D01*
X141587777Y-117590547D01*
X141571871Y-117576131D01*
X141557455Y-117560225D01*
X141544667Y-117542982D01*
X141533631Y-117524569D01*
X141524452Y-117505163D01*
X141517220Y-117484951D01*
X141512004Y-117464127D01*
X141508854Y-117442892D01*
X141507801Y-117421451D01*
X141507801Y-116908951D01*
X141508854Y-116887510D01*
X141512004Y-116866275D01*
X141517220Y-116845451D01*
X141524452Y-116825239D01*
X141533631Y-116805833D01*
X141544667Y-116787420D01*
X141557455Y-116770177D01*
X141571871Y-116754271D01*
X141587777Y-116739855D01*
X141605020Y-116727067D01*
X141623433Y-116716031D01*
X141642839Y-116706852D01*
X141663051Y-116699620D01*
X141683875Y-116694404D01*
X141705110Y-116691254D01*
X141726551Y-116690201D01*
X142164051Y-116690201D01*
X142185492Y-116691254D01*
X142185492Y-116691254D01*
G37*
D16*
X141945301Y-117165201D03*
D15*
G36*
X108430891Y-144521253D02*
G01*
X108452126Y-144524403D01*
X108472950Y-144529619D01*
X108493162Y-144536851D01*
X108512568Y-144546030D01*
X108530981Y-144557066D01*
X108548224Y-144569854D01*
X108564130Y-144584270D01*
X108578546Y-144600176D01*
X108591334Y-144617419D01*
X108602370Y-144635832D01*
X108611549Y-144655238D01*
X108618781Y-144675450D01*
X108623997Y-144696274D01*
X108627147Y-144717509D01*
X108628200Y-144738950D01*
X108628200Y-145176450D01*
X108627147Y-145197891D01*
X108623997Y-145219126D01*
X108618781Y-145239950D01*
X108611549Y-145260162D01*
X108602370Y-145279568D01*
X108591334Y-145297981D01*
X108578546Y-145315224D01*
X108564130Y-145331130D01*
X108548224Y-145345546D01*
X108530981Y-145358334D01*
X108512568Y-145369370D01*
X108493162Y-145378549D01*
X108472950Y-145385781D01*
X108452126Y-145390997D01*
X108430891Y-145394147D01*
X108409450Y-145395200D01*
X107896950Y-145395200D01*
X107875509Y-145394147D01*
X107854274Y-145390997D01*
X107833450Y-145385781D01*
X107813238Y-145378549D01*
X107793832Y-145369370D01*
X107775419Y-145358334D01*
X107758176Y-145345546D01*
X107742270Y-145331130D01*
X107727854Y-145315224D01*
X107715066Y-145297981D01*
X107704030Y-145279568D01*
X107694851Y-145260162D01*
X107687619Y-145239950D01*
X107682403Y-145219126D01*
X107679253Y-145197891D01*
X107678200Y-145176450D01*
X107678200Y-144738950D01*
X107679253Y-144717509D01*
X107682403Y-144696274D01*
X107687619Y-144675450D01*
X107694851Y-144655238D01*
X107704030Y-144635832D01*
X107715066Y-144617419D01*
X107727854Y-144600176D01*
X107742270Y-144584270D01*
X107758176Y-144569854D01*
X107775419Y-144557066D01*
X107793832Y-144546030D01*
X107813238Y-144536851D01*
X107833450Y-144529619D01*
X107854274Y-144524403D01*
X107875509Y-144521253D01*
X107896950Y-144520200D01*
X108409450Y-144520200D01*
X108430891Y-144521253D01*
X108430891Y-144521253D01*
G37*
D16*
X108153200Y-144957700D03*
D15*
G36*
X108430891Y-146096253D02*
G01*
X108452126Y-146099403D01*
X108472950Y-146104619D01*
X108493162Y-146111851D01*
X108512568Y-146121030D01*
X108530981Y-146132066D01*
X108548224Y-146144854D01*
X108564130Y-146159270D01*
X108578546Y-146175176D01*
X108591334Y-146192419D01*
X108602370Y-146210832D01*
X108611549Y-146230238D01*
X108618781Y-146250450D01*
X108623997Y-146271274D01*
X108627147Y-146292509D01*
X108628200Y-146313950D01*
X108628200Y-146751450D01*
X108627147Y-146772891D01*
X108623997Y-146794126D01*
X108618781Y-146814950D01*
X108611549Y-146835162D01*
X108602370Y-146854568D01*
X108591334Y-146872981D01*
X108578546Y-146890224D01*
X108564130Y-146906130D01*
X108548224Y-146920546D01*
X108530981Y-146933334D01*
X108512568Y-146944370D01*
X108493162Y-146953549D01*
X108472950Y-146960781D01*
X108452126Y-146965997D01*
X108430891Y-146969147D01*
X108409450Y-146970200D01*
X107896950Y-146970200D01*
X107875509Y-146969147D01*
X107854274Y-146965997D01*
X107833450Y-146960781D01*
X107813238Y-146953549D01*
X107793832Y-146944370D01*
X107775419Y-146933334D01*
X107758176Y-146920546D01*
X107742270Y-146906130D01*
X107727854Y-146890224D01*
X107715066Y-146872981D01*
X107704030Y-146854568D01*
X107694851Y-146835162D01*
X107687619Y-146814950D01*
X107682403Y-146794126D01*
X107679253Y-146772891D01*
X107678200Y-146751450D01*
X107678200Y-146313950D01*
X107679253Y-146292509D01*
X107682403Y-146271274D01*
X107687619Y-146250450D01*
X107694851Y-146230238D01*
X107704030Y-146210832D01*
X107715066Y-146192419D01*
X107727854Y-146175176D01*
X107742270Y-146159270D01*
X107758176Y-146144854D01*
X107775419Y-146132066D01*
X107793832Y-146121030D01*
X107813238Y-146111851D01*
X107833450Y-146104619D01*
X107854274Y-146099403D01*
X107875509Y-146096253D01*
X107896950Y-146095200D01*
X108409450Y-146095200D01*
X108430891Y-146096253D01*
X108430891Y-146096253D01*
G37*
D16*
X108153200Y-146532700D03*
D15*
G36*
X179906491Y-100706153D02*
G01*
X179927726Y-100709303D01*
X179948550Y-100714519D01*
X179968762Y-100721751D01*
X179988168Y-100730930D01*
X180006581Y-100741966D01*
X180023824Y-100754754D01*
X180039730Y-100769170D01*
X180054146Y-100785076D01*
X180066934Y-100802319D01*
X180077970Y-100820732D01*
X180087149Y-100840138D01*
X180094381Y-100860350D01*
X180099597Y-100881174D01*
X180102747Y-100902409D01*
X180103800Y-100923850D01*
X180103800Y-101361350D01*
X180102747Y-101382791D01*
X180099597Y-101404026D01*
X180094381Y-101424850D01*
X180087149Y-101445062D01*
X180077970Y-101464468D01*
X180066934Y-101482881D01*
X180054146Y-101500124D01*
X180039730Y-101516030D01*
X180023824Y-101530446D01*
X180006581Y-101543234D01*
X179988168Y-101554270D01*
X179968762Y-101563449D01*
X179948550Y-101570681D01*
X179927726Y-101575897D01*
X179906491Y-101579047D01*
X179885050Y-101580100D01*
X179372550Y-101580100D01*
X179351109Y-101579047D01*
X179329874Y-101575897D01*
X179309050Y-101570681D01*
X179288838Y-101563449D01*
X179269432Y-101554270D01*
X179251019Y-101543234D01*
X179233776Y-101530446D01*
X179217870Y-101516030D01*
X179203454Y-101500124D01*
X179190666Y-101482881D01*
X179179630Y-101464468D01*
X179170451Y-101445062D01*
X179163219Y-101424850D01*
X179158003Y-101404026D01*
X179154853Y-101382791D01*
X179153800Y-101361350D01*
X179153800Y-100923850D01*
X179154853Y-100902409D01*
X179158003Y-100881174D01*
X179163219Y-100860350D01*
X179170451Y-100840138D01*
X179179630Y-100820732D01*
X179190666Y-100802319D01*
X179203454Y-100785076D01*
X179217870Y-100769170D01*
X179233776Y-100754754D01*
X179251019Y-100741966D01*
X179269432Y-100730930D01*
X179288838Y-100721751D01*
X179309050Y-100714519D01*
X179329874Y-100709303D01*
X179351109Y-100706153D01*
X179372550Y-100705100D01*
X179885050Y-100705100D01*
X179906491Y-100706153D01*
X179906491Y-100706153D01*
G37*
D16*
X179628800Y-101142600D03*
D15*
G36*
X179906491Y-102281153D02*
G01*
X179927726Y-102284303D01*
X179948550Y-102289519D01*
X179968762Y-102296751D01*
X179988168Y-102305930D01*
X180006581Y-102316966D01*
X180023824Y-102329754D01*
X180039730Y-102344170D01*
X180054146Y-102360076D01*
X180066934Y-102377319D01*
X180077970Y-102395732D01*
X180087149Y-102415138D01*
X180094381Y-102435350D01*
X180099597Y-102456174D01*
X180102747Y-102477409D01*
X180103800Y-102498850D01*
X180103800Y-102936350D01*
X180102747Y-102957791D01*
X180099597Y-102979026D01*
X180094381Y-102999850D01*
X180087149Y-103020062D01*
X180077970Y-103039468D01*
X180066934Y-103057881D01*
X180054146Y-103075124D01*
X180039730Y-103091030D01*
X180023824Y-103105446D01*
X180006581Y-103118234D01*
X179988168Y-103129270D01*
X179968762Y-103138449D01*
X179948550Y-103145681D01*
X179927726Y-103150897D01*
X179906491Y-103154047D01*
X179885050Y-103155100D01*
X179372550Y-103155100D01*
X179351109Y-103154047D01*
X179329874Y-103150897D01*
X179309050Y-103145681D01*
X179288838Y-103138449D01*
X179269432Y-103129270D01*
X179251019Y-103118234D01*
X179233776Y-103105446D01*
X179217870Y-103091030D01*
X179203454Y-103075124D01*
X179190666Y-103057881D01*
X179179630Y-103039468D01*
X179170451Y-103020062D01*
X179163219Y-102999850D01*
X179158003Y-102979026D01*
X179154853Y-102957791D01*
X179153800Y-102936350D01*
X179153800Y-102498850D01*
X179154853Y-102477409D01*
X179158003Y-102456174D01*
X179163219Y-102435350D01*
X179170451Y-102415138D01*
X179179630Y-102395732D01*
X179190666Y-102377319D01*
X179203454Y-102360076D01*
X179217870Y-102344170D01*
X179233776Y-102329754D01*
X179251019Y-102316966D01*
X179269432Y-102305930D01*
X179288838Y-102296751D01*
X179309050Y-102289519D01*
X179329874Y-102284303D01*
X179351109Y-102281153D01*
X179372550Y-102280100D01*
X179885050Y-102280100D01*
X179906491Y-102281153D01*
X179906491Y-102281153D01*
G37*
D16*
X179628800Y-102717600D03*
D15*
G36*
X179906491Y-105354653D02*
G01*
X179927726Y-105357803D01*
X179948550Y-105363019D01*
X179968762Y-105370251D01*
X179988168Y-105379430D01*
X180006581Y-105390466D01*
X180023824Y-105403254D01*
X180039730Y-105417670D01*
X180054146Y-105433576D01*
X180066934Y-105450819D01*
X180077970Y-105469232D01*
X180087149Y-105488638D01*
X180094381Y-105508850D01*
X180099597Y-105529674D01*
X180102747Y-105550909D01*
X180103800Y-105572350D01*
X180103800Y-106009850D01*
X180102747Y-106031291D01*
X180099597Y-106052526D01*
X180094381Y-106073350D01*
X180087149Y-106093562D01*
X180077970Y-106112968D01*
X180066934Y-106131381D01*
X180054146Y-106148624D01*
X180039730Y-106164530D01*
X180023824Y-106178946D01*
X180006581Y-106191734D01*
X179988168Y-106202770D01*
X179968762Y-106211949D01*
X179948550Y-106219181D01*
X179927726Y-106224397D01*
X179906491Y-106227547D01*
X179885050Y-106228600D01*
X179372550Y-106228600D01*
X179351109Y-106227547D01*
X179329874Y-106224397D01*
X179309050Y-106219181D01*
X179288838Y-106211949D01*
X179269432Y-106202770D01*
X179251019Y-106191734D01*
X179233776Y-106178946D01*
X179217870Y-106164530D01*
X179203454Y-106148624D01*
X179190666Y-106131381D01*
X179179630Y-106112968D01*
X179170451Y-106093562D01*
X179163219Y-106073350D01*
X179158003Y-106052526D01*
X179154853Y-106031291D01*
X179153800Y-106009850D01*
X179153800Y-105572350D01*
X179154853Y-105550909D01*
X179158003Y-105529674D01*
X179163219Y-105508850D01*
X179170451Y-105488638D01*
X179179630Y-105469232D01*
X179190666Y-105450819D01*
X179203454Y-105433576D01*
X179217870Y-105417670D01*
X179233776Y-105403254D01*
X179251019Y-105390466D01*
X179269432Y-105379430D01*
X179288838Y-105370251D01*
X179309050Y-105363019D01*
X179329874Y-105357803D01*
X179351109Y-105354653D01*
X179372550Y-105353600D01*
X179885050Y-105353600D01*
X179906491Y-105354653D01*
X179906491Y-105354653D01*
G37*
D16*
X179628800Y-105791100D03*
D15*
G36*
X179906491Y-103779653D02*
G01*
X179927726Y-103782803D01*
X179948550Y-103788019D01*
X179968762Y-103795251D01*
X179988168Y-103804430D01*
X180006581Y-103815466D01*
X180023824Y-103828254D01*
X180039730Y-103842670D01*
X180054146Y-103858576D01*
X180066934Y-103875819D01*
X180077970Y-103894232D01*
X180087149Y-103913638D01*
X180094381Y-103933850D01*
X180099597Y-103954674D01*
X180102747Y-103975909D01*
X180103800Y-103997350D01*
X180103800Y-104434850D01*
X180102747Y-104456291D01*
X180099597Y-104477526D01*
X180094381Y-104498350D01*
X180087149Y-104518562D01*
X180077970Y-104537968D01*
X180066934Y-104556381D01*
X180054146Y-104573624D01*
X180039730Y-104589530D01*
X180023824Y-104603946D01*
X180006581Y-104616734D01*
X179988168Y-104627770D01*
X179968762Y-104636949D01*
X179948550Y-104644181D01*
X179927726Y-104649397D01*
X179906491Y-104652547D01*
X179885050Y-104653600D01*
X179372550Y-104653600D01*
X179351109Y-104652547D01*
X179329874Y-104649397D01*
X179309050Y-104644181D01*
X179288838Y-104636949D01*
X179269432Y-104627770D01*
X179251019Y-104616734D01*
X179233776Y-104603946D01*
X179217870Y-104589530D01*
X179203454Y-104573624D01*
X179190666Y-104556381D01*
X179179630Y-104537968D01*
X179170451Y-104518562D01*
X179163219Y-104498350D01*
X179158003Y-104477526D01*
X179154853Y-104456291D01*
X179153800Y-104434850D01*
X179153800Y-103997350D01*
X179154853Y-103975909D01*
X179158003Y-103954674D01*
X179163219Y-103933850D01*
X179170451Y-103913638D01*
X179179630Y-103894232D01*
X179190666Y-103875819D01*
X179203454Y-103858576D01*
X179217870Y-103842670D01*
X179233776Y-103828254D01*
X179251019Y-103815466D01*
X179269432Y-103804430D01*
X179288838Y-103795251D01*
X179309050Y-103788019D01*
X179329874Y-103782803D01*
X179351109Y-103779653D01*
X179372550Y-103778600D01*
X179885050Y-103778600D01*
X179906491Y-103779653D01*
X179906491Y-103779653D01*
G37*
D16*
X179628800Y-104216100D03*
D15*
G36*
X165441891Y-131758453D02*
G01*
X165463126Y-131761603D01*
X165483950Y-131766819D01*
X165504162Y-131774051D01*
X165523568Y-131783230D01*
X165541981Y-131794266D01*
X165559224Y-131807054D01*
X165575130Y-131821470D01*
X165589546Y-131837376D01*
X165602334Y-131854619D01*
X165613370Y-131873032D01*
X165622549Y-131892438D01*
X165629781Y-131912650D01*
X165634997Y-131933474D01*
X165638147Y-131954709D01*
X165639200Y-131976150D01*
X165639200Y-132488650D01*
X165638147Y-132510091D01*
X165634997Y-132531326D01*
X165629781Y-132552150D01*
X165622549Y-132572362D01*
X165613370Y-132591768D01*
X165602334Y-132610181D01*
X165589546Y-132627424D01*
X165575130Y-132643330D01*
X165559224Y-132657746D01*
X165541981Y-132670534D01*
X165523568Y-132681570D01*
X165504162Y-132690749D01*
X165483950Y-132697981D01*
X165463126Y-132703197D01*
X165441891Y-132706347D01*
X165420450Y-132707400D01*
X164982950Y-132707400D01*
X164961509Y-132706347D01*
X164940274Y-132703197D01*
X164919450Y-132697981D01*
X164899238Y-132690749D01*
X164879832Y-132681570D01*
X164861419Y-132670534D01*
X164844176Y-132657746D01*
X164828270Y-132643330D01*
X164813854Y-132627424D01*
X164801066Y-132610181D01*
X164790030Y-132591768D01*
X164780851Y-132572362D01*
X164773619Y-132552150D01*
X164768403Y-132531326D01*
X164765253Y-132510091D01*
X164764200Y-132488650D01*
X164764200Y-131976150D01*
X164765253Y-131954709D01*
X164768403Y-131933474D01*
X164773619Y-131912650D01*
X164780851Y-131892438D01*
X164790030Y-131873032D01*
X164801066Y-131854619D01*
X164813854Y-131837376D01*
X164828270Y-131821470D01*
X164844176Y-131807054D01*
X164861419Y-131794266D01*
X164879832Y-131783230D01*
X164899238Y-131774051D01*
X164919450Y-131766819D01*
X164940274Y-131761603D01*
X164961509Y-131758453D01*
X164982950Y-131757400D01*
X165420450Y-131757400D01*
X165441891Y-131758453D01*
X165441891Y-131758453D01*
G37*
D16*
X165201700Y-132232400D03*
D15*
G36*
X163866891Y-131758453D02*
G01*
X163888126Y-131761603D01*
X163908950Y-131766819D01*
X163929162Y-131774051D01*
X163948568Y-131783230D01*
X163966981Y-131794266D01*
X163984224Y-131807054D01*
X164000130Y-131821470D01*
X164014546Y-131837376D01*
X164027334Y-131854619D01*
X164038370Y-131873032D01*
X164047549Y-131892438D01*
X164054781Y-131912650D01*
X164059997Y-131933474D01*
X164063147Y-131954709D01*
X164064200Y-131976150D01*
X164064200Y-132488650D01*
X164063147Y-132510091D01*
X164059997Y-132531326D01*
X164054781Y-132552150D01*
X164047549Y-132572362D01*
X164038370Y-132591768D01*
X164027334Y-132610181D01*
X164014546Y-132627424D01*
X164000130Y-132643330D01*
X163984224Y-132657746D01*
X163966981Y-132670534D01*
X163948568Y-132681570D01*
X163929162Y-132690749D01*
X163908950Y-132697981D01*
X163888126Y-132703197D01*
X163866891Y-132706347D01*
X163845450Y-132707400D01*
X163407950Y-132707400D01*
X163386509Y-132706347D01*
X163365274Y-132703197D01*
X163344450Y-132697981D01*
X163324238Y-132690749D01*
X163304832Y-132681570D01*
X163286419Y-132670534D01*
X163269176Y-132657746D01*
X163253270Y-132643330D01*
X163238854Y-132627424D01*
X163226066Y-132610181D01*
X163215030Y-132591768D01*
X163205851Y-132572362D01*
X163198619Y-132552150D01*
X163193403Y-132531326D01*
X163190253Y-132510091D01*
X163189200Y-132488650D01*
X163189200Y-131976150D01*
X163190253Y-131954709D01*
X163193403Y-131933474D01*
X163198619Y-131912650D01*
X163205851Y-131892438D01*
X163215030Y-131873032D01*
X163226066Y-131854619D01*
X163238854Y-131837376D01*
X163253270Y-131821470D01*
X163269176Y-131807054D01*
X163286419Y-131794266D01*
X163304832Y-131783230D01*
X163324238Y-131774051D01*
X163344450Y-131766819D01*
X163365274Y-131761603D01*
X163386509Y-131758453D01*
X163407950Y-131757400D01*
X163845450Y-131757400D01*
X163866891Y-131758453D01*
X163866891Y-131758453D01*
G37*
D16*
X163626700Y-132232400D03*
D15*
G36*
X173239691Y-131809253D02*
G01*
X173260926Y-131812403D01*
X173281750Y-131817619D01*
X173301962Y-131824851D01*
X173321368Y-131834030D01*
X173339781Y-131845066D01*
X173357024Y-131857854D01*
X173372930Y-131872270D01*
X173387346Y-131888176D01*
X173400134Y-131905419D01*
X173411170Y-131923832D01*
X173420349Y-131943238D01*
X173427581Y-131963450D01*
X173432797Y-131984274D01*
X173435947Y-132005509D01*
X173437000Y-132026950D01*
X173437000Y-132539450D01*
X173435947Y-132560891D01*
X173432797Y-132582126D01*
X173427581Y-132602950D01*
X173420349Y-132623162D01*
X173411170Y-132642568D01*
X173400134Y-132660981D01*
X173387346Y-132678224D01*
X173372930Y-132694130D01*
X173357024Y-132708546D01*
X173339781Y-132721334D01*
X173321368Y-132732370D01*
X173301962Y-132741549D01*
X173281750Y-132748781D01*
X173260926Y-132753997D01*
X173239691Y-132757147D01*
X173218250Y-132758200D01*
X172780750Y-132758200D01*
X172759309Y-132757147D01*
X172738074Y-132753997D01*
X172717250Y-132748781D01*
X172697038Y-132741549D01*
X172677632Y-132732370D01*
X172659219Y-132721334D01*
X172641976Y-132708546D01*
X172626070Y-132694130D01*
X172611654Y-132678224D01*
X172598866Y-132660981D01*
X172587830Y-132642568D01*
X172578651Y-132623162D01*
X172571419Y-132602950D01*
X172566203Y-132582126D01*
X172563053Y-132560891D01*
X172562000Y-132539450D01*
X172562000Y-132026950D01*
X172563053Y-132005509D01*
X172566203Y-131984274D01*
X172571419Y-131963450D01*
X172578651Y-131943238D01*
X172587830Y-131923832D01*
X172598866Y-131905419D01*
X172611654Y-131888176D01*
X172626070Y-131872270D01*
X172641976Y-131857854D01*
X172659219Y-131845066D01*
X172677632Y-131834030D01*
X172697038Y-131824851D01*
X172717250Y-131817619D01*
X172738074Y-131812403D01*
X172759309Y-131809253D01*
X172780750Y-131808200D01*
X173218250Y-131808200D01*
X173239691Y-131809253D01*
X173239691Y-131809253D01*
G37*
D16*
X172999500Y-132283200D03*
D15*
G36*
X171664691Y-131809253D02*
G01*
X171685926Y-131812403D01*
X171706750Y-131817619D01*
X171726962Y-131824851D01*
X171746368Y-131834030D01*
X171764781Y-131845066D01*
X171782024Y-131857854D01*
X171797930Y-131872270D01*
X171812346Y-131888176D01*
X171825134Y-131905419D01*
X171836170Y-131923832D01*
X171845349Y-131943238D01*
X171852581Y-131963450D01*
X171857797Y-131984274D01*
X171860947Y-132005509D01*
X171862000Y-132026950D01*
X171862000Y-132539450D01*
X171860947Y-132560891D01*
X171857797Y-132582126D01*
X171852581Y-132602950D01*
X171845349Y-132623162D01*
X171836170Y-132642568D01*
X171825134Y-132660981D01*
X171812346Y-132678224D01*
X171797930Y-132694130D01*
X171782024Y-132708546D01*
X171764781Y-132721334D01*
X171746368Y-132732370D01*
X171726962Y-132741549D01*
X171706750Y-132748781D01*
X171685926Y-132753997D01*
X171664691Y-132757147D01*
X171643250Y-132758200D01*
X171205750Y-132758200D01*
X171184309Y-132757147D01*
X171163074Y-132753997D01*
X171142250Y-132748781D01*
X171122038Y-132741549D01*
X171102632Y-132732370D01*
X171084219Y-132721334D01*
X171066976Y-132708546D01*
X171051070Y-132694130D01*
X171036654Y-132678224D01*
X171023866Y-132660981D01*
X171012830Y-132642568D01*
X171003651Y-132623162D01*
X170996419Y-132602950D01*
X170991203Y-132582126D01*
X170988053Y-132560891D01*
X170987000Y-132539450D01*
X170987000Y-132026950D01*
X170988053Y-132005509D01*
X170991203Y-131984274D01*
X170996419Y-131963450D01*
X171003651Y-131943238D01*
X171012830Y-131923832D01*
X171023866Y-131905419D01*
X171036654Y-131888176D01*
X171051070Y-131872270D01*
X171066976Y-131857854D01*
X171084219Y-131845066D01*
X171102632Y-131834030D01*
X171122038Y-131824851D01*
X171142250Y-131817619D01*
X171163074Y-131812403D01*
X171184309Y-131809253D01*
X171205750Y-131808200D01*
X171643250Y-131808200D01*
X171664691Y-131809253D01*
X171664691Y-131809253D01*
G37*
D16*
X171424500Y-132283200D03*
D15*
G36*
X174737991Y-131809253D02*
G01*
X174759226Y-131812403D01*
X174780050Y-131817619D01*
X174800262Y-131824851D01*
X174819668Y-131834030D01*
X174838081Y-131845066D01*
X174855324Y-131857854D01*
X174871230Y-131872270D01*
X174885646Y-131888176D01*
X174898434Y-131905419D01*
X174909470Y-131923832D01*
X174918649Y-131943238D01*
X174925881Y-131963450D01*
X174931097Y-131984274D01*
X174934247Y-132005509D01*
X174935300Y-132026950D01*
X174935300Y-132539450D01*
X174934247Y-132560891D01*
X174931097Y-132582126D01*
X174925881Y-132602950D01*
X174918649Y-132623162D01*
X174909470Y-132642568D01*
X174898434Y-132660981D01*
X174885646Y-132678224D01*
X174871230Y-132694130D01*
X174855324Y-132708546D01*
X174838081Y-132721334D01*
X174819668Y-132732370D01*
X174800262Y-132741549D01*
X174780050Y-132748781D01*
X174759226Y-132753997D01*
X174737991Y-132757147D01*
X174716550Y-132758200D01*
X174279050Y-132758200D01*
X174257609Y-132757147D01*
X174236374Y-132753997D01*
X174215550Y-132748781D01*
X174195338Y-132741549D01*
X174175932Y-132732370D01*
X174157519Y-132721334D01*
X174140276Y-132708546D01*
X174124370Y-132694130D01*
X174109954Y-132678224D01*
X174097166Y-132660981D01*
X174086130Y-132642568D01*
X174076951Y-132623162D01*
X174069719Y-132602950D01*
X174064503Y-132582126D01*
X174061353Y-132560891D01*
X174060300Y-132539450D01*
X174060300Y-132026950D01*
X174061353Y-132005509D01*
X174064503Y-131984274D01*
X174069719Y-131963450D01*
X174076951Y-131943238D01*
X174086130Y-131923832D01*
X174097166Y-131905419D01*
X174109954Y-131888176D01*
X174124370Y-131872270D01*
X174140276Y-131857854D01*
X174157519Y-131845066D01*
X174175932Y-131834030D01*
X174195338Y-131824851D01*
X174215550Y-131817619D01*
X174236374Y-131812403D01*
X174257609Y-131809253D01*
X174279050Y-131808200D01*
X174716550Y-131808200D01*
X174737991Y-131809253D01*
X174737991Y-131809253D01*
G37*
D16*
X174497800Y-132283200D03*
D15*
G36*
X176312991Y-131809253D02*
G01*
X176334226Y-131812403D01*
X176355050Y-131817619D01*
X176375262Y-131824851D01*
X176394668Y-131834030D01*
X176413081Y-131845066D01*
X176430324Y-131857854D01*
X176446230Y-131872270D01*
X176460646Y-131888176D01*
X176473434Y-131905419D01*
X176484470Y-131923832D01*
X176493649Y-131943238D01*
X176500881Y-131963450D01*
X176506097Y-131984274D01*
X176509247Y-132005509D01*
X176510300Y-132026950D01*
X176510300Y-132539450D01*
X176509247Y-132560891D01*
X176506097Y-132582126D01*
X176500881Y-132602950D01*
X176493649Y-132623162D01*
X176484470Y-132642568D01*
X176473434Y-132660981D01*
X176460646Y-132678224D01*
X176446230Y-132694130D01*
X176430324Y-132708546D01*
X176413081Y-132721334D01*
X176394668Y-132732370D01*
X176375262Y-132741549D01*
X176355050Y-132748781D01*
X176334226Y-132753997D01*
X176312991Y-132757147D01*
X176291550Y-132758200D01*
X175854050Y-132758200D01*
X175832609Y-132757147D01*
X175811374Y-132753997D01*
X175790550Y-132748781D01*
X175770338Y-132741549D01*
X175750932Y-132732370D01*
X175732519Y-132721334D01*
X175715276Y-132708546D01*
X175699370Y-132694130D01*
X175684954Y-132678224D01*
X175672166Y-132660981D01*
X175661130Y-132642568D01*
X175651951Y-132623162D01*
X175644719Y-132602950D01*
X175639503Y-132582126D01*
X175636353Y-132560891D01*
X175635300Y-132539450D01*
X175635300Y-132026950D01*
X175636353Y-132005509D01*
X175639503Y-131984274D01*
X175644719Y-131963450D01*
X175651951Y-131943238D01*
X175661130Y-131923832D01*
X175672166Y-131905419D01*
X175684954Y-131888176D01*
X175699370Y-131872270D01*
X175715276Y-131857854D01*
X175732519Y-131845066D01*
X175750932Y-131834030D01*
X175770338Y-131824851D01*
X175790550Y-131817619D01*
X175811374Y-131812403D01*
X175832609Y-131809253D01*
X175854050Y-131808200D01*
X176291550Y-131808200D01*
X176312991Y-131809253D01*
X176312991Y-131809253D01*
G37*
D16*
X176072800Y-132283200D03*
D15*
G36*
X171575291Y-144064053D02*
G01*
X171596526Y-144067203D01*
X171617350Y-144072419D01*
X171637562Y-144079651D01*
X171656968Y-144088830D01*
X171675381Y-144099866D01*
X171692624Y-144112654D01*
X171708530Y-144127070D01*
X171722946Y-144142976D01*
X171735734Y-144160219D01*
X171746770Y-144178632D01*
X171755949Y-144198038D01*
X171763181Y-144218250D01*
X171768397Y-144239074D01*
X171771547Y-144260309D01*
X171772600Y-144281750D01*
X171772600Y-144719250D01*
X171771547Y-144740691D01*
X171768397Y-144761926D01*
X171763181Y-144782750D01*
X171755949Y-144802962D01*
X171746770Y-144822368D01*
X171735734Y-144840781D01*
X171722946Y-144858024D01*
X171708530Y-144873930D01*
X171692624Y-144888346D01*
X171675381Y-144901134D01*
X171656968Y-144912170D01*
X171637562Y-144921349D01*
X171617350Y-144928581D01*
X171596526Y-144933797D01*
X171575291Y-144936947D01*
X171553850Y-144938000D01*
X171041350Y-144938000D01*
X171019909Y-144936947D01*
X170998674Y-144933797D01*
X170977850Y-144928581D01*
X170957638Y-144921349D01*
X170938232Y-144912170D01*
X170919819Y-144901134D01*
X170902576Y-144888346D01*
X170886670Y-144873930D01*
X170872254Y-144858024D01*
X170859466Y-144840781D01*
X170848430Y-144822368D01*
X170839251Y-144802962D01*
X170832019Y-144782750D01*
X170826803Y-144761926D01*
X170823653Y-144740691D01*
X170822600Y-144719250D01*
X170822600Y-144281750D01*
X170823653Y-144260309D01*
X170826803Y-144239074D01*
X170832019Y-144218250D01*
X170839251Y-144198038D01*
X170848430Y-144178632D01*
X170859466Y-144160219D01*
X170872254Y-144142976D01*
X170886670Y-144127070D01*
X170902576Y-144112654D01*
X170919819Y-144099866D01*
X170938232Y-144088830D01*
X170957638Y-144079651D01*
X170977850Y-144072419D01*
X170998674Y-144067203D01*
X171019909Y-144064053D01*
X171041350Y-144063000D01*
X171553850Y-144063000D01*
X171575291Y-144064053D01*
X171575291Y-144064053D01*
G37*
D16*
X171297600Y-144500500D03*
D15*
G36*
X171575291Y-145639053D02*
G01*
X171596526Y-145642203D01*
X171617350Y-145647419D01*
X171637562Y-145654651D01*
X171656968Y-145663830D01*
X171675381Y-145674866D01*
X171692624Y-145687654D01*
X171708530Y-145702070D01*
X171722946Y-145717976D01*
X171735734Y-145735219D01*
X171746770Y-145753632D01*
X171755949Y-145773038D01*
X171763181Y-145793250D01*
X171768397Y-145814074D01*
X171771547Y-145835309D01*
X171772600Y-145856750D01*
X171772600Y-146294250D01*
X171771547Y-146315691D01*
X171768397Y-146336926D01*
X171763181Y-146357750D01*
X171755949Y-146377962D01*
X171746770Y-146397368D01*
X171735734Y-146415781D01*
X171722946Y-146433024D01*
X171708530Y-146448930D01*
X171692624Y-146463346D01*
X171675381Y-146476134D01*
X171656968Y-146487170D01*
X171637562Y-146496349D01*
X171617350Y-146503581D01*
X171596526Y-146508797D01*
X171575291Y-146511947D01*
X171553850Y-146513000D01*
X171041350Y-146513000D01*
X171019909Y-146511947D01*
X170998674Y-146508797D01*
X170977850Y-146503581D01*
X170957638Y-146496349D01*
X170938232Y-146487170D01*
X170919819Y-146476134D01*
X170902576Y-146463346D01*
X170886670Y-146448930D01*
X170872254Y-146433024D01*
X170859466Y-146415781D01*
X170848430Y-146397368D01*
X170839251Y-146377962D01*
X170832019Y-146357750D01*
X170826803Y-146336926D01*
X170823653Y-146315691D01*
X170822600Y-146294250D01*
X170822600Y-145856750D01*
X170823653Y-145835309D01*
X170826803Y-145814074D01*
X170832019Y-145793250D01*
X170839251Y-145773038D01*
X170848430Y-145753632D01*
X170859466Y-145735219D01*
X170872254Y-145717976D01*
X170886670Y-145702070D01*
X170902576Y-145687654D01*
X170919819Y-145674866D01*
X170938232Y-145663830D01*
X170957638Y-145654651D01*
X170977850Y-145647419D01*
X170998674Y-145642203D01*
X171019909Y-145639053D01*
X171041350Y-145638000D01*
X171553850Y-145638000D01*
X171575291Y-145639053D01*
X171575291Y-145639053D01*
G37*
D16*
X171297600Y-146075500D03*
D15*
G36*
X174724891Y-144064053D02*
G01*
X174746126Y-144067203D01*
X174766950Y-144072419D01*
X174787162Y-144079651D01*
X174806568Y-144088830D01*
X174824981Y-144099866D01*
X174842224Y-144112654D01*
X174858130Y-144127070D01*
X174872546Y-144142976D01*
X174885334Y-144160219D01*
X174896370Y-144178632D01*
X174905549Y-144198038D01*
X174912781Y-144218250D01*
X174917997Y-144239074D01*
X174921147Y-144260309D01*
X174922200Y-144281750D01*
X174922200Y-144719250D01*
X174921147Y-144740691D01*
X174917997Y-144761926D01*
X174912781Y-144782750D01*
X174905549Y-144802962D01*
X174896370Y-144822368D01*
X174885334Y-144840781D01*
X174872546Y-144858024D01*
X174858130Y-144873930D01*
X174842224Y-144888346D01*
X174824981Y-144901134D01*
X174806568Y-144912170D01*
X174787162Y-144921349D01*
X174766950Y-144928581D01*
X174746126Y-144933797D01*
X174724891Y-144936947D01*
X174703450Y-144938000D01*
X174190950Y-144938000D01*
X174169509Y-144936947D01*
X174148274Y-144933797D01*
X174127450Y-144928581D01*
X174107238Y-144921349D01*
X174087832Y-144912170D01*
X174069419Y-144901134D01*
X174052176Y-144888346D01*
X174036270Y-144873930D01*
X174021854Y-144858024D01*
X174009066Y-144840781D01*
X173998030Y-144822368D01*
X173988851Y-144802962D01*
X173981619Y-144782750D01*
X173976403Y-144761926D01*
X173973253Y-144740691D01*
X173972200Y-144719250D01*
X173972200Y-144281750D01*
X173973253Y-144260309D01*
X173976403Y-144239074D01*
X173981619Y-144218250D01*
X173988851Y-144198038D01*
X173998030Y-144178632D01*
X174009066Y-144160219D01*
X174021854Y-144142976D01*
X174036270Y-144127070D01*
X174052176Y-144112654D01*
X174069419Y-144099866D01*
X174087832Y-144088830D01*
X174107238Y-144079651D01*
X174127450Y-144072419D01*
X174148274Y-144067203D01*
X174169509Y-144064053D01*
X174190950Y-144063000D01*
X174703450Y-144063000D01*
X174724891Y-144064053D01*
X174724891Y-144064053D01*
G37*
D16*
X174447200Y-144500500D03*
D15*
G36*
X174724891Y-145639053D02*
G01*
X174746126Y-145642203D01*
X174766950Y-145647419D01*
X174787162Y-145654651D01*
X174806568Y-145663830D01*
X174824981Y-145674866D01*
X174842224Y-145687654D01*
X174858130Y-145702070D01*
X174872546Y-145717976D01*
X174885334Y-145735219D01*
X174896370Y-145753632D01*
X174905549Y-145773038D01*
X174912781Y-145793250D01*
X174917997Y-145814074D01*
X174921147Y-145835309D01*
X174922200Y-145856750D01*
X174922200Y-146294250D01*
X174921147Y-146315691D01*
X174917997Y-146336926D01*
X174912781Y-146357750D01*
X174905549Y-146377962D01*
X174896370Y-146397368D01*
X174885334Y-146415781D01*
X174872546Y-146433024D01*
X174858130Y-146448930D01*
X174842224Y-146463346D01*
X174824981Y-146476134D01*
X174806568Y-146487170D01*
X174787162Y-146496349D01*
X174766950Y-146503581D01*
X174746126Y-146508797D01*
X174724891Y-146511947D01*
X174703450Y-146513000D01*
X174190950Y-146513000D01*
X174169509Y-146511947D01*
X174148274Y-146508797D01*
X174127450Y-146503581D01*
X174107238Y-146496349D01*
X174087832Y-146487170D01*
X174069419Y-146476134D01*
X174052176Y-146463346D01*
X174036270Y-146448930D01*
X174021854Y-146433024D01*
X174009066Y-146415781D01*
X173998030Y-146397368D01*
X173988851Y-146377962D01*
X173981619Y-146357750D01*
X173976403Y-146336926D01*
X173973253Y-146315691D01*
X173972200Y-146294250D01*
X173972200Y-145856750D01*
X173973253Y-145835309D01*
X173976403Y-145814074D01*
X173981619Y-145793250D01*
X173988851Y-145773038D01*
X173998030Y-145753632D01*
X174009066Y-145735219D01*
X174021854Y-145717976D01*
X174036270Y-145702070D01*
X174052176Y-145687654D01*
X174069419Y-145674866D01*
X174087832Y-145663830D01*
X174107238Y-145654651D01*
X174127450Y-145647419D01*
X174148274Y-145642203D01*
X174169509Y-145639053D01*
X174190950Y-145638000D01*
X174703450Y-145638000D01*
X174724891Y-145639053D01*
X174724891Y-145639053D01*
G37*
D16*
X174447200Y-146075500D03*
D15*
G36*
X176299691Y-146502453D02*
G01*
X176320926Y-146505603D01*
X176341750Y-146510819D01*
X176361962Y-146518051D01*
X176381368Y-146527230D01*
X176399781Y-146538266D01*
X176417024Y-146551054D01*
X176432930Y-146565470D01*
X176447346Y-146581376D01*
X176460134Y-146598619D01*
X176471170Y-146617032D01*
X176480349Y-146636438D01*
X176487581Y-146656650D01*
X176492797Y-146677474D01*
X176495947Y-146698709D01*
X176497000Y-146720150D01*
X176497000Y-147157650D01*
X176495947Y-147179091D01*
X176492797Y-147200326D01*
X176487581Y-147221150D01*
X176480349Y-147241362D01*
X176471170Y-147260768D01*
X176460134Y-147279181D01*
X176447346Y-147296424D01*
X176432930Y-147312330D01*
X176417024Y-147326746D01*
X176399781Y-147339534D01*
X176381368Y-147350570D01*
X176361962Y-147359749D01*
X176341750Y-147366981D01*
X176320926Y-147372197D01*
X176299691Y-147375347D01*
X176278250Y-147376400D01*
X175765750Y-147376400D01*
X175744309Y-147375347D01*
X175723074Y-147372197D01*
X175702250Y-147366981D01*
X175682038Y-147359749D01*
X175662632Y-147350570D01*
X175644219Y-147339534D01*
X175626976Y-147326746D01*
X175611070Y-147312330D01*
X175596654Y-147296424D01*
X175583866Y-147279181D01*
X175572830Y-147260768D01*
X175563651Y-147241362D01*
X175556419Y-147221150D01*
X175551203Y-147200326D01*
X175548053Y-147179091D01*
X175547000Y-147157650D01*
X175547000Y-146720150D01*
X175548053Y-146698709D01*
X175551203Y-146677474D01*
X175556419Y-146656650D01*
X175563651Y-146636438D01*
X175572830Y-146617032D01*
X175583866Y-146598619D01*
X175596654Y-146581376D01*
X175611070Y-146565470D01*
X175626976Y-146551054D01*
X175644219Y-146538266D01*
X175662632Y-146527230D01*
X175682038Y-146518051D01*
X175702250Y-146510819D01*
X175723074Y-146505603D01*
X175744309Y-146502453D01*
X175765750Y-146501400D01*
X176278250Y-146501400D01*
X176299691Y-146502453D01*
X176299691Y-146502453D01*
G37*
D16*
X176022000Y-146938900D03*
D15*
G36*
X176299691Y-148077453D02*
G01*
X176320926Y-148080603D01*
X176341750Y-148085819D01*
X176361962Y-148093051D01*
X176381368Y-148102230D01*
X176399781Y-148113266D01*
X176417024Y-148126054D01*
X176432930Y-148140470D01*
X176447346Y-148156376D01*
X176460134Y-148173619D01*
X176471170Y-148192032D01*
X176480349Y-148211438D01*
X176487581Y-148231650D01*
X176492797Y-148252474D01*
X176495947Y-148273709D01*
X176497000Y-148295150D01*
X176497000Y-148732650D01*
X176495947Y-148754091D01*
X176492797Y-148775326D01*
X176487581Y-148796150D01*
X176480349Y-148816362D01*
X176471170Y-148835768D01*
X176460134Y-148854181D01*
X176447346Y-148871424D01*
X176432930Y-148887330D01*
X176417024Y-148901746D01*
X176399781Y-148914534D01*
X176381368Y-148925570D01*
X176361962Y-148934749D01*
X176341750Y-148941981D01*
X176320926Y-148947197D01*
X176299691Y-148950347D01*
X176278250Y-148951400D01*
X175765750Y-148951400D01*
X175744309Y-148950347D01*
X175723074Y-148947197D01*
X175702250Y-148941981D01*
X175682038Y-148934749D01*
X175662632Y-148925570D01*
X175644219Y-148914534D01*
X175626976Y-148901746D01*
X175611070Y-148887330D01*
X175596654Y-148871424D01*
X175583866Y-148854181D01*
X175572830Y-148835768D01*
X175563651Y-148816362D01*
X175556419Y-148796150D01*
X175551203Y-148775326D01*
X175548053Y-148754091D01*
X175547000Y-148732650D01*
X175547000Y-148295150D01*
X175548053Y-148273709D01*
X175551203Y-148252474D01*
X175556419Y-148231650D01*
X175563651Y-148211438D01*
X175572830Y-148192032D01*
X175583866Y-148173619D01*
X175596654Y-148156376D01*
X175611070Y-148140470D01*
X175626976Y-148126054D01*
X175644219Y-148113266D01*
X175662632Y-148102230D01*
X175682038Y-148093051D01*
X175702250Y-148085819D01*
X175723074Y-148080603D01*
X175744309Y-148077453D01*
X175765750Y-148076400D01*
X176278250Y-148076400D01*
X176299691Y-148077453D01*
X176299691Y-148077453D01*
G37*
D16*
X176022000Y-148513900D03*
D15*
G36*
X127582491Y-83891353D02*
G01*
X127603726Y-83894503D01*
X127624550Y-83899719D01*
X127644762Y-83906951D01*
X127664168Y-83916130D01*
X127682581Y-83927166D01*
X127699824Y-83939954D01*
X127715730Y-83954370D01*
X127730146Y-83970276D01*
X127742934Y-83987519D01*
X127753970Y-84005932D01*
X127763149Y-84025338D01*
X127770381Y-84045550D01*
X127775597Y-84066374D01*
X127778747Y-84087609D01*
X127779800Y-84109050D01*
X127779800Y-84546550D01*
X127778747Y-84567991D01*
X127775597Y-84589226D01*
X127770381Y-84610050D01*
X127763149Y-84630262D01*
X127753970Y-84649668D01*
X127742934Y-84668081D01*
X127730146Y-84685324D01*
X127715730Y-84701230D01*
X127699824Y-84715646D01*
X127682581Y-84728434D01*
X127664168Y-84739470D01*
X127644762Y-84748649D01*
X127624550Y-84755881D01*
X127603726Y-84761097D01*
X127582491Y-84764247D01*
X127561050Y-84765300D01*
X127048550Y-84765300D01*
X127027109Y-84764247D01*
X127005874Y-84761097D01*
X126985050Y-84755881D01*
X126964838Y-84748649D01*
X126945432Y-84739470D01*
X126927019Y-84728434D01*
X126909776Y-84715646D01*
X126893870Y-84701230D01*
X126879454Y-84685324D01*
X126866666Y-84668081D01*
X126855630Y-84649668D01*
X126846451Y-84630262D01*
X126839219Y-84610050D01*
X126834003Y-84589226D01*
X126830853Y-84567991D01*
X126829800Y-84546550D01*
X126829800Y-84109050D01*
X126830853Y-84087609D01*
X126834003Y-84066374D01*
X126839219Y-84045550D01*
X126846451Y-84025338D01*
X126855630Y-84005932D01*
X126866666Y-83987519D01*
X126879454Y-83970276D01*
X126893870Y-83954370D01*
X126909776Y-83939954D01*
X126927019Y-83927166D01*
X126945432Y-83916130D01*
X126964838Y-83906951D01*
X126985050Y-83899719D01*
X127005874Y-83894503D01*
X127027109Y-83891353D01*
X127048550Y-83890300D01*
X127561050Y-83890300D01*
X127582491Y-83891353D01*
X127582491Y-83891353D01*
G37*
D16*
X127304800Y-84327800D03*
D15*
G36*
X127582491Y-85466353D02*
G01*
X127603726Y-85469503D01*
X127624550Y-85474719D01*
X127644762Y-85481951D01*
X127664168Y-85491130D01*
X127682581Y-85502166D01*
X127699824Y-85514954D01*
X127715730Y-85529370D01*
X127730146Y-85545276D01*
X127742934Y-85562519D01*
X127753970Y-85580932D01*
X127763149Y-85600338D01*
X127770381Y-85620550D01*
X127775597Y-85641374D01*
X127778747Y-85662609D01*
X127779800Y-85684050D01*
X127779800Y-86121550D01*
X127778747Y-86142991D01*
X127775597Y-86164226D01*
X127770381Y-86185050D01*
X127763149Y-86205262D01*
X127753970Y-86224668D01*
X127742934Y-86243081D01*
X127730146Y-86260324D01*
X127715730Y-86276230D01*
X127699824Y-86290646D01*
X127682581Y-86303434D01*
X127664168Y-86314470D01*
X127644762Y-86323649D01*
X127624550Y-86330881D01*
X127603726Y-86336097D01*
X127582491Y-86339247D01*
X127561050Y-86340300D01*
X127048550Y-86340300D01*
X127027109Y-86339247D01*
X127005874Y-86336097D01*
X126985050Y-86330881D01*
X126964838Y-86323649D01*
X126945432Y-86314470D01*
X126927019Y-86303434D01*
X126909776Y-86290646D01*
X126893870Y-86276230D01*
X126879454Y-86260324D01*
X126866666Y-86243081D01*
X126855630Y-86224668D01*
X126846451Y-86205262D01*
X126839219Y-86185050D01*
X126834003Y-86164226D01*
X126830853Y-86142991D01*
X126829800Y-86121550D01*
X126829800Y-85684050D01*
X126830853Y-85662609D01*
X126834003Y-85641374D01*
X126839219Y-85620550D01*
X126846451Y-85600338D01*
X126855630Y-85580932D01*
X126866666Y-85562519D01*
X126879454Y-85545276D01*
X126893870Y-85529370D01*
X126909776Y-85514954D01*
X126927019Y-85502166D01*
X126945432Y-85491130D01*
X126964838Y-85481951D01*
X126985050Y-85474719D01*
X127005874Y-85469503D01*
X127027109Y-85466353D01*
X127048550Y-85465300D01*
X127561050Y-85465300D01*
X127582491Y-85466353D01*
X127582491Y-85466353D01*
G37*
D16*
X127304800Y-85902800D03*
D15*
G36*
X127531691Y-90673453D02*
G01*
X127552926Y-90676603D01*
X127573750Y-90681819D01*
X127593962Y-90689051D01*
X127613368Y-90698230D01*
X127631781Y-90709266D01*
X127649024Y-90722054D01*
X127664930Y-90736470D01*
X127679346Y-90752376D01*
X127692134Y-90769619D01*
X127703170Y-90788032D01*
X127712349Y-90807438D01*
X127719581Y-90827650D01*
X127724797Y-90848474D01*
X127727947Y-90869709D01*
X127729000Y-90891150D01*
X127729000Y-91328650D01*
X127727947Y-91350091D01*
X127724797Y-91371326D01*
X127719581Y-91392150D01*
X127712349Y-91412362D01*
X127703170Y-91431768D01*
X127692134Y-91450181D01*
X127679346Y-91467424D01*
X127664930Y-91483330D01*
X127649024Y-91497746D01*
X127631781Y-91510534D01*
X127613368Y-91521570D01*
X127593962Y-91530749D01*
X127573750Y-91537981D01*
X127552926Y-91543197D01*
X127531691Y-91546347D01*
X127510250Y-91547400D01*
X126997750Y-91547400D01*
X126976309Y-91546347D01*
X126955074Y-91543197D01*
X126934250Y-91537981D01*
X126914038Y-91530749D01*
X126894632Y-91521570D01*
X126876219Y-91510534D01*
X126858976Y-91497746D01*
X126843070Y-91483330D01*
X126828654Y-91467424D01*
X126815866Y-91450181D01*
X126804830Y-91431768D01*
X126795651Y-91412362D01*
X126788419Y-91392150D01*
X126783203Y-91371326D01*
X126780053Y-91350091D01*
X126779000Y-91328650D01*
X126779000Y-90891150D01*
X126780053Y-90869709D01*
X126783203Y-90848474D01*
X126788419Y-90827650D01*
X126795651Y-90807438D01*
X126804830Y-90788032D01*
X126815866Y-90769619D01*
X126828654Y-90752376D01*
X126843070Y-90736470D01*
X126858976Y-90722054D01*
X126876219Y-90709266D01*
X126894632Y-90698230D01*
X126914038Y-90689051D01*
X126934250Y-90681819D01*
X126955074Y-90676603D01*
X126976309Y-90673453D01*
X126997750Y-90672400D01*
X127510250Y-90672400D01*
X127531691Y-90673453D01*
X127531691Y-90673453D01*
G37*
D16*
X127254000Y-91109900D03*
D15*
G36*
X127531691Y-89098453D02*
G01*
X127552926Y-89101603D01*
X127573750Y-89106819D01*
X127593962Y-89114051D01*
X127613368Y-89123230D01*
X127631781Y-89134266D01*
X127649024Y-89147054D01*
X127664930Y-89161470D01*
X127679346Y-89177376D01*
X127692134Y-89194619D01*
X127703170Y-89213032D01*
X127712349Y-89232438D01*
X127719581Y-89252650D01*
X127724797Y-89273474D01*
X127727947Y-89294709D01*
X127729000Y-89316150D01*
X127729000Y-89753650D01*
X127727947Y-89775091D01*
X127724797Y-89796326D01*
X127719581Y-89817150D01*
X127712349Y-89837362D01*
X127703170Y-89856768D01*
X127692134Y-89875181D01*
X127679346Y-89892424D01*
X127664930Y-89908330D01*
X127649024Y-89922746D01*
X127631781Y-89935534D01*
X127613368Y-89946570D01*
X127593962Y-89955749D01*
X127573750Y-89962981D01*
X127552926Y-89968197D01*
X127531691Y-89971347D01*
X127510250Y-89972400D01*
X126997750Y-89972400D01*
X126976309Y-89971347D01*
X126955074Y-89968197D01*
X126934250Y-89962981D01*
X126914038Y-89955749D01*
X126894632Y-89946570D01*
X126876219Y-89935534D01*
X126858976Y-89922746D01*
X126843070Y-89908330D01*
X126828654Y-89892424D01*
X126815866Y-89875181D01*
X126804830Y-89856768D01*
X126795651Y-89837362D01*
X126788419Y-89817150D01*
X126783203Y-89796326D01*
X126780053Y-89775091D01*
X126779000Y-89753650D01*
X126779000Y-89316150D01*
X126780053Y-89294709D01*
X126783203Y-89273474D01*
X126788419Y-89252650D01*
X126795651Y-89232438D01*
X126804830Y-89213032D01*
X126815866Y-89194619D01*
X126828654Y-89177376D01*
X126843070Y-89161470D01*
X126858976Y-89147054D01*
X126876219Y-89134266D01*
X126894632Y-89123230D01*
X126914038Y-89114051D01*
X126934250Y-89106819D01*
X126955074Y-89101603D01*
X126976309Y-89098453D01*
X126997750Y-89097400D01*
X127510250Y-89097400D01*
X127531691Y-89098453D01*
X127531691Y-89098453D01*
G37*
D16*
X127254000Y-89534900D03*
D15*
G36*
X127531691Y-105989353D02*
G01*
X127552926Y-105992503D01*
X127573750Y-105997719D01*
X127593962Y-106004951D01*
X127613368Y-106014130D01*
X127631781Y-106025166D01*
X127649024Y-106037954D01*
X127664930Y-106052370D01*
X127679346Y-106068276D01*
X127692134Y-106085519D01*
X127703170Y-106103932D01*
X127712349Y-106123338D01*
X127719581Y-106143550D01*
X127724797Y-106164374D01*
X127727947Y-106185609D01*
X127729000Y-106207050D01*
X127729000Y-106644550D01*
X127727947Y-106665991D01*
X127724797Y-106687226D01*
X127719581Y-106708050D01*
X127712349Y-106728262D01*
X127703170Y-106747668D01*
X127692134Y-106766081D01*
X127679346Y-106783324D01*
X127664930Y-106799230D01*
X127649024Y-106813646D01*
X127631781Y-106826434D01*
X127613368Y-106837470D01*
X127593962Y-106846649D01*
X127573750Y-106853881D01*
X127552926Y-106859097D01*
X127531691Y-106862247D01*
X127510250Y-106863300D01*
X126997750Y-106863300D01*
X126976309Y-106862247D01*
X126955074Y-106859097D01*
X126934250Y-106853881D01*
X126914038Y-106846649D01*
X126894632Y-106837470D01*
X126876219Y-106826434D01*
X126858976Y-106813646D01*
X126843070Y-106799230D01*
X126828654Y-106783324D01*
X126815866Y-106766081D01*
X126804830Y-106747668D01*
X126795651Y-106728262D01*
X126788419Y-106708050D01*
X126783203Y-106687226D01*
X126780053Y-106665991D01*
X126779000Y-106644550D01*
X126779000Y-106207050D01*
X126780053Y-106185609D01*
X126783203Y-106164374D01*
X126788419Y-106143550D01*
X126795651Y-106123338D01*
X126804830Y-106103932D01*
X126815866Y-106085519D01*
X126828654Y-106068276D01*
X126843070Y-106052370D01*
X126858976Y-106037954D01*
X126876219Y-106025166D01*
X126894632Y-106014130D01*
X126914038Y-106004951D01*
X126934250Y-105997719D01*
X126955074Y-105992503D01*
X126976309Y-105989353D01*
X126997750Y-105988300D01*
X127510250Y-105988300D01*
X127531691Y-105989353D01*
X127531691Y-105989353D01*
G37*
D16*
X127254000Y-106425800D03*
D15*
G36*
X127531691Y-107564353D02*
G01*
X127552926Y-107567503D01*
X127573750Y-107572719D01*
X127593962Y-107579951D01*
X127613368Y-107589130D01*
X127631781Y-107600166D01*
X127649024Y-107612954D01*
X127664930Y-107627370D01*
X127679346Y-107643276D01*
X127692134Y-107660519D01*
X127703170Y-107678932D01*
X127712349Y-107698338D01*
X127719581Y-107718550D01*
X127724797Y-107739374D01*
X127727947Y-107760609D01*
X127729000Y-107782050D01*
X127729000Y-108219550D01*
X127727947Y-108240991D01*
X127724797Y-108262226D01*
X127719581Y-108283050D01*
X127712349Y-108303262D01*
X127703170Y-108322668D01*
X127692134Y-108341081D01*
X127679346Y-108358324D01*
X127664930Y-108374230D01*
X127649024Y-108388646D01*
X127631781Y-108401434D01*
X127613368Y-108412470D01*
X127593962Y-108421649D01*
X127573750Y-108428881D01*
X127552926Y-108434097D01*
X127531691Y-108437247D01*
X127510250Y-108438300D01*
X126997750Y-108438300D01*
X126976309Y-108437247D01*
X126955074Y-108434097D01*
X126934250Y-108428881D01*
X126914038Y-108421649D01*
X126894632Y-108412470D01*
X126876219Y-108401434D01*
X126858976Y-108388646D01*
X126843070Y-108374230D01*
X126828654Y-108358324D01*
X126815866Y-108341081D01*
X126804830Y-108322668D01*
X126795651Y-108303262D01*
X126788419Y-108283050D01*
X126783203Y-108262226D01*
X126780053Y-108240991D01*
X126779000Y-108219550D01*
X126779000Y-107782050D01*
X126780053Y-107760609D01*
X126783203Y-107739374D01*
X126788419Y-107718550D01*
X126795651Y-107698338D01*
X126804830Y-107678932D01*
X126815866Y-107660519D01*
X126828654Y-107643276D01*
X126843070Y-107627370D01*
X126858976Y-107612954D01*
X126876219Y-107600166D01*
X126894632Y-107589130D01*
X126914038Y-107579951D01*
X126934250Y-107572719D01*
X126955074Y-107567503D01*
X126976309Y-107564353D01*
X126997750Y-107563300D01*
X127510250Y-107563300D01*
X127531691Y-107564353D01*
X127531691Y-107564353D01*
G37*
D16*
X127254000Y-108000800D03*
D15*
G36*
X127531691Y-111628553D02*
G01*
X127552926Y-111631703D01*
X127573750Y-111636919D01*
X127593962Y-111644151D01*
X127613368Y-111653330D01*
X127631781Y-111664366D01*
X127649024Y-111677154D01*
X127664930Y-111691570D01*
X127679346Y-111707476D01*
X127692134Y-111724719D01*
X127703170Y-111743132D01*
X127712349Y-111762538D01*
X127719581Y-111782750D01*
X127724797Y-111803574D01*
X127727947Y-111824809D01*
X127729000Y-111846250D01*
X127729000Y-112283750D01*
X127727947Y-112305191D01*
X127724797Y-112326426D01*
X127719581Y-112347250D01*
X127712349Y-112367462D01*
X127703170Y-112386868D01*
X127692134Y-112405281D01*
X127679346Y-112422524D01*
X127664930Y-112438430D01*
X127649024Y-112452846D01*
X127631781Y-112465634D01*
X127613368Y-112476670D01*
X127593962Y-112485849D01*
X127573750Y-112493081D01*
X127552926Y-112498297D01*
X127531691Y-112501447D01*
X127510250Y-112502500D01*
X126997750Y-112502500D01*
X126976309Y-112501447D01*
X126955074Y-112498297D01*
X126934250Y-112493081D01*
X126914038Y-112485849D01*
X126894632Y-112476670D01*
X126876219Y-112465634D01*
X126858976Y-112452846D01*
X126843070Y-112438430D01*
X126828654Y-112422524D01*
X126815866Y-112405281D01*
X126804830Y-112386868D01*
X126795651Y-112367462D01*
X126788419Y-112347250D01*
X126783203Y-112326426D01*
X126780053Y-112305191D01*
X126779000Y-112283750D01*
X126779000Y-111846250D01*
X126780053Y-111824809D01*
X126783203Y-111803574D01*
X126788419Y-111782750D01*
X126795651Y-111762538D01*
X126804830Y-111743132D01*
X126815866Y-111724719D01*
X126828654Y-111707476D01*
X126843070Y-111691570D01*
X126858976Y-111677154D01*
X126876219Y-111664366D01*
X126894632Y-111653330D01*
X126914038Y-111644151D01*
X126934250Y-111636919D01*
X126955074Y-111631703D01*
X126976309Y-111628553D01*
X126997750Y-111627500D01*
X127510250Y-111627500D01*
X127531691Y-111628553D01*
X127531691Y-111628553D01*
G37*
D16*
X127254000Y-112065000D03*
D15*
G36*
X127531691Y-110053553D02*
G01*
X127552926Y-110056703D01*
X127573750Y-110061919D01*
X127593962Y-110069151D01*
X127613368Y-110078330D01*
X127631781Y-110089366D01*
X127649024Y-110102154D01*
X127664930Y-110116570D01*
X127679346Y-110132476D01*
X127692134Y-110149719D01*
X127703170Y-110168132D01*
X127712349Y-110187538D01*
X127719581Y-110207750D01*
X127724797Y-110228574D01*
X127727947Y-110249809D01*
X127729000Y-110271250D01*
X127729000Y-110708750D01*
X127727947Y-110730191D01*
X127724797Y-110751426D01*
X127719581Y-110772250D01*
X127712349Y-110792462D01*
X127703170Y-110811868D01*
X127692134Y-110830281D01*
X127679346Y-110847524D01*
X127664930Y-110863430D01*
X127649024Y-110877846D01*
X127631781Y-110890634D01*
X127613368Y-110901670D01*
X127593962Y-110910849D01*
X127573750Y-110918081D01*
X127552926Y-110923297D01*
X127531691Y-110926447D01*
X127510250Y-110927500D01*
X126997750Y-110927500D01*
X126976309Y-110926447D01*
X126955074Y-110923297D01*
X126934250Y-110918081D01*
X126914038Y-110910849D01*
X126894632Y-110901670D01*
X126876219Y-110890634D01*
X126858976Y-110877846D01*
X126843070Y-110863430D01*
X126828654Y-110847524D01*
X126815866Y-110830281D01*
X126804830Y-110811868D01*
X126795651Y-110792462D01*
X126788419Y-110772250D01*
X126783203Y-110751426D01*
X126780053Y-110730191D01*
X126779000Y-110708750D01*
X126779000Y-110271250D01*
X126780053Y-110249809D01*
X126783203Y-110228574D01*
X126788419Y-110207750D01*
X126795651Y-110187538D01*
X126804830Y-110168132D01*
X126815866Y-110149719D01*
X126828654Y-110132476D01*
X126843070Y-110116570D01*
X126858976Y-110102154D01*
X126876219Y-110089366D01*
X126894632Y-110078330D01*
X126914038Y-110069151D01*
X126934250Y-110061919D01*
X126955074Y-110056703D01*
X126976309Y-110053553D01*
X126997750Y-110052500D01*
X127510250Y-110052500D01*
X127531691Y-110053553D01*
X127531691Y-110053553D01*
G37*
D16*
X127254000Y-110490000D03*
D25*
X198745000Y-90365200D03*
X198745000Y-87865200D03*
X198745000Y-85365200D03*
D15*
G36*
X199494504Y-82016404D02*
G01*
X199518773Y-82020004D01*
X199542571Y-82025965D01*
X199565671Y-82034230D01*
X199587849Y-82044720D01*
X199608893Y-82057333D01*
X199628598Y-82071947D01*
X199646777Y-82088423D01*
X199663253Y-82106602D01*
X199677867Y-82126307D01*
X199690480Y-82147351D01*
X199700970Y-82169529D01*
X199709235Y-82192629D01*
X199715196Y-82216427D01*
X199718796Y-82240696D01*
X199720000Y-82265200D01*
X199720000Y-83465200D01*
X199718796Y-83489704D01*
X199715196Y-83513973D01*
X199709235Y-83537771D01*
X199700970Y-83560871D01*
X199690480Y-83583049D01*
X199677867Y-83604093D01*
X199663253Y-83623798D01*
X199646777Y-83641977D01*
X199628598Y-83658453D01*
X199608893Y-83673067D01*
X199587849Y-83685680D01*
X199565671Y-83696170D01*
X199542571Y-83704435D01*
X199518773Y-83710396D01*
X199494504Y-83713996D01*
X199470000Y-83715200D01*
X198020000Y-83715200D01*
X197995496Y-83713996D01*
X197971227Y-83710396D01*
X197947429Y-83704435D01*
X197924329Y-83696170D01*
X197902151Y-83685680D01*
X197881107Y-83673067D01*
X197861402Y-83658453D01*
X197843223Y-83641977D01*
X197826747Y-83623798D01*
X197812133Y-83604093D01*
X197799520Y-83583049D01*
X197789030Y-83560871D01*
X197780765Y-83537771D01*
X197774804Y-83513973D01*
X197771204Y-83489704D01*
X197770000Y-83465200D01*
X197770000Y-82265200D01*
X197771204Y-82240696D01*
X197774804Y-82216427D01*
X197780765Y-82192629D01*
X197789030Y-82169529D01*
X197799520Y-82147351D01*
X197812133Y-82126307D01*
X197826747Y-82106602D01*
X197843223Y-82088423D01*
X197861402Y-82071947D01*
X197881107Y-82057333D01*
X197902151Y-82044720D01*
X197924329Y-82034230D01*
X197947429Y-82025965D01*
X197971227Y-82020004D01*
X197995496Y-82016404D01*
X198020000Y-82015200D01*
X199470000Y-82015200D01*
X199494504Y-82016404D01*
X199494504Y-82016404D01*
G37*
D10*
X198745000Y-82865200D03*
D12*
X190500000Y-142240000D03*
X187960000Y-142240000D03*
X190500000Y-139700000D03*
X187960000Y-139700000D03*
X190500000Y-137160000D03*
X187960000Y-137160000D03*
X190500000Y-134620000D03*
X187960000Y-134620000D03*
X190500000Y-132080000D03*
X187960000Y-132080000D03*
X190500000Y-129540000D03*
X187960000Y-129540000D03*
X190500000Y-127000000D03*
X187960000Y-127000000D03*
X190500000Y-124460000D03*
X187960000Y-124460000D03*
X190500000Y-121920000D03*
X187960000Y-121920000D03*
X190500000Y-119380000D03*
X187960000Y-119380000D03*
X190500000Y-116840000D03*
X187960000Y-116840000D03*
X190500000Y-114300000D03*
X187960000Y-114300000D03*
X190500000Y-111760000D03*
X187960000Y-111760000D03*
X190500000Y-109220000D03*
X187960000Y-109220000D03*
X190500000Y-106680000D03*
X187960000Y-106680000D03*
X190500000Y-104140000D03*
X187960000Y-104140000D03*
X190500000Y-101600000D03*
X187960000Y-101600000D03*
X190500000Y-99060000D03*
X187960000Y-99060000D03*
X190500000Y-96520000D03*
X187960000Y-96520000D03*
X190500000Y-93980000D03*
X187960000Y-93980000D03*
X190500000Y-91440000D03*
X187960000Y-91440000D03*
X190500000Y-88900000D03*
X187960000Y-88900000D03*
X190500000Y-86360000D03*
X187960000Y-86360000D03*
X190500000Y-83820000D03*
D11*
X187960000Y-83820000D03*
D12*
X137160000Y-153670000D03*
X137160000Y-151130000D03*
X139700000Y-153670000D03*
X139700000Y-151130000D03*
X142240000Y-153670000D03*
X142240000Y-151130000D03*
X144780000Y-153670000D03*
X144780000Y-151130000D03*
X147320000Y-153670000D03*
X147320000Y-151130000D03*
X149860000Y-153670000D03*
X149860000Y-151130000D03*
X152400000Y-153670000D03*
X152400000Y-151130000D03*
X154940000Y-153670000D03*
X154940000Y-151130000D03*
X157480000Y-153670000D03*
X157480000Y-151130000D03*
X160020000Y-153670000D03*
X160020000Y-151130000D03*
X162560000Y-153670000D03*
X162560000Y-151130000D03*
X165100000Y-153670000D03*
X165100000Y-151130000D03*
X167640000Y-153670000D03*
X167640000Y-151130000D03*
X170180000Y-153670000D03*
X170180000Y-151130000D03*
X172720000Y-153670000D03*
X172720000Y-151130000D03*
X175260000Y-153670000D03*
D11*
X175260000Y-151130000D03*
D15*
G36*
X78550104Y-136249804D02*
G01*
X78574373Y-136253404D01*
X78598171Y-136259365D01*
X78621271Y-136267630D01*
X78643449Y-136278120D01*
X78664493Y-136290733D01*
X78684198Y-136305347D01*
X78702377Y-136321823D01*
X78718853Y-136340002D01*
X78733467Y-136359707D01*
X78746080Y-136380751D01*
X78756570Y-136402929D01*
X78764835Y-136426029D01*
X78770796Y-136449827D01*
X78774396Y-136474096D01*
X78775600Y-136498600D01*
X78775600Y-140148600D01*
X78774396Y-140173104D01*
X78770796Y-140197373D01*
X78764835Y-140221171D01*
X78756570Y-140244271D01*
X78746080Y-140266449D01*
X78733467Y-140287493D01*
X78718853Y-140307198D01*
X78702377Y-140325377D01*
X78684198Y-140341853D01*
X78664493Y-140356467D01*
X78643449Y-140369080D01*
X78621271Y-140379570D01*
X78598171Y-140387835D01*
X78574373Y-140393796D01*
X78550104Y-140397396D01*
X78525600Y-140398600D01*
X77125600Y-140398600D01*
X77101096Y-140397396D01*
X77076827Y-140393796D01*
X77053029Y-140387835D01*
X77029929Y-140379570D01*
X77007751Y-140369080D01*
X76986707Y-140356467D01*
X76967002Y-140341853D01*
X76948823Y-140325377D01*
X76932347Y-140307198D01*
X76917733Y-140287493D01*
X76905120Y-140266449D01*
X76894630Y-140244271D01*
X76886365Y-140221171D01*
X76880404Y-140197373D01*
X76876804Y-140173104D01*
X76875600Y-140148600D01*
X76875600Y-136498600D01*
X76876804Y-136474096D01*
X76880404Y-136449827D01*
X76886365Y-136426029D01*
X76894630Y-136402929D01*
X76905120Y-136380751D01*
X76917733Y-136359707D01*
X76932347Y-136340002D01*
X76948823Y-136321823D01*
X76967002Y-136305347D01*
X76986707Y-136290733D01*
X77007751Y-136278120D01*
X77029929Y-136267630D01*
X77053029Y-136259365D01*
X77076827Y-136253404D01*
X77101096Y-136249804D01*
X77125600Y-136248600D01*
X78525600Y-136248600D01*
X78550104Y-136249804D01*
X78550104Y-136249804D01*
G37*
D28*
X77825600Y-138323600D03*
D15*
G36*
X78550104Y-129299804D02*
G01*
X78574373Y-129303404D01*
X78598171Y-129309365D01*
X78621271Y-129317630D01*
X78643449Y-129328120D01*
X78664493Y-129340733D01*
X78684198Y-129355347D01*
X78702377Y-129371823D01*
X78718853Y-129390002D01*
X78733467Y-129409707D01*
X78746080Y-129430751D01*
X78756570Y-129452929D01*
X78764835Y-129476029D01*
X78770796Y-129499827D01*
X78774396Y-129524096D01*
X78775600Y-129548600D01*
X78775600Y-133198600D01*
X78774396Y-133223104D01*
X78770796Y-133247373D01*
X78764835Y-133271171D01*
X78756570Y-133294271D01*
X78746080Y-133316449D01*
X78733467Y-133337493D01*
X78718853Y-133357198D01*
X78702377Y-133375377D01*
X78684198Y-133391853D01*
X78664493Y-133406467D01*
X78643449Y-133419080D01*
X78621271Y-133429570D01*
X78598171Y-133437835D01*
X78574373Y-133443796D01*
X78550104Y-133447396D01*
X78525600Y-133448600D01*
X77125600Y-133448600D01*
X77101096Y-133447396D01*
X77076827Y-133443796D01*
X77053029Y-133437835D01*
X77029929Y-133429570D01*
X77007751Y-133419080D01*
X76986707Y-133406467D01*
X76967002Y-133391853D01*
X76948823Y-133375377D01*
X76932347Y-133357198D01*
X76917733Y-133337493D01*
X76905120Y-133316449D01*
X76894630Y-133294271D01*
X76886365Y-133271171D01*
X76880404Y-133247373D01*
X76876804Y-133223104D01*
X76875600Y-133198600D01*
X76875600Y-129548600D01*
X76876804Y-129524096D01*
X76880404Y-129499827D01*
X76886365Y-129476029D01*
X76894630Y-129452929D01*
X76905120Y-129430751D01*
X76917733Y-129409707D01*
X76932347Y-129390002D01*
X76948823Y-129371823D01*
X76967002Y-129355347D01*
X76986707Y-129340733D01*
X77007751Y-129328120D01*
X77029929Y-129317630D01*
X77053029Y-129309365D01*
X77076827Y-129303404D01*
X77101096Y-129299804D01*
X77125600Y-129298600D01*
X78525600Y-129298600D01*
X78550104Y-129299804D01*
X78550104Y-129299804D01*
G37*
D28*
X77825600Y-131373600D03*
D29*
X132029200Y-78920200D03*
D15*
G36*
X132803704Y-75571404D02*
G01*
X132827973Y-75575004D01*
X132851771Y-75580965D01*
X132874871Y-75589230D01*
X132897049Y-75599720D01*
X132918093Y-75612333D01*
X132937798Y-75626947D01*
X132955977Y-75643423D01*
X132972453Y-75661602D01*
X132987067Y-75681307D01*
X132999680Y-75702351D01*
X133010170Y-75724529D01*
X133018435Y-75747629D01*
X133024396Y-75771427D01*
X133027996Y-75795696D01*
X133029200Y-75820200D01*
X133029200Y-77020200D01*
X133027996Y-77044704D01*
X133024396Y-77068973D01*
X133018435Y-77092771D01*
X133010170Y-77115871D01*
X132999680Y-77138049D01*
X132987067Y-77159093D01*
X132972453Y-77178798D01*
X132955977Y-77196977D01*
X132937798Y-77213453D01*
X132918093Y-77228067D01*
X132897049Y-77240680D01*
X132874871Y-77251170D01*
X132851771Y-77259435D01*
X132827973Y-77265396D01*
X132803704Y-77268996D01*
X132779200Y-77270200D01*
X131279200Y-77270200D01*
X131254696Y-77268996D01*
X131230427Y-77265396D01*
X131206629Y-77259435D01*
X131183529Y-77251170D01*
X131161351Y-77240680D01*
X131140307Y-77228067D01*
X131120602Y-77213453D01*
X131102423Y-77196977D01*
X131085947Y-77178798D01*
X131071333Y-77159093D01*
X131058720Y-77138049D01*
X131048230Y-77115871D01*
X131039965Y-77092771D01*
X131034004Y-77068973D01*
X131030404Y-77044704D01*
X131029200Y-77020200D01*
X131029200Y-75820200D01*
X131030404Y-75795696D01*
X131034004Y-75771427D01*
X131039965Y-75747629D01*
X131048230Y-75724529D01*
X131058720Y-75702351D01*
X131071333Y-75681307D01*
X131085947Y-75661602D01*
X131102423Y-75643423D01*
X131120602Y-75626947D01*
X131140307Y-75612333D01*
X131161351Y-75599720D01*
X131183529Y-75589230D01*
X131206629Y-75580965D01*
X131230427Y-75575004D01*
X131254696Y-75571404D01*
X131279200Y-75570200D01*
X132779200Y-75570200D01*
X132803704Y-75571404D01*
X132803704Y-75571404D01*
G37*
D10*
X132029200Y-76420200D03*
D29*
X132029200Y-87920200D03*
D15*
G36*
X132803704Y-84571404D02*
G01*
X132827973Y-84575004D01*
X132851771Y-84580965D01*
X132874871Y-84589230D01*
X132897049Y-84599720D01*
X132918093Y-84612333D01*
X132937798Y-84626947D01*
X132955977Y-84643423D01*
X132972453Y-84661602D01*
X132987067Y-84681307D01*
X132999680Y-84702351D01*
X133010170Y-84724529D01*
X133018435Y-84747629D01*
X133024396Y-84771427D01*
X133027996Y-84795696D01*
X133029200Y-84820200D01*
X133029200Y-86020200D01*
X133027996Y-86044704D01*
X133024396Y-86068973D01*
X133018435Y-86092771D01*
X133010170Y-86115871D01*
X132999680Y-86138049D01*
X132987067Y-86159093D01*
X132972453Y-86178798D01*
X132955977Y-86196977D01*
X132937798Y-86213453D01*
X132918093Y-86228067D01*
X132897049Y-86240680D01*
X132874871Y-86251170D01*
X132851771Y-86259435D01*
X132827973Y-86265396D01*
X132803704Y-86268996D01*
X132779200Y-86270200D01*
X131279200Y-86270200D01*
X131254696Y-86268996D01*
X131230427Y-86265396D01*
X131206629Y-86259435D01*
X131183529Y-86251170D01*
X131161351Y-86240680D01*
X131140307Y-86228067D01*
X131120602Y-86213453D01*
X131102423Y-86196977D01*
X131085947Y-86178798D01*
X131071333Y-86159093D01*
X131058720Y-86138049D01*
X131048230Y-86115871D01*
X131039965Y-86092771D01*
X131034004Y-86068973D01*
X131030404Y-86044704D01*
X131029200Y-86020200D01*
X131029200Y-84820200D01*
X131030404Y-84795696D01*
X131034004Y-84771427D01*
X131039965Y-84747629D01*
X131048230Y-84724529D01*
X131058720Y-84702351D01*
X131071333Y-84681307D01*
X131085947Y-84661602D01*
X131102423Y-84643423D01*
X131120602Y-84626947D01*
X131140307Y-84612333D01*
X131161351Y-84599720D01*
X131183529Y-84589230D01*
X131206629Y-84580965D01*
X131230427Y-84575004D01*
X131254696Y-84571404D01*
X131279200Y-84570200D01*
X132779200Y-84570200D01*
X132803704Y-84571404D01*
X132803704Y-84571404D01*
G37*
D10*
X132029200Y-85420200D03*
D29*
X131664200Y-101040200D03*
D15*
G36*
X132438704Y-97691404D02*
G01*
X132462973Y-97695004D01*
X132486771Y-97700965D01*
X132509871Y-97709230D01*
X132532049Y-97719720D01*
X132553093Y-97732333D01*
X132572798Y-97746947D01*
X132590977Y-97763423D01*
X132607453Y-97781602D01*
X132622067Y-97801307D01*
X132634680Y-97822351D01*
X132645170Y-97844529D01*
X132653435Y-97867629D01*
X132659396Y-97891427D01*
X132662996Y-97915696D01*
X132664200Y-97940200D01*
X132664200Y-99140200D01*
X132662996Y-99164704D01*
X132659396Y-99188973D01*
X132653435Y-99212771D01*
X132645170Y-99235871D01*
X132634680Y-99258049D01*
X132622067Y-99279093D01*
X132607453Y-99298798D01*
X132590977Y-99316977D01*
X132572798Y-99333453D01*
X132553093Y-99348067D01*
X132532049Y-99360680D01*
X132509871Y-99371170D01*
X132486771Y-99379435D01*
X132462973Y-99385396D01*
X132438704Y-99388996D01*
X132414200Y-99390200D01*
X130914200Y-99390200D01*
X130889696Y-99388996D01*
X130865427Y-99385396D01*
X130841629Y-99379435D01*
X130818529Y-99371170D01*
X130796351Y-99360680D01*
X130775307Y-99348067D01*
X130755602Y-99333453D01*
X130737423Y-99316977D01*
X130720947Y-99298798D01*
X130706333Y-99279093D01*
X130693720Y-99258049D01*
X130683230Y-99235871D01*
X130674965Y-99212771D01*
X130669004Y-99188973D01*
X130665404Y-99164704D01*
X130664200Y-99140200D01*
X130664200Y-97940200D01*
X130665404Y-97915696D01*
X130669004Y-97891427D01*
X130674965Y-97867629D01*
X130683230Y-97844529D01*
X130693720Y-97822351D01*
X130706333Y-97801307D01*
X130720947Y-97781602D01*
X130737423Y-97763423D01*
X130755602Y-97746947D01*
X130775307Y-97732333D01*
X130796351Y-97719720D01*
X130818529Y-97709230D01*
X130841629Y-97700965D01*
X130865427Y-97695004D01*
X130889696Y-97691404D01*
X130914200Y-97690200D01*
X132414200Y-97690200D01*
X132438704Y-97691404D01*
X132438704Y-97691404D01*
G37*
D10*
X131664200Y-98540200D03*
D29*
X131664200Y-115040200D03*
D15*
G36*
X132438704Y-111691404D02*
G01*
X132462973Y-111695004D01*
X132486771Y-111700965D01*
X132509871Y-111709230D01*
X132532049Y-111719720D01*
X132553093Y-111732333D01*
X132572798Y-111746947D01*
X132590977Y-111763423D01*
X132607453Y-111781602D01*
X132622067Y-111801307D01*
X132634680Y-111822351D01*
X132645170Y-111844529D01*
X132653435Y-111867629D01*
X132659396Y-111891427D01*
X132662996Y-111915696D01*
X132664200Y-111940200D01*
X132664200Y-113140200D01*
X132662996Y-113164704D01*
X132659396Y-113188973D01*
X132653435Y-113212771D01*
X132645170Y-113235871D01*
X132634680Y-113258049D01*
X132622067Y-113279093D01*
X132607453Y-113298798D01*
X132590977Y-113316977D01*
X132572798Y-113333453D01*
X132553093Y-113348067D01*
X132532049Y-113360680D01*
X132509871Y-113371170D01*
X132486771Y-113379435D01*
X132462973Y-113385396D01*
X132438704Y-113388996D01*
X132414200Y-113390200D01*
X130914200Y-113390200D01*
X130889696Y-113388996D01*
X130865427Y-113385396D01*
X130841629Y-113379435D01*
X130818529Y-113371170D01*
X130796351Y-113360680D01*
X130775307Y-113348067D01*
X130755602Y-113333453D01*
X130737423Y-113316977D01*
X130720947Y-113298798D01*
X130706333Y-113279093D01*
X130693720Y-113258049D01*
X130683230Y-113235871D01*
X130674965Y-113212771D01*
X130669004Y-113188973D01*
X130665404Y-113164704D01*
X130664200Y-113140200D01*
X130664200Y-111940200D01*
X130665404Y-111915696D01*
X130669004Y-111891427D01*
X130674965Y-111867629D01*
X130683230Y-111844529D01*
X130693720Y-111822351D01*
X130706333Y-111801307D01*
X130720947Y-111781602D01*
X130737423Y-111763423D01*
X130755602Y-111746947D01*
X130775307Y-111732333D01*
X130796351Y-111719720D01*
X130818529Y-111709230D01*
X130841629Y-111700965D01*
X130865427Y-111695004D01*
X130889696Y-111691404D01*
X130914200Y-111690200D01*
X132414200Y-111690200D01*
X132438704Y-111691404D01*
X132438704Y-111691404D01*
G37*
D10*
X131664200Y-112540200D03*
D15*
G36*
X180533503Y-99192522D02*
G01*
X180548064Y-99194682D01*
X180562343Y-99198259D01*
X180576203Y-99203218D01*
X180589510Y-99209512D01*
X180602136Y-99217080D01*
X180613959Y-99225848D01*
X180624866Y-99235734D01*
X180634752Y-99246641D01*
X180643520Y-99258464D01*
X180651088Y-99271090D01*
X180657382Y-99284397D01*
X180662341Y-99298257D01*
X180665918Y-99312536D01*
X180668078Y-99327097D01*
X180668800Y-99341800D01*
X180668800Y-99641800D01*
X180668078Y-99656503D01*
X180665918Y-99671064D01*
X180662341Y-99685343D01*
X180657382Y-99699203D01*
X180651088Y-99712510D01*
X180643520Y-99725136D01*
X180634752Y-99736959D01*
X180624866Y-99747866D01*
X180613959Y-99757752D01*
X180602136Y-99766520D01*
X180589510Y-99774088D01*
X180576203Y-99780382D01*
X180562343Y-99785341D01*
X180548064Y-99788918D01*
X180533503Y-99791078D01*
X180518800Y-99791800D01*
X178868800Y-99791800D01*
X178854097Y-99791078D01*
X178839536Y-99788918D01*
X178825257Y-99785341D01*
X178811397Y-99780382D01*
X178798090Y-99774088D01*
X178785464Y-99766520D01*
X178773641Y-99757752D01*
X178762734Y-99747866D01*
X178752848Y-99736959D01*
X178744080Y-99725136D01*
X178736512Y-99712510D01*
X178730218Y-99699203D01*
X178725259Y-99685343D01*
X178721682Y-99671064D01*
X178719522Y-99656503D01*
X178718800Y-99641800D01*
X178718800Y-99341800D01*
X178719522Y-99327097D01*
X178721682Y-99312536D01*
X178725259Y-99298257D01*
X178730218Y-99284397D01*
X178736512Y-99271090D01*
X178744080Y-99258464D01*
X178752848Y-99246641D01*
X178762734Y-99235734D01*
X178773641Y-99225848D01*
X178785464Y-99217080D01*
X178798090Y-99209512D01*
X178811397Y-99203218D01*
X178825257Y-99198259D01*
X178839536Y-99194682D01*
X178854097Y-99192522D01*
X178868800Y-99191800D01*
X180518800Y-99191800D01*
X180533503Y-99192522D01*
X180533503Y-99192522D01*
G37*
D30*
X179693800Y-99491800D03*
D15*
G36*
X180533503Y-97922522D02*
G01*
X180548064Y-97924682D01*
X180562343Y-97928259D01*
X180576203Y-97933218D01*
X180589510Y-97939512D01*
X180602136Y-97947080D01*
X180613959Y-97955848D01*
X180624866Y-97965734D01*
X180634752Y-97976641D01*
X180643520Y-97988464D01*
X180651088Y-98001090D01*
X180657382Y-98014397D01*
X180662341Y-98028257D01*
X180665918Y-98042536D01*
X180668078Y-98057097D01*
X180668800Y-98071800D01*
X180668800Y-98371800D01*
X180668078Y-98386503D01*
X180665918Y-98401064D01*
X180662341Y-98415343D01*
X180657382Y-98429203D01*
X180651088Y-98442510D01*
X180643520Y-98455136D01*
X180634752Y-98466959D01*
X180624866Y-98477866D01*
X180613959Y-98487752D01*
X180602136Y-98496520D01*
X180589510Y-98504088D01*
X180576203Y-98510382D01*
X180562343Y-98515341D01*
X180548064Y-98518918D01*
X180533503Y-98521078D01*
X180518800Y-98521800D01*
X178868800Y-98521800D01*
X178854097Y-98521078D01*
X178839536Y-98518918D01*
X178825257Y-98515341D01*
X178811397Y-98510382D01*
X178798090Y-98504088D01*
X178785464Y-98496520D01*
X178773641Y-98487752D01*
X178762734Y-98477866D01*
X178752848Y-98466959D01*
X178744080Y-98455136D01*
X178736512Y-98442510D01*
X178730218Y-98429203D01*
X178725259Y-98415343D01*
X178721682Y-98401064D01*
X178719522Y-98386503D01*
X178718800Y-98371800D01*
X178718800Y-98071800D01*
X178719522Y-98057097D01*
X178721682Y-98042536D01*
X178725259Y-98028257D01*
X178730218Y-98014397D01*
X178736512Y-98001090D01*
X178744080Y-97988464D01*
X178752848Y-97976641D01*
X178762734Y-97965734D01*
X178773641Y-97955848D01*
X178785464Y-97947080D01*
X178798090Y-97939512D01*
X178811397Y-97933218D01*
X178825257Y-97928259D01*
X178839536Y-97924682D01*
X178854097Y-97922522D01*
X178868800Y-97921800D01*
X180518800Y-97921800D01*
X180533503Y-97922522D01*
X180533503Y-97922522D01*
G37*
D30*
X179693800Y-98221800D03*
D15*
G36*
X180533503Y-96652522D02*
G01*
X180548064Y-96654682D01*
X180562343Y-96658259D01*
X180576203Y-96663218D01*
X180589510Y-96669512D01*
X180602136Y-96677080D01*
X180613959Y-96685848D01*
X180624866Y-96695734D01*
X180634752Y-96706641D01*
X180643520Y-96718464D01*
X180651088Y-96731090D01*
X180657382Y-96744397D01*
X180662341Y-96758257D01*
X180665918Y-96772536D01*
X180668078Y-96787097D01*
X180668800Y-96801800D01*
X180668800Y-97101800D01*
X180668078Y-97116503D01*
X180665918Y-97131064D01*
X180662341Y-97145343D01*
X180657382Y-97159203D01*
X180651088Y-97172510D01*
X180643520Y-97185136D01*
X180634752Y-97196959D01*
X180624866Y-97207866D01*
X180613959Y-97217752D01*
X180602136Y-97226520D01*
X180589510Y-97234088D01*
X180576203Y-97240382D01*
X180562343Y-97245341D01*
X180548064Y-97248918D01*
X180533503Y-97251078D01*
X180518800Y-97251800D01*
X178868800Y-97251800D01*
X178854097Y-97251078D01*
X178839536Y-97248918D01*
X178825257Y-97245341D01*
X178811397Y-97240382D01*
X178798090Y-97234088D01*
X178785464Y-97226520D01*
X178773641Y-97217752D01*
X178762734Y-97207866D01*
X178752848Y-97196959D01*
X178744080Y-97185136D01*
X178736512Y-97172510D01*
X178730218Y-97159203D01*
X178725259Y-97145343D01*
X178721682Y-97131064D01*
X178719522Y-97116503D01*
X178718800Y-97101800D01*
X178718800Y-96801800D01*
X178719522Y-96787097D01*
X178721682Y-96772536D01*
X178725259Y-96758257D01*
X178730218Y-96744397D01*
X178736512Y-96731090D01*
X178744080Y-96718464D01*
X178752848Y-96706641D01*
X178762734Y-96695734D01*
X178773641Y-96685848D01*
X178785464Y-96677080D01*
X178798090Y-96669512D01*
X178811397Y-96663218D01*
X178825257Y-96658259D01*
X178839536Y-96654682D01*
X178854097Y-96652522D01*
X178868800Y-96651800D01*
X180518800Y-96651800D01*
X180533503Y-96652522D01*
X180533503Y-96652522D01*
G37*
D30*
X179693800Y-96951800D03*
D15*
G36*
X180533503Y-95382522D02*
G01*
X180548064Y-95384682D01*
X180562343Y-95388259D01*
X180576203Y-95393218D01*
X180589510Y-95399512D01*
X180602136Y-95407080D01*
X180613959Y-95415848D01*
X180624866Y-95425734D01*
X180634752Y-95436641D01*
X180643520Y-95448464D01*
X180651088Y-95461090D01*
X180657382Y-95474397D01*
X180662341Y-95488257D01*
X180665918Y-95502536D01*
X180668078Y-95517097D01*
X180668800Y-95531800D01*
X180668800Y-95831800D01*
X180668078Y-95846503D01*
X180665918Y-95861064D01*
X180662341Y-95875343D01*
X180657382Y-95889203D01*
X180651088Y-95902510D01*
X180643520Y-95915136D01*
X180634752Y-95926959D01*
X180624866Y-95937866D01*
X180613959Y-95947752D01*
X180602136Y-95956520D01*
X180589510Y-95964088D01*
X180576203Y-95970382D01*
X180562343Y-95975341D01*
X180548064Y-95978918D01*
X180533503Y-95981078D01*
X180518800Y-95981800D01*
X178868800Y-95981800D01*
X178854097Y-95981078D01*
X178839536Y-95978918D01*
X178825257Y-95975341D01*
X178811397Y-95970382D01*
X178798090Y-95964088D01*
X178785464Y-95956520D01*
X178773641Y-95947752D01*
X178762734Y-95937866D01*
X178752848Y-95926959D01*
X178744080Y-95915136D01*
X178736512Y-95902510D01*
X178730218Y-95889203D01*
X178725259Y-95875343D01*
X178721682Y-95861064D01*
X178719522Y-95846503D01*
X178718800Y-95831800D01*
X178718800Y-95531800D01*
X178719522Y-95517097D01*
X178721682Y-95502536D01*
X178725259Y-95488257D01*
X178730218Y-95474397D01*
X178736512Y-95461090D01*
X178744080Y-95448464D01*
X178752848Y-95436641D01*
X178762734Y-95425734D01*
X178773641Y-95415848D01*
X178785464Y-95407080D01*
X178798090Y-95399512D01*
X178811397Y-95393218D01*
X178825257Y-95388259D01*
X178839536Y-95384682D01*
X178854097Y-95382522D01*
X178868800Y-95381800D01*
X180518800Y-95381800D01*
X180533503Y-95382522D01*
X180533503Y-95382522D01*
G37*
D30*
X179693800Y-95681800D03*
D15*
G36*
X185483503Y-95382522D02*
G01*
X185498064Y-95384682D01*
X185512343Y-95388259D01*
X185526203Y-95393218D01*
X185539510Y-95399512D01*
X185552136Y-95407080D01*
X185563959Y-95415848D01*
X185574866Y-95425734D01*
X185584752Y-95436641D01*
X185593520Y-95448464D01*
X185601088Y-95461090D01*
X185607382Y-95474397D01*
X185612341Y-95488257D01*
X185615918Y-95502536D01*
X185618078Y-95517097D01*
X185618800Y-95531800D01*
X185618800Y-95831800D01*
X185618078Y-95846503D01*
X185615918Y-95861064D01*
X185612341Y-95875343D01*
X185607382Y-95889203D01*
X185601088Y-95902510D01*
X185593520Y-95915136D01*
X185584752Y-95926959D01*
X185574866Y-95937866D01*
X185563959Y-95947752D01*
X185552136Y-95956520D01*
X185539510Y-95964088D01*
X185526203Y-95970382D01*
X185512343Y-95975341D01*
X185498064Y-95978918D01*
X185483503Y-95981078D01*
X185468800Y-95981800D01*
X183818800Y-95981800D01*
X183804097Y-95981078D01*
X183789536Y-95978918D01*
X183775257Y-95975341D01*
X183761397Y-95970382D01*
X183748090Y-95964088D01*
X183735464Y-95956520D01*
X183723641Y-95947752D01*
X183712734Y-95937866D01*
X183702848Y-95926959D01*
X183694080Y-95915136D01*
X183686512Y-95902510D01*
X183680218Y-95889203D01*
X183675259Y-95875343D01*
X183671682Y-95861064D01*
X183669522Y-95846503D01*
X183668800Y-95831800D01*
X183668800Y-95531800D01*
X183669522Y-95517097D01*
X183671682Y-95502536D01*
X183675259Y-95488257D01*
X183680218Y-95474397D01*
X183686512Y-95461090D01*
X183694080Y-95448464D01*
X183702848Y-95436641D01*
X183712734Y-95425734D01*
X183723641Y-95415848D01*
X183735464Y-95407080D01*
X183748090Y-95399512D01*
X183761397Y-95393218D01*
X183775257Y-95388259D01*
X183789536Y-95384682D01*
X183804097Y-95382522D01*
X183818800Y-95381800D01*
X185468800Y-95381800D01*
X185483503Y-95382522D01*
X185483503Y-95382522D01*
G37*
D30*
X184643800Y-95681800D03*
D15*
G36*
X185483503Y-96652522D02*
G01*
X185498064Y-96654682D01*
X185512343Y-96658259D01*
X185526203Y-96663218D01*
X185539510Y-96669512D01*
X185552136Y-96677080D01*
X185563959Y-96685848D01*
X185574866Y-96695734D01*
X185584752Y-96706641D01*
X185593520Y-96718464D01*
X185601088Y-96731090D01*
X185607382Y-96744397D01*
X185612341Y-96758257D01*
X185615918Y-96772536D01*
X185618078Y-96787097D01*
X185618800Y-96801800D01*
X185618800Y-97101800D01*
X185618078Y-97116503D01*
X185615918Y-97131064D01*
X185612341Y-97145343D01*
X185607382Y-97159203D01*
X185601088Y-97172510D01*
X185593520Y-97185136D01*
X185584752Y-97196959D01*
X185574866Y-97207866D01*
X185563959Y-97217752D01*
X185552136Y-97226520D01*
X185539510Y-97234088D01*
X185526203Y-97240382D01*
X185512343Y-97245341D01*
X185498064Y-97248918D01*
X185483503Y-97251078D01*
X185468800Y-97251800D01*
X183818800Y-97251800D01*
X183804097Y-97251078D01*
X183789536Y-97248918D01*
X183775257Y-97245341D01*
X183761397Y-97240382D01*
X183748090Y-97234088D01*
X183735464Y-97226520D01*
X183723641Y-97217752D01*
X183712734Y-97207866D01*
X183702848Y-97196959D01*
X183694080Y-97185136D01*
X183686512Y-97172510D01*
X183680218Y-97159203D01*
X183675259Y-97145343D01*
X183671682Y-97131064D01*
X183669522Y-97116503D01*
X183668800Y-97101800D01*
X183668800Y-96801800D01*
X183669522Y-96787097D01*
X183671682Y-96772536D01*
X183675259Y-96758257D01*
X183680218Y-96744397D01*
X183686512Y-96731090D01*
X183694080Y-96718464D01*
X183702848Y-96706641D01*
X183712734Y-96695734D01*
X183723641Y-96685848D01*
X183735464Y-96677080D01*
X183748090Y-96669512D01*
X183761397Y-96663218D01*
X183775257Y-96658259D01*
X183789536Y-96654682D01*
X183804097Y-96652522D01*
X183818800Y-96651800D01*
X185468800Y-96651800D01*
X185483503Y-96652522D01*
X185483503Y-96652522D01*
G37*
D30*
X184643800Y-96951800D03*
D15*
G36*
X185483503Y-97922522D02*
G01*
X185498064Y-97924682D01*
X185512343Y-97928259D01*
X185526203Y-97933218D01*
X185539510Y-97939512D01*
X185552136Y-97947080D01*
X185563959Y-97955848D01*
X185574866Y-97965734D01*
X185584752Y-97976641D01*
X185593520Y-97988464D01*
X185601088Y-98001090D01*
X185607382Y-98014397D01*
X185612341Y-98028257D01*
X185615918Y-98042536D01*
X185618078Y-98057097D01*
X185618800Y-98071800D01*
X185618800Y-98371800D01*
X185618078Y-98386503D01*
X185615918Y-98401064D01*
X185612341Y-98415343D01*
X185607382Y-98429203D01*
X185601088Y-98442510D01*
X185593520Y-98455136D01*
X185584752Y-98466959D01*
X185574866Y-98477866D01*
X185563959Y-98487752D01*
X185552136Y-98496520D01*
X185539510Y-98504088D01*
X185526203Y-98510382D01*
X185512343Y-98515341D01*
X185498064Y-98518918D01*
X185483503Y-98521078D01*
X185468800Y-98521800D01*
X183818800Y-98521800D01*
X183804097Y-98521078D01*
X183789536Y-98518918D01*
X183775257Y-98515341D01*
X183761397Y-98510382D01*
X183748090Y-98504088D01*
X183735464Y-98496520D01*
X183723641Y-98487752D01*
X183712734Y-98477866D01*
X183702848Y-98466959D01*
X183694080Y-98455136D01*
X183686512Y-98442510D01*
X183680218Y-98429203D01*
X183675259Y-98415343D01*
X183671682Y-98401064D01*
X183669522Y-98386503D01*
X183668800Y-98371800D01*
X183668800Y-98071800D01*
X183669522Y-98057097D01*
X183671682Y-98042536D01*
X183675259Y-98028257D01*
X183680218Y-98014397D01*
X183686512Y-98001090D01*
X183694080Y-97988464D01*
X183702848Y-97976641D01*
X183712734Y-97965734D01*
X183723641Y-97955848D01*
X183735464Y-97947080D01*
X183748090Y-97939512D01*
X183761397Y-97933218D01*
X183775257Y-97928259D01*
X183789536Y-97924682D01*
X183804097Y-97922522D01*
X183818800Y-97921800D01*
X185468800Y-97921800D01*
X185483503Y-97922522D01*
X185483503Y-97922522D01*
G37*
D30*
X184643800Y-98221800D03*
D15*
G36*
X185483503Y-99192522D02*
G01*
X185498064Y-99194682D01*
X185512343Y-99198259D01*
X185526203Y-99203218D01*
X185539510Y-99209512D01*
X185552136Y-99217080D01*
X185563959Y-99225848D01*
X185574866Y-99235734D01*
X185584752Y-99246641D01*
X185593520Y-99258464D01*
X185601088Y-99271090D01*
X185607382Y-99284397D01*
X185612341Y-99298257D01*
X185615918Y-99312536D01*
X185618078Y-99327097D01*
X185618800Y-99341800D01*
X185618800Y-99641800D01*
X185618078Y-99656503D01*
X185615918Y-99671064D01*
X185612341Y-99685343D01*
X185607382Y-99699203D01*
X185601088Y-99712510D01*
X185593520Y-99725136D01*
X185584752Y-99736959D01*
X185574866Y-99747866D01*
X185563959Y-99757752D01*
X185552136Y-99766520D01*
X185539510Y-99774088D01*
X185526203Y-99780382D01*
X185512343Y-99785341D01*
X185498064Y-99788918D01*
X185483503Y-99791078D01*
X185468800Y-99791800D01*
X183818800Y-99791800D01*
X183804097Y-99791078D01*
X183789536Y-99788918D01*
X183775257Y-99785341D01*
X183761397Y-99780382D01*
X183748090Y-99774088D01*
X183735464Y-99766520D01*
X183723641Y-99757752D01*
X183712734Y-99747866D01*
X183702848Y-99736959D01*
X183694080Y-99725136D01*
X183686512Y-99712510D01*
X183680218Y-99699203D01*
X183675259Y-99685343D01*
X183671682Y-99671064D01*
X183669522Y-99656503D01*
X183668800Y-99641800D01*
X183668800Y-99341800D01*
X183669522Y-99327097D01*
X183671682Y-99312536D01*
X183675259Y-99298257D01*
X183680218Y-99284397D01*
X183686512Y-99271090D01*
X183694080Y-99258464D01*
X183702848Y-99246641D01*
X183712734Y-99235734D01*
X183723641Y-99225848D01*
X183735464Y-99217080D01*
X183748090Y-99209512D01*
X183761397Y-99203218D01*
X183775257Y-99198259D01*
X183789536Y-99194682D01*
X183804097Y-99192522D01*
X183818800Y-99191800D01*
X185468800Y-99191800D01*
X185483503Y-99192522D01*
X185483503Y-99192522D01*
G37*
D30*
X184643800Y-99491800D03*
D27*
X148818600Y-123326400D03*
X147868600Y-121326400D03*
X149768600Y-121326400D03*
X148818600Y-130438400D03*
X147868600Y-128438400D03*
X149768600Y-128438400D03*
D14*
X161636200Y-129590800D03*
X163636200Y-128640800D03*
X163636200Y-130540800D03*
X169688000Y-129641600D03*
X171688000Y-128691600D03*
X171688000Y-130591600D03*
X174082200Y-129641600D03*
X176082200Y-128691600D03*
X176082200Y-130591600D03*
X172399200Y-134874000D03*
X170399200Y-135824000D03*
X170399200Y-133924000D03*
X176056800Y-134874000D03*
X174056800Y-135824000D03*
X174056800Y-133924000D03*
D12*
X190601600Y-149047200D03*
D11*
X190601600Y-146507200D03*
D12*
X178308000Y-140589000D03*
X180848000Y-140589000D03*
D11*
X183388000Y-140589000D03*
D12*
X178308000Y-144272000D03*
X180848000Y-144272000D03*
D11*
X183388000Y-144272000D03*
D12*
X115265200Y-154101800D03*
X115265200Y-151561800D03*
X115265200Y-149021800D03*
X115265200Y-146481800D03*
X115265200Y-143941800D03*
D11*
X115265200Y-141401800D03*
D12*
X111201200Y-154101800D03*
X111201200Y-151561800D03*
X111201200Y-149021800D03*
X111201200Y-146481800D03*
X111201200Y-143941800D03*
D11*
X111201200Y-141401800D03*
D12*
X182321200Y-102565200D03*
X182321200Y-105105200D03*
X182321200Y-107645200D03*
D11*
X182321200Y-110185200D03*
D12*
X194564000Y-128270000D03*
X197104000Y-128270000D03*
X199644000Y-128270000D03*
D11*
X202184000Y-128270000D03*
D29*
X163779200Y-111676800D03*
D15*
G36*
X164553704Y-108328004D02*
G01*
X164577973Y-108331604D01*
X164601771Y-108337565D01*
X164624871Y-108345830D01*
X164647049Y-108356320D01*
X164668093Y-108368933D01*
X164687798Y-108383547D01*
X164705977Y-108400023D01*
X164722453Y-108418202D01*
X164737067Y-108437907D01*
X164749680Y-108458951D01*
X164760170Y-108481129D01*
X164768435Y-108504229D01*
X164774396Y-108528027D01*
X164777996Y-108552296D01*
X164779200Y-108576800D01*
X164779200Y-109776800D01*
X164777996Y-109801304D01*
X164774396Y-109825573D01*
X164768435Y-109849371D01*
X164760170Y-109872471D01*
X164749680Y-109894649D01*
X164737067Y-109915693D01*
X164722453Y-109935398D01*
X164705977Y-109953577D01*
X164687798Y-109970053D01*
X164668093Y-109984667D01*
X164647049Y-109997280D01*
X164624871Y-110007770D01*
X164601771Y-110016035D01*
X164577973Y-110021996D01*
X164553704Y-110025596D01*
X164529200Y-110026800D01*
X163029200Y-110026800D01*
X163004696Y-110025596D01*
X162980427Y-110021996D01*
X162956629Y-110016035D01*
X162933529Y-110007770D01*
X162911351Y-109997280D01*
X162890307Y-109984667D01*
X162870602Y-109970053D01*
X162852423Y-109953577D01*
X162835947Y-109935398D01*
X162821333Y-109915693D01*
X162808720Y-109894649D01*
X162798230Y-109872471D01*
X162789965Y-109849371D01*
X162784004Y-109825573D01*
X162780404Y-109801304D01*
X162779200Y-109776800D01*
X162779200Y-108576800D01*
X162780404Y-108552296D01*
X162784004Y-108528027D01*
X162789965Y-108504229D01*
X162798230Y-108481129D01*
X162808720Y-108458951D01*
X162821333Y-108437907D01*
X162835947Y-108418202D01*
X162852423Y-108400023D01*
X162870602Y-108383547D01*
X162890307Y-108368933D01*
X162911351Y-108356320D01*
X162933529Y-108345830D01*
X162956629Y-108337565D01*
X162980427Y-108331604D01*
X163004696Y-108328004D01*
X163029200Y-108326800D01*
X164529200Y-108326800D01*
X164553704Y-108328004D01*
X164553704Y-108328004D01*
G37*
D10*
X163779200Y-109176800D03*
D29*
X172779200Y-111676800D03*
D15*
G36*
X173553704Y-108328004D02*
G01*
X173577973Y-108331604D01*
X173601771Y-108337565D01*
X173624871Y-108345830D01*
X173647049Y-108356320D01*
X173668093Y-108368933D01*
X173687798Y-108383547D01*
X173705977Y-108400023D01*
X173722453Y-108418202D01*
X173737067Y-108437907D01*
X173749680Y-108458951D01*
X173760170Y-108481129D01*
X173768435Y-108504229D01*
X173774396Y-108528027D01*
X173777996Y-108552296D01*
X173779200Y-108576800D01*
X173779200Y-109776800D01*
X173777996Y-109801304D01*
X173774396Y-109825573D01*
X173768435Y-109849371D01*
X173760170Y-109872471D01*
X173749680Y-109894649D01*
X173737067Y-109915693D01*
X173722453Y-109935398D01*
X173705977Y-109953577D01*
X173687798Y-109970053D01*
X173668093Y-109984667D01*
X173647049Y-109997280D01*
X173624871Y-110007770D01*
X173601771Y-110016035D01*
X173577973Y-110021996D01*
X173553704Y-110025596D01*
X173529200Y-110026800D01*
X172029200Y-110026800D01*
X172004696Y-110025596D01*
X171980427Y-110021996D01*
X171956629Y-110016035D01*
X171933529Y-110007770D01*
X171911351Y-109997280D01*
X171890307Y-109984667D01*
X171870602Y-109970053D01*
X171852423Y-109953577D01*
X171835947Y-109935398D01*
X171821333Y-109915693D01*
X171808720Y-109894649D01*
X171798230Y-109872471D01*
X171789965Y-109849371D01*
X171784004Y-109825573D01*
X171780404Y-109801304D01*
X171779200Y-109776800D01*
X171779200Y-108576800D01*
X171780404Y-108552296D01*
X171784004Y-108528027D01*
X171789965Y-108504229D01*
X171798230Y-108481129D01*
X171808720Y-108458951D01*
X171821333Y-108437907D01*
X171835947Y-108418202D01*
X171852423Y-108400023D01*
X171870602Y-108383547D01*
X171890307Y-108368933D01*
X171911351Y-108356320D01*
X171933529Y-108345830D01*
X171956629Y-108337565D01*
X171980427Y-108331604D01*
X172004696Y-108328004D01*
X172029200Y-108326800D01*
X173529200Y-108326800D01*
X173553704Y-108328004D01*
X173553704Y-108328004D01*
G37*
D10*
X172779200Y-109176800D03*
D29*
X163779200Y-121676800D03*
D15*
G36*
X164553704Y-118328004D02*
G01*
X164577973Y-118331604D01*
X164601771Y-118337565D01*
X164624871Y-118345830D01*
X164647049Y-118356320D01*
X164668093Y-118368933D01*
X164687798Y-118383547D01*
X164705977Y-118400023D01*
X164722453Y-118418202D01*
X164737067Y-118437907D01*
X164749680Y-118458951D01*
X164760170Y-118481129D01*
X164768435Y-118504229D01*
X164774396Y-118528027D01*
X164777996Y-118552296D01*
X164779200Y-118576800D01*
X164779200Y-119776800D01*
X164777996Y-119801304D01*
X164774396Y-119825573D01*
X164768435Y-119849371D01*
X164760170Y-119872471D01*
X164749680Y-119894649D01*
X164737067Y-119915693D01*
X164722453Y-119935398D01*
X164705977Y-119953577D01*
X164687798Y-119970053D01*
X164668093Y-119984667D01*
X164647049Y-119997280D01*
X164624871Y-120007770D01*
X164601771Y-120016035D01*
X164577973Y-120021996D01*
X164553704Y-120025596D01*
X164529200Y-120026800D01*
X163029200Y-120026800D01*
X163004696Y-120025596D01*
X162980427Y-120021996D01*
X162956629Y-120016035D01*
X162933529Y-120007770D01*
X162911351Y-119997280D01*
X162890307Y-119984667D01*
X162870602Y-119970053D01*
X162852423Y-119953577D01*
X162835947Y-119935398D01*
X162821333Y-119915693D01*
X162808720Y-119894649D01*
X162798230Y-119872471D01*
X162789965Y-119849371D01*
X162784004Y-119825573D01*
X162780404Y-119801304D01*
X162779200Y-119776800D01*
X162779200Y-118576800D01*
X162780404Y-118552296D01*
X162784004Y-118528027D01*
X162789965Y-118504229D01*
X162798230Y-118481129D01*
X162808720Y-118458951D01*
X162821333Y-118437907D01*
X162835947Y-118418202D01*
X162852423Y-118400023D01*
X162870602Y-118383547D01*
X162890307Y-118368933D01*
X162911351Y-118356320D01*
X162933529Y-118345830D01*
X162956629Y-118337565D01*
X162980427Y-118331604D01*
X163004696Y-118328004D01*
X163029200Y-118326800D01*
X164529200Y-118326800D01*
X164553704Y-118328004D01*
X164553704Y-118328004D01*
G37*
D10*
X163779200Y-119176800D03*
D29*
X172779200Y-121676800D03*
D15*
G36*
X173553704Y-118328004D02*
G01*
X173577973Y-118331604D01*
X173601771Y-118337565D01*
X173624871Y-118345830D01*
X173647049Y-118356320D01*
X173668093Y-118368933D01*
X173687798Y-118383547D01*
X173705977Y-118400023D01*
X173722453Y-118418202D01*
X173737067Y-118437907D01*
X173749680Y-118458951D01*
X173760170Y-118481129D01*
X173768435Y-118504229D01*
X173774396Y-118528027D01*
X173777996Y-118552296D01*
X173779200Y-118576800D01*
X173779200Y-119776800D01*
X173777996Y-119801304D01*
X173774396Y-119825573D01*
X173768435Y-119849371D01*
X173760170Y-119872471D01*
X173749680Y-119894649D01*
X173737067Y-119915693D01*
X173722453Y-119935398D01*
X173705977Y-119953577D01*
X173687798Y-119970053D01*
X173668093Y-119984667D01*
X173647049Y-119997280D01*
X173624871Y-120007770D01*
X173601771Y-120016035D01*
X173577973Y-120021996D01*
X173553704Y-120025596D01*
X173529200Y-120026800D01*
X172029200Y-120026800D01*
X172004696Y-120025596D01*
X171980427Y-120021996D01*
X171956629Y-120016035D01*
X171933529Y-120007770D01*
X171911351Y-119997280D01*
X171890307Y-119984667D01*
X171870602Y-119970053D01*
X171852423Y-119953577D01*
X171835947Y-119935398D01*
X171821333Y-119915693D01*
X171808720Y-119894649D01*
X171798230Y-119872471D01*
X171789965Y-119849371D01*
X171784004Y-119825573D01*
X171780404Y-119801304D01*
X171779200Y-119776800D01*
X171779200Y-118576800D01*
X171780404Y-118552296D01*
X171784004Y-118528027D01*
X171789965Y-118504229D01*
X171798230Y-118481129D01*
X171808720Y-118458951D01*
X171821333Y-118437907D01*
X171835947Y-118418202D01*
X171852423Y-118400023D01*
X171870602Y-118383547D01*
X171890307Y-118368933D01*
X171911351Y-118356320D01*
X171933529Y-118345830D01*
X171956629Y-118337565D01*
X171980427Y-118331604D01*
X172004696Y-118328004D01*
X172029200Y-118326800D01*
X173529200Y-118326800D01*
X173553704Y-118328004D01*
X173553704Y-118328004D01*
G37*
D10*
X172779200Y-119176800D03*
D15*
G36*
X69558504Y-136326004D02*
G01*
X69582773Y-136329604D01*
X69606571Y-136335565D01*
X69629671Y-136343830D01*
X69651849Y-136354320D01*
X69672893Y-136366933D01*
X69692598Y-136381547D01*
X69710777Y-136398023D01*
X69727253Y-136416202D01*
X69741867Y-136435907D01*
X69754480Y-136456951D01*
X69764970Y-136479129D01*
X69773235Y-136502229D01*
X69779196Y-136526027D01*
X69782796Y-136550296D01*
X69784000Y-136574800D01*
X69784000Y-140224800D01*
X69782796Y-140249304D01*
X69779196Y-140273573D01*
X69773235Y-140297371D01*
X69764970Y-140320471D01*
X69754480Y-140342649D01*
X69741867Y-140363693D01*
X69727253Y-140383398D01*
X69710777Y-140401577D01*
X69692598Y-140418053D01*
X69672893Y-140432667D01*
X69651849Y-140445280D01*
X69629671Y-140455770D01*
X69606571Y-140464035D01*
X69582773Y-140469996D01*
X69558504Y-140473596D01*
X69534000Y-140474800D01*
X68134000Y-140474800D01*
X68109496Y-140473596D01*
X68085227Y-140469996D01*
X68061429Y-140464035D01*
X68038329Y-140455770D01*
X68016151Y-140445280D01*
X67995107Y-140432667D01*
X67975402Y-140418053D01*
X67957223Y-140401577D01*
X67940747Y-140383398D01*
X67926133Y-140363693D01*
X67913520Y-140342649D01*
X67903030Y-140320471D01*
X67894765Y-140297371D01*
X67888804Y-140273573D01*
X67885204Y-140249304D01*
X67884000Y-140224800D01*
X67884000Y-136574800D01*
X67885204Y-136550296D01*
X67888804Y-136526027D01*
X67894765Y-136502229D01*
X67903030Y-136479129D01*
X67913520Y-136456951D01*
X67926133Y-136435907D01*
X67940747Y-136416202D01*
X67957223Y-136398023D01*
X67975402Y-136381547D01*
X67995107Y-136366933D01*
X68016151Y-136354320D01*
X68038329Y-136343830D01*
X68061429Y-136335565D01*
X68085227Y-136329604D01*
X68109496Y-136326004D01*
X68134000Y-136324800D01*
X69534000Y-136324800D01*
X69558504Y-136326004D01*
X69558504Y-136326004D01*
G37*
D28*
X68834000Y-138399800D03*
D15*
G36*
X69558504Y-129376004D02*
G01*
X69582773Y-129379604D01*
X69606571Y-129385565D01*
X69629671Y-129393830D01*
X69651849Y-129404320D01*
X69672893Y-129416933D01*
X69692598Y-129431547D01*
X69710777Y-129448023D01*
X69727253Y-129466202D01*
X69741867Y-129485907D01*
X69754480Y-129506951D01*
X69764970Y-129529129D01*
X69773235Y-129552229D01*
X69779196Y-129576027D01*
X69782796Y-129600296D01*
X69784000Y-129624800D01*
X69784000Y-133274800D01*
X69782796Y-133299304D01*
X69779196Y-133323573D01*
X69773235Y-133347371D01*
X69764970Y-133370471D01*
X69754480Y-133392649D01*
X69741867Y-133413693D01*
X69727253Y-133433398D01*
X69710777Y-133451577D01*
X69692598Y-133468053D01*
X69672893Y-133482667D01*
X69651849Y-133495280D01*
X69629671Y-133505770D01*
X69606571Y-133514035D01*
X69582773Y-133519996D01*
X69558504Y-133523596D01*
X69534000Y-133524800D01*
X68134000Y-133524800D01*
X68109496Y-133523596D01*
X68085227Y-133519996D01*
X68061429Y-133514035D01*
X68038329Y-133505770D01*
X68016151Y-133495280D01*
X67995107Y-133482667D01*
X67975402Y-133468053D01*
X67957223Y-133451577D01*
X67940747Y-133433398D01*
X67926133Y-133413693D01*
X67913520Y-133392649D01*
X67903030Y-133370471D01*
X67894765Y-133347371D01*
X67888804Y-133323573D01*
X67885204Y-133299304D01*
X67884000Y-133274800D01*
X67884000Y-129624800D01*
X67885204Y-129600296D01*
X67888804Y-129576027D01*
X67894765Y-129552229D01*
X67903030Y-129529129D01*
X67913520Y-129506951D01*
X67926133Y-129485907D01*
X67940747Y-129466202D01*
X67957223Y-129448023D01*
X67975402Y-129431547D01*
X67995107Y-129416933D01*
X68016151Y-129404320D01*
X68038329Y-129393830D01*
X68061429Y-129385565D01*
X68085227Y-129379604D01*
X68109496Y-129376004D01*
X68134000Y-129374800D01*
X69534000Y-129374800D01*
X69558504Y-129376004D01*
X69558504Y-129376004D01*
G37*
D28*
X68834000Y-131449800D03*
D15*
G36*
X51524504Y-136326004D02*
G01*
X51548773Y-136329604D01*
X51572571Y-136335565D01*
X51595671Y-136343830D01*
X51617849Y-136354320D01*
X51638893Y-136366933D01*
X51658598Y-136381547D01*
X51676777Y-136398023D01*
X51693253Y-136416202D01*
X51707867Y-136435907D01*
X51720480Y-136456951D01*
X51730970Y-136479129D01*
X51739235Y-136502229D01*
X51745196Y-136526027D01*
X51748796Y-136550296D01*
X51750000Y-136574800D01*
X51750000Y-140224800D01*
X51748796Y-140249304D01*
X51745196Y-140273573D01*
X51739235Y-140297371D01*
X51730970Y-140320471D01*
X51720480Y-140342649D01*
X51707867Y-140363693D01*
X51693253Y-140383398D01*
X51676777Y-140401577D01*
X51658598Y-140418053D01*
X51638893Y-140432667D01*
X51617849Y-140445280D01*
X51595671Y-140455770D01*
X51572571Y-140464035D01*
X51548773Y-140469996D01*
X51524504Y-140473596D01*
X51500000Y-140474800D01*
X50100000Y-140474800D01*
X50075496Y-140473596D01*
X50051227Y-140469996D01*
X50027429Y-140464035D01*
X50004329Y-140455770D01*
X49982151Y-140445280D01*
X49961107Y-140432667D01*
X49941402Y-140418053D01*
X49923223Y-140401577D01*
X49906747Y-140383398D01*
X49892133Y-140363693D01*
X49879520Y-140342649D01*
X49869030Y-140320471D01*
X49860765Y-140297371D01*
X49854804Y-140273573D01*
X49851204Y-140249304D01*
X49850000Y-140224800D01*
X49850000Y-136574800D01*
X49851204Y-136550296D01*
X49854804Y-136526027D01*
X49860765Y-136502229D01*
X49869030Y-136479129D01*
X49879520Y-136456951D01*
X49892133Y-136435907D01*
X49906747Y-136416202D01*
X49923223Y-136398023D01*
X49941402Y-136381547D01*
X49961107Y-136366933D01*
X49982151Y-136354320D01*
X50004329Y-136343830D01*
X50027429Y-136335565D01*
X50051227Y-136329604D01*
X50075496Y-136326004D01*
X50100000Y-136324800D01*
X51500000Y-136324800D01*
X51524504Y-136326004D01*
X51524504Y-136326004D01*
G37*
D28*
X50800000Y-138399800D03*
D15*
G36*
X51524504Y-129376004D02*
G01*
X51548773Y-129379604D01*
X51572571Y-129385565D01*
X51595671Y-129393830D01*
X51617849Y-129404320D01*
X51638893Y-129416933D01*
X51658598Y-129431547D01*
X51676777Y-129448023D01*
X51693253Y-129466202D01*
X51707867Y-129485907D01*
X51720480Y-129506951D01*
X51730970Y-129529129D01*
X51739235Y-129552229D01*
X51745196Y-129576027D01*
X51748796Y-129600296D01*
X51750000Y-129624800D01*
X51750000Y-133274800D01*
X51748796Y-133299304D01*
X51745196Y-133323573D01*
X51739235Y-133347371D01*
X51730970Y-133370471D01*
X51720480Y-133392649D01*
X51707867Y-133413693D01*
X51693253Y-133433398D01*
X51676777Y-133451577D01*
X51658598Y-133468053D01*
X51638893Y-133482667D01*
X51617849Y-133495280D01*
X51595671Y-133505770D01*
X51572571Y-133514035D01*
X51548773Y-133519996D01*
X51524504Y-133523596D01*
X51500000Y-133524800D01*
X50100000Y-133524800D01*
X50075496Y-133523596D01*
X50051227Y-133519996D01*
X50027429Y-133514035D01*
X50004329Y-133505770D01*
X49982151Y-133495280D01*
X49961107Y-133482667D01*
X49941402Y-133468053D01*
X49923223Y-133451577D01*
X49906747Y-133433398D01*
X49892133Y-133413693D01*
X49879520Y-133392649D01*
X49869030Y-133370471D01*
X49860765Y-133347371D01*
X49854804Y-133323573D01*
X49851204Y-133299304D01*
X49850000Y-133274800D01*
X49850000Y-129624800D01*
X49851204Y-129600296D01*
X49854804Y-129576027D01*
X49860765Y-129552229D01*
X49869030Y-129529129D01*
X49879520Y-129506951D01*
X49892133Y-129485907D01*
X49906747Y-129466202D01*
X49923223Y-129448023D01*
X49941402Y-129431547D01*
X49961107Y-129416933D01*
X49982151Y-129404320D01*
X50004329Y-129393830D01*
X50027429Y-129385565D01*
X50051227Y-129379604D01*
X50075496Y-129376004D01*
X50100000Y-129374800D01*
X51500000Y-129374800D01*
X51524504Y-129376004D01*
X51524504Y-129376004D01*
G37*
D28*
X50800000Y-131449800D03*
D15*
G36*
X60414504Y-136326004D02*
G01*
X60438773Y-136329604D01*
X60462571Y-136335565D01*
X60485671Y-136343830D01*
X60507849Y-136354320D01*
X60528893Y-136366933D01*
X60548598Y-136381547D01*
X60566777Y-136398023D01*
X60583253Y-136416202D01*
X60597867Y-136435907D01*
X60610480Y-136456951D01*
X60620970Y-136479129D01*
X60629235Y-136502229D01*
X60635196Y-136526027D01*
X60638796Y-136550296D01*
X60640000Y-136574800D01*
X60640000Y-140224800D01*
X60638796Y-140249304D01*
X60635196Y-140273573D01*
X60629235Y-140297371D01*
X60620970Y-140320471D01*
X60610480Y-140342649D01*
X60597867Y-140363693D01*
X60583253Y-140383398D01*
X60566777Y-140401577D01*
X60548598Y-140418053D01*
X60528893Y-140432667D01*
X60507849Y-140445280D01*
X60485671Y-140455770D01*
X60462571Y-140464035D01*
X60438773Y-140469996D01*
X60414504Y-140473596D01*
X60390000Y-140474800D01*
X58990000Y-140474800D01*
X58965496Y-140473596D01*
X58941227Y-140469996D01*
X58917429Y-140464035D01*
X58894329Y-140455770D01*
X58872151Y-140445280D01*
X58851107Y-140432667D01*
X58831402Y-140418053D01*
X58813223Y-140401577D01*
X58796747Y-140383398D01*
X58782133Y-140363693D01*
X58769520Y-140342649D01*
X58759030Y-140320471D01*
X58750765Y-140297371D01*
X58744804Y-140273573D01*
X58741204Y-140249304D01*
X58740000Y-140224800D01*
X58740000Y-136574800D01*
X58741204Y-136550296D01*
X58744804Y-136526027D01*
X58750765Y-136502229D01*
X58759030Y-136479129D01*
X58769520Y-136456951D01*
X58782133Y-136435907D01*
X58796747Y-136416202D01*
X58813223Y-136398023D01*
X58831402Y-136381547D01*
X58851107Y-136366933D01*
X58872151Y-136354320D01*
X58894329Y-136343830D01*
X58917429Y-136335565D01*
X58941227Y-136329604D01*
X58965496Y-136326004D01*
X58990000Y-136324800D01*
X60390000Y-136324800D01*
X60414504Y-136326004D01*
X60414504Y-136326004D01*
G37*
D28*
X59690000Y-138399800D03*
D15*
G36*
X60414504Y-129376004D02*
G01*
X60438773Y-129379604D01*
X60462571Y-129385565D01*
X60485671Y-129393830D01*
X60507849Y-129404320D01*
X60528893Y-129416933D01*
X60548598Y-129431547D01*
X60566777Y-129448023D01*
X60583253Y-129466202D01*
X60597867Y-129485907D01*
X60610480Y-129506951D01*
X60620970Y-129529129D01*
X60629235Y-129552229D01*
X60635196Y-129576027D01*
X60638796Y-129600296D01*
X60640000Y-129624800D01*
X60640000Y-133274800D01*
X60638796Y-133299304D01*
X60635196Y-133323573D01*
X60629235Y-133347371D01*
X60620970Y-133370471D01*
X60610480Y-133392649D01*
X60597867Y-133413693D01*
X60583253Y-133433398D01*
X60566777Y-133451577D01*
X60548598Y-133468053D01*
X60528893Y-133482667D01*
X60507849Y-133495280D01*
X60485671Y-133505770D01*
X60462571Y-133514035D01*
X60438773Y-133519996D01*
X60414504Y-133523596D01*
X60390000Y-133524800D01*
X58990000Y-133524800D01*
X58965496Y-133523596D01*
X58941227Y-133519996D01*
X58917429Y-133514035D01*
X58894329Y-133505770D01*
X58872151Y-133495280D01*
X58851107Y-133482667D01*
X58831402Y-133468053D01*
X58813223Y-133451577D01*
X58796747Y-133433398D01*
X58782133Y-133413693D01*
X58769520Y-133392649D01*
X58759030Y-133370471D01*
X58750765Y-133347371D01*
X58744804Y-133323573D01*
X58741204Y-133299304D01*
X58740000Y-133274800D01*
X58740000Y-129624800D01*
X58741204Y-129600296D01*
X58744804Y-129576027D01*
X58750765Y-129552229D01*
X58759030Y-129529129D01*
X58769520Y-129506951D01*
X58782133Y-129485907D01*
X58796747Y-129466202D01*
X58813223Y-129448023D01*
X58831402Y-129431547D01*
X58851107Y-129416933D01*
X58872151Y-129404320D01*
X58894329Y-129393830D01*
X58917429Y-129385565D01*
X58941227Y-129379604D01*
X58965496Y-129376004D01*
X58990000Y-129374800D01*
X60390000Y-129374800D01*
X60414504Y-129376004D01*
X60414504Y-129376004D01*
G37*
D28*
X59690000Y-131449800D03*
D17*
X194665600Y-115900200D03*
X195961000Y-109702600D03*
X128473200Y-109016800D03*
X127254000Y-112852200D03*
X127254000Y-105054400D03*
X127254000Y-92329000D03*
X127304800Y-83058000D03*
X150342600Y-126898400D03*
X122174000Y-68224400D03*
X122224800Y-67259200D03*
X147269200Y-58902600D03*
X147193000Y-60248800D03*
X172669200Y-60731400D03*
X170942000Y-60706000D03*
X167614600Y-82702400D03*
X168529000Y-82702400D03*
X167411400Y-101701600D03*
X168783000Y-101549200D03*
X171932600Y-126923800D03*
X164922200Y-126034800D03*
X124460000Y-83464400D03*
X201015600Y-108229400D03*
X195884800Y-116890800D03*
X174082200Y-125663200D03*
X169697400Y-125603000D03*
X167741600Y-123418600D03*
X161620200Y-126390400D03*
D31*
X118567200Y-109169200D03*
X117246400Y-95707200D03*
D17*
X119862600Y-110566200D03*
X120015000Y-107950000D03*
X140309600Y-86893400D03*
X134112000Y-151130000D03*
X194030600Y-91287600D03*
X171500800Y-74625200D03*
X173594498Y-81407000D03*
X169976800Y-81309900D03*
X170357800Y-101092000D03*
X177825400Y-100965000D03*
X198094600Y-108407200D03*
X199593200Y-125806200D03*
X145930001Y-156964999D03*
X117805200Y-151561800D03*
X129459382Y-136808818D03*
X139395200Y-111252000D03*
X142138400Y-95885000D03*
X142138400Y-70916800D03*
X143256000Y-147574000D03*
X117932200Y-149021800D03*
X132080000Y-136728200D03*
X142671800Y-111353600D03*
X144173402Y-90801998D03*
X144197300Y-65789002D03*
X118059200Y-146481800D03*
X118059200Y-144957800D03*
X192786000Y-137414000D03*
X160172400Y-156413200D03*
X125145800Y-93040200D03*
X132664200Y-82194400D03*
X140204099Y-61997499D03*
X140512800Y-77190600D03*
X137668000Y-81051400D03*
X149098000Y-148336000D03*
X140335000Y-147320000D03*
X137795000Y-139244300D03*
X137541000Y-147447000D03*
X117932200Y-154101800D03*
X130747754Y-136055386D03*
X140995400Y-111277400D03*
X143155901Y-88266501D03*
X143179800Y-63271400D03*
X136144000Y-147320000D03*
X143764000Y-156210000D03*
X132715000Y-147447000D03*
X164693600Y-104083103D03*
X164693600Y-102590600D03*
X164820600Y-85725000D03*
X167640000Y-148640800D03*
X170180000Y-148463000D03*
X158470600Y-147980400D03*
X162560000Y-148539200D03*
X160070800Y-148056600D03*
X165100000Y-148361400D03*
X172415200Y-78536800D03*
X172643800Y-75920600D03*
X178786699Y-59457499D03*
X187960000Y-146507200D03*
X192786000Y-135509000D03*
X192786000Y-132080000D03*
X185039000Y-132080000D03*
X185039000Y-133604000D03*
X184941259Y-129762216D03*
X184912000Y-128270000D03*
X184912000Y-126492000D03*
X194564000Y-124536200D03*
X197104000Y-125704600D03*
X193243200Y-123494800D03*
X193548000Y-119989600D03*
X184785000Y-124714000D03*
X184658000Y-120396000D03*
X184658000Y-118999000D03*
X185420000Y-113538000D03*
X185267600Y-103886000D03*
X178308000Y-105765600D03*
X185267600Y-102489000D03*
X178257200Y-102717600D03*
D31*
X117398800Y-84378800D03*
D32*
X145262600Y-116230400D03*
X145262600Y-130454400D03*
X145262600Y-123342400D03*
D17*
X140233400Y-94589600D03*
X140462000Y-69494400D03*
X164693600Y-93319600D03*
X172643800Y-68351400D03*
X192530500Y-118160800D03*
X119989600Y-121742200D03*
X192963800Y-90093800D03*
X127076200Y-118135400D03*
X129184400Y-122580400D03*
X127431800Y-122504200D03*
X173253400Y-97129600D03*
D33*
X190500000Y-90102081D02*
X190500000Y-91440000D01*
X190500000Y-88900000D02*
X190500000Y-90102081D01*
X184643800Y-95681800D02*
X184643800Y-96951800D01*
X184643800Y-96951800D02*
X184643800Y-98221800D01*
X184643800Y-98221800D02*
X184643800Y-99491800D01*
X185166000Y-93980000D02*
X187960000Y-93980000D01*
X184643800Y-94502200D02*
X185166000Y-93980000D01*
X179323090Y-97851090D02*
X178369090Y-97851090D01*
X179693800Y-98221800D02*
X179323090Y-97851090D01*
X178369090Y-97851090D02*
X178104800Y-97586800D01*
X178104800Y-97586800D02*
X178104800Y-95199200D01*
X178576200Y-94727800D02*
X184643800Y-94727800D01*
X178104800Y-95199200D02*
X178576200Y-94727800D01*
X184643800Y-95681800D02*
X184643800Y-94727800D01*
X184643800Y-94727800D02*
X184643800Y-94502200D01*
D34*
X117030000Y-134315200D02*
X119151320Y-134315200D01*
X119151320Y-134315200D02*
X126796800Y-134315200D01*
D33*
X194665600Y-115900200D02*
X194665600Y-110998000D01*
X194665600Y-110998000D02*
X195961000Y-109702600D01*
X121920000Y-106680000D02*
X122301000Y-106680000D01*
X122301000Y-106680000D02*
X123571000Y-105410000D01*
X123571000Y-105410000D02*
X125374400Y-105410000D01*
X125374400Y-105410000D02*
X126238000Y-104546400D01*
X126238000Y-104546400D02*
X126873000Y-103911400D01*
X126873000Y-103911400D02*
X127939800Y-103911400D01*
X127939800Y-103911400D02*
X128473200Y-104444800D01*
X128473200Y-104444800D02*
X128473200Y-109067600D01*
X127254000Y-112065000D02*
X127254000Y-112852200D01*
X131218000Y-101090400D02*
X132159200Y-101090400D01*
X127254000Y-106425800D02*
X127254000Y-105054400D01*
X125916281Y-106425800D02*
X127254000Y-106425800D01*
X124460000Y-106680000D02*
X125662081Y-106680000D01*
X125662081Y-106680000D02*
X125916281Y-106425800D01*
X127254000Y-91109900D02*
X127254000Y-91647400D01*
X127254000Y-91647400D02*
X127254000Y-92329000D01*
X120472200Y-102692200D02*
X121920000Y-104140000D01*
X120472200Y-91287600D02*
X120472200Y-102692200D01*
X120624600Y-91135200D02*
X120472200Y-91287600D01*
X127254000Y-91109900D02*
X127228700Y-91135200D01*
X127228700Y-91135200D02*
X120624600Y-91135200D01*
X127304600Y-84328000D02*
X127304800Y-84327800D01*
X127304800Y-84327800D02*
X127304800Y-83058000D01*
X127051000Y-84074000D02*
X127304800Y-84327800D01*
X126568200Y-82321400D02*
X127304800Y-83058000D01*
X119684800Y-82981800D02*
X120345200Y-82321400D01*
X124180600Y-104419400D02*
X123516502Y-104419400D01*
X120345200Y-82321400D02*
X126568200Y-82321400D01*
X124460000Y-104140000D02*
X124180600Y-104419400D01*
X123516502Y-104419400D02*
X122528401Y-105407501D01*
X122528401Y-105407501D02*
X120901501Y-105407501D01*
X120901501Y-105407501D02*
X119684800Y-104190800D01*
X119684800Y-104190800D02*
X119684800Y-82981800D01*
D35*
X149326600Y-119811900D02*
X150876100Y-119811900D01*
X150876100Y-119811900D02*
X151358600Y-120294400D01*
X151358600Y-120294400D02*
X151358600Y-122046900D01*
D36*
X148539100Y-125094900D02*
X147802600Y-125094900D01*
X150342600Y-126898400D02*
X148539100Y-125094900D01*
X152095100Y-122046900D02*
X151358600Y-122046900D01*
X150342600Y-126898400D02*
X150942599Y-126298401D01*
X152628600Y-122580400D02*
X152095100Y-122046900D01*
X152628600Y-125628400D02*
X152628600Y-122580400D01*
X151958599Y-126298401D02*
X152628600Y-125628400D01*
X150942599Y-126298401D02*
X151958599Y-126298401D01*
D34*
X117030000Y-126695200D02*
X117805200Y-126695200D01*
X117805200Y-126695200D02*
X118313200Y-127203200D01*
D35*
X165227100Y-132257800D02*
X165201700Y-132232400D01*
X166750900Y-132257800D02*
X165227100Y-132257800D01*
X165201700Y-131657400D02*
X164896800Y-131352500D01*
X165201700Y-132232400D02*
X165201700Y-131657400D01*
X164896800Y-131352500D02*
X164896800Y-126949200D01*
X174497800Y-132283200D02*
X172999500Y-132283200D01*
X172999500Y-132283200D02*
X172999500Y-127203300D01*
D34*
X123073328Y-67259200D02*
X123276528Y-67462400D01*
X122224800Y-67259200D02*
X123073328Y-67259200D01*
X123276528Y-67462400D02*
X129565400Y-67462400D01*
X129565400Y-67462400D02*
X135407400Y-61620400D01*
X135407400Y-60540298D02*
X137045098Y-58902600D01*
X135407400Y-61620400D02*
X135407400Y-60540298D01*
X146227800Y-59283600D02*
X147193000Y-60248800D01*
X146227800Y-58902600D02*
X146227800Y-59283600D01*
X146227800Y-58902600D02*
X147269200Y-58902600D01*
X137045098Y-58902600D02*
X146227800Y-58902600D01*
X147269200Y-58902600D02*
X148117728Y-58902600D01*
X170840400Y-58902600D02*
X172669200Y-60731400D01*
X169341800Y-59105800D02*
X170942000Y-60706000D01*
X169341800Y-58902600D02*
X169341800Y-59105800D01*
X169341800Y-58902600D02*
X170840400Y-58902600D01*
X122936000Y-67462400D02*
X123276528Y-67462400D01*
X122174000Y-68224400D02*
X122936000Y-67462400D01*
X167614600Y-58902600D02*
X169341800Y-58902600D01*
X148117728Y-58902600D02*
X167614600Y-58902600D01*
D37*
X167614600Y-58902600D02*
X167614600Y-82702400D01*
X167614600Y-82702400D02*
X168529000Y-82702400D01*
D38*
X167614600Y-101498400D02*
X167411400Y-101701600D01*
X167817800Y-100584000D02*
X168783000Y-101549200D01*
X167614600Y-100584000D02*
X167817800Y-100584000D01*
X167614600Y-100584000D02*
X167614600Y-101498400D01*
X167614600Y-82702400D02*
X167614600Y-100584000D01*
D35*
X172999500Y-127142172D02*
X172999500Y-127203300D01*
X172781128Y-126923800D02*
X172999500Y-127142172D01*
X171932600Y-126923800D02*
X172781128Y-126923800D01*
X164922200Y-126923800D02*
X164896800Y-126949200D01*
X164922200Y-126034800D02*
X164922200Y-126923800D01*
D34*
X124460000Y-83464400D02*
X124460000Y-86360000D01*
D35*
X124460000Y-86360000D02*
X121920000Y-86360000D01*
D39*
X197739000Y-111506000D02*
X197739000Y-115824000D01*
X201015600Y-108229400D02*
X197739000Y-111506000D01*
X197739000Y-115824000D02*
X196951600Y-115824000D01*
X196951600Y-115824000D02*
X195884800Y-116890800D01*
D35*
X174082200Y-129641600D02*
X174082200Y-127288800D01*
X174082200Y-127288800D02*
X174082200Y-125663200D01*
X169688000Y-128741600D02*
X169697400Y-128732200D01*
X169688000Y-129641600D02*
X169688000Y-128741600D01*
X169697400Y-128732200D02*
X169697400Y-126263400D01*
X169697400Y-126263400D02*
X169697400Y-125603000D01*
X166182800Y-129641600D02*
X166182800Y-126222000D01*
X166182800Y-126222000D02*
X167741600Y-124663200D01*
X167741600Y-124663200D02*
X167741600Y-123418600D01*
X161636200Y-128690800D02*
X161620200Y-128674800D01*
X161636200Y-129590800D02*
X161636200Y-128690800D01*
X161620200Y-128674800D02*
X161620200Y-126390400D01*
D40*
X114380799Y-111869201D02*
X114380799Y-119714799D01*
X117080800Y-109169200D02*
X115893600Y-110356400D01*
X114380799Y-119714799D02*
X119583200Y-124917200D01*
X119583200Y-124917200D02*
X127203200Y-124917200D01*
X115258600Y-110991400D02*
X114380799Y-111869201D01*
X115893600Y-110356400D02*
X115258600Y-110991400D01*
X117080800Y-109169200D02*
X118567200Y-109169200D01*
X118567200Y-109169200D02*
X118567200Y-109169200D01*
D34*
X115722400Y-95707200D02*
X111099600Y-100330000D01*
X111099600Y-124020802D02*
X116212398Y-129133600D01*
X111099600Y-100330000D02*
X111099600Y-124020802D01*
X116212398Y-129133600D02*
X127050800Y-129133600D01*
D40*
X115722400Y-95707200D02*
X117195600Y-95707200D01*
D33*
X121920000Y-116840000D02*
X122584098Y-116840000D01*
X121920000Y-116840000D02*
X119862600Y-114782600D01*
X119862600Y-114782600D02*
X119862600Y-110566200D01*
X120015000Y-109190902D02*
X120015000Y-107950000D01*
X121070001Y-110245903D02*
X120015000Y-109190902D01*
X121920000Y-111760000D02*
X121070001Y-110910001D01*
X121070001Y-110910001D02*
X121070001Y-110245903D01*
X128104189Y-96227085D02*
X129064984Y-95266290D01*
X128104189Y-98032011D02*
X128104189Y-96227085D01*
X125808699Y-100327501D02*
X128104189Y-98032011D01*
X121920000Y-101600000D02*
X123192499Y-100327501D01*
X123192499Y-100327501D02*
X125808699Y-100327501D01*
X129064984Y-95266290D02*
X131530310Y-95266290D01*
X134965086Y-95266290D02*
X136118600Y-94112776D01*
X131530310Y-95266290D02*
X134965086Y-95266290D01*
X136118600Y-94112776D02*
X136118600Y-87401400D01*
X136118600Y-87401400D02*
X136601200Y-86918800D01*
X136601200Y-86918800D02*
X140284200Y-86918800D01*
X140284200Y-86918800D02*
X140309600Y-86893400D01*
D35*
X134112000Y-151130000D02*
X137160000Y-151130000D01*
D33*
X180064510Y-99862510D02*
X180837710Y-99862510D01*
X179693800Y-99491800D02*
X180064510Y-99862510D01*
X180837710Y-99862510D02*
X180837710Y-102820712D01*
X181801398Y-103784400D02*
X183083200Y-103784400D01*
X183083200Y-103784400D02*
X183642000Y-104343200D01*
X183421200Y-110185200D02*
X182321200Y-110185200D01*
X183642000Y-109964400D02*
X183421200Y-110185200D01*
X183642000Y-104343200D02*
X183642000Y-109964400D01*
X127254000Y-109220000D02*
X127254000Y-108000800D01*
X127254000Y-109220000D02*
X127254000Y-110490000D01*
X127254000Y-109220000D02*
X126288800Y-109220000D01*
X127254000Y-89534900D02*
X127254000Y-88997400D01*
X127254000Y-88997400D02*
X127254000Y-87884000D01*
X127254000Y-85953600D02*
X127304800Y-85902800D01*
X127254000Y-87884000D02*
X127254000Y-85953600D01*
X179693800Y-101077600D02*
X179628800Y-101142600D01*
X179693800Y-99491800D02*
X179693800Y-101077600D01*
X181299299Y-103282301D02*
X181801398Y-103784400D01*
X180837710Y-102820712D02*
X181299299Y-103282301D01*
X180568700Y-104216100D02*
X179628800Y-104216100D01*
X181299299Y-103282301D02*
X181299299Y-103485501D01*
X181299299Y-103485501D02*
X180568700Y-104216100D01*
X126678081Y-87884000D02*
X127254000Y-87884000D01*
X125662081Y-88900000D02*
X126678081Y-87884000D01*
X124460000Y-88900000D02*
X125662081Y-88900000D01*
X126288800Y-109220000D02*
X124460000Y-109220000D01*
X190855600Y-86360000D02*
X190500000Y-86360000D01*
X194030600Y-89535000D02*
X190855600Y-86360000D01*
D35*
X124460000Y-88900000D02*
X121920000Y-88900000D01*
D33*
X194030600Y-89535000D02*
X194030600Y-91287600D01*
D35*
X171272699Y-79085201D02*
X173594498Y-81407000D01*
X171272699Y-77977501D02*
X171272699Y-79085201D01*
X171500800Y-74625200D02*
X171500800Y-77749400D01*
X171500800Y-77749400D02*
X171272699Y-77977501D01*
X173594498Y-81407000D02*
X176606200Y-81407000D01*
X176606200Y-81407000D02*
X178435000Y-79578200D01*
X178435000Y-79578200D02*
X186512200Y-79578200D01*
X187960000Y-81026000D02*
X187960000Y-83820000D01*
X186512200Y-79578200D02*
X187960000Y-81026000D01*
X187960000Y-83820000D02*
X190500000Y-83820000D01*
X169976800Y-81309900D02*
X169976800Y-100711000D01*
X169976800Y-100711000D02*
X170357800Y-101092000D01*
X179451200Y-100965000D02*
X179628800Y-101142600D01*
X177825400Y-100965000D02*
X179451200Y-100965000D01*
D33*
X198094600Y-108407200D02*
X194233800Y-108407200D01*
X194233800Y-108407200D02*
X193167000Y-109474000D01*
X193167000Y-109474000D02*
X193167000Y-116992400D01*
X193167000Y-116992400D02*
X199593200Y-123418600D01*
X199593200Y-123418600D02*
X199593200Y-125806200D01*
D36*
X145930001Y-154820001D02*
X144780000Y-153670000D01*
X145930001Y-156964999D02*
X145930001Y-154820001D01*
D33*
X118922800Y-150444200D02*
X117805200Y-151561800D01*
X123113800Y-150444200D02*
X118922800Y-150444200D01*
X124460000Y-142240000D02*
X124460000Y-149098000D01*
X124460000Y-149098000D02*
X123113800Y-150444200D01*
X129459382Y-138442699D02*
X129459382Y-136808818D01*
X124460000Y-142240000D02*
X125662081Y-142240000D01*
X125662081Y-142240000D02*
X129459382Y-138442699D01*
X139395200Y-110403472D02*
X142138400Y-107660272D01*
X139395200Y-111252000D02*
X139395200Y-110403472D01*
X142138400Y-107660272D02*
X142138400Y-95885000D01*
X142138400Y-95885000D02*
X142138400Y-70916800D01*
X147320000Y-149927919D02*
X147320000Y-151130000D01*
X144966081Y-147574000D02*
X147320000Y-149927919D01*
X143256000Y-147574000D02*
X144966081Y-147574000D01*
X121920000Y-147751800D02*
X121920000Y-142240000D01*
X117932200Y-149021800D02*
X120650000Y-149021800D01*
X120650000Y-149021800D02*
X121920000Y-147751800D01*
X143256000Y-146725472D02*
X141589928Y-145059400D01*
X143256000Y-147574000D02*
X143256000Y-146725472D01*
X141589928Y-145059400D02*
X131724400Y-145059400D01*
X131724400Y-145059400D02*
X130987800Y-144322800D01*
X130987800Y-144322800D02*
X130987800Y-139623800D01*
X130987800Y-139623800D02*
X132080000Y-138531600D01*
X132080000Y-138531600D02*
X132080000Y-136728200D01*
X142671800Y-111353600D02*
X144173402Y-109851998D01*
X144173402Y-109851998D02*
X144173402Y-90801998D01*
X144173402Y-65789002D02*
X144197300Y-65789002D01*
X144173402Y-90801998D02*
X144173402Y-65789002D01*
X119888000Y-139700000D02*
X121920000Y-139700000D01*
X116789200Y-142798800D02*
X119888000Y-139700000D01*
X118059200Y-146481800D02*
X116789200Y-145211800D01*
X116789200Y-145211800D02*
X116789200Y-142798800D01*
X118907728Y-144957800D02*
X119847528Y-144018000D01*
X118059200Y-144957800D02*
X118907728Y-144957800D01*
X119847528Y-144018000D02*
X119847528Y-142229672D01*
X119847528Y-142229672D02*
X121107200Y-140970000D01*
X121107200Y-140970000D02*
X125171200Y-140970000D01*
X125171200Y-140970000D02*
X125882400Y-140258800D01*
X125882400Y-138582400D02*
X124460000Y-137160000D01*
X125882400Y-140258800D02*
X125882400Y-138582400D01*
X192186001Y-136814001D02*
X192786000Y-137414000D01*
X191264499Y-135892499D02*
X192186001Y-136814001D01*
X189227501Y-135892499D02*
X191264499Y-135892499D01*
X187960000Y-137160000D02*
X189227501Y-135892499D01*
X124460000Y-114300000D02*
X125018800Y-114300000D01*
X125018800Y-114300000D02*
X126619000Y-115900200D01*
X126619000Y-115900200D02*
X129387600Y-115900200D01*
X130621599Y-117134199D02*
X137475401Y-117134199D01*
X129387600Y-115900200D02*
X130621599Y-117134199D01*
X130962400Y-116433600D02*
X137591800Y-116433600D01*
X129590800Y-115062000D02*
X130962400Y-116433600D01*
X127190674Y-115062000D02*
X129590800Y-115062000D01*
X125161173Y-113032499D02*
X127190674Y-115062000D01*
X123187501Y-113032499D02*
X125161173Y-113032499D01*
X121920000Y-114300000D02*
X123187501Y-113032499D01*
X134010400Y-114630200D02*
X135128000Y-115747800D01*
X134010400Y-111023400D02*
X134010400Y-114630200D01*
X124460000Y-111760000D02*
X125730000Y-111760000D01*
X135128000Y-115747800D02*
X137464800Y-115747800D01*
X128646699Y-110349203D02*
X129264251Y-109731651D01*
X128646699Y-112965403D02*
X128646699Y-110349203D01*
X127742401Y-113869701D02*
X128646699Y-112965403D01*
X126765599Y-113869701D02*
X127742401Y-113869701D01*
X125730000Y-111760000D02*
X125730000Y-112834102D01*
X125730000Y-112834102D02*
X126765599Y-113869701D01*
X132718651Y-109731651D02*
X134010400Y-111023400D01*
X129264251Y-109731651D02*
X132718651Y-109731651D01*
X160172400Y-153822400D02*
X160020000Y-153670000D01*
X160172400Y-156413200D02*
X160172400Y-153822400D01*
X124299800Y-93040200D02*
X125145800Y-93040200D01*
X121920000Y-96520000D02*
X121920000Y-95420000D01*
X121920000Y-95420000D02*
X124299800Y-93040200D01*
X133512728Y-82194400D02*
X135185980Y-80521148D01*
X132664200Y-82194400D02*
X133512728Y-82194400D01*
X135185980Y-70709494D02*
X135185982Y-70709492D01*
X135185980Y-80521148D02*
X135185980Y-70709494D01*
X137045199Y-61997499D02*
X140204099Y-61997499D01*
X136386099Y-62656599D02*
X137045199Y-61997499D01*
X135185982Y-70709492D02*
X136386099Y-69509375D01*
X136386099Y-69509375D02*
X136386099Y-62656599D01*
X128615556Y-94181270D02*
X133273800Y-94181270D01*
X125004327Y-97792499D02*
X128615556Y-94181270D01*
X121920000Y-99060000D02*
X123187501Y-97792499D01*
X123187501Y-97792499D02*
X125004327Y-97792499D01*
X134012330Y-94181270D02*
X135033580Y-93160020D01*
X133273800Y-94181270D02*
X134012330Y-94181270D01*
X135042690Y-84514910D02*
X135042690Y-82863910D01*
X135033580Y-93160020D02*
X135033580Y-84524020D01*
X135033580Y-84524020D02*
X135042690Y-84514910D01*
X135042690Y-82863910D02*
X136271000Y-81635600D01*
X136271000Y-78011698D02*
X137092098Y-77190600D01*
X136271000Y-81635600D02*
X136271000Y-78011698D01*
X137092098Y-77190600D02*
X140512800Y-77190600D01*
X124460000Y-99060000D02*
X126034800Y-99060000D01*
X126034800Y-99060000D02*
X127561679Y-97533121D01*
X128840270Y-94723780D02*
X131305596Y-94723780D01*
X127561679Y-97533121D02*
X127561679Y-96002371D01*
X127561679Y-96002371D02*
X128840270Y-94723780D01*
X134257220Y-94723780D02*
X135576090Y-93404910D01*
X131305596Y-94723780D02*
X134257220Y-94723780D01*
X135576090Y-87176686D02*
X135585200Y-87167576D01*
X135576090Y-93404910D02*
X135576090Y-87176686D01*
X135585200Y-87167576D02*
X135585200Y-84201000D01*
X135585200Y-84201000D02*
X137668000Y-82118200D01*
X137668000Y-82118200D02*
X137668000Y-81051400D01*
X149098000Y-148336000D02*
X151841200Y-148336000D01*
X152400000Y-148894800D02*
X152400000Y-151130000D01*
X151841200Y-148336000D02*
X152400000Y-148894800D01*
X146470001Y-152820001D02*
X147320000Y-153670000D01*
X146052499Y-152402499D02*
X146470001Y-152820001D01*
X146052499Y-150526597D02*
X146052499Y-152402499D01*
X144303381Y-148777479D02*
X146052499Y-150526597D01*
X141792479Y-148777479D02*
X144303381Y-148777479D01*
X140335000Y-147320000D02*
X141792479Y-148777479D01*
X149010001Y-150280001D02*
X149010001Y-150026001D01*
X149860000Y-151130000D02*
X149010001Y-150280001D01*
X149010001Y-150026001D02*
X144703800Y-145719800D01*
X144703800Y-145719800D02*
X144703800Y-139852400D01*
X144703800Y-139852400D02*
X144095700Y-139244300D01*
X144095700Y-139244300D02*
X137795000Y-139244300D01*
X137541000Y-146598472D02*
X137541000Y-147447000D01*
X136773038Y-145830510D02*
X137541000Y-146598472D01*
X117932200Y-154101800D02*
X120497600Y-151536400D01*
X137541000Y-147447000D02*
X139413989Y-149319989D01*
X142969989Y-149319989D02*
X144780000Y-151130000D01*
X139413989Y-149319989D02*
X142969989Y-149319989D01*
X120497600Y-151536400D02*
X126060200Y-151536400D01*
X131766090Y-145830510D02*
X136773038Y-145830510D01*
X126060200Y-151536400D02*
X129324100Y-148272500D01*
X130747754Y-137026348D02*
X130747754Y-136055386D01*
X130175000Y-137599102D02*
X130747754Y-137026348D01*
X130175000Y-147421600D02*
X130175000Y-137599102D01*
X130175000Y-147421600D02*
X131766090Y-145830510D01*
X129324100Y-148272500D02*
X130175000Y-147421600D01*
X143155901Y-109116899D02*
X143155901Y-88266501D01*
X140995400Y-111277400D02*
X143155901Y-109116899D01*
X143155901Y-87417973D02*
X143179800Y-87394074D01*
X143155901Y-88266501D02*
X143155901Y-87417973D01*
X143179800Y-87394074D02*
X143179800Y-63271400D01*
D36*
X142240000Y-150368000D02*
X142240000Y-151130000D01*
D33*
X141390001Y-150280001D02*
X142240000Y-151130000D01*
X140972499Y-149862499D02*
X141390001Y-150280001D01*
X137837971Y-149862499D02*
X140972499Y-149862499D01*
X136144000Y-148168528D02*
X137837971Y-149862499D01*
X136144000Y-147320000D02*
X136144000Y-148168528D01*
D36*
X143764000Y-157058528D02*
X144947472Y-158242000D01*
X143764000Y-156210000D02*
X143764000Y-157058528D01*
X144947472Y-158242000D02*
X174117000Y-158242000D01*
X174117000Y-158242000D02*
X175260000Y-157099000D01*
X175260000Y-157099000D02*
X175260000Y-153670000D01*
D33*
X132715000Y-148295528D02*
X132715000Y-147447000D01*
X132715000Y-151238902D02*
X132715000Y-148295528D01*
X136413599Y-154937501D02*
X132715000Y-151238902D01*
X142174580Y-154937501D02*
X136413599Y-154937501D01*
X142240000Y-154872081D02*
X142174580Y-154937501D01*
X142240000Y-153670000D02*
X142240000Y-154872081D01*
X188563403Y-115572499D02*
X186611301Y-115572499D01*
X190500000Y-114300000D02*
X189835902Y-114300000D01*
X189835902Y-114300000D02*
X188563403Y-115572499D01*
X186611301Y-115572499D02*
X185724800Y-116459000D01*
X179565839Y-112944310D02*
X171415110Y-112944310D01*
X185724800Y-116459000D02*
X183080529Y-116459000D01*
X183080529Y-116459000D02*
X179565839Y-112944310D01*
X171415110Y-112944310D02*
X167792400Y-109321600D01*
X167792400Y-109321600D02*
X167792400Y-106654600D01*
X167792400Y-106654600D02*
X165220903Y-104083103D01*
X165220903Y-104083103D02*
X164693600Y-104083103D01*
X186757919Y-111760000D02*
X186122919Y-112395000D01*
X187960000Y-111760000D02*
X186757919Y-111760000D01*
X186122919Y-112395000D02*
X184962800Y-112395000D01*
X184962800Y-112395000D02*
X183667400Y-113690400D01*
X183667400Y-113690400D02*
X181079153Y-113690400D01*
X173948052Y-106559299D02*
X173945499Y-106559299D01*
X181079153Y-113690400D02*
X173948052Y-106559299D01*
X173945499Y-106559299D02*
X172974000Y-105587800D01*
X172974000Y-105587800D02*
X167690800Y-105587800D01*
X167690800Y-105587800D02*
X164693600Y-102590600D01*
X187960000Y-106680000D02*
X186204788Y-108435212D01*
X186204788Y-109618564D02*
X183428352Y-112395000D01*
X186204788Y-108435212D02*
X186204788Y-109618564D01*
X183428352Y-112395000D02*
X181318201Y-112395000D01*
X173368001Y-104444800D02*
X168082248Y-104444800D01*
X181318201Y-112395000D02*
X173368001Y-104444800D01*
X168082248Y-104444800D02*
X166253611Y-102616163D01*
X166253611Y-102616163D02*
X166253611Y-87158011D01*
X166253611Y-87158011D02*
X164820600Y-85725000D01*
X167640000Y-151130000D02*
X167640000Y-149927919D01*
X167640000Y-149927919D02*
X167640000Y-148229401D01*
X167640000Y-151130000D02*
X167640000Y-148640800D01*
X170180000Y-151130000D02*
X170180000Y-148463000D01*
X171297600Y-146202400D02*
X171297600Y-146075500D01*
X162636100Y-146075500D02*
X171297600Y-146075500D01*
X161292499Y-147419101D02*
X162636100Y-146075500D01*
X161292499Y-152402499D02*
X161292499Y-147419101D01*
X162560000Y-153670000D02*
X161292499Y-152402499D01*
X157480000Y-148971000D02*
X158470600Y-147980400D01*
X157480000Y-151130000D02*
X157480000Y-148971000D01*
X172872400Y-146685000D02*
X172872400Y-143002200D01*
X166372499Y-148402399D02*
X167454898Y-147320000D01*
X165100000Y-153670000D02*
X166372499Y-152397501D01*
X166372499Y-152397501D02*
X166372499Y-148402399D01*
X172237400Y-147320000D02*
X172872400Y-146685000D01*
X167454898Y-147320000D02*
X172237400Y-147320000D01*
X162560000Y-149927919D02*
X162560000Y-148539200D01*
X162560000Y-151130000D02*
X162560000Y-149927919D01*
X174447200Y-146964400D02*
X174447200Y-146075500D01*
X171452499Y-149959101D02*
X174447200Y-146964400D01*
X171452499Y-151738401D02*
X171452499Y-149959101D01*
X170793399Y-152397501D02*
X171452499Y-151738401D01*
X168912499Y-152397501D02*
X170793399Y-152397501D01*
X167640000Y-153670000D02*
X168912499Y-152397501D01*
X175082300Y-149453600D02*
X176022000Y-148513900D01*
X174548800Y-149453600D02*
X175082300Y-149453600D01*
X173992499Y-150009901D02*
X174548800Y-149453600D01*
X173992499Y-152041901D02*
X173992499Y-150009901D01*
X173636899Y-152397501D02*
X173992499Y-152041901D01*
X172116597Y-152397501D02*
X173636899Y-152397501D01*
X170844098Y-153670000D02*
X172116597Y-152397501D01*
X170180000Y-153670000D02*
X170844098Y-153670000D01*
X160020000Y-148107400D02*
X160070800Y-148056600D01*
X160020000Y-151130000D02*
X160020000Y-148107400D01*
X165100000Y-151130000D02*
X165100000Y-148361400D01*
X189227501Y-95252499D02*
X191488101Y-95252499D01*
X187960000Y-96520000D02*
X189227501Y-95252499D01*
X192481200Y-94259400D02*
X192862200Y-94259400D01*
X191488101Y-95252499D02*
X192481200Y-94259400D01*
X192862200Y-94259400D02*
X195048101Y-92073499D01*
X195048101Y-92073499D02*
X195707000Y-91414600D01*
X195707000Y-91414600D02*
X195707000Y-81559400D01*
X195707000Y-81559400D02*
X192684400Y-78536800D01*
X192684400Y-78536800D02*
X177673000Y-78536800D01*
X177673000Y-78536800D02*
X175844200Y-80365600D01*
X175844200Y-80365600D02*
X174244000Y-80365600D01*
X174244000Y-80365600D02*
X172415200Y-78536800D01*
X190500000Y-96520000D02*
X191702081Y-96520000D01*
X191702081Y-96520000D02*
X191820800Y-96520000D01*
X191820800Y-96520000D02*
X196596000Y-91744800D01*
X196596000Y-91744800D02*
X196596000Y-79603600D01*
X173955701Y-77232501D02*
X172643800Y-75920600D01*
X196596000Y-79603600D02*
X194224901Y-77232501D01*
X194224901Y-77232501D02*
X173955701Y-77232501D01*
X200137510Y-91298392D02*
X200137510Y-80808310D01*
X191108401Y-100327501D02*
X200137510Y-91298392D01*
X187960000Y-99060000D02*
X189227501Y-100327501D01*
X189227501Y-100327501D02*
X191108401Y-100327501D01*
X200137510Y-80808310D02*
X178786699Y-59457499D01*
X189230000Y-138430000D02*
X190500000Y-137160000D01*
X189230000Y-143510000D02*
X189230000Y-138430000D01*
X187960000Y-146507200D02*
X187960000Y-144780000D01*
X187960000Y-144780000D02*
X189230000Y-143510000D01*
D36*
X187960000Y-134620000D02*
X188341000Y-134620000D01*
D33*
X192786000Y-134660472D02*
X192786000Y-135509000D01*
X191478027Y-133352499D02*
X192786000Y-134660472D01*
X189891599Y-133352499D02*
X191478027Y-133352499D01*
X188624098Y-134620000D02*
X189891599Y-133352499D01*
X187960000Y-134620000D02*
X188624098Y-134620000D01*
D35*
X192786000Y-132080000D02*
X190500000Y-132080000D01*
D33*
X186757919Y-132080000D02*
X185039000Y-132080000D01*
X187960000Y-132080000D02*
X186757919Y-132080000D01*
X185887528Y-133604000D02*
X185039000Y-133604000D01*
X186139029Y-133352499D02*
X185887528Y-133604000D01*
X188563403Y-133352499D02*
X186139029Y-133352499D01*
X189227501Y-132688401D02*
X188563403Y-133352499D01*
X189227501Y-130812499D02*
X189227501Y-132688401D01*
X190500000Y-129540000D02*
X189227501Y-130812499D01*
X187960000Y-129540000D02*
X185674000Y-129540000D01*
D36*
X185451784Y-129762216D02*
X185674000Y-129540000D01*
X184941259Y-129762216D02*
X185451784Y-129762216D01*
D33*
X189230000Y-128270000D02*
X184912000Y-128270000D01*
X190500000Y-127000000D02*
X189230000Y-128270000D01*
X185420000Y-127000000D02*
X187960000Y-127000000D01*
X184912000Y-126492000D02*
X185420000Y-127000000D01*
X193715472Y-124536200D02*
X194564000Y-124536200D01*
X191778281Y-124536200D02*
X193715472Y-124536200D01*
X191702081Y-124460000D02*
X191778281Y-124536200D01*
X190500000Y-124460000D02*
X191702081Y-124460000D01*
X189227501Y-125727501D02*
X192066971Y-125727501D01*
X187960000Y-124460000D02*
X189227501Y-125727501D01*
X192066971Y-125727501D02*
X197081099Y-125727501D01*
X197081099Y-125727501D02*
X197104000Y-125704600D01*
X190500000Y-121920000D02*
X191349999Y-122769999D01*
X191349999Y-122769999D02*
X192074800Y-123494800D01*
X192074800Y-123494800D02*
X193243200Y-123494800D01*
X187960000Y-121920000D02*
X189230000Y-120650000D01*
X189230000Y-120650000D02*
X192887600Y-120650000D01*
X192887600Y-120650000D02*
X193548000Y-119989600D01*
X184785000Y-122555000D02*
X187960000Y-119380000D01*
X184785000Y-124714000D02*
X184785000Y-122555000D01*
D36*
X184658000Y-120396000D02*
X184912000Y-120396000D01*
D33*
X189650001Y-117689999D02*
X190500000Y-116840000D01*
X189232499Y-118107501D02*
X189650001Y-117689999D01*
X187298549Y-118107501D02*
X189232499Y-118107501D01*
X185010050Y-120396000D02*
X187298549Y-118107501D01*
X184658000Y-120396000D02*
X185010050Y-120396000D01*
X186817000Y-116840000D02*
X187960000Y-116840000D01*
X184658000Y-118999000D02*
X186817000Y-116840000D01*
D36*
X185420000Y-113538000D02*
X185547000Y-113538000D01*
D33*
X189650001Y-112609999D02*
X190500000Y-111760000D01*
X189232499Y-113027501D02*
X189650001Y-112609999D01*
X185930499Y-113027501D02*
X189232499Y-113027501D01*
X185420000Y-113538000D02*
X185930499Y-113027501D01*
X185267600Y-103886000D02*
X186283600Y-102870000D01*
X189230000Y-102870000D02*
X190500000Y-101600000D01*
X186283600Y-102870000D02*
X189230000Y-102870000D01*
X181432200Y-96951800D02*
X179693800Y-96951800D01*
X181914800Y-97434400D02*
X181432200Y-96951800D01*
X184302400Y-102920800D02*
X184302400Y-101549200D01*
X185267600Y-103886000D02*
X184302400Y-102920800D01*
X184302400Y-101549200D02*
X183896000Y-101142800D01*
X183896000Y-101142800D02*
X183083200Y-101142800D01*
X183083200Y-101142800D02*
X181914800Y-99974400D01*
X181914800Y-99974400D02*
X181914800Y-97434400D01*
X179053800Y-105791100D02*
X179028300Y-105765600D01*
X179628800Y-105791100D02*
X179053800Y-105791100D01*
X179028300Y-105765600D02*
X178308000Y-105765600D01*
X186757919Y-101600000D02*
X185741919Y-102616000D01*
X187960000Y-101600000D02*
X186757919Y-101600000D01*
X185741919Y-102616000D02*
X185267600Y-102616000D01*
X181432200Y-95681800D02*
X179693800Y-95681800D01*
X185267600Y-101244400D02*
X184353200Y-100330000D01*
X185267600Y-102616000D02*
X185267600Y-101244400D01*
X184353200Y-100330000D02*
X183489600Y-100330000D01*
X183489600Y-100330000D02*
X182676800Y-99517200D01*
X182676800Y-99517200D02*
X182676800Y-96926400D01*
X182676800Y-96926400D02*
X181432200Y-95681800D01*
X179628800Y-102717600D02*
X179053800Y-102717600D01*
X179053800Y-102717600D02*
X178257200Y-102717600D01*
D40*
X115874800Y-84378800D02*
X117398800Y-84378800D01*
X117398800Y-84378800D02*
X117398800Y-84378800D01*
D34*
X115988528Y-130606800D02*
X127050800Y-130606800D01*
X115847108Y-130606800D02*
X115988528Y-130606800D01*
X109474000Y-124233692D02*
X115847108Y-130606800D01*
X109474000Y-90779600D02*
X109474000Y-124233692D01*
X115874800Y-84378800D02*
X109474000Y-90779600D01*
D33*
X176056800Y-132299200D02*
X176072800Y-132283200D01*
X176056800Y-134874000D02*
X176056800Y-132299200D01*
X176072800Y-130601000D02*
X176082200Y-130591600D01*
X176072800Y-132283200D02*
X176072800Y-130601000D01*
X176022000Y-146938900D02*
X176022000Y-140208000D01*
X174056800Y-138242800D02*
X174056800Y-135824000D01*
X176022000Y-140208000D02*
X174056800Y-138242800D01*
X171424500Y-133249300D02*
X171424500Y-132283200D01*
X172399200Y-134874000D02*
X172399200Y-134224000D01*
X172399200Y-134224000D02*
X171424500Y-133249300D01*
X171688000Y-131444700D02*
X171688000Y-130591600D01*
X171424500Y-132283200D02*
X171424500Y-131708200D01*
X171424500Y-131708200D02*
X171688000Y-131444700D01*
X174447200Y-144500500D02*
X174447200Y-140766800D01*
X174447200Y-140766800D02*
X173558200Y-139877800D01*
X173558200Y-139877800D02*
X171526200Y-139877800D01*
X170399200Y-138750800D02*
X170399200Y-135824000D01*
X171526200Y-139877800D02*
X170399200Y-138750800D01*
X168792400Y-132724300D02*
X168325900Y-132257800D01*
X168792400Y-134924800D02*
X168792400Y-132724300D01*
X168325900Y-132257800D02*
X168325900Y-131495900D01*
X168182800Y-131352800D02*
X168182800Y-130591600D01*
X168325900Y-131495900D02*
X168182800Y-131352800D01*
X172872400Y-141427200D02*
X170180000Y-141427200D01*
X166792400Y-138039600D02*
X166792400Y-135874800D01*
X170180000Y-141427200D02*
X166792400Y-138039600D01*
X165185600Y-134274800D02*
X164338000Y-133427200D01*
X165185600Y-134924800D02*
X165185600Y-134274800D01*
X164338000Y-132943700D02*
X163626700Y-132232400D01*
X164338000Y-133427200D02*
X164338000Y-132943700D01*
X163626700Y-130550300D02*
X163636200Y-130540800D01*
X163626700Y-132232400D02*
X163626700Y-130550300D01*
X171297600Y-144500500D02*
X168147900Y-144500500D01*
X168147900Y-144500500D02*
X167208200Y-143560800D01*
X167208200Y-143560800D02*
X167208200Y-140690600D01*
X167208200Y-140690600D02*
X165531800Y-139014200D01*
X165531800Y-139014200D02*
X163855400Y-139014200D01*
X163185600Y-138344400D02*
X163185600Y-135874800D01*
X163855400Y-139014200D02*
X163185600Y-138344400D01*
D35*
X145754600Y-116722400D02*
X145262600Y-116230400D01*
X148818600Y-116722400D02*
X145754600Y-116722400D01*
X148818600Y-116722400D02*
X148818600Y-116738400D01*
X148818600Y-116738400D02*
X149326600Y-117246400D01*
X149326600Y-117246400D02*
X149326600Y-118236900D01*
D33*
X148264212Y-127131512D02*
X148289712Y-127131512D01*
X147802600Y-126669900D02*
X148264212Y-127131512D01*
X148289712Y-127131512D02*
X148818600Y-127660400D01*
X148818600Y-127660400D02*
X148818600Y-130438400D01*
X148802600Y-130454400D02*
X148818600Y-130438400D01*
X145262600Y-130454400D02*
X148802600Y-130454400D01*
D35*
X148802600Y-123342400D02*
X148818600Y-123326400D01*
X145262600Y-123342400D02*
X148802600Y-123342400D01*
X151063100Y-123326400D02*
X151358600Y-123621900D01*
X148818600Y-123326400D02*
X151063100Y-123326400D01*
D33*
X129289698Y-95808800D02*
X132816600Y-95808800D01*
X128646699Y-96451799D02*
X129289698Y-95808800D01*
X128646699Y-98615382D02*
X128646699Y-96451799D01*
X125662081Y-101600000D02*
X128646699Y-98615382D01*
X124460000Y-101600000D02*
X125662081Y-101600000D01*
X135189800Y-95808800D02*
X136383600Y-94615000D01*
X132816600Y-95808800D02*
X135189800Y-95808800D01*
X136383600Y-94615000D02*
X139395200Y-94615000D01*
X139395200Y-94615000D02*
X140208000Y-94615000D01*
X140208000Y-94615000D02*
X140233400Y-94589600D01*
X125528497Y-95670001D02*
X129504498Y-91694000D01*
X124460000Y-96520000D02*
X125309999Y-95670001D01*
X125309999Y-95670001D02*
X125528497Y-95670001D01*
X133400800Y-91694000D02*
X134491070Y-90603730D01*
X129504498Y-91694000D02*
X133400800Y-91694000D01*
X134491070Y-90603730D02*
X134491070Y-82591008D01*
X135728490Y-70934208D02*
X137168298Y-69494400D01*
X134491070Y-82591008D02*
X135728490Y-81353588D01*
X135728490Y-81353588D02*
X135728490Y-70934208D01*
X137168298Y-69494400D02*
X140462000Y-69494400D01*
X185727299Y-111452701D02*
X185137875Y-111452701D01*
X187960000Y-109220000D02*
X185727299Y-111452701D01*
X185137875Y-111452701D02*
X183442686Y-113147890D01*
X183442686Y-113147890D02*
X181303867Y-113147890D01*
X173201267Y-105045290D02*
X167915514Y-105045290D01*
X181303867Y-113147890D02*
X173201267Y-105045290D01*
X165711101Y-102840877D02*
X165711101Y-94413301D01*
X167915514Y-105045290D02*
X165711101Y-102840877D01*
X165711101Y-94413301D02*
X164693600Y-93395800D01*
X164693600Y-93395800D02*
X164693600Y-93319600D01*
X197352490Y-92207510D02*
X197352490Y-79090090D01*
X190500000Y-99060000D02*
X197352490Y-92207510D01*
X197352490Y-79090090D02*
X197352490Y-79064690D01*
X197352490Y-79090090D02*
X197352490Y-79013890D01*
X193036099Y-74697499D02*
X174247901Y-74697499D01*
X197352490Y-79013890D02*
X193036099Y-74697499D01*
X174247901Y-74697499D02*
X172643800Y-73093398D01*
X172643800Y-73093398D02*
X172643800Y-68351400D01*
X190500000Y-119380000D02*
X191719200Y-118160800D01*
X191719200Y-118160800D02*
X192530500Y-118160800D01*
X124460000Y-119380000D02*
X123610001Y-120229999D01*
X123284999Y-120555001D02*
X120275601Y-120555001D01*
X123610001Y-120229999D02*
X123284999Y-120555001D01*
X120275601Y-120555001D02*
X119989600Y-120841002D01*
X119989600Y-120841002D02*
X119989600Y-121742200D01*
X189230000Y-87630000D02*
X187960000Y-88900000D01*
X191160400Y-87630000D02*
X189230000Y-87630000D01*
X191160400Y-87630000D02*
X192963800Y-89433400D01*
X192963800Y-89433400D02*
X192963800Y-90093800D01*
X126227672Y-118135400D02*
X127076200Y-118135400D01*
X126204771Y-118112499D02*
X126227672Y-118135400D01*
X123187501Y-118112499D02*
X126204771Y-118112499D01*
X121920000Y-119380000D02*
X123187501Y-118112499D01*
X131230001Y-119469801D02*
X132080000Y-120319800D01*
X124460000Y-116840000D02*
X125272800Y-116840000D01*
X125662081Y-116840000D02*
X125941481Y-117119400D01*
X124460000Y-116840000D02*
X125662081Y-116840000D01*
X125941481Y-117119400D02*
X128574800Y-117119400D01*
X130925201Y-119469801D02*
X131230001Y-119469801D01*
X128574800Y-117119400D02*
X130925201Y-119469801D01*
X121920000Y-123122081D02*
X122140319Y-123342400D01*
X121920000Y-121920000D02*
X121920000Y-123122081D01*
X122140319Y-123342400D02*
X126593600Y-123342400D01*
X126593600Y-123342400D02*
X127431800Y-122504200D01*
X187356597Y-105407501D02*
X185623200Y-107140898D01*
X190500000Y-106680000D02*
X189227501Y-105407501D01*
X189227501Y-105407501D02*
X187356597Y-105407501D01*
X185623200Y-109423200D02*
X183193910Y-111852490D01*
X185623200Y-107140898D02*
X185623200Y-109423200D01*
X181542915Y-111852490D02*
X176301400Y-106610975D01*
X183193910Y-111852490D02*
X181542915Y-111852490D01*
X175462001Y-102237499D02*
X173733501Y-102237499D01*
X176301400Y-106610975D02*
X176301400Y-103076898D01*
X176301400Y-103076898D02*
X175462001Y-102237499D01*
X173733501Y-102237499D02*
X173304200Y-101808198D01*
X173304200Y-101808198D02*
X173304200Y-97180400D01*
X173304200Y-97180400D02*
X173253400Y-97129600D01*
M02*
